<svg width="1729" height="1132" viewBox="0 0 1729 1132" fill="none" xmlns="http://www.w3.org/2000/svg">
<path d="M1873.28 40.2473L1204.2 40.2474C994.882 40.2474 825.198 209.931 825.198 419.247L825.198 585.492L825.198 1130.74" stroke="url(#paint0_linear_5033_2640)" stroke-width="79"/>
<path d="M1874.29 119.785L1204.74 119.785C1039.05 119.785 904.737 254.099 904.737 419.785L904.737 1131.75" stroke="url(#paint1_linear_5033_2640)" stroke-width="79"/>
<path d="M-143 579L558 579C705.46 579 825 698.54 825 846L825 1129" stroke="url(#paint2_linear_5033_2640)" stroke-width="79"/>
<path d="M-144 499L559 499C750.091 499 905 653.909 905 845L905 1129" stroke="url(#paint3_linear_5033_2640)" stroke-width="79"/>
<defs>
<linearGradient id="paint0_linear_5033_2640" x1="1631.15" y1="18.7502" x2="974.189" y2="1037.93" gradientUnits="userSpaceOnUse">
<stop stop-color="#FFF6EB"/>
<stop offset="0.751924" stop-color="#FFCA8B"/>
</linearGradient>
<linearGradient id="paint1_linear_5033_2640" x1="904.737" y1="955.267" x2="1282.79" y2="-39.7414" gradientUnits="userSpaceOnUse">
<stop stop-color="#FFF6EB"/>
<stop offset="1" stop-color="#FFCA8B"/>
</linearGradient>
<linearGradient id="paint2_linear_5033_2640" x1="59.2537" y1="579" x2="279.575" y2="1296.42" gradientUnits="userSpaceOnUse">
<stop stop-color="#FFF6EB"/>
<stop offset="0.5" stop-color="#FFCA8B"/>
</linearGradient>
<linearGradient id="paint3_linear_5033_2640" x1="944.765" y1="820.774" x2="626.719" y2="199.082" gradientUnits="userSpaceOnUse">
<stop stop-color="#FFF6EB"/>
<stop offset="1" stop-color="#FFCA8B"/>
</linearGradient>
</defs>
</svg>
