<svg width="383" height="312" viewBox="0 0 383 312" fill="none" xmlns="http://www.w3.org/2000/svg">
<path d="M16.7061 16.7948H23.5676V67.9375H14.5133V32.7106H2.27582V25.9906L7.22739 25.5662C13.5937 25.0003 16.211 22.8075 16.7061 16.7948ZM47.6595 25.8491V17.1485H56.4309V25.8491H47.6595ZM56.2894 30.8007V67.9375H47.801V30.8007H56.2894ZM65.2089 67.9375V30.8007H73.6973V34.762C75.8194 32.2862 79.144 30.0933 83.9541 30.0933C91.7351 30.0933 96.4038 35.4693 96.4038 43.4626V67.9375H87.9154V45.9384C87.9154 41.3405 86.0762 38.0159 81.4076 38.0159C77.5878 38.0159 73.6973 40.8453 73.6973 46.1506V67.9375H65.2089ZM117.804 60.5809L130.536 50.1118C137.469 44.4529 143.693 39.4306 143.693 33.0643C143.693 27.8298 140.44 24.0807 135.064 24.0807C129.758 24.0807 126.292 28.2542 126.292 33.2765C126.292 34.9034 126.575 36.5304 127.141 38.0866H118.723C118.016 36.0352 117.804 34.6912 117.804 32.7813C117.804 23.2319 125.656 16.3704 135.276 16.3704C145.886 16.3704 152.677 22.9489 152.677 32.4984C152.677 41.482 145.886 47.6361 138.742 53.295L130.254 60.015H153.314V67.9375H117.804V60.5809Z" fill="#313131"/>
<circle cx="179.503" cy="223.17" r="11.085" transform="rotate(180 179.503 223.17)" fill="#D27402"/>
<circle cx="17.5425" cy="223.08" r="11.085" transform="rotate(180 17.5425 223.08)" fill="#D27402"/>
<circle cx="207.776" cy="223.17" r="11.085" transform="rotate(180 207.776 223.17)" fill="#D27402" fill-opacity="0.5"/>
<circle cx="44.9013" cy="223.08" r="11.085" transform="rotate(180 44.9013 223.08)" fill="#D27402"/>
<circle cx="234.946" cy="223.17" r="11.085" transform="rotate(180 234.946 223.17)" fill="#D27402" fill-opacity="0.5"/>
<circle cx="72.2608" cy="223.08" r="11.085" transform="rotate(180 72.2608 223.08)" fill="#D27402"/>
<circle cx="234.946" cy="196.283" r="11.085" transform="rotate(180 234.946 196.283)" fill="#D27402" fill-opacity="0.5"/>
<circle cx="207.776" cy="196.283" r="11.085" transform="rotate(180 207.776 196.283)" fill="#D27402" fill-opacity="0.5"/>
<circle cx="179.946" cy="196.283" r="11.085" transform="rotate(180 179.946 196.283)" fill="#D27402"/>
<circle cx="153.946" cy="196.283" r="11.085" transform="rotate(180 153.946 196.283)" fill="#D27402"/>
<circle cx="316.297" cy="196.283" r="11.085" transform="rotate(180 316.297 196.283)" fill="#D27402" fill-opacity="0.5"/>
<circle cx="234.946" cy="169.395" r="11.085" transform="rotate(180 234.946 169.395)" fill="#D27402" fill-opacity="0.5"/>
<circle cx="316.297" cy="169.395" r="11.085" transform="rotate(180 316.297 169.395)" fill="#D27402" fill-opacity="0.5"/>
<circle cx="261.579" cy="223.17" r="11.085" transform="rotate(180 261.579 223.17)" fill="#D27402" fill-opacity="0.5"/>
<circle cx="99.6189" cy="223.08" r="11.085" transform="rotate(180 99.6189 223.08)" fill="#D27402"/>
<circle cx="261.579" cy="196.283" r="11.085" transform="rotate(180 261.579 196.283)" fill="#D27402" fill-opacity="0.5"/>
<circle cx="99.6188" cy="196.193" r="11.085" transform="rotate(180 99.6188 196.193)" fill="#D27402"/>
<circle cx="71.9461" cy="196.193" r="11.085" transform="rotate(180 71.9461 196.193)" fill="#D27402"/>
<circle cx="44.9461" cy="196.193" r="11.085" transform="rotate(180 44.9461 196.193)" fill="#D27402"/>
<circle cx="17.9461" cy="196.193" r="11.085" transform="rotate(180 17.9461 196.193)" fill="#D27402"/>
<circle cx="288.937" cy="223.17" r="11.085" transform="rotate(180 288.937 223.17)" fill="#D27402" fill-opacity="0.5"/>
<circle cx="126.978" cy="223.08" r="11.085" transform="rotate(180 126.978 223.08)" fill="#D27402"/>
<circle cx="288.937" cy="196.283" r="11.085" transform="rotate(180 288.937 196.283)" fill="#D27402" fill-opacity="0.5"/>
<circle cx="126.978" cy="196.193" r="11.085" transform="rotate(180 126.978 196.193)" fill="#D27402"/>
<circle cx="343.655" cy="196.283" r="11.085" transform="rotate(180 343.655 196.283)" fill="#D27402" fill-opacity="0.5"/>
<circle cx="371.014" cy="196.283" r="11.085" transform="rotate(180 371.014 196.283)" fill="#D27402" fill-opacity="0.5"/>
<circle cx="371.014" cy="115.655" r="11.085" transform="rotate(180 371.014 115.655)" fill="#D27402" fill-opacity="0.5"/>
<circle cx="288.937" cy="169.395" r="11.085" transform="rotate(180 288.937 169.395)" fill="#D27402" fill-opacity="0.5"/>
<circle cx="343.655" cy="169.395" r="11.085" transform="rotate(180 343.655 169.395)" fill="#D27402" fill-opacity="0.5"/>
<circle cx="371.014" cy="169.395" r="11.085" transform="rotate(180 371.014 169.395)" fill="#D27402" fill-opacity="0.5"/>
<circle cx="288.937" cy="142.509" r="11.085" transform="rotate(180 288.937 142.509)" fill="#D27402" fill-opacity="0.5"/>
<circle cx="371.014" cy="142.509" r="11.085" transform="rotate(180 371.014 142.509)" fill="#D27402" fill-opacity="0.5"/>
<circle cx="316.259" cy="142.498" r="11.085" transform="rotate(180 316.259 142.498)" fill="#D27402" fill-opacity="0.5"/>
<circle cx="343.654" cy="142.498" r="11.085" transform="rotate(180 343.654 142.498)" fill="#D27402" fill-opacity="0.5"/>
<circle cx="343.654" cy="115.794" r="11.085" transform="rotate(180 343.654 115.794)" fill="#D27402" fill-opacity="0.5"/>
<circle cx="316.258" cy="115.795" r="11.085" transform="rotate(180 316.258 115.795)" fill="#D27402" fill-opacity="0.5"/>
<circle cx="208.258" cy="116.022" r="11.085" transform="rotate(180 208.258 116.022)" fill="#D27402" fill-opacity="0.5"/>
<circle cx="99.2585" cy="116.022" r="11.085" transform="rotate(180 99.2585 116.022)" fill="#D27402"/>
<circle cx="288.863" cy="115.795" r="11.085" transform="rotate(180 288.863 115.795)" fill="#D27402" fill-opacity="0.5"/>
<circle cx="180.863" cy="116.022" r="11.085" transform="rotate(180 180.863 116.022)" fill="#D27402"/>
<circle cx="71.8632" cy="116.022" r="11.085" transform="rotate(180 71.8632 116.022)" fill="#D27402"/>
<circle cx="261.251" cy="169.455" r="11.085" transform="rotate(180 261.251 169.455)" fill="#D27402" fill-opacity="0.5"/>
<circle cx="261.689" cy="142.498" r="11.085" transform="rotate(180 261.689 142.498)" fill="#D27402" fill-opacity="0.5"/>
<circle cx="234.946" cy="142.726" r="11.085" transform="rotate(180 234.946 142.726)" fill="#D27402" fill-opacity="0.5"/>
<circle cx="207.776" cy="169.726" r="11.085" transform="rotate(180 207.776 169.726)" fill="#D27402" fill-opacity="0.5"/>
<circle cx="179.946" cy="169.726" r="11.085" transform="rotate(180 179.946 169.726)" fill="#D27402"/>
<circle cx="153.946" cy="169.726" r="11.085" transform="rotate(180 153.946 169.726)" fill="#D27402"/>
<circle cx="126.946" cy="169.726" r="11.085" transform="rotate(180 126.946 169.726)" fill="#D27402"/>
<circle cx="99.9461" cy="169.726" r="11.085" transform="rotate(180 99.9461 169.726)" fill="#D27402"/>
<circle cx="72.2734" cy="169.726" r="11.085" transform="rotate(180 72.2734 169.726)" fill="#D27402"/>
<circle cx="45.2734" cy="169.726" r="11.085" transform="rotate(180 45.2734 169.726)" fill="#D27402"/>
<circle cx="18.2734" cy="169.726" r="11.085" transform="rotate(180 18.2734 169.726)" fill="#D27402"/>
<circle cx="261.689" cy="115.795" r="11.085" transform="rotate(180 261.689 115.795)" fill="#D27402" fill-opacity="0.5"/>
<circle cx="153.689" cy="116.022" r="11.085" transform="rotate(180 153.689 116.022)" fill="#D27402"/>
<circle cx="44.6886" cy="116.022" r="11.085" transform="rotate(180 44.6886 116.022)" fill="#D27402"/>
<circle cx="234.946" cy="116.022" r="11.085" transform="rotate(180 234.946 116.022)" fill="#D27402" fill-opacity="0.5"/>
<circle cx="126.946" cy="116.25" r="11.085" transform="rotate(180 126.946 116.25)" fill="#D27402"/>
<circle cx="17.9461" cy="116.249" r="11.085" transform="rotate(180 17.9461 116.249)" fill="#D27402"/>
<circle cx="207.776" cy="143.022" r="11.085" transform="rotate(180 207.776 143.022)" fill="#D27402" fill-opacity="0.5"/>
<circle cx="179.946" cy="143.022" r="11.085" transform="rotate(180 179.946 143.022)" fill="#D27402"/>
<circle cx="153.946" cy="143.022" r="11.085" transform="rotate(180 153.946 143.022)" fill="#D27402"/>
<circle cx="126.946" cy="143.022" r="11.085" transform="rotate(180 126.946 143.022)" fill="#D27402"/>
<circle cx="99.9461" cy="143.022" r="11.085" transform="rotate(180 99.9461 143.022)" fill="#D27402"/>
<circle cx="72.2734" cy="143.022" r="11.085" transform="rotate(180 72.2734 143.022)" fill="#D27402"/>
<circle cx="45.2734" cy="143.022" r="11.085" transform="rotate(180 45.2734 143.022)" fill="#D27402"/>
<circle cx="18.2734" cy="143.022" r="11.085" transform="rotate(180 18.2734 143.022)" fill="#D27402"/>
<circle cx="316.297" cy="223.17" r="11.085" transform="rotate(180 316.297 223.17)" fill="#D27402" fill-opacity="0.5"/>
<circle cx="154.336" cy="223.08" r="11.085" transform="rotate(180 154.336 223.08)" fill="#D27402"/>
<circle cx="343.655" cy="223.169" r="11.085" transform="rotate(180 343.655 223.169)" fill="#D27402" fill-opacity="0.5"/>
<circle cx="371.014" cy="223.169" r="11.085" transform="rotate(180 371.014 223.169)" fill="#D27402" fill-opacity="0.5"/>
<path d="M10.3811 265.385H11.5331V276.938H9.99708V268.49H7.22908V267.353L8.46108 267.273C9.82108 267.177 10.2691 266.713 10.3811 265.385ZM17.3877 267.113V265.449H18.9557V267.113H17.3877ZM18.8917 268.569V276.938H17.4517V268.569H18.8917ZM21.2955 276.938V268.569H22.7355V269.705C23.2155 269.017 24.0475 268.409 25.2315 268.409C27.0075 268.409 28.0155 269.641 28.0155 271.417V276.938H26.5755V271.801C26.5755 270.633 26.0795 269.753 24.8315 269.753C23.7915 269.753 22.7355 270.553 22.7355 271.945V276.938H21.2955ZM33.0457 275.673L36.4377 272.857C38.0057 271.561 39.2217 270.457 39.2217 268.953C39.2217 267.545 38.3097 266.585 36.9017 266.585C35.5257 266.585 34.5817 267.641 34.5817 268.953C34.5817 269.369 34.6777 269.801 34.8377 270.201H33.3977C33.2217 269.705 33.1417 269.321 33.1417 268.873C33.1417 266.825 34.8217 265.273 36.9337 265.273C39.2537 265.273 40.7257 266.745 40.7257 268.858C40.7257 270.809 39.3817 272.153 37.7337 273.481L35.1417 275.593H40.9497V276.938H33.0457V275.673ZM49.5022 265.449H51.1982L55.6302 276.938H54.0782L52.9102 273.913H47.7582L46.6062 276.938H45.0702L49.5022 265.449ZM50.3182 267.177L48.2702 272.569H52.3982L50.3182 267.177ZM58.4386 271.929V276.938H56.9986V268.569H58.4386V269.705C58.8866 269.017 59.6866 268.409 60.8546 268.409C61.9746 268.409 62.7586 268.969 63.1746 269.833C63.6386 269.145 64.5346 268.409 65.8466 268.409C67.5746 268.409 68.6146 269.641 68.6146 271.417V276.938H67.1746V271.801C67.1746 270.633 66.6946 269.753 65.5106 269.753C64.5506 269.753 63.5266 270.569 63.5266 271.929V276.938H62.0866V271.801C62.0866 270.633 61.6066 269.753 60.4226 269.753C59.4626 269.753 58.4386 270.569 58.4386 271.929ZM74.2801 277.114C71.9601 277.114 70.3601 275.337 70.3601 272.761C70.3601 270.265 71.9441 268.409 74.2161 268.409C76.5521 268.409 77.7841 270.185 77.7841 272.505V272.985H71.7361C71.8161 274.745 72.8241 275.865 74.2801 275.865C75.4001 275.865 76.2001 275.257 76.4561 274.265L77.7201 274.713C77.2081 276.201 75.9441 277.114 74.2801 277.114ZM74.2001 269.641C72.9841 269.641 72.0721 270.457 71.8161 271.881H76.3281C76.2961 270.697 75.6561 269.641 74.2001 269.641ZM83.9127 268.537V269.993C83.6727 269.945 83.4807 269.929 83.2087 269.929C81.9927 269.929 81.0167 270.889 81.0167 272.361V276.938H79.5767V268.569H81.0167V269.993C81.3847 269.145 82.2007 268.505 83.3367 268.505C83.5607 268.505 83.7687 268.521 83.9127 268.537ZM85.4346 267.113V265.449H87.0026V267.113H85.4346ZM86.9386 268.569V276.938H85.4986V268.569H86.9386ZM90.2063 272.761C90.2063 274.665 91.2303 275.849 92.7183 275.849C93.8703 275.849 94.5583 275.113 94.7983 274.073L96.0783 274.665C95.6783 276.057 94.4623 277.114 92.7183 277.114C90.3823 277.114 88.7663 275.337 88.7663 272.761C88.7663 270.169 90.3823 268.409 92.7183 268.409C94.4623 268.409 95.6463 269.417 96.0463 270.809L94.7983 271.433C94.5583 270.409 93.8703 269.657 92.7183 269.657C91.2303 269.657 90.2063 270.841 90.2063 272.761ZM99.8446 277.082C98.3246 277.082 97.0926 276.185 97.0926 274.681C97.0926 273.017 98.3886 272.329 100.261 271.945L102.293 271.529V271.177C102.293 270.217 101.765 269.673 100.645 269.673C99.5886 269.673 98.9646 270.169 98.7086 271.097L97.3486 270.745C97.7486 269.385 98.9806 268.409 100.693 268.409C102.565 268.409 103.717 269.321 103.717 271.113V275.193C103.717 275.737 104.053 275.913 104.613 275.785V276.938C103.333 277.098 102.597 276.793 102.421 275.993C101.909 276.649 100.981 277.082 99.8446 277.082ZM102.293 274.089V272.649L100.661 273.001C99.3806 273.257 98.5166 273.609 98.5166 274.617C98.5166 275.433 99.1086 275.913 100.021 275.913C101.253 275.913 102.293 275.161 102.293 274.089ZM106.17 276.938V268.569H107.61V269.705C108.09 269.017 108.922 268.409 110.106 268.409C111.882 268.409 112.89 269.641 112.89 271.417V276.938H111.45V271.801C111.45 270.633 110.954 269.753 109.706 269.753C108.666 269.753 107.61 270.553 107.61 271.945V276.938H106.17ZM114.274 275.161L115.394 274.345C115.842 275.321 116.866 275.913 117.954 275.913C118.93 275.913 119.794 275.497 119.794 274.586C119.794 273.673 118.994 273.545 117.618 273.257C116.242 272.953 114.802 272.649 114.802 270.937C114.802 269.449 116.098 268.409 117.874 268.409C119.378 268.409 120.61 269.145 121.106 270.137L120.082 270.953C119.65 270.121 118.866 269.593 117.81 269.593C116.85 269.593 116.21 270.073 116.21 270.825C116.21 271.609 116.946 271.753 118.114 272.009C119.554 272.345 121.202 272.633 121.202 274.457C121.202 276.057 119.746 277.114 117.954 277.114C116.434 277.114 114.914 276.457 114.274 275.161ZM127.798 265.449V276.938H126.358V265.449H127.798ZM130.138 267.113V265.449H131.706V267.113H130.138ZM131.642 268.569V276.938H130.202V268.569H131.642ZM137.613 276.938H136.189L133.053 268.569H134.573L136.925 275.177L139.245 268.569H140.749L137.613 276.938ZM145.28 277.114C142.96 277.114 141.36 275.337 141.36 272.761C141.36 270.265 142.944 268.409 145.216 268.409C147.552 268.409 148.784 270.185 148.784 272.505V272.985H142.736C142.816 274.745 143.824 275.865 145.28 275.865C146.4 275.865 147.2 275.257 147.456 274.265L148.72 274.713C148.208 276.201 146.944 277.114 145.28 277.114ZM145.2 269.641C143.984 269.641 143.072 270.457 142.816 271.881H147.328C147.296 270.697 146.656 269.641 145.2 269.641ZM149.649 275.161L150.769 274.345C151.217 275.321 152.241 275.913 153.329 275.913C154.305 275.913 155.169 275.497 155.169 274.586C155.169 273.673 154.369 273.545 152.993 273.257C151.617 272.953 150.177 272.649 150.177 270.937C150.177 269.449 151.473 268.409 153.249 268.409C154.753 268.409 155.985 269.145 156.481 270.137L155.457 270.953C155.025 270.121 154.241 269.593 153.185 269.593C152.225 269.593 151.585 270.073 151.585 270.825C151.585 271.609 152.321 271.753 153.489 272.009C154.929 272.345 156.577 272.633 156.577 274.457C156.577 276.057 155.121 277.114 153.329 277.114C151.809 277.114 150.289 276.457 149.649 275.161ZM165.717 268.569H166.933L168.661 274.809L170.405 268.569H171.845L169.301 276.938H168.037L166.293 270.729L164.549 276.938H163.285L160.741 268.569H162.229L163.989 274.793L165.717 268.569ZM173.185 267.113V265.449H174.753V267.113H173.185ZM174.689 268.569V276.938H173.249V268.569H174.689ZM177.316 274.938V269.801H176.02V268.569H177.316V266.121H178.74V268.569H180.644V269.801H178.74V274.713C178.74 275.593 179.172 275.753 179.908 275.753C180.244 275.753 180.484 275.721 180.82 275.657V276.889C180.452 276.97 180.036 277.018 179.556 277.018C178.132 277.018 177.316 276.537 177.316 274.938ZM182.53 276.938V265.449H183.97V269.705C184.45 269.017 185.282 268.409 186.466 268.409C188.242 268.409 189.25 269.641 189.25 271.417V276.938H187.81V271.801C187.81 270.633 187.314 269.753 186.066 269.753C185.026 269.753 183.97 270.553 183.97 271.945V276.938H182.53ZM195.8 272.761C195.8 274.665 196.824 275.849 198.312 275.849C199.464 275.849 200.152 275.113 200.392 274.073L201.672 274.665C201.272 276.057 200.056 277.114 198.312 277.114C195.976 277.114 194.36 275.337 194.36 272.761C194.36 270.169 195.976 268.409 198.312 268.409C200.056 268.409 201.24 269.417 201.64 270.809L200.392 271.433C200.152 270.409 199.464 269.657 198.312 269.657C196.824 269.657 195.8 270.841 195.8 272.761ZM203.249 276.938V265.449H204.689V269.705C205.169 269.017 206.001 268.409 207.185 268.409C208.961 268.409 209.969 269.641 209.969 271.417V276.938H208.529V271.801C208.529 270.633 208.033 269.753 206.785 269.753C205.745 269.753 204.689 270.553 204.689 271.945V276.938H203.249ZM216.616 268.537V269.993C216.376 269.945 216.184 269.929 215.912 269.929C214.696 269.929 213.72 270.889 213.72 272.361V276.938H212.28V268.569H213.72V269.993C214.088 269.145 214.904 268.505 216.04 268.505C216.264 268.505 216.472 268.521 216.616 268.537ZM225.058 272.761C225.058 275.353 223.458 277.114 221.17 277.114C218.882 277.114 217.282 275.353 217.282 272.761C217.282 270.169 218.882 268.409 221.17 268.409C223.458 268.409 225.058 270.169 225.058 272.761ZM218.738 272.761C218.738 274.665 219.698 275.882 221.17 275.882C222.642 275.882 223.602 274.665 223.602 272.761C223.602 270.841 222.642 269.625 221.17 269.625C219.698 269.625 218.738 270.841 218.738 272.761ZM226.889 276.938V268.569H228.329V269.705C228.809 269.017 229.641 268.409 230.825 268.409C232.601 268.409 233.609 269.641 233.609 271.417V276.938H232.169V271.801C232.169 270.633 231.673 269.753 230.425 269.753C229.385 269.753 228.329 270.553 228.329 271.945V276.938H226.889ZM235.856 267.113V265.449H237.424V267.113H235.856ZM237.36 268.569V276.938H235.92V268.569H237.36ZM240.628 272.761C240.628 274.665 241.652 275.849 243.14 275.849C244.292 275.849 244.98 275.113 245.22 274.073L246.5 274.665C246.1 276.057 244.884 277.114 243.14 277.114C240.804 277.114 239.188 275.337 239.188 272.761C239.188 270.169 240.804 268.409 243.14 268.409C244.884 268.409 246.068 269.417 246.468 270.809L245.22 271.433C244.98 270.409 244.292 269.657 243.14 269.657C241.652 269.657 240.628 270.841 240.628 272.761ZM254.524 277.114C252.204 277.114 250.876 275.129 250.876 272.761C250.876 270.377 252.204 268.409 254.524 268.409C255.692 268.409 256.604 268.969 257.116 269.785V265.449H258.556V276.938H257.116V275.721C256.604 276.553 255.692 277.114 254.524 277.114ZM257.148 272.473C257.148 270.521 255.964 269.673 254.78 269.673C253.212 269.673 252.332 270.953 252.332 272.761C252.332 274.553 253.212 275.849 254.78 275.849C255.964 275.849 257.148 274.985 257.148 273.065V272.473ZM260.872 267.113V265.449H262.44V267.113H260.872ZM262.376 268.569V276.938H260.936V268.569H262.376ZM263.852 275.161L264.972 274.345C265.42 275.321 266.444 275.913 267.532 275.913C268.508 275.913 269.372 275.497 269.372 274.586C269.372 273.673 268.572 273.545 267.196 273.257C265.82 272.953 264.38 272.649 264.38 270.937C264.38 269.449 265.676 268.409 267.452 268.409C268.956 268.409 270.188 269.145 270.684 270.137L269.66 270.953C269.228 270.121 268.444 269.593 267.388 269.593C266.428 269.593 265.788 270.073 265.788 270.825C265.788 271.609 266.524 271.753 267.692 272.009C269.132 272.345 270.78 272.633 270.78 274.457C270.78 276.057 269.324 277.114 267.532 277.114C266.012 277.114 264.492 276.457 263.852 275.161ZM275.905 277.114C273.585 277.114 271.985 275.337 271.985 272.761C271.985 270.265 273.569 268.409 275.841 268.409C278.177 268.409 279.409 270.185 279.409 272.505V272.985H273.361C273.441 274.745 274.449 275.865 275.905 275.865C277.025 275.865 277.825 275.257 278.081 274.265L279.345 274.713C278.833 276.201 277.569 277.114 275.905 277.114ZM275.825 269.641C274.609 269.641 273.697 270.457 273.441 271.881H277.953C277.921 270.697 277.281 269.641 275.825 269.641ZM283.391 277.082C281.871 277.082 280.639 276.185 280.639 274.681C280.639 273.017 281.935 272.329 283.807 271.945L285.839 271.529V271.177C285.839 270.217 285.311 269.673 284.191 269.673C283.135 269.673 282.511 270.169 282.255 271.097L280.895 270.745C281.295 269.385 282.527 268.409 284.239 268.409C286.111 268.409 287.263 269.321 287.263 271.113V275.193C287.263 275.737 287.599 275.913 288.159 275.785V276.938C286.879 277.098 286.143 276.793 285.967 275.993C285.455 276.649 284.527 277.082 283.391 277.082ZM285.839 274.089V272.649L284.207 273.001C282.927 273.257 282.063 273.609 282.063 274.617C282.063 275.433 282.655 275.913 283.567 275.913C284.799 275.913 285.839 275.161 285.839 274.089ZM288.789 275.161L289.909 274.345C290.357 275.321 291.381 275.913 292.469 275.913C293.445 275.913 294.309 275.497 294.309 274.586C294.309 273.673 293.509 273.545 292.133 273.257C290.757 272.953 289.317 272.649 289.317 270.937C289.317 269.449 290.613 268.409 292.389 268.409C293.893 268.409 295.125 269.145 295.621 270.137L294.597 270.953C294.165 270.121 293.381 269.593 292.325 269.593C291.365 269.593 290.725 270.073 290.725 270.825C290.725 271.609 291.461 271.753 292.629 272.009C294.069 272.345 295.717 272.633 295.717 274.457C295.717 276.057 294.261 277.114 292.469 277.114C290.949 277.114 289.429 276.457 288.789 275.161ZM300.843 277.114C298.523 277.114 296.923 275.337 296.923 272.761C296.923 270.265 298.507 268.409 300.779 268.409C303.115 268.409 304.347 270.185 304.347 272.505V272.985H298.299C298.379 274.745 299.387 275.865 300.843 275.865C301.963 275.865 302.763 275.257 303.019 274.265L304.283 274.713C303.771 276.201 302.507 277.114 300.843 277.114ZM300.763 269.641C299.547 269.641 298.635 270.457 298.379 271.881H302.891C302.859 270.697 302.219 269.641 300.763 269.641ZM309.738 274.938V269.801H308.442V268.569H309.738V266.121H311.162V268.569H313.066V269.801H311.162V274.713C311.162 275.593 311.594 275.753 312.33 275.753C312.666 275.753 312.906 275.721 313.242 275.657V276.889C312.874 276.97 312.458 277.018 311.978 277.018C310.554 277.018 309.738 276.537 309.738 274.938ZM322.105 272.761C322.105 275.353 320.505 277.114 318.217 277.114C315.929 277.114 314.329 275.353 314.329 272.761C314.329 270.169 315.929 268.409 318.217 268.409C320.505 268.409 322.105 270.169 322.105 272.761ZM315.785 272.761C315.785 274.665 316.745 275.882 318.217 275.882C319.689 275.882 320.649 274.665 320.649 272.761C320.649 270.841 319.689 269.625 318.217 269.625C316.745 269.625 315.785 270.841 315.785 272.761ZM327.008 277.114C324.688 277.114 323.36 275.129 323.36 272.761C323.36 270.377 324.688 268.409 327.008 268.409C328.176 268.409 329.088 268.969 329.6 269.785V265.449H331.04V276.938H329.6V275.721C329.088 276.553 328.176 277.114 327.008 277.114ZM329.632 272.473C329.632 270.521 328.448 269.673 327.264 269.673C325.696 269.673 324.816 270.953 324.816 272.761C324.816 274.553 325.696 275.849 327.264 275.849C328.448 275.849 329.632 274.985 329.632 273.065V272.473ZM335.516 277.082C333.996 277.082 332.764 276.185 332.764 274.681C332.764 273.017 334.06 272.329 335.932 271.945L337.964 271.529V271.177C337.964 270.217 337.436 269.673 336.316 269.673C335.26 269.673 334.636 270.169 334.38 271.097L333.02 270.745C333.42 269.385 334.652 268.409 336.364 268.409C338.236 268.409 339.388 269.321 339.388 271.113V275.193C339.388 275.737 339.724 275.913 340.284 275.785V276.938C339.004 277.098 338.268 276.793 338.092 275.993C337.58 276.649 336.652 277.082 335.516 277.082ZM337.964 274.089V272.649L336.332 273.001C335.052 273.257 334.188 273.609 334.188 274.617C334.188 275.433 334.78 275.913 335.692 275.913C336.924 275.913 337.964 275.161 337.964 274.089ZM344.853 277.85C344.373 279.114 343.717 279.914 342.261 279.914C341.909 279.914 341.733 279.898 341.477 279.85V278.602C341.749 278.666 341.925 278.682 342.165 278.682C342.789 278.682 343.125 278.458 343.461 277.626L343.861 276.633L340.757 268.569H342.277L344.629 274.969L346.949 268.569H348.453L344.853 277.85ZM352.849 272.921V271.625H357.217V272.921H352.849ZM363.076 268.569H364.292L366.02 274.809L367.764 268.569H369.204L366.66 276.938H365.396L363.652 270.729L361.908 276.938H360.644L358.1 268.569H359.588L361.348 274.793L363.076 268.569ZM373.796 277.114C371.476 277.114 369.876 275.337 369.876 272.761C369.876 270.265 371.46 268.409 373.732 268.409C376.068 268.409 377.3 270.185 377.3 272.505V272.985H371.252C371.332 274.745 372.34 275.865 373.796 275.865C374.916 275.865 375.716 275.257 375.972 274.265L377.236 274.713C376.724 276.201 375.46 277.114 373.796 277.114ZM373.716 269.641C372.5 269.641 371.588 270.457 371.332 271.881H375.844C375.812 270.697 375.172 269.641 373.716 269.641ZM8.06108 302.938V294.569H9.50108V295.705C9.98108 295.017 10.8131 294.409 11.9971 294.409C13.7731 294.409 14.7811 295.641 14.7811 297.417V302.938H13.3411V297.801C13.3411 296.633 12.8451 295.753 11.5971 295.753C10.5571 295.753 9.50108 296.553 9.50108 297.945V302.938H8.06108ZM20.4363 303.114C18.1163 303.114 16.5163 301.337 16.5163 298.761C16.5163 296.265 18.1003 294.409 20.3723 294.409C22.7083 294.409 23.9403 296.185 23.9403 298.505V298.985H17.8923C17.9723 300.745 18.9803 301.865 20.4363 301.865C21.5563 301.865 22.3563 301.257 22.6123 300.265L23.8763 300.713C23.3643 302.201 22.1003 303.114 20.4363 303.114ZM20.3563 295.641C19.1403 295.641 18.2283 296.457 17.9723 297.881H22.4843C22.4523 296.697 21.8123 295.641 20.3563 295.641ZM29.077 303.114C26.757 303.114 25.157 301.337 25.157 298.761C25.157 296.265 26.741 294.409 29.013 294.409C31.349 294.409 32.581 296.185 32.581 298.505V298.985H26.533C26.613 300.745 27.621 301.865 29.077 301.865C30.197 301.865 30.997 301.257 31.253 300.265L32.517 300.713C32.005 302.201 30.741 303.114 29.077 303.114ZM28.997 295.641C27.781 295.641 26.869 296.457 26.613 297.881H31.125C31.093 296.697 30.453 295.641 28.997 295.641ZM37.4456 303.114C35.1256 303.114 33.7976 301.129 33.7976 298.761C33.7976 296.377 35.1256 294.409 37.4456 294.409C38.6136 294.409 39.5256 294.969 40.0376 295.785V291.449H41.4776V302.938H40.0376V301.721C39.5256 302.553 38.6136 303.114 37.4456 303.114ZM40.0696 298.473C40.0696 296.521 38.8856 295.673 37.7016 295.673C36.1336 295.673 35.2536 296.953 35.2536 298.761C35.2536 300.553 36.1336 301.849 37.7016 301.849C38.8856 301.849 40.0696 300.985 40.0696 299.065V298.473ZM49.329 303.082C47.809 303.082 46.577 302.185 46.577 300.681C46.577 299.017 47.873 298.329 49.745 297.945L51.777 297.529V297.177C51.777 296.217 51.249 295.673 50.129 295.673C49.073 295.673 48.449 296.169 48.193 297.097L46.833 296.745C47.233 295.385 48.465 294.409 50.177 294.409C52.049 294.409 53.201 295.321 53.201 297.113V301.193C53.201 301.737 53.537 301.913 54.097 301.785V302.938C52.817 303.098 52.081 302.793 51.905 301.993C51.393 302.649 50.465 303.082 49.329 303.082ZM51.777 300.089V298.649L50.145 299.001C48.865 299.257 48.001 299.609 48.001 300.617C48.001 301.433 48.593 301.913 49.505 301.913C50.737 301.913 51.777 301.161 51.777 300.089ZM59.8938 298.761C59.8938 300.665 60.9178 301.849 62.4058 301.849C63.5578 301.849 64.2458 301.113 64.4858 300.073L65.7658 300.665C65.3658 302.057 64.1498 303.114 62.4058 303.114C60.0698 303.114 58.4538 301.337 58.4538 298.761C58.4538 296.169 60.0698 294.409 62.4058 294.409C64.1498 294.409 65.3338 295.417 65.7338 296.809L64.4858 297.433C64.2458 296.409 63.5578 295.657 62.4058 295.657C60.9178 295.657 59.8938 296.841 59.8938 298.761ZM67.3423 302.938V291.449H68.7823V295.705C69.2623 295.017 70.0943 294.409 71.2783 294.409C73.0543 294.409 74.0623 295.641 74.0623 297.417V302.938H72.6223V297.801C72.6223 296.633 72.1263 295.753 70.8783 295.753C69.8383 295.753 68.7823 296.553 68.7823 297.945V302.938H67.3423ZM78.4696 303.082C76.9496 303.082 75.7176 302.185 75.7176 300.681C75.7176 299.017 77.0136 298.329 78.8856 297.945L80.9176 297.529V297.177C80.9176 296.217 80.3896 295.673 79.2696 295.673C78.2136 295.673 77.5896 296.169 77.3336 297.097L75.9736 296.745C76.3736 295.385 77.6056 294.409 79.3176 294.409C81.1896 294.409 82.3416 295.321 82.3416 297.113V301.193C82.3416 301.737 82.6776 301.913 83.2376 301.785V302.938C81.9576 303.098 81.2216 302.793 81.0456 301.993C80.5336 302.649 79.6056 303.082 78.4696 303.082ZM80.9176 300.089V298.649L79.2856 299.001C78.0056 299.257 77.1416 299.609 77.1416 300.617C77.1416 301.433 77.7336 301.913 78.6456 301.913C79.8776 301.913 80.9176 301.161 80.9176 300.089ZM84.7955 302.938V294.569H86.2355V295.705C86.7155 295.017 87.5475 294.409 88.7315 294.409C90.5075 294.409 91.5155 295.641 91.5155 297.417V302.938H90.0755V297.801C90.0755 296.633 89.5795 295.753 88.3315 295.753C87.2915 295.753 86.2355 296.553 86.2355 297.945V302.938H84.7955ZM100.915 302.185C100.915 304.634 99.2987 305.994 97.0267 305.994C95.1867 305.994 93.8427 305.146 93.3787 303.61L94.7227 303.098C94.9947 304.17 95.8587 304.794 97.0267 304.794C98.4987 304.794 99.4747 304.042 99.4747 302.297V301.353C99.0267 302.169 98.0827 302.745 96.9147 302.745C94.6267 302.745 93.2827 300.857 93.2827 298.569C93.2827 296.297 94.6267 294.409 96.9147 294.409C98.0667 294.409 99.0267 294.985 99.4747 295.801V294.569H100.915V302.185ZM99.4907 298.441C99.4907 296.569 98.3707 295.673 97.1707 295.673C95.6507 295.673 94.7227 296.809 94.7227 298.569C94.7227 300.329 95.6507 301.481 97.1707 301.481C98.3707 301.481 99.4907 300.586 99.4907 298.745V298.441ZM106.655 303.114C104.335 303.114 102.735 301.337 102.735 298.761C102.735 296.265 104.319 294.409 106.591 294.409C108.927 294.409 110.159 296.185 110.159 298.505V298.985H104.111C104.191 300.745 105.199 301.865 106.655 301.865C107.775 301.865 108.575 301.257 108.831 300.265L110.095 300.713C109.583 302.201 108.319 303.114 106.655 303.114ZM106.575 295.641C105.359 295.641 104.447 296.457 104.191 297.881H108.703C108.671 296.697 108.031 295.641 106.575 295.641ZM111.444 302.938V301.049H113.268V302.938H111.444Z" fill="#313131" fill-opacity="0.8"/>
</svg>
