<svg width="387" height="312" viewBox="0 0 387 312" fill="none" xmlns="http://www.w3.org/2000/svg">
<path d="M22.1528 16.3704C31.4194 16.3704 38.7052 21.8171 38.7052 30.3763C38.7052 35.3279 36.088 39.1476 31.4194 41.2697C36.9368 43.0382 41.3225 47.6361 41.3225 53.8609C41.3225 62.9152 33.117 68.7156 22.1528 68.7156C11.1886 68.7156 2.98319 62.9152 2.98319 53.8609C2.98319 47.6361 7.36886 43.0382 12.8863 41.2697C8.21771 39.1476 5.60045 35.3279 5.60045 30.3763C5.60045 21.8171 12.8863 16.3704 22.1528 16.3704ZM22.1528 37.6622C27.2459 37.6622 30.6413 34.8327 30.6413 30.5178C30.6413 26.2736 27.2459 23.3733 22.1528 23.3733C17.1305 23.3733 13.6644 26.2736 13.6644 30.5178C13.6644 34.8327 17.1305 37.6622 22.1528 37.6622ZM22.1528 45.0188C16.0695 45.0188 11.896 48.4142 11.896 53.2243C11.896 58.2466 16.0695 61.5712 22.1528 61.5712C28.2362 61.5712 32.4804 58.2466 32.4804 53.2243C32.4804 48.4142 28.2362 45.0188 22.1528 45.0188ZM45.1279 42.543C45.1279 27.0517 52.4845 16.3704 65.0757 16.3704C77.6668 16.3704 85.0234 27.0517 85.0234 42.543C85.0234 58.0344 77.6668 68.7156 65.0757 68.7156C52.4845 68.7156 45.1279 58.0344 45.1279 42.543ZM54.1822 42.543C54.1822 53.2243 57.5776 60.8638 65.0757 60.8638C72.5738 60.8638 75.9691 53.2243 75.9691 42.543C75.9691 31.8618 72.5738 24.2222 65.0757 24.2222C57.5776 24.2222 54.1822 31.8618 54.1822 42.543ZM101.211 16.7241C104.7 16.7241 107.341 18.1153 109.133 20.8976C110.925 23.6327 111.821 27.4997 111.821 32.4984C111.821 37.4971 110.949 41.4112 109.204 44.2407C107.506 47.023 104.842 48.4142 101.211 48.4142C98.9941 48.4142 97.1078 47.7775 95.5516 46.5043C93.9954 45.231 92.8165 43.4154 92.0148 41.0575C91.2602 38.6525 90.883 35.7994 90.883 32.4984C90.883 27.4997 91.7082 23.6327 93.3588 20.8976C95.0093 18.1153 97.6266 16.7241 101.211 16.7241ZM101.211 21.1098C99.4186 21.1098 98.0981 22.0765 97.2493 24.01C96.4476 25.8963 96.0468 28.7258 96.0468 32.4984C96.0468 36.271 96.4476 39.1241 97.2493 41.0575C98.0981 42.991 99.4186 43.9577 101.211 43.9577C103.05 43.9577 104.417 43.0146 105.313 41.1283C106.209 39.1948 106.657 36.3182 106.657 32.4984C106.657 28.7258 106.209 25.8963 105.313 24.01C104.417 22.0765 103.05 21.1098 101.211 21.1098ZM133.537 17.4315L105.525 67.9375H100.079L128.091 17.4315H133.537ZM132.123 36.9548C134.433 36.9548 136.367 37.5914 137.923 38.8647C139.479 40.0908 140.658 41.8828 141.46 44.2407C142.309 46.5514 142.733 49.3809 142.733 52.7291C142.733 57.7278 141.861 61.6419 140.116 64.4714C138.418 67.2537 135.754 68.6449 132.123 68.6449C129.906 68.6449 128.02 68.0082 126.464 66.735C124.907 65.4617 123.728 63.6461 122.927 61.2882C122.172 58.8832 121.795 56.0301 121.795 52.7291C121.795 47.7304 122.62 43.8634 124.271 41.1283C125.921 38.346 128.539 36.9548 132.123 36.9548ZM132.123 41.4112C130.331 41.4112 129.01 42.3544 128.161 44.2407C127.36 46.127 126.959 48.9565 126.959 52.7291C126.959 56.5489 127.36 59.4255 128.161 61.359C129.01 63.2453 130.331 64.1885 132.123 64.1885C133.962 64.1885 135.329 63.2453 136.225 61.359C137.121 59.4727 137.569 56.596 137.569 52.7291C137.569 48.9565 137.121 46.127 136.225 44.2407C135.329 42.3544 133.962 41.4112 132.123 41.4112Z" fill="#313131"/>
<path d="M289.489 23.8834L292.769 18.6194H294.401L290.241 25.2754V30.1074H288.705V25.2754L284.545 18.6194H286.209L289.489 23.8834ZM297.493 30.2834C295.173 30.2834 293.573 28.5074 293.573 25.9314C293.573 23.4354 295.157 21.5794 297.429 21.5794C299.765 21.5794 300.997 23.3554 300.997 25.6754V26.1554H294.949C295.029 27.9154 296.037 29.0354 297.493 29.0354C298.613 29.0354 299.413 28.4274 299.669 27.4354L300.933 27.8834C300.421 29.3714 299.157 30.2834 297.493 30.2834ZM297.413 22.8114C296.197 22.8114 295.285 23.6274 295.029 25.0514H299.541C299.509 23.8674 298.869 22.8114 297.413 22.8114ZM304.979 30.2514C303.459 30.2514 302.227 29.3554 302.227 27.8514C302.227 26.1874 303.523 25.4994 305.395 25.1154L307.427 24.6994V24.3474C307.427 23.3874 306.899 22.8434 305.779 22.8434C304.723 22.8434 304.099 23.3394 303.843 24.2674L302.483 23.9154C302.883 22.5554 304.115 21.5794 305.827 21.5794C307.699 21.5794 308.851 22.4914 308.851 24.2834V28.3634C308.851 28.9074 309.187 29.0834 309.747 28.9554V30.1074C308.467 30.2674 307.731 29.9634 307.555 29.1634C307.043 29.8194 306.115 30.2514 304.979 30.2514ZM307.427 27.2594V25.8194L305.795 26.1714C304.515 26.4274 303.651 26.7794 303.651 27.7874C303.651 28.6034 304.243 29.0834 305.155 29.0834C306.387 29.0834 307.427 28.3314 307.427 27.2594ZM315.641 21.7074V23.1634C315.401 23.1154 315.209 23.0994 314.937 23.0994C313.721 23.0994 312.745 24.0594 312.745 25.5314V30.1074H311.305V21.7394H312.745V23.1634C313.113 22.3154 313.929 21.6754 315.065 21.6754C315.289 21.6754 315.497 21.6914 315.641 21.7074ZM320.826 28.1074V22.9714H319.53V21.7394H320.826V19.2914H322.25V21.7394H324.154V22.9714H322.25V27.8834C322.25 28.7634 322.682 28.9234 323.418 28.9234C323.754 28.9234 323.994 28.8914 324.33 28.8274V30.0594C323.962 30.1394 323.546 30.1874 323.066 30.1874C321.642 30.1874 320.826 29.7074 320.826 28.1074ZM333.193 25.9314C333.193 28.5234 331.593 30.2834 329.305 30.2834C327.017 30.2834 325.417 28.5234 325.417 25.9314C325.417 23.3394 327.017 21.5794 329.305 21.5794C331.593 21.5794 333.193 23.3394 333.193 25.9314ZM326.873 25.9314C326.873 27.8354 327.833 29.0514 329.305 29.0514C330.777 29.0514 331.737 27.8354 331.737 25.9314C331.737 24.0114 330.777 22.7954 329.305 22.7954C327.833 22.7954 326.873 24.0114 326.873 25.9314ZM338.463 30.1074V18.6194H342.111C345.599 18.6194 347.807 20.8594 347.807 24.3634C347.807 27.8674 345.599 30.1074 342.111 30.1074H338.463ZM339.967 28.7794H342.111C344.719 28.7794 346.303 27.0354 346.303 24.3634C346.303 21.6754 344.719 19.9474 342.095 19.9474H339.967V28.7794ZM351.714 30.2514C350.194 30.2514 348.962 29.3554 348.962 27.8514C348.962 26.1874 350.258 25.4994 352.13 25.1154L354.162 24.6994V24.3474C354.162 23.3874 353.634 22.8434 352.514 22.8434C351.458 22.8434 350.834 23.3394 350.578 24.2674L349.218 23.9154C349.618 22.5554 350.85 21.5794 352.562 21.5794C354.434 21.5794 355.586 22.4914 355.586 24.2834V28.3634C355.586 28.9074 355.922 29.0834 356.482 28.9554V30.1074C355.202 30.2674 354.466 29.9634 354.29 29.1634C353.778 29.8194 352.85 30.2514 351.714 30.2514ZM354.162 27.2594V25.8194L352.53 26.1714C351.25 26.4274 350.386 26.7794 350.386 27.7874C350.386 28.6034 350.978 29.0834 351.89 29.0834C353.122 29.0834 354.162 28.3314 354.162 27.2594ZM358.264 28.1074V22.9714H356.968V21.7394H358.264V19.2914H359.688V21.7394H361.592V22.9714H359.688V27.8834C359.688 28.7634 360.12 28.9234 360.856 28.9234C361.192 28.9234 361.432 28.8914 361.768 28.8274V30.0594C361.4 30.1394 360.984 30.1874 360.504 30.1874C359.08 30.1874 358.264 29.7074 358.264 28.1074ZM366.774 30.2834C364.454 30.2834 362.854 28.5074 362.854 25.9314C362.854 23.4354 364.438 21.5794 366.71 21.5794C369.046 21.5794 370.278 23.3554 370.278 25.6754V26.1554H364.23C364.31 27.9154 365.318 29.0354 366.774 29.0354C367.894 29.0354 368.694 28.4274 368.95 27.4354L370.214 27.8834C369.702 29.3714 368.438 30.2834 366.774 30.2834ZM366.694 22.8114C365.478 22.8114 364.566 23.6274 364.31 25.0514H368.822C368.79 23.8674 368.15 22.8114 366.694 22.8114Z" fill="#313131" fill-opacity="0.6"/>
<circle cx="174.325" cy="222.579" r="11.085" transform="rotate(180 174.325 222.579)" fill="#FFBD6D"/>
<circle cx="12.3651" cy="222.489" r="11.085" transform="rotate(180 12.3651 222.489)" fill="#FFBD6D"/>
<circle cx="201.683" cy="222.579" r="11.085" transform="rotate(180 201.683 222.579)" fill="#FFBD6D"/>
<circle cx="39.7238" cy="222.489" r="11.085" transform="rotate(180 39.7238 222.489)" fill="#FFBD6D"/>
<circle cx="229.043" cy="222.579" r="11.085" transform="rotate(180 229.043 222.579)" fill="#FFBD6D"/>
<circle cx="67.0834" cy="222.489" r="11.085" transform="rotate(180 67.0834 222.489)" fill="#FFBD6D"/>
<circle cx="228.571" cy="195.691" r="11.085" transform="rotate(180 228.571 195.691)" fill="#FFBD6D"/>
<circle cx="201.946" cy="196.022" r="11.085" transform="rotate(180 201.946 196.022)" fill="#FFBD6D"/>
<circle cx="311.119" cy="195.691" r="11.085" transform="rotate(180 311.119 195.691)" fill="#FFBD6D"/>
<circle cx="228.571" cy="168.805" r="11.085" transform="rotate(180 228.571 168.805)" fill="#FFBD6D"/>
<circle cx="228.946" cy="142.022" r="11.085" transform="rotate(180 228.946 142.022)" fill="#FFBD6D"/>
<circle cx="311.119" cy="168.805" r="11.085" transform="rotate(180 311.119 168.805)" fill="#FFBD6D"/>
<circle cx="256.401" cy="222.579" r="11.085" transform="rotate(180 256.401 222.579)" fill="#FFBD6D"/>
<circle cx="94.4414" cy="222.489" r="11.085" transform="rotate(180 94.4414 222.489)" fill="#FFBD6D"/>
<circle cx="256.401" cy="195.692" r="11.085" transform="rotate(180 256.401 195.692)" fill="#FFBD6D"/>
<circle cx="94.4414" cy="195.601" r="11.085" transform="rotate(180 94.4414 195.601)" fill="#FFBD6D"/>
<circle cx="283.76" cy="222.579" r="11.085" transform="rotate(180 283.76 222.579)" fill="#FFBD6D"/>
<circle cx="121.801" cy="222.489" r="11.085" transform="rotate(180 121.801 222.489)" fill="#FFBD6D"/>
<circle cx="283.76" cy="195.692" r="11.085" transform="rotate(180 283.76 195.692)" fill="#FFBD6D"/>
<circle cx="121.801" cy="195.601" r="11.085" transform="rotate(180 121.801 195.601)" fill="#FFBD6D"/>
<circle cx="338.477" cy="195.691" r="11.085" transform="rotate(180 338.477 195.691)" fill="#FFBD6D"/>
<circle cx="365.836" cy="195.691" r="11.085" transform="rotate(180 365.836 195.691)" fill="#FFBD6D"/>
<circle cx="365.836" cy="115.064" r="11.085" transform="rotate(180 365.836 115.064)" fill="#FFBD6D"/>
<circle cx="283.76" cy="168.805" r="11.085" transform="rotate(180 283.76 168.805)" fill="#FFBD6D"/>
<circle cx="338.477" cy="168.805" r="11.085" transform="rotate(180 338.477 168.805)" fill="#FFBD6D"/>
<circle cx="365.836" cy="168.805" r="11.085" transform="rotate(180 365.836 168.805)" fill="#FFBD6D"/>
<circle cx="365.836" cy="88.1772" r="11.085" transform="rotate(180 365.836 88.1772)" fill="#FFBD6D"/>
<circle cx="283.76" cy="141.917" r="11.085" transform="rotate(180 283.76 141.917)" fill="#FFBD6D"/>
<circle cx="365.836" cy="141.917" r="11.085" transform="rotate(180 365.836 141.917)" fill="#FFBD6D"/>
<circle cx="365.836" cy="61.29" r="11.085" transform="rotate(180 365.836 61.29)" fill="#FFBD6D"/>
<circle cx="311.081" cy="141.907" r="11.085" transform="rotate(180 311.081 141.907)" fill="#FFBD6D"/>
<circle cx="338.477" cy="141.907" r="11.085" transform="rotate(180 338.477 141.907)" fill="#FFBD6D"/>
<circle cx="338.477" cy="115.204" r="11.085" transform="rotate(180 338.477 115.204)" fill="#FFBD6D"/>
<circle cx="338.476" cy="88.0278" r="11.085" transform="rotate(180 338.476 88.0278)" fill="#FFBD6D"/>
<circle cx="310.946" cy="88.0224" r="11.085" transform="rotate(180 310.946 88.0224)" fill="#FFBD6D"/>
<circle cx="256.946" cy="115.022" r="11.085" transform="rotate(180 256.946 115.022)" fill="#FFBD6D"/>
<circle cx="66.9461" cy="196.022" r="11.085" transform="rotate(180 66.9461 196.022)" fill="#FFBD6D"/>
<circle cx="311.081" cy="115.204" r="11.085" transform="rotate(180 311.081 115.204)" fill="#FFBD6D"/>
<circle cx="283.686" cy="115.204" r="11.085" transform="rotate(180 283.686 115.204)" fill="#FFBD6D"/>
<circle cx="173.946" cy="169.022" r="11.085" transform="rotate(180 173.946 169.022)" fill="#FFBD6D"/>
<circle cx="256.073" cy="168.864" r="11.085" transform="rotate(180 256.073 168.864)" fill="#FFBD6D"/>
<circle cx="256.511" cy="141.907" r="11.085" transform="rotate(180 256.511 141.907)" fill="#FFBD6D"/>
<circle cx="201.946" cy="169.022" r="11.085" transform="rotate(180 201.946 169.022)" fill="#FFBD6D"/>
<circle cx="173.946" cy="196.022" r="11.085" transform="rotate(180 173.946 196.022)" fill="#FFBD6D"/>
<circle cx="148.946" cy="196.022" r="11.085" transform="rotate(180 148.946 196.022)" fill="#FFBD6D"/>
<circle cx="311.119" cy="222.579" r="11.085" transform="rotate(180 311.119 222.579)" fill="#FFBD6D"/>
<circle cx="149.159" cy="222.489" r="11.085" transform="rotate(180 149.159 222.489)" fill="#FFBD6D"/>
<circle cx="338.477" cy="222.579" r="11.085" transform="rotate(180 338.477 222.579)" fill="#FFBD6D"/>
<circle cx="365.836" cy="222.579" r="11.085" transform="rotate(180 365.836 222.579)" fill="#FFBD6D"/>
<path d="M5.64508 265.273C7.74108 265.273 9.30908 266.505 9.30908 268.345C9.30908 269.497 8.65308 270.393 7.50108 270.841C8.87708 271.257 9.90108 272.313 9.90108 273.769C9.90108 275.785 8.10908 277.098 5.64508 277.098C3.19708 277.098 1.40508 275.785 1.40508 273.769C1.40508 272.313 2.42908 271.257 3.78908 270.841C2.65308 270.393 1.99708 269.497 1.99708 268.345C1.99708 266.505 3.56508 265.273 5.64508 265.273ZM5.64508 270.233C7.00508 270.233 7.91708 269.497 7.91708 268.361C7.91708 267.241 7.00508 266.489 5.64508 266.489C4.30108 266.489 3.37308 267.241 3.37308 268.361C3.37308 269.497 4.30108 270.233 5.64508 270.233ZM5.64508 271.497C4.02908 271.497 2.90908 272.393 2.90908 273.673C2.90908 274.985 4.02908 275.882 5.64508 275.882C7.26108 275.882 8.39708 274.985 8.39708 273.673C8.39708 272.393 7.26108 271.497 5.64508 271.497ZM10.9066 271.193C10.9066 267.689 12.5546 265.273 15.2906 265.273C18.0106 265.273 19.6586 267.689 19.6586 271.193C19.6586 274.697 18.0106 277.114 15.2906 277.114C12.5546 277.114 10.9066 274.697 10.9066 271.193ZM12.4426 271.193C12.4426 273.881 13.4186 275.769 15.2906 275.769C17.1466 275.769 18.1386 273.881 18.1386 271.193C18.1386 268.505 17.1466 266.617 15.2906 266.617C13.4186 266.617 12.4426 268.505 12.4426 271.193ZM23.3873 265.353C24.1767 265.353 24.774 265.668 25.1793 266.297C25.5847 266.916 25.7873 267.791 25.7873 268.921C25.7873 270.052 25.59 270.937 25.1953 271.577C24.8113 272.207 24.2087 272.521 23.3873 272.521C22.886 272.521 22.4593 272.377 22.1073 272.089C21.7553 271.801 21.4887 271.391 21.3073 270.857C21.1367 270.313 21.0513 269.668 21.0513 268.921C21.0513 267.791 21.238 266.916 21.6113 266.297C21.9847 265.668 22.5767 265.353 23.3873 265.353ZM23.3873 266.345C22.982 266.345 22.6833 266.564 22.4913 267.001C22.31 267.428 22.2193 268.068 22.2193 268.921C22.2193 269.775 22.31 270.42 22.4913 270.857C22.6833 271.295 22.982 271.513 23.3873 271.513C23.8033 271.513 24.1127 271.3 24.3153 270.873C24.518 270.436 24.6193 269.785 24.6193 268.921C24.6193 268.068 24.518 267.428 24.3153 267.001C24.1127 266.564 23.8033 266.345 23.3873 266.345ZM30.6993 265.513L24.3633 276.938H23.1313L29.4673 265.513H30.6993ZM30.3793 269.929C30.902 269.929 31.3393 270.073 31.6913 270.361C32.0433 270.639 32.31 271.044 32.4913 271.577C32.6833 272.1 32.7793 272.74 32.7793 273.497C32.7793 274.628 32.582 275.513 32.1873 276.153C31.8033 276.783 31.2007 277.098 30.3793 277.098C29.878 277.098 29.4513 276.954 29.0993 276.665C28.7473 276.377 28.4807 275.967 28.2993 275.433C28.1287 274.889 28.0433 274.244 28.0433 273.497C28.0433 272.367 28.23 271.492 28.6033 270.873C28.9767 270.244 29.5687 269.929 30.3793 269.929ZM30.3793 270.937C29.974 270.937 29.6753 271.151 29.4833 271.577C29.302 272.004 29.2113 272.644 29.2113 273.497C29.2113 274.361 29.302 275.012 29.4833 275.449C29.6753 275.876 29.974 276.089 30.3793 276.089C30.7953 276.089 31.1047 275.876 31.3073 275.449C31.51 275.023 31.6113 274.372 31.6113 273.497C31.6113 272.644 31.51 272.004 31.3073 271.577C31.1047 271.151 30.7953 270.937 30.3793 270.937ZM45.3392 272.761C45.3392 275.353 43.7392 277.114 41.4512 277.114C39.1632 277.114 37.5632 275.353 37.5632 272.761C37.5632 270.169 39.1632 268.409 41.4512 268.409C43.7392 268.409 45.3392 270.169 45.3392 272.761ZM39.0192 272.761C39.0192 274.665 39.9792 275.882 41.4512 275.882C42.9232 275.882 43.8832 274.665 43.8832 272.761C43.8832 270.841 42.9232 269.625 41.4512 269.625C39.9792 269.625 39.0192 270.841 39.0192 272.761ZM50.8185 265.305V266.585C50.5785 266.569 50.4345 266.553 50.1945 266.553C49.3465 266.553 48.8825 266.921 48.8825 267.993V268.569H50.7385V269.801H48.8825V276.938H47.4425V269.801H46.1785V268.569H47.4425V267.898C47.4425 266.265 48.3385 265.273 50.0505 265.273C50.3385 265.273 50.4985 265.289 50.8185 265.305ZM58.5557 277.85C58.0757 279.114 57.4197 279.914 55.9637 279.914C55.6117 279.914 55.4357 279.898 55.1797 279.85V278.602C55.4517 278.666 55.6277 278.682 55.8677 278.682C56.4917 278.682 56.8277 278.458 57.1637 277.626L57.5637 276.633L54.4597 268.569H55.9797L58.3317 274.969L60.6517 268.569H62.1557L58.5557 277.85ZM70.4486 272.761C70.4486 275.353 68.8486 277.114 66.5606 277.114C64.2726 277.114 62.6726 275.353 62.6726 272.761C62.6726 270.169 64.2726 268.409 66.5606 268.409C68.8486 268.409 70.4486 270.169 70.4486 272.761ZM64.1286 272.761C64.1286 274.665 65.0886 275.882 66.5606 275.882C68.0326 275.882 68.9926 274.665 68.9926 272.761C68.9926 270.841 68.0326 269.625 66.5606 269.625C65.0886 269.625 64.1286 270.841 64.1286 272.761ZM78.9198 268.569V276.938H77.4798V275.785C76.9998 276.489 76.1838 277.114 74.9998 277.114C73.2078 277.114 72.1998 275.882 72.1998 274.105V268.569H73.6398V273.801C73.6398 274.985 74.1518 275.785 75.3838 275.785C76.4238 275.785 77.4798 275.001 77.4798 273.609V268.569H78.9198ZM85.6471 268.537V269.993C85.4071 269.945 85.2151 269.929 84.9431 269.929C83.7271 269.929 82.7511 270.889 82.7511 272.361V276.938H81.3111V268.569H82.7511V269.993C83.1191 269.145 83.9351 268.505 85.0711 268.505C85.2951 268.505 85.5031 268.521 85.6471 268.537ZM90.608 276.938V265.449H92.048V269.705C92.528 269.017 93.36 268.409 94.544 268.409C96.32 268.409 97.328 269.641 97.328 271.417V276.938H95.888V271.801C95.888 270.633 95.392 269.753 94.144 269.753C93.104 269.753 92.048 270.553 92.048 271.945V276.938H90.608ZM102.983 277.114C100.663 277.114 99.0632 275.337 99.0632 272.761C99.0632 270.265 100.647 268.409 102.919 268.409C105.255 268.409 106.487 270.185 106.487 272.505V272.985H100.439C100.519 274.745 101.527 275.865 102.983 275.865C104.103 275.865 104.903 275.257 105.159 274.265L106.423 274.713C105.911 276.201 104.647 277.114 102.983 277.114ZM102.903 269.641C101.687 269.641 100.775 270.457 100.519 271.881H105.031C104.999 270.697 104.359 269.641 102.903 269.641ZM110.47 277.082C108.95 277.082 107.718 276.185 107.718 274.681C107.718 273.017 109.014 272.329 110.886 271.945L112.918 271.529V271.177C112.918 270.217 112.39 269.673 111.27 269.673C110.214 269.673 109.59 270.169 109.334 271.097L107.974 270.745C108.374 269.385 109.606 268.409 111.318 268.409C113.19 268.409 114.342 269.321 114.342 271.113V275.193C114.342 275.737 114.678 275.913 115.238 275.785V276.938C113.958 277.098 113.222 276.793 113.046 275.993C112.534 276.649 111.606 277.082 110.47 277.082ZM112.918 274.089V272.649L111.286 273.001C110.006 273.257 109.142 273.609 109.142 274.617C109.142 275.433 109.734 275.913 110.646 275.913C111.878 275.913 112.918 275.161 112.918 274.089ZM118.235 265.449V276.938H116.795V265.449H118.235ZM120.863 274.938V269.801H119.567V268.569H120.863V266.121H122.287V268.569H124.191V269.801H122.287V274.713C122.287 275.593 122.719 275.753 123.455 275.753C123.791 275.753 124.031 275.721 124.367 275.657V276.889C123.999 276.97 123.583 277.018 123.103 277.018C121.679 277.018 120.863 276.537 120.863 274.938ZM126.077 276.938V265.449H127.517V269.705C127.997 269.017 128.829 268.409 130.013 268.409C131.789 268.409 132.797 269.641 132.797 271.417V276.938H131.357V271.801C131.357 270.633 130.861 269.753 129.613 269.753C128.573 269.753 127.517 270.553 127.517 271.945V276.938H126.077ZM138.419 267.113V265.449H139.987V267.113H138.419ZM139.923 268.569V276.938H138.483V268.569H139.923ZM141.399 275.161L142.519 274.345C142.967 275.321 143.991 275.913 145.079 275.913C146.055 275.913 146.919 275.497 146.919 274.586C146.919 273.673 146.119 273.545 144.743 273.257C143.367 272.953 141.927 272.649 141.927 270.937C141.927 269.449 143.223 268.409 144.999 268.409C146.503 268.409 147.735 269.145 148.231 270.137L147.207 270.953C146.775 270.121 145.991 269.593 144.935 269.593C143.975 269.593 143.335 270.073 143.335 270.825C143.335 271.609 144.071 271.753 145.239 272.009C146.679 272.345 148.327 272.633 148.327 274.457C148.327 276.057 146.871 277.114 145.079 277.114C143.559 277.114 142.039 276.457 141.399 275.161ZM153.707 274.938V269.801H152.411V268.569H153.707V266.121H155.131V268.569H157.035V269.801H155.131V274.713C155.131 275.593 155.563 275.753 156.299 275.753C156.635 275.753 156.875 275.721 157.211 275.657V276.889C156.843 276.97 156.427 277.018 155.947 277.018C154.523 277.018 153.707 276.537 153.707 274.938ZM158.856 267.113V265.449H160.424V267.113H158.856ZM160.36 268.569V276.938H158.92V268.569H160.36ZM166.108 277.114C163.788 277.114 162.188 275.337 162.188 272.761C162.188 270.265 163.772 268.409 166.044 268.409C168.38 268.409 169.612 270.185 169.612 272.505V272.985H163.564C163.644 274.745 164.652 275.865 166.108 275.865C167.228 275.865 168.028 275.257 168.284 274.265L169.548 274.713C169.036 276.201 167.772 277.114 166.108 277.114ZM166.028 269.641C164.812 269.641 163.9 270.457 163.644 271.881H168.156C168.124 270.697 167.484 269.641 166.028 269.641ZM174.477 277.114C172.157 277.114 170.829 275.129 170.829 272.761C170.829 270.377 172.157 268.409 174.477 268.409C175.645 268.409 176.557 268.969 177.069 269.785V265.449H178.509V276.938H177.069V275.721C176.557 276.553 175.645 277.114 174.477 277.114ZM177.101 272.473C177.101 270.521 175.917 269.673 174.733 269.673C173.165 269.673 172.285 270.953 172.285 272.761C172.285 274.553 173.165 275.849 174.733 275.849C175.917 275.849 177.101 274.985 177.101 273.065V272.473ZM184.488 274.938V269.801H183.192V268.569H184.488V266.121H185.912V268.569H187.816V269.801H185.912V274.713C185.912 275.593 186.344 275.753 187.08 275.753C187.416 275.753 187.656 275.721 187.992 275.657V276.889C187.624 276.97 187.208 277.018 186.728 277.018C185.304 277.018 184.488 276.537 184.488 274.938ZM196.855 272.761C196.855 275.353 195.255 277.114 192.967 277.114C190.679 277.114 189.079 275.353 189.079 272.761C189.079 270.169 190.679 268.409 192.967 268.409C195.255 268.409 196.855 270.169 196.855 272.761ZM190.535 272.761C190.535 274.665 191.495 275.882 192.967 275.882C194.439 275.882 195.399 274.665 195.399 272.761C195.399 270.841 194.439 269.625 192.967 269.625C191.495 269.625 190.535 270.841 190.535 272.761ZM205.709 265.305V266.585C205.469 266.569 205.325 266.553 205.085 266.553C204.237 266.553 203.773 266.921 203.773 267.993V268.569H205.629V269.801H203.773V276.938H202.333V269.801H201.069V268.569H202.333V267.898C202.333 266.265 203.229 265.273 204.941 265.273C205.229 265.273 205.389 265.289 205.709 265.305ZM209.063 277.082C207.543 277.082 206.311 276.185 206.311 274.681C206.311 273.017 207.607 272.329 209.479 271.945L211.511 271.529V271.177C211.511 270.217 210.983 269.673 209.863 269.673C208.807 269.673 208.183 270.169 207.927 271.097L206.567 270.745C206.967 269.385 208.199 268.409 209.911 268.409C211.783 268.409 212.935 269.321 212.935 271.113V275.193C212.935 275.737 213.271 275.913 213.831 275.785V276.938C212.551 277.098 211.815 276.793 211.639 275.993C211.127 276.649 210.199 277.082 209.063 277.082ZM211.511 274.089V272.649L209.879 273.001C208.599 273.257 207.735 273.609 207.735 274.617C207.735 275.433 208.327 275.913 209.239 275.913C210.471 275.913 211.511 275.161 211.511 274.089ZM216.253 272.761C216.253 274.665 217.277 275.849 218.765 275.849C219.917 275.849 220.605 275.113 220.845 274.073L222.125 274.665C221.725 276.057 220.509 277.114 218.765 277.114C216.429 277.114 214.813 275.337 214.813 272.761C214.813 270.169 216.429 268.409 218.765 268.409C220.509 268.409 221.693 269.417 222.093 270.809L220.845 271.433C220.605 270.409 219.917 269.657 218.765 269.657C217.277 269.657 216.253 270.841 216.253 272.761ZM223.926 274.938V269.801H222.63V268.569H223.926V266.121H225.35V268.569H227.254V269.801H225.35V274.713C225.35 275.593 225.782 275.753 226.518 275.753C226.854 275.753 227.094 275.721 227.43 275.657V276.889C227.062 276.97 226.646 277.018 226.166 277.018C224.742 277.018 223.926 276.537 223.926 274.938ZM236.292 272.761C236.292 275.353 234.692 277.114 232.404 277.114C230.116 277.114 228.516 275.353 228.516 272.761C228.516 270.169 230.116 268.409 232.404 268.409C234.692 268.409 236.292 270.169 236.292 272.761ZM229.972 272.761C229.972 274.665 230.932 275.882 232.404 275.882C233.876 275.882 234.836 274.665 234.836 272.761C234.836 270.841 233.876 269.625 232.404 269.625C230.932 269.625 229.972 270.841 229.972 272.761ZM242.46 268.537V269.993C242.22 269.945 242.028 269.929 241.756 269.929C240.54 269.929 239.564 270.889 239.564 272.361V276.938H238.124V268.569H239.564V269.993C239.932 269.145 240.748 268.505 241.884 268.505C242.108 268.505 242.316 268.521 242.46 268.537ZM242.961 275.161L244.081 274.345C244.529 275.321 245.553 275.913 246.641 275.913C247.617 275.913 248.481 275.497 248.481 274.586C248.481 273.673 247.681 273.545 246.305 273.257C244.929 272.953 243.489 272.649 243.489 270.937C243.489 269.449 244.785 268.409 246.561 268.409C248.065 268.409 249.297 269.145 249.793 270.137L248.769 270.953C248.337 270.121 247.553 269.593 246.497 269.593C245.537 269.593 244.897 270.073 244.897 270.825C244.897 271.609 245.633 271.753 246.801 272.009C248.241 272.345 249.889 272.633 249.889 274.457C249.889 276.057 248.433 277.114 246.641 277.114C245.121 277.114 243.601 276.457 242.961 275.161ZM262.245 272.761C262.245 275.353 260.645 277.114 258.357 277.114C256.069 277.114 254.469 275.353 254.469 272.761C254.469 270.169 256.069 268.409 258.357 268.409C260.645 268.409 262.245 270.169 262.245 272.761ZM255.925 272.761C255.925 274.665 256.885 275.882 258.357 275.882C259.829 275.882 260.789 274.665 260.789 272.761C260.789 270.841 259.829 269.625 258.357 269.625C256.885 269.625 255.925 270.841 255.925 272.761ZM270.717 268.569V276.938H269.277V275.785C268.797 276.489 267.981 277.114 266.797 277.114C265.005 277.114 263.997 275.882 263.997 274.105V268.569H265.437V273.801C265.437 274.985 265.949 275.785 267.181 275.785C268.221 275.785 269.277 275.001 269.277 273.609V268.569H270.717ZM273.332 274.938V269.801H272.036V268.569H273.332V266.121H274.756V268.569H276.66V269.801H274.756V274.713C274.756 275.593 275.188 275.753 275.924 275.753C276.26 275.753 276.5 275.721 276.836 275.657V276.889C276.468 276.97 276.052 277.018 275.572 277.018C274.148 277.018 273.332 276.537 273.332 274.938ZM277.617 275.161L278.737 274.345C279.185 275.321 280.209 275.913 281.297 275.913C282.273 275.913 283.137 275.497 283.137 274.586C283.137 273.673 282.337 273.545 280.961 273.257C279.585 272.953 278.145 272.649 278.145 270.937C278.145 269.449 279.441 268.409 281.217 268.409C282.721 268.409 283.953 269.145 284.449 270.137L283.425 270.953C282.993 270.121 282.209 269.593 281.153 269.593C280.193 269.593 279.553 270.073 279.553 270.825C279.553 271.609 280.289 271.753 281.457 272.009C282.897 272.345 284.545 272.633 284.545 274.457C284.545 276.057 283.089 277.114 281.297 277.114C279.777 277.114 278.257 276.457 277.617 275.161ZM286.263 267.113V265.449H287.831V267.113H286.263ZM287.767 268.569V276.938H286.327V268.569H287.767ZM293.242 277.114C290.922 277.114 289.594 275.129 289.594 272.761C289.594 270.377 290.922 268.409 293.242 268.409C294.41 268.409 295.322 268.969 295.834 269.785V265.449H297.274V276.938H295.834V275.721C295.322 276.553 294.41 277.114 293.242 277.114ZM295.866 272.473C295.866 270.521 294.682 269.673 293.498 269.673C291.93 269.673 291.05 270.953 291.05 272.761C291.05 274.553 291.93 275.849 293.498 275.849C294.682 275.849 295.866 274.985 295.866 273.065V272.473ZM302.999 277.114C300.679 277.114 299.079 275.337 299.079 272.761C299.079 270.265 300.663 268.409 302.935 268.409C305.271 268.409 306.503 270.185 306.503 272.505V272.985H300.455C300.535 274.745 301.543 275.865 302.999 275.865C304.119 275.865 304.919 275.257 305.175 274.265L306.439 274.713C305.927 276.201 304.663 277.114 302.999 277.114ZM302.919 269.641C301.703 269.641 300.791 270.457 300.535 271.881H305.047C305.015 270.697 304.375 269.641 302.919 269.641ZM318.87 272.761C318.87 275.353 317.27 277.114 314.982 277.114C312.694 277.114 311.094 275.353 311.094 272.761C311.094 270.169 312.694 268.409 314.982 268.409C317.27 268.409 318.87 270.169 318.87 272.761ZM312.55 272.761C312.55 274.665 313.51 275.882 314.982 275.882C316.454 275.882 317.414 274.665 317.414 272.761C317.414 270.841 316.454 269.625 314.982 269.625C313.51 269.625 312.55 270.841 312.55 272.761ZM324.35 265.305V266.585C324.11 266.569 323.966 266.553 323.726 266.553C322.878 266.553 322.414 266.921 322.414 267.993V268.569H324.27V269.801H322.414V276.938H320.974V269.801H319.71V268.569H320.974V267.898C320.974 266.265 321.87 265.273 323.582 265.273C323.87 265.273 324.03 265.289 324.35 265.305ZM331.079 277.082C329.559 277.082 328.327 276.185 328.327 274.681C328.327 273.017 329.623 272.329 331.495 271.945L333.527 271.529V271.177C333.527 270.217 332.999 269.673 331.879 269.673C330.823 269.673 330.199 270.169 329.943 271.097L328.583 270.745C328.983 269.385 330.215 268.409 331.927 268.409C333.799 268.409 334.951 269.321 334.951 271.113V275.193C334.951 275.737 335.287 275.913 335.847 275.785V276.938C334.567 277.098 333.831 276.793 333.655 275.993C333.143 276.649 332.215 277.082 331.079 277.082ZM333.527 274.089V272.649L331.895 273.001C330.615 273.257 329.751 273.609 329.751 274.617C329.751 275.433 330.343 275.913 331.255 275.913C332.487 275.913 333.527 275.161 333.527 274.089ZM2.06108 302.938V291.449H3.50108V295.705C3.98108 295.017 4.81308 294.409 5.99708 294.409C7.77308 294.409 8.78108 295.641 8.78108 297.417V302.938H7.34108V297.801C7.34108 296.633 6.84508 295.753 5.59708 295.753C4.55708 295.753 3.50108 296.553 3.50108 297.945V302.938H2.06108ZM18.2923 298.761C18.2923 301.353 16.6923 303.114 14.4043 303.114C12.1163 303.114 10.5163 301.353 10.5163 298.761C10.5163 296.169 12.1163 294.409 14.4043 294.409C16.6923 294.409 18.2923 296.169 18.2923 298.761ZM11.9723 298.761C11.9723 300.665 12.9323 301.882 14.4043 301.882C15.8763 301.882 16.8363 300.665 16.8363 298.761C16.8363 296.841 15.8763 295.625 14.4043 295.625C12.9323 295.625 11.9723 296.841 11.9723 298.761ZM19.1956 301.161L20.3156 300.345C20.7636 301.321 21.7876 301.913 22.8756 301.913C23.8516 301.913 24.7156 301.497 24.7156 300.586C24.7156 299.673 23.9156 299.545 22.5396 299.257C21.1636 298.953 19.7236 298.649 19.7236 296.937C19.7236 295.449 21.0196 294.409 22.7956 294.409C24.2996 294.409 25.5316 295.145 26.0276 296.137L25.0036 296.953C24.5716 296.121 23.7876 295.593 22.7316 295.593C21.7716 295.593 21.1316 296.073 21.1316 296.825C21.1316 297.609 21.8676 297.753 23.0356 298.009C24.4756 298.345 26.1236 298.633 26.1236 300.457C26.1236 302.057 24.6676 303.114 22.8756 303.114C21.3556 303.114 19.8356 302.457 19.1956 301.161ZM31.9368 303.114C30.7688 303.114 29.8408 302.553 29.3448 301.721V305.818H27.9048V294.569H29.3448V295.785C29.8408 294.969 30.7688 294.409 31.9368 294.409C34.2568 294.409 35.5848 296.377 35.5848 298.761C35.5848 301.129 34.2568 303.114 31.9368 303.114ZM29.3128 298.473V299.065C29.3128 300.985 30.4968 301.849 31.6808 301.849C33.2488 301.849 34.1288 300.553 34.1288 298.761C34.1288 296.953 33.2488 295.673 31.6808 295.673C30.4968 295.673 29.3128 296.521 29.3128 298.473ZM37.3408 293.113V291.449H38.9088V293.113H37.3408ZM38.8448 294.569V302.938H37.4048V294.569H38.8448ZM41.4726 300.938V295.801H40.1766V294.569H41.4726V292.121H42.8966V294.569H44.8006V295.801H42.8966V300.713C42.8966 301.593 43.3286 301.753 44.0646 301.753C44.4006 301.753 44.6406 301.721 44.9766 301.657V302.889C44.6086 302.97 44.1926 303.018 43.7126 303.018C42.2886 303.018 41.4726 302.537 41.4726 300.938ZM48.7821 303.082C47.2621 303.082 46.0301 302.185 46.0301 300.681C46.0301 299.017 47.3261 298.329 49.1981 297.945L51.2301 297.529V297.177C51.2301 296.217 50.7021 295.673 49.5821 295.673C48.5261 295.673 47.9021 296.169 47.6461 297.097L46.2861 296.745C46.6861 295.385 47.9181 294.409 49.6301 294.409C51.5021 294.409 52.6541 295.321 52.6541 297.113V301.193C52.6541 301.737 52.9901 301.913 53.5501 301.785V302.938C52.2701 303.098 51.5341 302.793 51.3581 301.993C50.8461 302.649 49.9181 303.082 48.7821 303.082ZM51.2301 300.089V298.649L49.5981 299.001C48.3181 299.257 47.4541 299.609 47.4541 300.617C47.4541 301.433 48.0461 301.913 48.9581 301.913C50.1901 301.913 51.2301 301.161 51.2301 300.089ZM56.548 291.449V302.938H55.108V291.449H56.548ZM69.5267 298.761C69.5267 301.353 67.9267 303.114 65.6387 303.114C63.3507 303.114 61.7507 301.353 61.7507 298.761C61.7507 296.169 63.3507 294.409 65.6387 294.409C67.9267 294.409 69.5267 296.169 69.5267 298.761ZM63.2067 298.761C63.2067 300.665 64.1667 301.882 65.6387 301.882C67.1107 301.882 68.0707 300.665 68.0707 298.761C68.0707 296.841 67.1107 295.625 65.6387 295.625C64.1667 295.625 63.2067 296.841 63.2067 298.761ZM75.694 294.537V295.993C75.454 295.945 75.262 295.929 74.99 295.929C73.774 295.929 72.798 296.889 72.798 298.361V302.938H71.358V294.569H72.798V295.993C73.166 295.145 73.982 294.505 75.118 294.505C75.342 294.505 75.55 294.521 75.694 294.537ZM81.5188 298.761C81.5188 300.665 82.5428 301.849 84.0308 301.849C85.1828 301.849 85.8708 301.113 86.1108 300.073L87.3908 300.665C86.9908 302.057 85.7748 303.114 84.0308 303.114C81.6948 303.114 80.0788 301.337 80.0788 298.761C80.0788 296.169 81.6948 294.409 84.0308 294.409C85.7748 294.409 86.9588 295.417 87.3588 296.809L86.1108 297.433C85.8708 296.409 85.1828 295.657 84.0308 295.657C82.5428 295.657 81.5188 296.841 81.5188 298.761ZM90.4073 291.449V302.938H88.9673V291.449H90.4073ZM92.7471 293.113V291.449H94.3151V293.113H92.7471ZM94.2511 294.569V302.938H92.8111V294.569H94.2511ZM96.6548 302.938V294.569H98.0948V295.705C98.5748 295.017 99.4068 294.409 100.591 294.409C102.367 294.409 103.375 295.641 103.375 297.417V302.938H101.935V297.801C101.935 296.633 101.439 295.753 100.191 295.753C99.1508 295.753 98.0948 296.553 98.0948 297.945V302.938H96.6548ZM105.622 293.113V291.449H107.19V293.113H105.622ZM107.126 294.569V302.938H105.686V294.569H107.126ZM110.394 298.761C110.394 300.665 111.418 301.849 112.906 301.849C114.058 301.849 114.746 301.113 114.986 300.073L116.266 300.665C115.866 302.057 114.65 303.114 112.906 303.114C110.57 303.114 108.954 301.337 108.954 298.761C108.954 296.169 110.57 294.409 112.906 294.409C114.65 294.409 115.834 295.417 116.234 296.809L114.986 297.433C114.746 296.409 114.058 295.657 112.906 295.657C111.418 295.657 110.394 296.841 110.394 298.761ZM117.444 302.938V301.049H119.268V302.938H117.444Z" fill="#313131" fill-opacity="0.8"/>
</svg>
