<svg width="379" height="312" viewBox="0 0 379 312" fill="none" xmlns="http://www.w3.org/2000/svg">
<path d="M13.6644 45.1603L5.45897 44.0285L7.72255 17.1485H36.3002V25.071H14.6547L13.523 37.5207C15.5743 35.6108 18.7575 34.0546 22.7895 34.0546C32.9048 34.0546 39.3419 41.482 39.3419 51.1729C39.3419 61.1468 31.5608 68.7156 21.0918 68.7156C11.1179 68.7156 3.90276 63.2689 2.27582 53.4365L10.9764 51.8803C11.8253 57.6099 15.6451 61.2175 21.0918 61.2175C26.6093 61.2175 30.8535 57.044 30.8535 51.4558C30.8535 45.8676 27.2459 41.4112 21.5869 41.4112C17.9086 41.4112 15.1499 43.1089 13.6644 45.1603ZM42.7151 60.5809L55.4477 50.1118C62.3799 44.4529 68.6048 39.4306 68.6048 33.0643C68.6048 27.8298 65.3509 24.0807 59.9749 24.0807C54.6696 24.0807 51.2035 28.2542 51.2035 33.2765C51.2035 34.9034 51.4865 36.5304 52.0524 38.0866H43.6347C42.9273 36.0352 42.7151 34.6912 42.7151 32.7813C42.7151 23.2319 50.5669 16.3704 60.1871 16.3704C70.7976 16.3704 77.5883 22.9489 77.5883 32.4984C77.5883 41.482 70.7976 47.6361 63.6532 53.295L55.1648 60.015H78.225V67.9375H42.7151V60.5809ZM94.0954 16.7241C97.5851 16.7241 100.226 18.1153 102.018 20.8976C103.81 23.6327 104.706 27.4997 104.706 32.4984C104.706 37.4971 103.834 41.4112 102.089 44.2407C100.391 47.023 97.7266 48.4142 94.0954 48.4142C91.879 48.4142 89.9927 47.7775 88.4365 46.5043C86.8803 45.231 85.7013 43.4154 84.8996 41.0575C84.1451 38.6525 83.7679 35.7994 83.7679 32.4984C83.7679 27.4997 84.5931 23.6327 86.2436 20.8976C87.8942 18.1153 90.5114 16.7241 94.0954 16.7241ZM94.0954 21.1098C92.3034 21.1098 90.983 22.0765 90.1342 24.01C89.3325 25.8963 88.9316 28.7258 88.9316 32.4984C88.9316 36.271 89.3325 39.1241 90.1342 41.0575C90.983 42.991 92.3034 43.9577 94.0954 43.9577C95.9346 43.9577 97.3022 43.0146 98.1982 41.1283C99.0942 39.1948 99.5422 36.3182 99.5422 32.4984C99.5422 28.7258 99.0942 25.8963 98.1982 24.01C97.3022 22.0765 95.9346 21.1098 94.0954 21.1098ZM126.422 17.4315L98.4104 67.9375H92.9636L120.975 17.4315H126.422ZM125.007 36.9548C127.318 36.9548 129.252 37.5914 130.808 38.8647C132.364 40.0908 133.543 41.8828 134.345 44.2407C135.193 46.5514 135.618 49.3809 135.618 52.7291C135.618 57.7278 134.745 61.6419 133.001 64.4714C131.303 67.2537 128.639 68.6449 125.007 68.6449C122.791 68.6449 120.905 68.0082 119.348 66.735C117.792 65.4617 116.613 63.6461 115.812 61.2882C115.057 58.8832 114.68 56.0301 114.68 52.7291C114.68 47.7304 115.505 43.8634 117.156 41.1283C118.806 38.346 121.423 36.9548 125.007 36.9548ZM125.007 41.4112C123.215 41.4112 121.895 42.3544 121.046 44.2407C120.244 46.127 119.844 48.9565 119.844 52.7291C119.844 56.5489 120.244 59.4255 121.046 61.359C121.895 63.2453 123.215 64.1885 125.007 64.1885C126.847 64.1885 128.214 63.2453 129.11 61.359C130.006 59.4727 130.454 56.596 130.454 52.7291C130.454 48.9565 130.006 46.127 129.11 44.2407C128.214 42.3544 126.847 41.4112 125.007 41.4112Z" fill="#313131"/>
<circle cx="227.571" cy="222.537" r="11.085" transform="rotate(180 227.571 222.537)" fill="#E45F0C"/>
<circle cx="199.946" cy="222.537" r="11.085" transform="rotate(180 199.946 222.537)" fill="#E45F0C"/>
<circle cx="172.946" cy="222.537" r="11.085" transform="rotate(180 172.946 222.537)" fill="#E45F0C"/>
<circle cx="146.946" cy="222.537" r="11.085" transform="rotate(180 146.946 222.537)" fill="#E45F0C"/>
<circle cx="310.119" cy="222.537" r="11.085" transform="rotate(180 310.119 222.537)" fill="#E45F0C"/>
<circle cx="227.571" cy="195.65" r="11.085" transform="rotate(180 227.571 195.65)" fill="#E45F0C"/>
<circle cx="199.946" cy="195.65" r="11.085" transform="rotate(180 199.946 195.65)" fill="#E45F0C"/>
<circle cx="173.085" cy="195.65" r="11.085" transform="rotate(180 173.085 195.65)" fill="#E45F0C"/>
<circle cx="147.085" cy="195.65" r="11.085" transform="rotate(180 147.085 195.65)" fill="#E45F0C"/>
<circle cx="120.776" cy="195.65" r="11.085" transform="rotate(180 120.776 195.65)" fill="#E45F0C"/>
<circle cx="93.776" cy="195.65" r="11.085" transform="rotate(180 93.776 195.65)" fill="#E45F0C"/>
<circle cx="65.9462" cy="195.65" r="11.085" transform="rotate(180 65.9462 195.65)" fill="#E45F0C"/>
<circle cx="38.9462" cy="195.65" r="11.085" transform="rotate(180 38.9462 195.65)" fill="#E45F0C"/>
<circle cx="11.9461" cy="195.65" r="11.085" transform="rotate(180 11.9461 195.65)" fill="#E45F0C"/>
<circle cx="227.946" cy="168.868" r="11.085" transform="rotate(180 227.946 168.868)" fill="#E45F0C"/>
<circle cx="199.946" cy="168.868" r="11.085" transform="rotate(180 199.946 168.868)" fill="#E45F0C"/>
<circle cx="173.46" cy="168.868" r="11.085" transform="rotate(180 173.46 168.868)" fill="#E45F0C"/>
<circle cx="147.46" cy="168.868" r="11.085" transform="rotate(180 147.46 168.868)" fill="#E45F0C"/>
<circle cx="120.776" cy="168.868" r="11.085" transform="rotate(180 120.776 168.868)" fill="#E45F0C"/>
<circle cx="93.776" cy="168.868" r="11.085" transform="rotate(180 93.776 168.868)" fill="#E45F0C"/>
<circle cx="65.9462" cy="168.868" r="11.085" transform="rotate(180 65.9462 168.868)" fill="#E45F0C"/>
<circle cx="38.9462" cy="168.868" r="11.085" transform="rotate(180 38.9462 168.868)" fill="#E45F0C"/>
<circle cx="11.9461" cy="168.868" r="11.085" transform="rotate(180 11.9461 168.868)" fill="#E45F0C"/>
<circle cx="227.946" cy="141.868" r="11.085" transform="rotate(180 227.946 141.868)" fill="#E45F0C"/>
<circle cx="199.946" cy="141.868" r="11.085" transform="rotate(180 199.946 141.868)" fill="#E45F0C"/>
<circle cx="173.46" cy="141.868" r="11.085" transform="rotate(180 173.46 141.868)" fill="#E45F0C"/>
<circle cx="147.46" cy="141.868" r="11.085" transform="rotate(180 147.46 141.868)" fill="#E45F0C"/>
<circle cx="120.776" cy="141.868" r="11.085" transform="rotate(180 120.776 141.868)" fill="#E45F0C"/>
<circle cx="93.776" cy="141.868" r="11.085" transform="rotate(180 93.776 141.868)" fill="#E45F0C"/>
<circle cx="65.9462" cy="141.868" r="11.085" transform="rotate(180 65.9462 141.868)" fill="#E45F0C"/>
<circle cx="38.9462" cy="141.868" r="11.085" transform="rotate(180 38.9462 141.868)" fill="#E45F0C"/>
<circle cx="11.9461" cy="141.868" r="11.085" transform="rotate(180 11.9461 141.868)" fill="#E45F0C"/>
<circle cx="310.119" cy="195.65" r="11.085" transform="rotate(180 310.119 195.65)" fill="#E45F0C"/>
<circle cx="255.401" cy="222.537" r="11.085" transform="rotate(180 255.401 222.537)" fill="#E45F0C"/>
<circle cx="93.776" cy="222.447" r="11.085" transform="rotate(180 93.776 222.447)" fill="#E45F0C"/>
<circle cx="65.9462" cy="222.447" r="11.085" transform="rotate(180 65.9462 222.447)" fill="#E45F0C"/>
<circle cx="38.9462" cy="222.447" r="11.085" transform="rotate(180 38.9462 222.447)" fill="#E45F0C"/>
<circle cx="11.9461" cy="222.447" r="11.085" transform="rotate(180 11.9461 222.447)" fill="#E45F0C"/>
<circle cx="282.76" cy="222.537" r="11.085" transform="rotate(180 282.76 222.537)" fill="#E45F0C"/>
<circle cx="120.776" cy="222.447" r="11.085" transform="rotate(180 120.776 222.447)" fill="#E45F0C"/>
<circle cx="337.477" cy="222.537" r="11.085" transform="rotate(180 337.477 222.537)" fill="#E45F0C"/>
<circle cx="364.836" cy="222.537" r="11.085" transform="rotate(180 364.836 222.537)" fill="#E45F0C"/>
<circle cx="364.836" cy="141.91" r="11.085" transform="rotate(180 364.836 141.91)" fill="#E45F0C"/>
<circle cx="282.76" cy="195.65" r="11.085" transform="rotate(180 282.76 195.65)" fill="#E45F0C"/>
<circle cx="337.477" cy="195.65" r="11.085" transform="rotate(180 337.477 195.65)" fill="#E45F0C"/>
<circle cx="364.836" cy="195.65" r="11.085" transform="rotate(180 364.836 195.65)" fill="#E45F0C"/>
<circle cx="364.836" cy="115.022" r="11.085" transform="rotate(180 364.836 115.022)" fill="#E45F0C"/>
<circle cx="282.76" cy="168.763" r="11.085" transform="rotate(180 282.76 168.763)" fill="#E45F0C"/>
<circle cx="364.836" cy="168.763" r="11.085" transform="rotate(180 364.836 168.763)" fill="#E45F0C"/>
<circle cx="310.081" cy="168.752" r="11.085" transform="rotate(180 310.081 168.752)" fill="#E45F0C"/>
<circle cx="337.477" cy="168.752" r="11.085" transform="rotate(180 337.477 168.752)" fill="#E45F0C"/>
<circle cx="337.477" cy="142.049" r="11.085" transform="rotate(180 337.477 142.049)" fill="#E45F0C"/>
<circle cx="310.081" cy="142.049" r="11.085" transform="rotate(180 310.081 142.049)" fill="#E45F0C"/>
<circle cx="282.686" cy="142.049" r="11.085" transform="rotate(180 282.686 142.049)" fill="#E45F0C"/>
<circle cx="255.073" cy="195.709" r="11.085" transform="rotate(180 255.073 195.709)" fill="#E45F0C"/>
<circle cx="255.511" cy="168.752" r="11.085" transform="rotate(180 255.511 168.752)" fill="#E45F0C"/>
<circle cx="255.511" cy="142.049" r="11.085" transform="rotate(180 255.511 142.049)" fill="#E45F0C"/>
<path d="M5.66108 272.121V276.938H4.12508V265.449H8.50908C10.9411 265.449 12.4931 266.585 12.4931 268.777C12.4931 270.617 11.3731 271.737 9.54908 272.041L12.7331 276.938H10.9731L7.88508 272.121H5.66108ZM5.66108 270.793H8.42908C10.0611 270.793 10.9731 270.073 10.9731 268.777C10.9731 267.481 10.0611 266.777 8.42908 266.777H5.66108V270.793ZM17.6238 277.114C15.3038 277.114 13.7038 275.337 13.7038 272.761C13.7038 270.265 15.2878 268.409 17.5598 268.409C19.8958 268.409 21.1278 270.185 21.1278 272.505V272.985H15.0798C15.1598 274.745 16.1678 275.865 17.6238 275.865C18.7438 275.865 19.5438 275.257 19.7998 274.265L21.0638 274.713C20.5518 276.201 19.2878 277.114 17.6238 277.114ZM17.5438 269.641C16.3278 269.641 15.4158 270.457 15.1598 271.881H19.6718C19.6398 270.697 18.9998 269.641 17.5438 269.641ZM25.9925 277.114C23.6725 277.114 22.3445 275.129 22.3445 272.761C22.3445 270.377 23.6725 268.409 25.9925 268.409C27.1605 268.409 28.0725 268.969 28.5845 269.785V265.449H30.0245V276.938H28.5845V275.721C28.0725 276.553 27.1605 277.114 25.9925 277.114ZM28.6165 272.473C28.6165 270.521 27.4325 269.673 26.2485 269.673C24.6805 269.673 23.8005 270.953 23.8005 272.761C23.8005 274.553 24.6805 275.849 26.2485 275.849C27.4325 275.849 28.6165 274.985 28.6165 273.065V272.473ZM39.0448 268.569V276.938H37.6048V275.785C37.1248 276.489 36.3088 277.114 35.1248 277.114C33.3328 277.114 32.3248 275.882 32.3248 274.105V268.569H33.7648V273.801C33.7648 274.985 34.2768 275.785 35.5088 275.785C36.5488 275.785 37.6048 275.001 37.6048 273.609V268.569H39.0448ZM42.3001 272.761C42.3001 274.665 43.3241 275.849 44.8121 275.849C45.9641 275.849 46.6521 275.113 46.8921 274.073L48.1721 274.665C47.7721 276.057 46.5561 277.114 44.8121 277.114C42.4761 277.114 40.8601 275.337 40.8601 272.761C40.8601 270.169 42.4761 268.409 44.8121 268.409C46.5561 268.409 47.7401 269.417 48.1401 270.809L46.8921 271.433C46.6521 270.409 45.9641 269.657 44.8121 269.657C43.3241 269.657 42.3001 270.841 42.3001 272.761ZM49.6846 267.113V265.449H51.2526V267.113H49.6846ZM51.1886 268.569V276.938H49.7486V268.569H51.1886ZM53.5923 276.938V268.569H55.0323V269.705C55.5123 269.017 56.3443 268.409 57.5283 268.409C59.3043 268.409 60.3123 269.641 60.3123 271.417V276.938H58.8723V271.801C58.8723 270.633 58.3763 269.753 57.1283 269.753C56.0883 269.753 55.0323 270.553 55.0323 271.945V276.938H53.5923ZM69.7116 276.185C69.7116 278.634 68.0956 279.994 65.8236 279.994C63.9836 279.994 62.6396 279.146 62.1756 277.61L63.5196 277.098C63.7916 278.17 64.6556 278.794 65.8236 278.794C67.2956 278.794 68.2716 278.042 68.2716 276.297V275.353C67.8236 276.169 66.8796 276.745 65.7116 276.745C63.4236 276.745 62.0796 274.857 62.0796 272.569C62.0796 270.297 63.4236 268.409 65.7116 268.409C66.8636 268.409 67.8236 268.985 68.2716 269.801V268.569H69.7116V276.185ZM68.2876 272.441C68.2876 270.569 67.1676 269.673 65.9676 269.673C64.4476 269.673 63.5196 270.809 63.5196 272.569C63.5196 274.329 64.4476 275.481 65.9676 275.481C67.1676 275.481 68.2876 274.586 68.2876 272.745V272.441ZM79.819 268.537V269.993C79.579 269.945 79.387 269.929 79.115 269.929C77.899 269.929 76.923 270.889 76.923 272.361V276.938H75.483V268.569H76.923V269.993C77.291 269.145 78.107 268.505 79.243 268.505C79.467 268.505 79.675 268.521 79.819 268.537ZM84.4051 277.114C82.0851 277.114 80.4851 275.337 80.4851 272.761C80.4851 270.265 82.0691 268.409 84.3411 268.409C86.6771 268.409 87.9091 270.185 87.9091 272.505V272.985H81.8611C81.9411 274.745 82.9491 275.865 84.4051 275.865C85.5251 275.865 86.3251 275.257 86.5811 274.265L87.8451 274.713C87.3331 276.201 86.0691 277.114 84.4051 277.114ZM84.3251 269.641C83.1091 269.641 82.1971 270.457 81.9411 271.881H86.4531C86.4211 270.697 85.7811 269.641 84.3251 269.641ZM93.7337 277.114C92.5657 277.114 91.6377 276.553 91.1417 275.721V279.818H89.7017V268.569H91.1417V269.785C91.6377 268.969 92.5657 268.409 93.7337 268.409C96.0537 268.409 97.3817 270.377 97.3817 272.761C97.3817 275.129 96.0537 277.114 93.7337 277.114ZM91.1097 272.473V273.065C91.1097 274.985 92.2937 275.849 93.4777 275.849C95.0457 275.849 95.9257 274.553 95.9257 272.761C95.9257 270.953 95.0457 269.673 93.4777 269.673C92.2937 269.673 91.1097 270.521 91.1097 272.473ZM102.546 277.114C100.226 277.114 98.6257 275.337 98.6257 272.761C98.6257 270.265 100.21 268.409 102.482 268.409C104.818 268.409 106.05 270.185 106.05 272.505V272.985H100.002C100.082 274.745 101.09 275.865 102.546 275.865C103.666 275.865 104.466 275.257 104.722 274.265L105.986 274.713C105.474 276.201 104.21 277.114 102.546 277.114ZM102.466 269.641C101.25 269.641 100.338 270.457 100.082 271.881H104.594C104.562 270.697 103.922 269.641 102.466 269.641ZM110.032 277.082C108.512 277.082 107.28 276.185 107.28 274.681C107.28 273.017 108.576 272.329 110.448 271.945L112.48 271.529V271.177C112.48 270.217 111.952 269.673 110.832 269.673C109.776 269.673 109.152 270.169 108.896 271.097L107.536 270.745C107.936 269.385 109.168 268.409 110.88 268.409C112.752 268.409 113.904 269.321 113.904 271.113V275.193C113.904 275.737 114.24 275.913 114.8 275.785V276.938C113.52 277.098 112.784 276.793 112.608 275.993C112.096 276.649 111.168 277.082 110.032 277.082ZM112.48 274.089V272.649L110.848 273.001C109.568 273.257 108.704 273.609 108.704 274.617C108.704 275.433 109.296 275.913 110.208 275.913C111.44 275.913 112.48 275.161 112.48 274.089ZM116.582 274.938V269.801H115.286V268.569H116.582V266.121H118.006V268.569H119.91V269.801H118.006V274.713C118.006 275.593 118.438 275.753 119.174 275.753C119.51 275.753 119.75 275.721 120.086 275.657V276.889C119.718 276.97 119.302 277.018 118.822 277.018C117.398 277.018 116.582 276.537 116.582 274.938ZM125.394 274.938V269.801H124.098V268.569H125.394V266.121H126.818V268.569H128.722V269.801H126.818V274.713C126.818 275.593 127.25 275.753 127.986 275.753C128.322 275.753 128.562 275.721 128.898 275.657V276.889C128.53 276.97 128.114 277.018 127.634 277.018C126.21 277.018 125.394 276.537 125.394 274.938ZM134.944 268.537V269.993C134.704 269.945 134.512 269.929 134.24 269.929C133.024 269.929 132.048 270.889 132.048 272.361V276.938H130.608V268.569H132.048V269.993C132.416 269.145 133.232 268.505 134.368 268.505C134.592 268.505 134.8 268.521 134.944 268.537ZM136.466 267.113V265.449H138.034V267.113H136.466ZM137.97 268.569V276.938H136.53V268.569H137.97ZM144.406 277.114C143.238 277.114 142.31 276.553 141.814 275.721V279.818H140.374V268.569H141.814V269.785C142.31 268.969 143.238 268.409 144.406 268.409C146.726 268.409 148.054 270.377 148.054 272.761C148.054 275.129 146.726 277.114 144.406 277.114ZM141.782 272.473V273.065C141.782 274.985 142.966 275.849 144.15 275.849C145.718 275.849 146.598 274.553 146.598 272.761C146.598 270.953 145.718 269.673 144.15 269.673C142.966 269.673 141.782 270.521 141.782 272.473ZM148.946 275.161L150.066 274.345C150.514 275.321 151.538 275.913 152.626 275.913C153.602 275.913 154.466 275.497 154.466 274.586C154.466 273.673 153.666 273.545 152.29 273.257C150.914 272.953 149.474 272.649 149.474 270.937C149.474 269.449 150.77 268.409 152.546 268.409C154.05 268.409 155.282 269.145 155.778 270.137L154.754 270.953C154.322 270.121 153.538 269.593 152.482 269.593C151.522 269.593 150.882 270.073 150.882 270.825C150.882 271.609 151.618 271.753 152.786 272.009C154.226 272.345 155.874 272.633 155.874 274.457C155.874 276.057 154.418 277.114 152.626 277.114C151.106 277.114 149.586 276.457 148.946 275.161ZM161.254 274.938V269.801H159.958V268.569H161.254V266.121H162.678V268.569H164.582V269.801H162.678V274.713C162.678 275.593 163.11 275.753 163.846 275.753C164.182 275.753 164.422 275.721 164.758 275.657V276.889C164.39 276.97 163.974 277.018 163.494 277.018C162.07 277.018 161.254 276.537 161.254 274.938ZM173.62 272.761C173.62 275.353 172.02 277.114 169.732 277.114C167.444 277.114 165.844 275.353 165.844 272.761C165.844 270.169 167.444 268.409 169.732 268.409C172.02 268.409 173.62 270.169 173.62 272.761ZM167.3 272.761C167.3 274.665 168.26 275.882 169.732 275.882C171.204 275.882 172.164 274.665 172.164 272.761C172.164 270.841 171.204 269.625 169.732 269.625C168.26 269.625 167.3 270.841 167.3 272.761ZM179.051 274.938V269.801H177.755V268.569H179.051V266.121H180.475V268.569H182.379V269.801H180.475V274.713C180.475 275.593 180.907 275.753 181.643 275.753C181.979 275.753 182.219 275.721 182.555 275.657V276.889C182.187 276.97 181.771 277.018 181.291 277.018C179.867 277.018 179.051 276.537 179.051 274.938ZM184.264 276.938V265.449H185.704V269.705C186.184 269.017 187.016 268.409 188.2 268.409C189.976 268.409 190.984 269.641 190.984 271.417V276.938H189.544V271.801C189.544 270.633 189.048 269.753 187.8 269.753C186.76 269.753 185.704 270.553 185.704 271.945V276.938H184.264ZM196.639 277.114C194.319 277.114 192.719 275.337 192.719 272.761C192.719 270.265 194.303 268.409 196.575 268.409C198.911 268.409 200.143 270.185 200.143 272.505V272.985H194.095C194.175 274.745 195.183 275.865 196.639 275.865C197.759 275.865 198.559 275.257 198.815 274.265L200.079 274.713C199.567 276.201 198.303 277.114 196.639 277.114ZM196.559 269.641C195.343 269.641 194.431 270.457 194.175 271.881H198.687C198.655 270.697 198.015 269.641 196.559 269.641ZM205.311 276.938V265.449H206.751V269.705C207.231 269.017 208.063 268.409 209.247 268.409C211.023 268.409 212.031 269.641 212.031 271.417V276.938H210.591V271.801C210.591 270.633 210.095 269.753 208.847 269.753C207.807 269.753 206.751 270.553 206.751 271.945V276.938H205.311ZM221.542 272.761C221.542 275.353 219.942 277.114 217.654 277.114C215.366 277.114 213.766 275.353 213.766 272.761C213.766 270.169 215.366 268.409 217.654 268.409C219.942 268.409 221.542 270.169 221.542 272.761ZM215.222 272.761C215.222 274.665 216.182 275.882 217.654 275.882C219.126 275.882 220.086 274.665 220.086 272.761C220.086 270.841 219.126 269.625 217.654 269.625C216.182 269.625 215.222 270.841 215.222 272.761ZM222.446 275.161L223.566 274.345C224.014 275.321 225.038 275.913 226.126 275.913C227.102 275.913 227.966 275.497 227.966 274.586C227.966 273.673 227.166 273.545 225.79 273.257C224.414 272.953 222.974 272.649 222.974 270.937C222.974 269.449 224.27 268.409 226.046 268.409C227.55 268.409 228.782 269.145 229.278 270.137L228.254 270.953C227.822 270.121 227.038 269.593 225.982 269.593C225.022 269.593 224.382 270.073 224.382 270.825C224.382 271.609 225.118 271.753 226.286 272.009C227.726 272.345 229.374 272.633 229.374 274.457C229.374 276.057 227.918 277.114 226.126 277.114C224.606 277.114 223.086 276.457 222.446 275.161ZM235.187 277.114C234.019 277.114 233.091 276.553 232.595 275.721V279.818H231.155V268.569H232.595V269.785C233.091 268.969 234.019 268.409 235.187 268.409C237.507 268.409 238.835 270.377 238.835 272.761C238.835 275.129 237.507 277.114 235.187 277.114ZM232.563 272.473V273.065C232.563 274.985 233.747 275.849 234.931 275.849C236.499 275.849 237.379 274.553 237.379 272.761C237.379 270.953 236.499 269.673 234.931 269.673C233.747 269.673 232.563 270.521 232.563 272.473ZM240.591 267.113V265.449H242.159V267.113H240.591ZM242.095 268.569V276.938H240.655V268.569H242.095ZM244.723 274.938V269.801H243.427V268.569H244.723V266.121H246.147V268.569H248.051V269.801H246.147V274.713C246.147 275.593 246.579 275.753 247.315 275.753C247.651 275.753 247.891 275.721 248.227 275.657V276.889C247.859 276.97 247.443 277.018 246.963 277.018C245.539 277.018 244.723 276.537 244.723 274.938ZM252.032 277.082C250.512 277.082 249.28 276.185 249.28 274.681C249.28 273.017 250.576 272.329 252.448 271.945L254.48 271.529V271.177C254.48 270.217 253.952 269.673 252.832 269.673C251.776 269.673 251.152 270.169 250.896 271.097L249.536 270.745C249.936 269.385 251.168 268.409 252.88 268.409C254.752 268.409 255.904 269.321 255.904 271.113V275.193C255.904 275.737 256.24 275.913 256.8 275.785V276.938C255.52 277.098 254.784 276.793 254.608 275.993C254.096 276.649 253.168 277.082 252.032 277.082ZM254.48 274.089V272.649L252.848 273.001C251.568 273.257 250.704 273.609 250.704 274.617C250.704 275.433 251.296 275.913 252.208 275.913C253.44 275.913 254.48 275.161 254.48 274.089ZM259.798 265.449V276.938H258.358V265.449H259.798ZM269.225 265.305V266.585C268.985 266.569 268.841 266.553 268.601 266.553C267.753 266.553 267.289 266.921 267.289 267.993V268.569H269.145V269.801H267.289V276.938H265.849V269.801H264.585V268.569H265.849V267.898C265.849 266.265 266.745 265.273 268.457 265.273C268.745 265.273 268.905 265.289 269.225 265.305ZM277.636 272.761C277.636 275.353 276.036 277.114 273.748 277.114C271.46 277.114 269.86 275.353 269.86 272.761C269.86 270.169 271.46 268.409 273.748 268.409C276.036 268.409 277.636 270.169 277.636 272.761ZM271.316 272.761C271.316 274.665 272.276 275.882 273.748 275.882C275.22 275.882 276.18 274.665 276.18 272.761C276.18 270.841 275.22 269.625 273.748 269.625C272.276 269.625 271.316 270.841 271.316 272.761ZM283.803 268.537V269.993C283.563 269.945 283.371 269.929 283.099 269.929C281.883 269.929 280.907 270.889 280.907 272.361V276.938H279.467V268.569H280.907V269.993C281.275 269.145 282.091 268.505 283.227 268.505C283.451 268.505 283.659 268.521 283.803 268.537ZM290.204 271.929V276.938H288.764V268.569H290.204V269.705C290.652 269.017 291.452 268.409 292.62 268.409C293.74 268.409 294.524 268.969 294.94 269.833C295.404 269.145 296.3 268.409 297.612 268.409C299.34 268.409 300.38 269.641 300.38 271.417V276.938H298.94V271.801C298.94 270.633 298.46 269.753 297.276 269.753C296.316 269.753 295.292 270.569 295.292 271.929V276.938H293.852V271.801C293.852 270.633 293.372 269.753 292.188 269.753C291.228 269.753 290.204 270.569 290.204 271.929ZM306.046 277.114C303.726 277.114 302.126 275.337 302.126 272.761C302.126 270.265 303.71 268.409 305.982 268.409C308.318 268.409 309.55 270.185 309.55 272.505V272.985H303.502C303.582 274.745 304.59 275.865 306.046 275.865C307.166 275.865 307.966 275.257 308.222 274.265L309.486 274.713C308.974 276.201 307.71 277.114 306.046 277.114ZM305.966 269.641C304.75 269.641 303.838 270.457 303.582 271.881H308.094C308.062 270.697 307.422 269.641 305.966 269.641ZM312.782 271.929V276.938H311.342V268.569H312.782V269.705C313.23 269.017 314.03 268.409 315.198 268.409C316.318 268.409 317.102 268.969 317.518 269.833C317.982 269.145 318.878 268.409 320.19 268.409C321.918 268.409 322.958 269.641 322.958 271.417V276.938H321.518V271.801C321.518 270.633 321.038 269.753 319.854 269.753C318.894 269.753 317.87 270.569 317.87 271.929V276.938H316.43V271.801C316.43 270.633 315.95 269.753 314.766 269.753C313.806 269.753 312.782 270.569 312.782 271.929ZM329.312 277.114C328.144 277.114 327.216 276.553 326.72 275.721V276.938H325.28V265.449H326.72V269.785C327.216 268.969 328.144 268.409 329.312 268.409C331.632 268.409 332.96 270.377 332.96 272.761C332.96 275.129 331.632 277.114 329.312 277.114ZM326.688 272.473V273.065C326.688 274.985 327.872 275.849 329.056 275.849C330.624 275.849 331.504 274.553 331.504 272.761C331.504 270.953 330.624 269.673 329.056 269.673C327.872 269.673 326.688 270.521 326.688 272.473ZM338.124 277.114C335.804 277.114 334.204 275.337 334.204 272.761C334.204 270.265 335.788 268.409 338.06 268.409C340.396 268.409 341.628 270.185 341.628 272.505V272.985H335.58C335.66 274.745 336.668 275.865 338.124 275.865C339.244 275.865 340.044 275.257 340.3 274.265L341.564 274.713C341.052 276.201 339.788 277.114 338.124 277.114ZM338.044 269.641C336.828 269.641 335.916 270.457 335.66 271.881H340.172C340.14 270.697 339.5 269.641 338.044 269.641ZM347.756 268.537V269.993C347.516 269.945 347.324 269.929 347.052 269.929C345.836 269.929 344.86 270.889 344.86 272.361V276.938H343.42V268.569H344.86V269.993C345.228 269.145 346.044 268.505 347.18 268.505C347.404 268.505 347.612 268.521 347.756 268.537ZM348.258 275.161L349.378 274.345C349.826 275.321 350.85 275.913 351.938 275.913C352.914 275.913 353.778 275.497 353.778 274.586C353.778 273.673 352.978 273.545 351.602 273.257C350.226 272.953 348.786 272.649 348.786 270.937C348.786 269.449 350.082 268.409 351.858 268.409C353.362 268.409 354.594 269.145 355.09 270.137L354.066 270.953C353.634 270.121 352.85 269.593 351.794 269.593C350.834 269.593 350.194 270.073 350.194 270.825C350.194 271.609 350.93 271.753 352.098 272.009C353.538 272.345 355.186 272.633 355.186 274.457C355.186 276.057 353.73 277.114 351.938 277.114C350.418 277.114 348.898 276.457 348.258 275.161ZM8.09308 303.114C6.92508 303.114 5.99708 302.553 5.50108 301.721V302.938H4.06108V291.449H5.50108V295.785C5.99708 294.969 6.92508 294.409 8.09308 294.409C10.4131 294.409 11.7411 296.377 11.7411 298.761C11.7411 301.129 10.4131 303.114 8.09308 303.114ZM5.46908 298.473V299.065C5.46908 300.985 6.65308 301.849 7.83708 301.849C9.40508 301.849 10.2851 300.553 10.2851 298.761C10.2851 296.953 9.40508 295.673 7.83708 295.673C6.65308 295.673 5.46908 296.521 5.46908 298.473ZM16.4776 303.85C15.9976 305.114 15.3416 305.914 13.8856 305.914C13.5336 305.914 13.3576 305.898 13.1016 305.85V304.602C13.3736 304.666 13.5496 304.682 13.7896 304.682C14.4136 304.682 14.7496 304.458 15.0856 303.626L15.4856 302.633L12.3816 294.569H13.9016L16.2536 300.969L18.5736 294.569H20.0776L16.4776 303.85ZM26.266 297.593L24.858 297.353L25.354 291.449H31.61V292.793H26.538L26.234 296.265C26.73 295.769 27.514 295.369 28.522 295.369C30.762 295.369 32.234 297.033 32.234 299.209C32.234 301.385 30.522 303.114 28.218 303.114C26.058 303.114 24.49 301.897 24.09 299.721L25.562 299.417C25.802 300.889 26.794 301.833 28.218 301.833C29.674 301.833 30.794 300.713 30.794 299.241C30.794 297.785 29.802 296.617 28.346 296.617C27.386 296.617 26.65 297.049 26.266 297.593ZM33.0926 301.673L36.4846 298.857C38.0526 297.561 39.2686 296.457 39.2686 294.953C39.2686 293.545 38.3566 292.585 36.9486 292.585C35.5726 292.585 34.6286 293.641 34.6286 294.953C34.6286 295.369 34.7246 295.801 34.8846 296.201H33.4446C33.2686 295.705 33.1886 295.321 33.1886 294.873C33.1886 292.825 34.8686 291.273 36.9806 291.273C39.3006 291.273 40.7726 292.745 40.7726 294.858C40.7726 296.809 39.4286 298.153 37.7806 299.481L35.1886 301.593H40.9966V302.938H33.0926V301.673ZM44.6061 291.353C45.3954 291.353 45.9928 291.668 46.3981 292.297C46.8034 292.916 47.0061 293.791 47.0061 294.921C47.0061 296.052 46.8088 296.937 46.4141 297.577C46.0301 298.207 45.4274 298.521 44.6061 298.521C44.1048 298.521 43.6781 298.377 43.3261 298.089C42.9741 297.801 42.7074 297.391 42.5261 296.857C42.3554 296.313 42.2701 295.668 42.2701 294.921C42.2701 293.791 42.4568 292.916 42.8301 292.297C43.2034 291.668 43.7954 291.353 44.6061 291.353ZM44.6061 292.345C44.2008 292.345 43.9021 292.564 43.7101 293.001C43.5288 293.428 43.4381 294.068 43.4381 294.921C43.4381 295.775 43.5288 296.42 43.7101 296.857C43.9021 297.295 44.2008 297.513 44.6061 297.513C45.0221 297.513 45.3314 297.3 45.5341 296.873C45.7368 296.436 45.8381 295.785 45.8381 294.921C45.8381 294.068 45.7368 293.428 45.5341 293.001C45.3314 292.564 45.0221 292.345 44.6061 292.345ZM51.9181 291.513L45.5821 302.938H44.3501L50.6861 291.513H51.9181ZM51.5981 295.929C52.1208 295.929 52.5581 296.073 52.9101 296.361C53.2621 296.639 53.5288 297.044 53.7101 297.577C53.9021 298.1 53.9981 298.74 53.9981 299.497C53.9981 300.628 53.8008 301.513 53.4061 302.153C53.0221 302.783 52.4194 303.098 51.5981 303.098C51.0968 303.098 50.6701 302.954 50.3181 302.665C49.9661 302.377 49.6994 301.967 49.5181 301.433C49.3474 300.889 49.2621 300.244 49.2621 299.497C49.2621 298.367 49.4488 297.492 49.8221 296.873C50.1954 296.244 50.7874 295.929 51.5981 295.929ZM51.5981 296.937C51.1928 296.937 50.8941 297.151 50.7021 297.577C50.5208 298.004 50.4301 298.644 50.4301 299.497C50.4301 300.361 50.5208 301.012 50.7021 301.449C50.8941 301.876 51.1928 302.089 51.5981 302.089C52.0141 302.089 52.3234 301.876 52.5261 301.449C52.7288 301.023 52.8301 300.372 52.8301 299.497C52.8301 298.644 52.7288 298.004 52.5261 297.577C52.3234 297.151 52.0141 296.937 51.5981 296.937Z" fill="#313131" fill-opacity="0.8"/>
</svg>
