<svg width="60" height="80" viewBox="0 0 60 80" fill="none" xmlns="http://www.w3.org/2000/svg">
<g id="Group 15636">
<path id="Vector" d="M12.7298 60.1489L11.0958 73.4899C10.7116 76.6266 14.6431 78.6638 17.4262 76.7703L27.5574 69.8771C28.9695 68.9163 30.9112 68.9163 32.3234 69.8771L42.4546 76.7703C45.2377 78.6638 49.1692 76.6266 48.785 73.4899L45.9131 50.0423C45.7483 48.6961 44.4596 47.8754 43.1051 47.8075V47.8075C40.5217 47.6779 38.0134 48.6205 36.2876 50.3693C32.9014 53.8007 26.9794 53.8007 23.5932 50.3693C21.8674 48.6205 19.3591 47.6779 16.7757 47.8075C11.7067 48.0617 7.51919 44.2628 7.79942 39.6643C7.94224 37.3207 6.90327 35.0452 4.97554 33.4796C1.19305 30.4077 1.19305 25.0353 4.97554 21.9634C6.90327 20.3979 7.94224 18.1224 7.79942 15.7788C7.51919 11.1802 11.7067 7.38137 16.7757 7.63559C19.3591 7.76515 21.8674 6.82261 23.5932 5.07381C26.9794 1.64239 32.9014 1.64239 36.2876 5.07381C38.0134 6.82261 40.5217 7.76515 43.1051 7.63559C48.1741 7.38137 52.3616 11.1802 52.0814 15.7788C51.9385 18.1224 52.9775 20.3979 54.9053 21.9634C58.6877 25.0353 58.6877 30.4077 54.9053 33.4796C52.9775 35.0452 51.9385 37.3207 52.0814 39.6643" stroke="#E45F0C" stroke-width="4" stroke-linecap="round" stroke-linejoin="round"/>
<path id="check circle" d="M21.9976 28.8021L27.5579 33.1258L37.8843 22.3167" stroke="#F7941D" stroke-width="4" stroke-linecap="round" stroke-linejoin="round"/>
</g>
</svg>
