<svg width="80" height="80" viewBox="0 0 80 80" fill="none" xmlns="http://www.w3.org/2000/svg">
<g id="Group 15767">
<path id="Vector 537" d="M60.2463 15.7915L67.0645 29.4279" stroke="#E45F0C" stroke-width="4" stroke-linecap="round" stroke-linejoin="round"/>
<path id="Vector 538" d="M19.3397 15.7915L12.5215 29.4279" stroke="#E45F0C" stroke-width="4" stroke-linecap="round" stroke-linejoin="round"/>
<path id="Rectangle 12" d="M2.29297 39.655H77.293L67.0657 77.155H12.5202L2.29297 39.655Z" stroke="#E45F0C" stroke-width="4" stroke-linecap="round" stroke-linejoin="round"/>
<path id="Vector 1692" d="M39.793 49.8823L39.793 66.9278" stroke="#F7941D" stroke-width="4" stroke-linecap="round"/>
<path id="Vector 539" d="M19.337 49.8823L22.7461 66.9278" stroke="#F7941D" stroke-width="4" stroke-linecap="round"/>
<path id="Vector 540" d="M60.2461 49.8823L56.837 66.9278" stroke="#F7941D" stroke-width="4" stroke-linecap="round"/>
<path id="Star 3" d="M39.7401 2.69745C39.7968 2.52527 40.0403 2.52527 40.097 2.69745L40.2938 3.29572C41.8745 8.10157 45.468 11.9818 50.1386 13.9262V13.9262C50.2815 13.9856 50.2815 14.1881 50.1386 14.2475V14.2475C45.468 16.1919 41.8745 20.0721 40.2938 24.878L40.097 25.4762C40.0403 25.6484 39.7968 25.6484 39.7401 25.4762L39.5434 24.878C37.9626 20.0721 34.3691 16.1919 29.6985 14.2475V14.2475C29.5556 14.1881 29.5556 13.9856 29.6985 13.9262V13.9262C34.3691 11.9818 37.9626 8.10157 39.5434 3.29572L39.7401 2.69745Z" stroke="#F7941D" stroke-width="4" stroke-linecap="round"/>
</g>
</svg>
