<svg width="79" height="80" viewBox="0 0 79 80" fill="none" xmlns="http://www.w3.org/2000/svg">
<path d="M59.9545 67.2732C67.4857 67.2732 73.5909 61.168 73.5909 53.6369C73.5909 51.7937 73.2252 50.036 72.5625 48.4323C75.2427 46.5884 77 43.4997 77 40.0005C77 36.5013 75.2427 33.4126 72.5625 31.5687C73.2252 29.965 73.5909 28.2072 73.5909 26.3641C73.5909 18.833 67.4857 12.7278 59.9545 12.7278C59.9545 7.07939 55.3756 2.50049 49.7273 2.50049C44.0789 2.50049 39.5 7.07939 39.5 12.7278V67.2732C39.5 72.9216 44.0789 77.5005 49.7273 77.5005C52.3467 77.5005 54.7361 76.5158 56.5455 74.8963" stroke="#E45F0C" stroke-width="4" stroke-linecap="round" stroke-linejoin="round"/>
<path d="M19.0455 12.7278C11.5143 12.7278 5.40909 18.833 5.40909 26.3641C5.40909 28.2073 5.77477 29.965 6.43752 31.5687C3.7573 33.4126 2 36.5013 2 40.0005C2 43.4997 3.7573 46.5884 6.43752 48.4323C5.77477 50.036 5.40909 51.7937 5.40909 53.6369C5.40909 61.168 11.5143 67.2732 19.0455 67.2732C19.0455 72.9216 23.6244 77.5005 29.2727 77.5005C34.9211 77.5005 39.5 72.9216 39.5 67.2732V12.7278C39.5 7.07939 34.9211 2.50049 29.2727 2.50049C26.6533 2.50049 24.2639 3.48522 22.4545 5.10467" stroke="#E45F0C" stroke-width="4" stroke-linecap="round" stroke-linejoin="round"/>
<path d="M62.97 47.1244C57.8152 45.0114 55.3569 39.1099 57.4792 33.9431C58.3603 31.798 59.8923 30.1168 61.7519 29.0352" stroke="#F7941D" stroke-width="4" stroke-linecap="round"/>
<path d="M55.594 38.469C52.5609 39.2861 50.2205 41.4016 49.0108 44.0566" stroke="#F7941D" stroke-width="4" stroke-linecap="round"/>
<path d="M16.03 32.8765C21.1848 34.9895 23.6431 40.891 21.5208 46.0579C20.6397 48.203 19.1077 49.8842 17.2481 50.9658" stroke="#F7941D" stroke-width="4" stroke-linecap="round"/>
<path d="M23.406 41.532C26.4391 40.7149 28.7795 38.5993 29.9892 35.9443" stroke="#F7941D" stroke-width="4" stroke-linecap="round"/>
<path d="M59.957 67.2729C56.2981 67.2729 52.9757 65.8319 50.5265 63.4863" stroke="#E45F0C" stroke-width="4" stroke-linecap="round"/>
<path d="M19.043 12.7278C22.7019 12.7278 26.0243 14.1689 28.4735 16.5145" stroke="#E45F0C" stroke-width="4" stroke-linecap="round"/>
<path d="M55.031 21.4741C59.8615 18.5466 61.4041 12.2575 58.4766 7.427" stroke="#E45F0C" stroke-width="4" stroke-linecap="round" stroke-linejoin="round"/>
<path d="M23.969 58.5268C19.1385 61.4544 17.5959 67.7435 20.5234 72.574" stroke="#E45F0C" stroke-width="4" stroke-linecap="round" stroke-linejoin="round"/>
</svg>
