<svg width="79" height="79" viewBox="0 0 79 79" fill="none" xmlns="http://www.w3.org/2000/svg">
<path d="M56.5452 77.0007H76.8602C76.9378 77.0007 77.0008 76.9372 77 76.8596C76.9243 69.167 70.6649 62.9544 62.9544 62.9544C55.2439 62.9544 48.9845 69.167 48.9088 76.8596V77.0007M56.6395 49.7798C56.6395 53.2707 59.4695 56.1006 62.9604 56.1006C66.4513 56.1006 69.2812 53.2707 69.2812 49.7798C69.2812 46.2889 66.4513 43.459 62.9604 43.459C59.4695 43.459 56.6395 46.2889 56.6395 49.7798Z" stroke="#E45F0C" stroke-width="4" stroke-linecap="round"/>
<path d="M22.4526 77.0007H2.13761C2.06003 77.0007 1.99707 76.9371 1.99784 76.8596C2.07355 69.167 8.33298 62.9544 16.0434 62.9544C23.7539 62.9544 30.0133 69.167 30.089 76.8596V77.0007M9.72857 49.7798C9.72857 53.2707 12.5585 56.1006 16.0494 56.1006C19.5403 56.1006 22.3702 53.2707 22.3702 49.7798C22.3702 46.2889 19.5403 43.4589 16.0494 43.4589C12.5585 43.4589 9.72857 46.2889 9.72857 49.7798Z" stroke="#E45F0C" stroke-width="4" stroke-linecap="round"/>
<path d="M36.8164 15.6365H41.649" stroke="#F7941D" stroke-width="4" stroke-linecap="round"/>
<path d="M36.8164 22.885H46.4816" stroke="#F7941D" stroke-width="4" stroke-linecap="round"/>
<path d="M29.7329 28.2065C27.3231 25.4181 25.8633 21.7813 25.8633 17.8291C25.8633 9.15495 32.8951 2 41.5693 2C50.2434 2 57.2753 9.15495 57.2753 17.8291C57.2753 23.2531 54.5258 28.0831 50.3446 30.9411C44.0491 34.8613 37.2492 38.0789 30.7189 41.5899C28.8853 42.5757 26.7426 40.9308 27.2191 38.9031L27.8799 36.0913" stroke="#F7941D" stroke-width="4" stroke-linecap="round" stroke-linejoin="round"/>
</svg>
