<svg width="73" height="82" viewBox="0 0 73 82" fill="none" xmlns="http://www.w3.org/2000/svg">
<g id="Group 15672">
<path id="user" d="M49.866 16.47C49.866 24.1854 43.7608 30.44 36.2296 30.44C28.6985 30.44 22.5933 24.1854 22.5933 16.47C22.5933 8.75457 28.6985 2.5 36.2296 2.5C43.7608 2.5 49.866 8.75457 49.866 16.47Z" stroke="#E45F0C" stroke-width="4" stroke-linecap="round"/>
<path id="Vector 535" d="M22.5933 54.8872L22.5933 44.4097" stroke="#E45F0C" stroke-width="4" stroke-linecap="round"/>
<path id="Vector 537" d="M29.4111 44.4102L33.2273 52.2291C34.4476 54.7296 38.011 54.7296 39.2314 52.2291L43.0475 44.4102" stroke="#E45F0C" stroke-width="4" stroke-linecap="round"/>
<path id="Vector 536" d="M49.8652 54.8872L49.8652 44.4097" stroke="#E45F0C" stroke-width="4" stroke-linecap="round"/>
<path id="Rectangle 56" d="M70.3205 65.7529L67.6602 57.4253C65.1834 49.6722 57.9781 44.4099 49.8389 44.4099V44.4099H42.9936M70.3205 79.3348H2.54424C2.33407 79.3348 2.17611 79.1431 2.21638 78.9368L6.33885 57.8202C7.85948 50.031 14.684 44.4099 22.6203 44.4099V44.4099" stroke="#E45F0C" stroke-width="4" stroke-linecap="round"/>
<ellipse id="Ellipse 6" cx="49.8651" cy="58.3797" rx="3.40909" ry="3.49249" fill="#F7941D" stroke="#F7941D" stroke-width="4" stroke-linecap="round"/>
<path id="Vector 534" d="M20.0366 65.3647V65.3647C18.6245 65.3647 17.4797 64.22 17.4797 62.8079L17.4797 60.0009C17.4797 57.1767 19.7692 54.8873 22.5934 54.8873V54.8873C25.4176 54.8873 27.707 57.1767 27.707 60.0009L27.707 62.8079C27.707 64.22 26.5623 65.3647 25.1502 65.3647V65.3647" stroke="#F7941D" stroke-width="4" stroke-linecap="round"/>
</g>
</svg>
