<svg width="80" height="80" viewBox="0 0 80 80" fill="none" xmlns="http://www.w3.org/2000/svg">
<g id="Group 15766">
<circle id="Ellipse 5" cx="26.1668" cy="12.3821" r="10.2273" stroke="#E45F0C" stroke-width="4" stroke-linecap="round" stroke-linejoin="round"/>
<path id="Vector 5" d="M29.5659 32.8369L29.0247 32.8369C19.3638 32.8369 10.9815 39.5051 8.80919 48.9186L2.29297 77.1552H19.3385" stroke="#E45F0C" stroke-width="4" stroke-linecap="round" stroke-linejoin="round"/>
<path id="Vector 536" d="M39.792 39.6551V36.2947C39.792 34.385 41.3401 32.8369 43.2498 32.8369H63.607C65.5167 32.8369 67.0648 34.385 67.0648 36.2947V46.4733" stroke="#F7941D" stroke-width="4" stroke-linecap="round" stroke-linejoin="round"/>
<path id="Vector 24" d="M53.4346 56.7004V66.9277" stroke="#E45F0C" stroke-width="4" stroke-linecap="round" stroke-linejoin="round"/>
<path id="Vector 537" d="M58.542 61.814L48.3147 61.814" stroke="#E45F0C" stroke-width="4" stroke-linecap="round" stroke-linejoin="round"/>
<path id="Rectangle 12" d="M67.0665 46.4731H73.836C75.7457 46.4731 77.2939 48.0213 77.2939 49.931V73.6972C77.2939 75.6069 75.7457 77.155 73.836 77.155H33.0242C31.1145 77.155 29.5664 75.6069 29.5664 73.6972V49.931C29.5664 48.0213 31.1145 46.4731 33.0242 46.4731H56.8392" stroke="#F7941D" stroke-width="4" stroke-linecap="round" stroke-linejoin="round"/>
</g>
</svg>
