<svg width="77" height="86" viewBox="0 0 77 86" fill="none" xmlns="http://www.w3.org/2000/svg">
<g id="Group 15681">
<g id="Group 15778">
<g id="Group 132">
<path id="Vector 206" d="M73.7295 2.5C54.9796 24.6591 29.4114 40 2.13867 46.8182" stroke="#F7941D" stroke-width="4" stroke-linecap="round" stroke-linejoin="round"/>
<g id="Group 15646">
<path id="Rectangle 100" d="M73.73 19.8303L73.73 2.50077" stroke="#F7941D" stroke-width="4" stroke-linecap="round" stroke-linejoin="round"/>
<path id="Rectangle 101" d="M56.4011 2.50098L63.3613 2.50098" stroke="#E45F0C" stroke-width="4" stroke-linecap="round" stroke-linejoin="round"/>
</g>
</g>
<path id="Vector" d="M46.3205 72.8846V60.5C46.3205 55.6144 42.6574 51.6538 38.1387 51.6538C33.62 51.6538 29.9569 55.6144 29.9569 60.5V83.5H46.3205M74.1387 72.8846V46.3462C74.1387 41.4606 70.4755 37.5 65.9569 37.5C61.4382 37.5 57.775 41.4606 57.775 46.3462V83.5H74.1387M18.5023 83.5H2.13867V74.6538C2.13867 69.7682 5.8018 65.8077 10.3205 65.8077C14.2788 65.8077 17.5806 68.8468 18.3386 72.8846" stroke="#E45F0C" stroke-width="4" stroke-linecap="round" stroke-linejoin="round"/>
</g>
</g>
</svg>
