<svg width="79" height="79" viewBox="0 0 79 79" fill="none" xmlns="http://www.w3.org/2000/svg">
<path d="M10.9589 10.5341L13.8582 17.1404M24.0661 21.4314L21.3539 13.2997L18.7939 14.6114" stroke="#F7941D" stroke-width="4" stroke-linecap="round" stroke-linejoin="round"/>
<path d="M2.11188 33.5815L8.95613 35.8629M18.986 31.1709L11.136 27.7275L10.3915 30.5059" stroke="#F7941D" stroke-width="4" stroke-linecap="round" stroke-linejoin="round"/>
<path d="M64.6033 69.562C70.0805 69.562 74.5207 65.1218 74.5207 59.6446C74.5207 58.3042 74.2547 57.0258 73.7727 55.8595C75.722 54.5185 77 52.2721 77 49.7273C77 47.1824 75.722 44.9361 73.7727 43.595C74.2547 42.4287 74.5207 41.1504 74.5207 39.8099C74.5207 34.3327 70.0805 29.8926 64.6033 29.8926C64.6033 25.7847 61.2732 22.4545 57.1653 22.4545C53.0574 22.4545 49.7273 25.7847 49.7273 29.8926V69.562C49.7273 73.6699 53.0574 77 57.1653 77C59.0703 77 60.808 76.2838 62.124 75.106" stroke="#E45F0C" stroke-width="4" stroke-linecap="round" stroke-linejoin="round"/>
<path d="M34.8498 29.8926C29.3726 29.8926 24.9325 34.3328 24.9325 39.81C24.9325 41.1504 25.1984 42.4287 25.6804 43.5951C23.7312 44.9361 22.4531 47.1825 22.4531 49.7273C22.4531 52.2722 23.7312 54.5185 25.6804 55.8595C25.1984 57.0259 24.9325 58.3042 24.9325 59.6447C24.9325 65.1219 29.3726 69.562 34.8498 69.562C34.8498 73.6699 38.1799 77 42.2878 77C46.3957 77 49.7259 73.6699 49.7259 69.562V29.8926C49.7259 25.7847 46.3957 22.4546 42.2878 22.4546C40.3828 22.4546 38.6451 23.1708 37.3292 24.3485" stroke="#E45F0C" stroke-width="4" stroke-linecap="round" stroke-linejoin="round"/>
<path d="M66.7907 54.9084C63.0417 53.3717 61.2539 49.0797 62.7973 45.322C63.4381 43.7619 64.5524 42.5392 65.9048 41.7526" stroke="#F7941D" stroke-width="4" stroke-linecap="round"/>
<path d="M61.4305 48.6137C59.2247 49.2079 57.5226 50.7465 56.6428 52.6774" stroke="#F7941D" stroke-width="4" stroke-linecap="round"/>
<path d="M32.6624 44.5462C36.4114 46.0829 38.1993 50.3749 36.6558 54.1326C36.015 55.6927 34.9007 56.9154 33.5484 57.702" stroke="#F7941D" stroke-width="4" stroke-linecap="round"/>
<path d="M38.0226 50.8409C40.2284 50.2466 41.9306 48.7081 42.8103 46.7772" stroke="#F7941D" stroke-width="4" stroke-linecap="round"/>
<path d="M64.6016 69.5623C61.9405 69.5623 59.5242 68.5142 57.743 66.8083" stroke="#E45F0C" stroke-width="4" stroke-linecap="round"/>
<path d="M34.8516 29.8923C37.5126 29.8923 39.9289 30.9404 41.7101 32.6463" stroke="#E45F0C" stroke-width="4" stroke-linecap="round"/>
<path d="M61.0215 36.2532C64.5346 34.1241 65.6565 29.5502 63.5273 26.0371" stroke="#E45F0C" stroke-width="4" stroke-linecap="round" stroke-linejoin="round"/>
<path d="M38.4277 63.2014C34.9147 65.3305 33.7928 69.9044 35.9219 73.4175" stroke="#E45F0C" stroke-width="4" stroke-linecap="round" stroke-linejoin="round"/>
<path d="M27.569 2L27.1367 9.20152M35.5591 9.20152L34.2648 17.6753" stroke="#F7941D" stroke-width="4" stroke-linecap="round" stroke-linejoin="round"/>
</svg>
