<svg width="80" height="80" viewBox="0 0 80 80" fill="none" xmlns="http://www.w3.org/2000/svg">
<g id="Group 15674">
<path id="Union" d="M27.7069 22.3862C25.8241 22.3862 24.2979 20.8599 24.2979 18.9771V16.7044C24.2979 14.8216 25.8241 13.2954 27.7069 13.2954L35.0932 13.2954V5.90906C35.0932 4.02629 36.6195 2.5 38.5023 2.5H40.775C42.6577 2.5 44.184 4.02629 44.184 5.90906V13.2954M35.0932 22.3862V29.7725C35.0932 31.6552 36.6195 33.1815 38.5023 33.1815H40.775C42.6577 33.1815 44.184 31.6552 44.184 29.7725V22.3862H51.5703C53.4531 22.3862 54.9794 20.8599 54.9794 18.9771V16.7044C54.9794 14.8216 53.4531 13.2954 51.5703 13.2954" stroke="#F7941D" stroke-width="4" stroke-linecap="round"/>
<path id="user" d="M55.1108 77.4992V77.3436C55.0273 68.8693 48.1319 62.0254 39.6379 62.0254C31.1439 62.0254 24.2484 68.8693 24.165 77.3436V77.4992" stroke="#E45F0C" stroke-width="4" stroke-linecap="round"/>
<path id="user_2" d="M46.456 77.5003L2.27844 77.5001C2.20087 77.5001 2.13792 77.4366 2.13868 77.359C2.21439 69.6666 8.47369 63.4541 16.184 63.4541C17.2135 63.4541 18.2171 63.5649 19.1836 63.7751" stroke="#E45F0C" stroke-width="4" stroke-linecap="round"/>
<path id="user_3" d="M55.2676 77.5001H76.9994C77.0769 77.5001 77.1399 77.4366 77.1391 77.359C77.0634 69.6666 70.8041 63.4541 63.0938 63.4541C62.0639 63.4541 61.0599 63.5649 60.0931 63.7754" stroke="#E45F0C" stroke-width="4" stroke-linecap="round"/>
<path id="user_4" d="M46.5942 47.512C46.5942 51.3576 43.4767 54.4751 39.6311 54.4751C35.7855 54.4751 32.668 51.3576 32.668 47.512C32.668 43.6663 35.7855 40.5488 39.6311 40.5488C43.4767 40.5488 46.5942 43.6663 46.5942 47.512Z" stroke="#E45F0C" stroke-width="4" stroke-linecap="round"/>
<path id="user_5" d="M22.4988 50.2787C22.4988 53.7695 19.669 56.5994 16.1781 56.5994C12.6873 56.5994 9.85742 53.7695 9.85742 50.2787C9.85742 46.7879 12.6873 43.958 16.1781 43.958C19.669 43.958 22.4988 46.7879 22.4988 50.2787Z" stroke="#E45F0C" stroke-width="4" stroke-linecap="round"/>
<path id="user_6" d="M69.409 50.2787C69.409 53.7695 66.5791 56.5994 63.0883 56.5994C59.5975 56.5994 56.7676 53.7695 56.7676 50.2787C56.7676 46.7879 59.5975 43.958 63.0883 43.958C66.5791 43.958 69.409 46.7879 69.409 50.2787Z" stroke="#E45F0C" stroke-width="4" stroke-linecap="round"/>
</g>
</svg>
