<svg width="80" height="80" viewBox="0 0 80 80" fill="none" xmlns="http://www.w3.org/2000/svg">
<g id="Group 15770">
<g id="Group 15766">
<path id="Vector 463" d="M21.3963 66.9446L14.5782 56.7173V45.6384C14.5782 42.3432 11.9068 39.6719 8.61159 39.6719V39.6719C5.31635 39.6719 2.64503 42.3432 2.64503 45.6384V63.5355L11.1691 77.1718H33.3281" stroke="#E45F0C" stroke-width="4" stroke-linecap="round" stroke-linejoin="round"/>
<path id="Vector 462" d="M33.3281 77.1719V64.8992L25.7757 52.6265" stroke="#E45F0C" stroke-width="4" stroke-linecap="round" stroke-linejoin="round"/>
</g>
<g id="Group 15767">
<path id="Vector 463_2" d="M58.8966 66.9443L65.7148 56.7171V45.6382C65.7148 42.343 68.3861 39.6716 71.6814 39.6716V39.6716C74.9766 39.6716 77.6479 42.343 77.6479 45.6382V63.5352L69.1239 77.1716H46.9648" stroke="#E45F0C" stroke-width="4" stroke-linecap="round" stroke-linejoin="round"/>
<path id="Vector 462_2" d="M46.9648 77.1716V64.8989L54.5173 52.6262" stroke="#E45F0C" stroke-width="4" stroke-linecap="round" stroke-linejoin="round"/>
</g>
<path id="Union" d="M40.1458 39.6718L55.7801 24.0385C64.0104 15.8082 61.1617 2.17188 48.6695 2.17188C45.3308 2.17188 42.3124 3.54312 40.1468 5.75315C37.9811 3.54312 34.9627 2.17188 31.6241 2.17188C19.1319 2.17188 16.2827 15.8082 24.5135 24.0385L29.9192 29.4446" stroke="#F7941D" stroke-width="4" stroke-linecap="round" stroke-linejoin="round"/>
<path id="Vector 24" d="M40.1465 14.1035V24.3308" stroke="#E45F0C" stroke-width="4" stroke-linecap="round" stroke-linejoin="round"/>
<path id="Vector 537" d="M45.2598 19.2173L35.0325 19.2173" stroke="#E45F0C" stroke-width="4" stroke-linecap="round" stroke-linejoin="round"/>
</g>
</svg>
