<svg width="79" height="79" viewBox="0 0 79 79" fill="none" xmlns="http://www.w3.org/2000/svg">
<path d="M73.592 66.7728V22.4547C73.592 18.6891 70.5394 15.6365 66.7738 15.6365H53.1374M5.41016 66.7728V22.4547C5.41016 18.6891 8.46276 15.6365 12.2283 15.6365H25.8647" stroke="#E45F0C" stroke-width="4" stroke-linecap="round" stroke-linejoin="round"/>
<path d="M46.32 66.7728V59.9547C46.32 56.1891 43.2674 53.1365 39.5018 53.1365V53.1365C35.7362 53.1365 32.6836 56.1891 32.6836 59.9547V77.0001" stroke="#E45F0C" stroke-width="4" stroke-linecap="round" stroke-linejoin="round"/>
<path d="M2 77H32.6818M77 77L46.3182 77" stroke="#E45F0C" stroke-width="4" stroke-linecap="round" stroke-linejoin="round"/>
<path d="M25.8633 15.6364V29.2727H53.136L53.136 25.8636M25.8633 5.40909V2H53.136V15.6364" stroke="#E45F0C" stroke-width="4" stroke-linecap="round" stroke-linejoin="round"/>
<path d="M44.9531 15.636L34.0436 15.6363" stroke="#F7941D" stroke-width="4" stroke-linecap="round"/>
<path d="M39.5 21.0908L39.5 10.1817" stroke="#F7941D" stroke-width="4" stroke-linecap="round"/>
<ellipse cx="60.3192" cy="61.4091" rx="3.40909" ry="3.40909" fill="#F7941D" stroke="#F7941D" stroke-width="4" stroke-linecap="round"/>
<ellipse cx="19.4091" cy="61.4091" rx="3.40909" ry="3.40909" fill="#F7941D" stroke="#F7941D" stroke-width="4" stroke-linecap="round"/>
<ellipse cx="19.0458" cy="41.4091" rx="3.40909" ry="3.40909" fill="#F7941D" stroke="#F7941D" stroke-width="4" stroke-linecap="round"/>
<ellipse cx="59.956" cy="41.4091" rx="3.40909" ry="3.40909" fill="#F7941D" stroke="#F7941D" stroke-width="4" stroke-linecap="round"/>
<ellipse cx="39.4091" cy="41.4091" rx="3.40909" ry="3.40909" fill="#F7941D" stroke="#F7941D" stroke-width="4" stroke-linecap="round"/>
</svg>
