<svg width="80" height="80" viewBox="0 0 80 80" fill="none" xmlns="http://www.w3.org/2000/svg">
<g id="Group 15763">
<path id="Vector 206" d="M77.3711 62.7171C16.86 62.7171 2.37134 39.6717 2.37134 2.17187" stroke="#F7941D" stroke-width="4" stroke-linecap="round" stroke-linejoin="round"/>
<path id="Vector" d="M62.8984 77.1718L77.3698 62.7004" stroke="#F7941D" stroke-width="4" stroke-linecap="round" stroke-linejoin="round"/>
<path id="Vector 282" d="M53.5072 19.2173V19.2173C53.5072 15.4518 50.4546 12.3992 46.689 12.3992H39.8709C36.1053 12.3992 33.0527 15.4518 33.0527 19.2173V19.2173C33.0527 22.9829 36.1053 26.0355 39.8709 26.0355H46.689C50.4546 26.0355 53.5072 29.0881 53.5072 32.8536V32.8536C53.5072 36.6192 50.4546 39.6718 46.689 39.6718H39.8709C36.1053 39.6718 33.0527 36.6192 33.0527 32.8536V32.8536" stroke="#E45F0C" stroke-width="4" stroke-linecap="round" stroke-linejoin="round"/>
<path id="Vector 283" d="M43.2793 2.17188V5.58095" stroke="#F7941D" stroke-width="4" stroke-linecap="round" stroke-linejoin="round"/>
<path id="Vector 284" d="M43.2793 46.49V49.8991" stroke="#F7941D" stroke-width="4" stroke-linecap="round" stroke-linejoin="round"/>
<path id="Vector_2" d="M70.0295 55.3669L62.8984 48.2358" stroke="#E45F0C" stroke-width="4" stroke-linecap="round" stroke-linejoin="round"/>
</g>
</svg>
