<svg width="80" height="80" viewBox="0 0 80 80" fill="none" xmlns="http://www.w3.org/2000/svg">
<g id="Group 15764">
<g id="Group 11">
<path id="Rectangle 12" d="M77.6445 19.2173L77.6445 56.7173L60.5991 56.7173M29.9173 12.3992L29.9173 2.17194L60.5991 2.17194L70.8264 12.3992" stroke="#E45F0C" stroke-width="4" stroke-linecap="round" stroke-linejoin="round"/>
</g>
<g id="Group 12">
<path id="Rectangle 12_2" d="M2.64383 77.1717L50.3711 77.1717L50.3711 39.0472L33.8781 22.6262L2.64383 22.6263L2.64383 66.9444" stroke="#F7941D" stroke-width="4" stroke-linecap="round" stroke-linejoin="round"/>
</g>
<path id="Rectangle 50" d="M77.6451 19.2173H60.5996V2.17188" stroke="#E45F0C" stroke-width="4" stroke-linecap="round" stroke-linejoin="round"/>
<path id="Union" d="M15.9014 57.3486C14.2278 57.3486 12.8711 55.9919 12.8711 54.3183V52.2981C12.8711 50.6245 14.2278 49.2678 15.9014 49.2678L22.4671 49.2678V42.7022C22.4671 41.0286 23.8238 39.6719 25.4974 39.6719H27.5176C29.1911 39.6719 30.5479 41.0286 30.5479 42.7022V49.2678M22.4671 57.3486V63.9143C22.4671 65.5879 23.8238 66.9446 25.4974 66.9446H27.5176C29.1911 66.9446 30.5479 65.5879 30.5479 63.9143V57.3486H37.1135C38.7871 57.3486 40.1438 55.9919 40.1438 54.3183V52.2981C40.1438 50.6245 38.7871 49.2678 37.1135 49.2678" stroke="#E45F0C" stroke-width="4" stroke-linecap="round" stroke-linejoin="round"/>
</g>
</svg>
