<svg width="80" height="80" viewBox="0 0 80 80" fill="none" xmlns="http://www.w3.org/2000/svg">
<g id="Group 15765">
<path id="Union" d="M45.5991 54.6719L33.3264 39.6719L2.64453 77.1719M51.7354 48.5355L53.7809 46.4901L77.6445 77.1719H12.8718" stroke="#E45F0C" stroke-width="4" stroke-linecap="round" stroke-linejoin="round"/>
<path id="Union_2" d="M28.2098 22.058C26.3271 22.058 24.8008 20.5318 24.8008 18.649V16.3763C24.8008 14.4935 26.3271 12.9672 28.2098 12.9672L35.5961 12.9672V5.58093C35.5961 3.69816 37.1224 2.17188 39.0052 2.17188H41.2779C43.1607 2.17188 44.6869 3.69816 44.6869 5.58093V12.9672M35.5961 22.058V29.4443C35.5961 31.3271 37.1224 32.8534 39.0052 32.8534H41.2779C43.1607 32.8534 44.6869 31.3271 44.6869 29.4443V22.058H52.0732C53.956 22.058 55.4823 20.5318 55.4823 18.649V16.3763C55.4823 14.4935 53.956 12.9672 52.0732 12.9672" stroke="#F7941D" stroke-width="4" stroke-linecap="round" stroke-linejoin="round"/>
<path id="Vector" d="M28.2129 56.7173V56.7173C31.3095 58.7817 35.3436 58.7817 38.4402 56.7173V56.7173" stroke="#F7941D" stroke-width="4" stroke-linecap="round" stroke-linejoin="round"/>
<path id="Vector_2" d="M50.373 60.1265V60.1265C52.2558 62.0093 55.3084 62.0093 57.1912 60.1265V60.1265" stroke="#F7941D" stroke-width="4" stroke-linecap="round" stroke-linejoin="round"/>
</g>
</svg>
