<svg width="73" height="79" viewBox="0 0 73 79" fill="none" xmlns="http://www.w3.org/2000/svg">
<path d="M49.7259 15.6364C49.7259 23.1675 43.6206 29.2727 36.0895 29.2727C28.5583 29.2727 22.4531 23.1675 22.4531 15.6364C22.4531 8.10521 28.5583 2 36.0895 2C43.6206 2 49.7259 8.10521 49.7259 15.6364Z" stroke="#E45F0C" stroke-width="4" stroke-linecap="round"/>
<path d="M22.4531 53.1362L22.4531 42.909" stroke="#E45F0C" stroke-width="4" stroke-linecap="round"/>
<path d="M29.2734 42.9093L33.1038 50.57C34.3348 53.0321 37.8484 53.0321 39.0795 50.57L42.9098 42.9093" stroke="#E45F0C" stroke-width="4" stroke-linecap="round"/>
<path d="M49.7266 53.1362L49.7266 42.909" stroke="#E45F0C" stroke-width="4" stroke-linecap="round"/>
<path d="M70.1818 63.7425L67.6135 55.8949C65.0783 48.1484 57.851 42.9092 49.7002 42.9092V42.9092H42.855M70.1818 77.0001H2.40748C2.19668 77.0001 2.03857 76.8072 2.07991 76.6005L6.13856 56.3073C7.69665 48.5168 14.5369 42.9092 22.4816 42.9092V42.9092" stroke="#E45F0C" stroke-width="4" stroke-linecap="round"/>
<circle cx="49.7255" cy="56.5453" r="3.40909" fill="#F7941D" stroke="#F7941D" stroke-width="4" stroke-linecap="round"/>
<path d="M19.8959 63.3635V63.3635C18.4838 63.3635 17.3391 62.2188 17.3391 60.8067L17.3391 58.2499C17.3391 55.4257 19.6286 53.1363 22.4528 53.1363V53.1363C25.277 53.1363 27.5664 55.4257 27.5664 58.2499L27.5664 60.8067C27.5664 62.2188 26.4217 63.3635 25.0096 63.3635V63.3635" stroke="#F7941D" stroke-width="4" stroke-linecap="round"/>
</svg>
