<svg width="80" height="79" viewBox="0 0 80 79" fill="none" xmlns="http://www.w3.org/2000/svg">
<g id="Group 15673">
<path id="Star 2" d="M16.7109 27.2802L18.7999 26.452C28.1236 22.7555 35.3707 15.1754 38.6449 5.69508L39.6683 2.73179C39.775 2.42273 40.2121 2.42274 40.3188 2.7318L41.3423 5.69509C43.6824 12.471 48.0521 18.2762 53.759 22.3865C56.0368 24.027 58.5275 25.3976 61.1872 26.452L63.2762 27.2802C63.5659 27.3951 63.5659 27.8052 63.2762 27.9201L61.1872 28.7482C51.8635 32.4448 44.6164 40.0249 41.3422 49.5052L40.3188 52.4685C40.2121 52.7776 39.775 52.7776 39.6683 52.4685L38.6449 49.5052C36.3047 42.7293 31.935 36.9241 26.2281 32.8138" stroke="#E45F0C" stroke-width="4" stroke-linecap="round"/>
<path id="Star 3" d="M15.6726 47.2318C15.7461 47.0084 16.0622 47.0084 16.1357 47.2318L16.3911 48.0083C18.4427 54.2458 23.1067 59.2819 29.1686 61.8054V61.8054C29.354 61.8826 29.354 62.1453 29.1686 62.2225V62.2225C23.1067 64.746 18.4427 69.7822 16.3911 76.0196L16.1357 76.7961C16.0622 77.0195 15.7461 77.0195 15.6726 76.7961L15.4172 76.0196C13.3655 69.7822 8.70157 64.746 2.63966 62.2225V62.2225C2.45421 62.1453 2.45421 61.8826 2.63966 61.8054V61.8054C8.70157 59.2819 13.3655 54.2458 15.4172 48.0083L15.6726 47.2318Z" stroke="#F7941D" stroke-width="4" stroke-linecap="round"/>
<path id="Star 4" d="M63.8522 47.2318C63.9257 47.0084 64.2419 47.0084 64.3154 47.2318L64.5708 48.0083C66.6224 54.2458 71.2864 59.2819 77.3483 61.8054V61.8054C77.5337 61.8826 77.5337 62.1453 77.3483 62.2225V62.2225C71.2864 64.746 66.6224 69.7822 64.5708 76.0196L64.3154 76.7961C64.2419 77.0195 63.9257 77.0195 63.8522 76.7961L63.5968 76.0196C61.5452 69.7822 56.8813 64.746 50.8193 62.2225V62.2225C50.6339 62.1453 50.6339 61.8826 50.8193 61.8054V61.8054C56.8813 59.2819 61.5452 54.2458 63.5968 48.0083L63.8522 47.2318Z" stroke="#E45F0C" stroke-width="4" stroke-linecap="round"/>
</g>
</svg>
