<svg width="66" height="79" viewBox="0 0 66 79" fill="none" xmlns="http://www.w3.org/2000/svg">
<path d="M59.9531 70.1817V42.9089H53.135" stroke="#F7941D" stroke-width="4" stroke-linecap="round" stroke-linejoin="round"/>
<path d="M36.0898 76.9998L41.2035 54.8408H58.2488" stroke="#F7941D" stroke-width="4" stroke-linecap="round" stroke-linejoin="round"/>
<path d="M39.5 63.3633H58.2499" stroke="#F7941D" stroke-width="4" stroke-linecap="round" stroke-linejoin="round"/>
<circle cx="23.9954" cy="9.4407" r="7.4407" stroke="#E45F0C" stroke-width="4" stroke-linecap="round"/>
<path d="M21.0796 53.1765L21.0758 77H11.5878V59.9543L2 46.318L6.36215 31.1032C7.76693 26.4923 12.4371 23.6961 17.165 24.6352C19.5343 25.1058 21.5077 26.4256 22.8432 28.2085" stroke="#E45F0C" stroke-width="4" stroke-linecap="round" stroke-linejoin="round"/>
<path d="M22.5965 27.9055L29.5082 37.1286C30.2325 38.095 31.3696 38.6638 32.5773 38.6638H38.5002C40.9062 38.6638 42.8566 40.6142 42.8566 43.0202V43.0202C42.8566 45.4261 40.9062 47.3766 38.5002 47.3766H27.2744C26.1093 47.3766 25.0074 46.8469 24.2796 45.9372L18.4609 38.6638" stroke="#E45F0C" stroke-width="4" stroke-linecap="round"/>
<path d="M63.365 73.5907C63.365 75.4735 61.8387 76.9998 59.9559 76.9998C58.0732 76.9998 56.5469 75.4735 56.5469 73.5907C56.5469 71.7079 58.0732 70.1816 59.9559 70.1816C61.8387 70.1816 63.365 71.7079 63.365 73.5907Z" fill="#F7941D" stroke="#F7941D" stroke-width="4" stroke-linecap="round"/>
</svg>
