<svg width="79" height="79" viewBox="0 0 79 79" fill="none" xmlns="http://www.w3.org/2000/svg">
<path d="M12.227 19.0453H56.2041C60.158 19.0453 63.3633 22.2506 63.3632 26.2045L63.363 52.7953C63.363 52.9836 63.2104 53.1362 63.0221 53.1362H49.7269" stroke="#E45F0C" stroke-width="4" stroke-linecap="round"/>
<path d="M1.9993 2H8.81747C10.7003 2 12.2266 3.5263 12.2266 5.40909V29.2727" stroke="#E45F0C" stroke-width="4" stroke-linecap="round"/>
<path d="M63.3636 49.7271V63.3634M77 70.1816H70.1818" stroke="#E45F0C" stroke-width="4" stroke-linecap="round"/>
<path d="M56.5433 70.1819C56.5433 73.9475 59.5959 77.0001 63.3615 77.0001C67.1271 77.0001 70.1797 73.9475 70.1797 70.1819C70.1797 66.4164 67.1271 63.3638 63.3615 63.3638C59.5959 63.3638 56.5433 66.4164 56.5433 70.1819Z" stroke="#E45F0C" stroke-width="4" stroke-linecap="round"/>
<path d="M15.636 58.2499C15.636 61.074 17.9255 63.3635 20.7496 63.3635C23.5738 63.3635 25.8633 61.074 25.8633 58.2499C25.8633 55.4257 23.5738 53.1362 20.7496 53.1362C17.9255 53.1362 15.636 55.4257 15.636 58.2499Z" stroke="#E45F0C" stroke-width="4" stroke-linecap="round"/>
<path d="M2.00003 58.25C2.00003 68.6053 10.3947 77 20.75 77C31.1053 77 39.5 68.6053 39.5 58.25C39.5 47.8947 31.1053 39.5 20.75 39.5C10.3947 39.5 2.00003 47.8947 2.00003 58.25Z" stroke="#F7941D" stroke-width="4" stroke-linecap="round" stroke-linejoin="round"/>
</svg>
