<svg width="66" height="80" viewBox="0 0 66 80" fill="none" xmlns="http://www.w3.org/2000/svg">
<path d="M17.9766 34.0416C20.9065 28.4578 26.6774 24.6596 33.3175 24.6596C39.9575 24.6596 45.7285 28.4578 48.6584 34.0416M41.1433 10.4879C41.1433 14.8992 37.6396 18.4753 33.3175 18.4753C28.9954 18.4753 25.4916 14.8992 25.4916 10.4879C25.4916 6.07657 28.9954 2.50049 33.3175 2.50049C37.6396 2.50049 41.1433 6.07657 41.1433 10.4879Z" stroke="#F7941D" stroke-width="4" stroke-linecap="round" stroke-linejoin="round"/>
<path d="M64.0003 77.5005V40.6824H2.63672V77.5005H53.7731" stroke="#E45F0C" stroke-width="4" stroke-linecap="round" stroke-linejoin="round"/>
<path d="M33.3164 46.8186V71.8186" stroke="#F7941D" stroke-width="4" stroke-linecap="round" stroke-linejoin="round"/>
<path d="M39.5625 48.3811C39.5625 49.244 36.7643 49.9436 33.3125 49.9436C29.8607 49.9436 27.0625 49.244 27.0625 48.3811" stroke="#F7941D" stroke-width="4" stroke-linecap="round" stroke-linejoin="round"/>
<path d="M42.6914 55.9094C42.6914 56.9032 40.2176 57.7525 36.7255 58.0934C35.6689 58.1966 34.5191 58.2532 33.3164 58.2532M33.3164 58.2532C32.1137 58.2532 30.9639 58.1966 29.9073 58.0934M33.3164 58.2532L29.9073 58.0934M23.9414 55.9094C23.9414 56.9032 26.4152 57.7525 29.9073 58.0934" stroke="#F7941D" stroke-width="4" stroke-linecap="round" stroke-linejoin="round"/>
<path d="M41.1289 64.4321C41.1289 65.7265 37.6311 66.7759 33.3164 66.7759C29.0017 66.7759 25.5039 65.7265 25.5039 64.4321" stroke="#F7941D" stroke-width="4" stroke-linecap="round" stroke-linejoin="round"/>
</svg>
