<svg fill="none" height="772" viewBox="0 0 704 772" width="704" xmlns="http://www.w3.org/2000/svg" xmlns:xlink="http://www.w3.org/1999/xlink"><linearGradient id="a" gradientUnits="userSpaceOnUse" x1="-477.482" x2="674.026" y1="893.792" y2="896.128"><stop offset=".78" stop-color="#ffca8b"/><stop offset="1" stop-color="#fff5e9"/></linearGradient><linearGradient id="b"><stop offset="0" stop-color="#fff5e9"/><stop offset=".51" stop-color="#ffca8b"/></linearGradient><linearGradient id="c" gradientUnits="userSpaceOnUse" x1="-476.151" x2="615.88" xlink:href="#b" y1="238.456" y2="240.671"/><linearGradient id="d" gradientUnits="userSpaceOnUse" x1="430.295" x2="430.295" y1="2.30145" y2="550.894"><stop offset=".49" stop-color="#ffca8b"/><stop offset="1" stop-color="#fff5e9"/></linearGradient><linearGradient id="e" gradientUnits="userSpaceOnUse" x1="430.316" x2="430.316" xlink:href="#b" y1="60.8032" y2="492.37"/><clipPath id="f"><path d="m0 0h704v772h-704z"/></clipPath><g clip-path="url(#f)"><g opacity=".65" stroke-width="58.5221"><path d="m-475.728 29.0231 575.755 1.168 327.591.6645c137.056.278 247.937 111.6094 247.659 248.6664l-1.251 616.606" stroke="url(#a)"/><path d="m614.548 897.215 1.253-617.814c.213-104.736-84.52-189.8129-189.256-190.0254l-902.39-1.8305" stroke="url(#c)"/><circle cx="430.295" cy="276.598" r="245.035" stroke="url(#d)" transform="matrix(.00202807 -.99999794 .99999794 .00202807 152.8249 706.331155)"/><circle cx="430.316" cy="276.597" r="186.512" stroke="url(#e)" transform="matrix(.00202807 -.99999794 .99999794 .00202807 152.846857 706.351157)"/></g></g></svg>