<svg width="345" height="64" viewBox="0 0 345 64" fill="none" xmlns="http://www.w3.org/2000/svg">
<path d="M171.624 -142.656C174.057 -142.664 176.478 -142.617 178.887 -142.522C179.165 -142.512 179.444 -142.499 179.722 -142.487C180.068 -142.472 180.413 -142.458 180.759 -142.441C271.098 -138.048 343.189 -62.475 344.537 30.5961C345.236 78.9827 326.25 123.39 295.27 155.815C295.089 156.192 294.846 156.548 294.54 156.864C271.317 180.897 241.356 198.113 207.793 205.34C207.706 205.359 207.62 205.378 207.533 205.397C207.196 205.469 206.858 205.54 206.52 205.61C195.646 207.888 184.414 209.105 172.932 209.139C170.497 209.147 168.075 209.099 165.665 209.004C165.43 208.995 165.195 208.985 164.96 208.975C164.547 208.957 164.135 208.939 163.723 208.918C73.4181 204.488 1.3664 128.933 0.0186428 35.8871C-0.680043 -12.4991 18.3056 -56.9068 49.2852 -89.3316C49.4663 -89.7095 49.7092 -90.0653 50.0157 -90.3814C73.2363 -114.412 103.192 -131.627 136.75 -138.856C136.842 -138.876 136.934 -138.896 137.025 -138.916C137.372 -138.99 137.719 -139.062 138.066 -139.133C148.93 -141.408 160.152 -142.622 171.624 -142.656ZM172.128 -105.063C169.738 -105.063 167.362 -104.999 165.002 -104.874C128.855 -102.876 96.492 -86.385 73.3595 -60.9859L73.1993 -61.149C50.6129 -36.4384 36.7911 -3.25604 36.7911 33.2289C36.7912 69.713 50.616 102.897 73.2032 127.611L73.3595 127.453C96.8629 153.273 129.93 169.887 166.805 171.427C167.992 171.474 169.184 171.507 170.379 171.523L170.965 171.536C171.452 171.541 171.94 171.545 172.428 171.545C174.818 171.545 177.193 171.481 179.553 171.356C215.701 169.359 248.064 152.869 271.196 127.469L271.355 127.631C293.941 102.921 307.765 69.7396 307.765 33.2543C307.765 -3.23032 293.939 -36.4147 271.352 -61.1285L271.196 -60.9693C247.664 -86.8219 214.544 -103.447 177.614 -104.952C176.472 -104.996 175.326 -105.025 174.177 -105.04L173.577 -105.053C173.095 -105.058 172.612 -105.063 172.128 -105.063Z" fill="url(#paint0_linear_6246_245)"/>
<path d="M172.409 -105.064C247.152 -105.064 307.745 -43.1564 307.746 33.2266C307.746 107.046 251.152 167.356 179.885 171.321C177.322 171.469 174.74 171.546 172.14 171.546C97.3964 171.546 36.8032 109.638 36.8032 33.2549C36.8033 -40.6834 93.5798 -101.071 165.008 -104.861C165.055 -104.864 165.101 -104.867 165.148 -104.869C165.199 -104.872 165.25 -104.873 165.3 -104.876C167.654 -105 170.024 -105.064 172.409 -105.064ZM171.071 -67.4629C144.051 -67.095 119.644 -55.6035 102.051 -37.2832C101.892 -37.1147 101.721 -36.9651 101.542 -36.832C84.587 -19.0201 73.9628 5.13722 73.5894 31.7656C73.2014 59.4117 83.7231 84.5489 101.036 102.973C101.407 103.164 101.756 103.418 102.065 103.736C119.071 121.479 142.453 132.809 168.425 133.868C169.228 133.898 170.034 133.92 170.841 133.931L171.621 133.943C172.242 133.948 172.861 133.95 173.48 133.943C200.5 133.575 224.906 122.085 242.499 103.765C242.658 103.596 242.828 103.446 243.006 103.312C259.962 85.5006 270.586 61.344 270.959 34.7158C271.347 7.07011 260.826 -18.0666 243.514 -36.4902C243.143 -36.6814 242.794 -36.9362 242.485 -37.2549C225.479 -54.998 202.095 -66.328 176.123 -67.3867C175.32 -67.417 174.515 -67.4387 173.708 -67.4492L172.927 -67.4629C172.307 -67.4678 171.688 -67.4698 171.071 -67.4629Z" fill="url(#paint1_linear_6246_245)"/>
<defs>
<linearGradient id="paint0_linear_6246_245" x1="172.278" y1="-142.657" x2="172.278" y2="144" gradientUnits="userSpaceOnUse">
<stop offset="0.507841" stop-color="#FF852A"/>
<stop offset="1" stop-color="#FFA970"/>
</linearGradient>
<linearGradient id="paint1_linear_6246_245" x1="172.274" y1="-105.064" x2="172.274" y2="171.546" gradientUnits="userSpaceOnUse">
<stop stop-color="#FF862E"/>
<stop offset="1" stop-color="#FFA970"/>
</linearGradient>
</defs>
</svg>
