<svg width="721" height="736" viewBox="0 0 721 736" fill="none" xmlns="http://www.w3.org/2000/svg">
<g opacity="0.65">
<path fill-rule="evenodd" clip-rule="evenodd" d="M349.112 656.6C352.689 656.737 356.283 656.806 359.893 656.806V656.83C360.102 656.831 360.312 656.831 360.521 656.831C365.411 656.831 370.273 656.704 375.102 656.453C450.773 652.355 518.526 617.858 566.937 564.689L567.273 565.032C614.477 513.376 643.364 444.008 643.364 367.737C643.364 291.466 614.472 222.093 567.265 170.429L566.937 170.764C517.743 116.706 448.503 81.9492 371.299 78.8198C367.723 78.6828 364.13 78.6138 360.521 78.6138V78.5897C360.312 78.5893 360.102 78.5891 359.893 78.5891C355.001 78.5891 350.139 78.7159 345.308 78.9666C269.639 83.0654 201.887 117.562 153.477 170.73L153.141 170.387C105.936 222.044 77.0499 291.412 77.0499 367.683C77.0499 443.953 105.942 513.327 153.149 564.99L153.477 564.656C202.67 618.713 271.909 653.47 349.112 656.6ZM343.83 735.034C154.398 726.539 3.02219 568.265 0.198144 373.24C-1.2621 272.087 38.4169 179.249 103.166 111.465C103.544 110.678 104.052 109.939 104.69 109.281C153.727 58.5198 217.134 22.2999 288.16 7.47164C311.035 2.64382 334.673 0.0726051 358.84 0.00182062C364.791 -0.0171318 370.71 0.111958 376.591 0.385677C566.02 8.88423 717.392 167.157 720.216 362.18C721.676 463.333 681.997 556.171 617.248 623.955C616.87 624.742 616.362 625.481 615.724 626.139C566.686 676.901 503.278 713.121 432.25 727.949C409.377 732.776 385.74 735.347 361.574 735.418C355.625 735.437 349.709 735.308 343.83 735.034Z" fill="url(#paint0_linear_6087_355)"/>
<path fill-rule="evenodd" clip-rule="evenodd" d="M367.548 157.322C365.212 157.241 362.865 157.201 360.51 157.201L360.489 157.18C359.415 157.177 358.343 157.183 357.272 157.197C300.966 158.077 250.115 182.075 213.438 220.28C213.098 220.64 212.735 220.962 212.353 221.245C176.93 258.478 154.737 308.97 153.956 364.624C153.146 422.413 175.13 474.959 211.306 513.472C212.087 513.873 212.818 514.408 213.467 515.077C249.158 552.325 298.291 576.054 352.847 578.094C355.185 578.175 357.533 578.215 359.891 578.215L359.911 578.236C360.986 578.239 362.06 578.233 363.131 578.219C419.436 577.338 470.286 553.341 506.962 515.136C507.302 514.776 507.666 514.454 508.048 514.172C543.47 476.939 565.664 426.446 566.444 370.792C567.255 313.003 545.271 260.457 509.094 221.944C508.314 221.544 507.582 221.008 506.934 220.339C471.241 183.09 422.106 159.36 367.548 157.322ZM375.309 656.411C524.625 648.528 643.324 522.271 643.324 367.679C643.324 208.002 516.69 78.5847 360.481 78.5847C355.31 78.5847 350.172 78.7264 345.069 79.0062C195.763 86.9007 77.0762 213.153 77.0762 367.738C77.0762 527.414 203.711 656.831 359.919 656.831C365.083 656.831 370.214 656.69 375.309 656.411Z" fill="url(#paint1_linear_6087_355)"/>
</g>
<defs>
<linearGradient id="paint0_linear_6087_355" x1="360.207" y1="0" x2="360.207" y2="735.42" gradientUnits="userSpaceOnUse">
<stop offset="0.485" stop-color="#FFCA8B"/>
<stop offset="1" stop-color="#FFF6EB"/>
</linearGradient>
<linearGradient id="paint1_linear_6087_355" x1="360.2" y1="78.5847" x2="360.2" y2="656.831" gradientUnits="userSpaceOnUse">
<stop stop-color="#FFF6EB"/>
<stop offset="1" stop-color="#FFCA8B"/>
</linearGradient>
</defs>
</svg>
