<svg width="547" height="703" viewBox="0 0 547 703" fill="none" xmlns="http://www.w3.org/2000/svg">
<path d="M8.27891e-05 197.281L4.82949e-05 702.5L249.79 702.5L249.79 204.499C284.199 56.2973 461.533 6.41573 545.9 8.64957e-05L110.834 6.62044e-05C34.0775 60.6279 4.96281 156.782 8.27891e-05 197.281Z" fill="url(#paint0_linear_5944_467)"/>
<path d="M129 205.504L129 702.5L252.913 702.5L252.913 205.504C281.991 55.6068 461.087 6.04427 547 2.57813e-05L272.739 8.86551e-06C181.539 47.3867 138.913 156.747 129 205.504Z" fill="url(#paint1_linear_5944_467)"/>
<defs>
<linearGradient id="paint0_linear_5944_467" x1="-0.0055951" y1="1120" x2="98.0415" y2="4.36536e-05" gradientUnits="userSpaceOnUse">
<stop stop-color="#E87E2F"/>
<stop offset="1" stop-color="#FD9242"/>
</linearGradient>
<linearGradient id="paint1_linear_5944_467" x1="1096.75" y1="132.163" x2="140.524" y2="132.163" gradientUnits="userSpaceOnUse">
<stop offset="0.49" stop-color="#E87E2F"/>
<stop offset="1" stop-color="#FD9242"/>
</linearGradient>
</defs>
</svg>
