<svg width="178" height="171" viewBox="0 0 178 171" fill="none" xmlns="http://www.w3.org/2000/svg">
<path d="M131.132 161.225C130.477 161.507 129.805 161.75 129.172 162.071C127.619 162.856 126.157 162.999 124.838 161.62C123.35 160.687 122.036 159.512 120.149 159.217C119.164 159.065 117.95 158.202 118.605 156.892C119.264 155.569 120.427 156.189 121.407 156.731C121.533 156.801 121.645 156.896 121.767 156.974C122.595 157.503 123.515 158.466 124.4 157.386C125.194 156.423 123.849 155.798 123.598 154.992C122.695 152.094 120.695 152.272 118.444 152.914C118.058 153.105 117.694 151.669 117.29 152.909C115.963 154.072 114.657 155.308 112.675 154.189C112.657 154.818 113.052 155.074 113.312 155.395C113.881 156.089 114.393 156.792 113.894 157.737C113.39 158.683 112.462 158.648 111.564 158.939C108.111 160.054 105.504 157.881 102.758 156.718C100.923 155.942 99.2837 155.226 97.3013 155.577C96.3166 156.024 95.3276 156.471 94.3429 156.918C92.8767 157.195 91.4192 157.534 89.9269 157.542C89.7925 157.564 89.6667 157.629 89.5973 157.733C91.2283 157.508 92.7682 157.863 94.3082 158.249C95.2755 159.75 96.0997 161.269 94.8114 163.004C94.4644 163.472 93.9048 164.158 93.4406 163.837C90.8596 162.041 88.3263 163.624 85.8146 163.871C76.6444 164.769 67.5045 165.91 58.3863 167.246C54.8683 167.762 51.6626 169.406 48.1055 169.714C44.9432 169.992 41.7852 170.352 38.6056 170.2C36.9702 170.122 35.2654 170.122 33.9857 168.803C33.8339 167.94 33.9857 167.094 34.2504 166.287C34.6972 164.93 34.502 163.767 33.4782 162.73C32.7061 161.945 32.4805 160.969 32.91 159.95C33.3741 158.848 34.4022 159.395 35.1917 159.316C36.9268 159.147 38.6012 159.607 40.2887 159.898C41.7072 159.945 42.9218 161.577 44.4921 160.427C44.8131 160.058 45.2469 160.21 45.6416 160.175C45.9496 160.149 46.3964 160.306 46.4311 159.811C46.4571 159.425 46.0364 159.295 45.7717 159.095C43.6462 157.004 43.4944 156.909 40.1152 156.571C38.8355 156.445 37.8551 155.751 36.8271 155.122C35.452 153.404 35.4519 152.883 37.2869 151.946C38.4277 151.365 37.7727 150.437 38.0633 149.712C38.3583 148.975 38.6186 148.22 37.3476 148.034C36.9572 147.977 36.3933 147.609 36.7013 146.936C36.9745 146.776 37.2522 146.615 37.5255 146.455C37.7554 146.056 37.751 145.657 37.5255 145.257C36.7967 145.448 35.8944 143.678 35.3045 145.453C34.9878 146.147 34.5323 145.917 34.0682 145.635C32.3504 144.19 31.4871 141.917 29.4093 140.824C25.4141 138.456 20.8941 137.84 16.4434 137.271C13.9491 136.95 12.0231 135.736 9.89321 134.755C9.03865 134.361 8.30121 133.411 7.15601 133.918C6.87839 134.014 6.36218 134.482 6.37086 133.879C6.41857 130.869 4.63137 128.561 3.29097 126.179C0.666557 121.542 0.397609 116.623 0.731625 111.548C0.783679 110.776 0.974546 109.96 1.3129 109.266C3.22156 105.327 5.17794 101.41 7.16903 97.5148C7.48569 96.8945 8.05395 96.4 8.50509 95.8447C9.19915 95.3806 9.90622 95.4543 10.6176 95.81H10.609C11.0991 95.8925 11.7238 96.452 11.8973 95.437C10.8432 95.1897 10.1058 94.5868 9.99298 93.4719C9.90622 92.639 10.2402 91.919 10.9907 91.4722C11.7064 91.0427 12.3441 91.1815 12.9384 91.7498C13.498 92.2833 14.0446 93.0468 14.9425 92.6737C15.9229 92.266 15.2028 91.4158 15.2505 90.7738C15.3329 89.7153 15.6713 89.108 16.8728 89.5288C17.2633 89.6633 17.7751 89.8975 17.9833 89.3596C18.2263 88.7436 17.6623 88.3923 17.2329 88.2361C15.0206 87.4293 15.9445 86.3969 16.9509 85.295C18.3564 83.7594 20.2347 82.7313 21.471 81.0179C22.5077 80.467 22.7507 81.4126 23.2105 81.9462C23.3536 81.8898 23.4968 81.8334 23.6399 81.7727C24.334 79.8857 25.4532 81.3693 26.4205 81.5211C26.1559 80.2414 22.8201 80.0028 25.349 77.9814L25.3621 77.9684C26.7979 76.051 28.5547 75.6997 30.9492 76.7668C31.5175 77.0184 32.1725 78.0638 32.8232 76.8188C33.1182 75.9165 33.7602 75.9035 34.5063 76.1595C34.8316 76.2376 35.2177 76.5239 35.4736 76.2419C35.7469 75.9382 35.3435 75.6259 35.2351 75.3136C34.7449 73.9905 35.1136 73.2401 36.6102 73.2401C37.1524 73.2531 37.7814 73.4657 37.9592 72.6458C37.8421 72.0472 37.4604 71.4919 37.6599 70.8499C37.2392 71.2794 36.9051 71.8303 36.3542 72.16C35.9248 72.4289 35.4606 72.6284 34.9704 72.7629C34.3762 72.8887 33.7949 73.0883 33.1746 73.0405C32.8666 72.9668 32.6453 72.7889 32.5109 72.507C32.1985 72.1773 32.923 70.8022 31.5392 71.5613C30.7497 71.917 29.9689 72.4246 29.1534 71.6307C28.4853 70.9801 28.841 70.312 29.11 69.6353C29.2878 69.1885 29.6782 68.6289 28.9929 68.3426C28.3639 68.0824 27.7349 67.744 26.9454 68.1127C25.7568 68.668 22.7376 67.6009 22.0523 66.5164C21.818 66.1433 21.9959 65.9004 22.1347 65.5534C22.2431 65.2801 23.2495 65.5534 22.5555 64.9287C22.2908 64.6901 21.844 64.7812 21.753 65.2714C21.6141 66.0392 21.2107 66.2344 20.5253 65.8874C18.4952 64.2303 18.5126 61.6927 20.7943 59.9749C22.5598 58.6475 24.5509 57.6151 26.4682 56.4959C28.4333 55.3464 30.4113 54.2229 31.8949 52.4357C34.0335 49.7028 36.3239 47.0697 37.5645 43.7512C37.8725 40.5325 39.6727 38.0947 41.6074 35.6654C42.6094 34.4075 43.5464 34.6027 44.8261 34.9757C48.4656 36.0385 52.0964 35.904 55.6057 34.3858C56.6598 33.9303 57.6141 33.2579 58.3429 32.3166C59.8612 30.3559 59.8698 30.3646 61.3404 32.4858C62.6244 33.3924 61.8826 35.4312 63.557 36.4159C63.5787 34.4248 61.8913 33.2883 61.8175 31.5878C61.323 29.4146 61.9086 27.5319 63.0668 25.6536C65.0276 22.474 66.2899 18.9082 68.4371 15.8153C69.9641 13.616 68.5065 11.3994 68.268 9.19575C67.7908 8.34553 68.9013 7.23937 67.8212 6.48892L67.8342 6.51929C67.1314 5.04875 68.9924 4.85788 69.1789 3.83414C70.849 3.03598 72.5017 2.19009 74.1978 1.44831C76.3537 0.502659 78.4012 0.988501 80.388 2.05562C81.0777 2.42434 81.8108 2.71064 82.5222 3.03598C84.7605 3.90789 86.9598 4.83185 87.7363 7.43458L87.7103 7.40421C88.4564 8.20238 89.0203 9.11767 89.5018 10.0937C90.5559 11.7117 92.3214 12.0761 93.9742 12.2019C97.31 12.4578 99.0798 14.3795 100.251 17.2338C100.949 18.9386 101.279 20.7302 101.73 22.4957C102.862 23.3155 103.144 24.0486 101.522 24.5952C100.459 24.8251 99.865 25.1765 101.136 26.031C102.685 26.9333 104.003 28.0178 104.277 29.9438C105.101 30.9632 102.91 31.0586 103.604 31.6876C104.71 32.6853 105.994 33.6744 107.383 34.1212C109.061 34.6634 109.799 36.1079 111.044 37.0319C111.1 37.0753 111.152 37.1273 111.204 37.1794C111.95 37.9125 109.859 38.0643 110.849 38.7193C111.33 39.0403 112.133 38.8451 112.662 39.1227C113.33 39.4741 113.347 40.1118 112.532 40.3243C111.942 40.4761 111.456 40.5759 111.191 41.4912C113.811 41.3567 115.29 43.3695 117.286 44.4063C118.132 44.8444 118.574 45.3953 117.425 46.0763C116.362 46.7097 116.744 47.1955 117.681 47.4254C120.587 48.1368 120.986 50.3578 121.377 52.8651C121.563 54.058 122.708 55.1251 123.498 56.1879C123.919 56.7562 124.578 57.1509 124.734 57.91C125.745 58.7473 125.814 57.6411 126.1 57.19C126.552 56.4742 126.899 55.7411 127.775 56.7345C129.605 57.3982 130.768 56.0144 131.913 55.1381C135.162 52.6482 138.568 50.3578 141.587 47.5686C143.109 46.1631 145.296 46.0503 147.209 45.4343C148.215 45.109 148.662 45.6165 148.662 46.6619C148.662 50.5357 150.501 54.0624 150.818 57.884C150.835 58.0922 150.887 58.4002 151.026 58.4783C154.804 60.5778 154.54 64.599 155.585 67.9956C155.815 68.7417 155.815 70.0821 157.06 68.6333C157.667 67.9262 158.166 68.2212 158.084 69.0367C157.845 71.3922 159.242 73.2704 159.858 75.37C160.322 76.9576 159.927 77.4825 158.426 77.1008C157.819 76.949 157.324 76.68 156.964 77.3437C156.591 78.0378 157.32 78.1592 157.654 78.4585C158.045 78.8099 158.413 79.1916 158.231 79.7469C158.036 80.3368 157.507 80.3802 156.973 80.3021C156.062 80.1677 155.481 80.6622 154.986 81.3302C154.726 81.9939 153.143 81.5558 153.685 82.8875C153.806 83.009 153.928 83.1304 154.045 83.2519C154.882 83.8332 153.811 84.8482 154.548 85.4512H154.535C155.221 85.564 155.88 85.7288 156.283 86.3708C157.411 87.6939 158.34 89.095 158.049 90.9646C157.459 92.3614 158.283 93.9187 157.55 95.3025L157.576 95.2635C156.544 96.0833 155.234 96.3219 154.11 96.9509C153.659 96.9769 153.199 97.0333 152.956 96.5171L152.982 96.5518C151.872 95.8708 152.058 94.7125 151.95 93.3982C151.95 93.3808 151.581 93.7539 151.859 93.6715C151.95 93.6454 151.976 93.7062 151.945 93.8536C151.386 96.3436 148.744 97.3066 146.948 95.6712C146.627 95.3806 146.363 95.0292 145.968 94.8297C145.912 94.7993 145.833 94.8036 145.586 94.7646C146.059 96.9466 147.716 98.2566 148.892 99.8703C150.44 101.853 150.371 102.252 148.154 103.367C147.313 103.792 146.445 104.152 146.055 105.106C145.556 106.316 144.84 105.67 144.159 105.332C143.79 105.132 143.326 105.084 143.096 104.694C143.088 105.301 143.929 105.887 143.231 106.581C142.667 107.058 142.103 107.071 141.457 106.689C140.88 106.347 140.246 106.125 139.817 106.945C139.118 110.312 136.151 111.947 134.156 114.32C133.874 114.658 133.423 114.806 132.985 114.819C131.826 114.849 131.657 115.491 131.614 116.528C131.488 119.278 130.169 119.851 127.844 118.267C127.306 117.903 126.695 117.322 126.135 117.925C125.597 118.501 126.213 119.135 126.539 119.668C128.161 122.314 130.096 124.752 131.809 127.333C132.291 128.058 132.755 128.761 132.907 129.628C132.946 130.101 132.855 130.522 132.468 130.838C131.206 131.528 129.775 130.73 128.499 131.294C127.437 131.545 126.838 132.469 125.983 133.025C125.602 133.38 125.064 133.354 124.626 133.606C124.04 133.949 123.381 134.309 123.68 135.055C123.949 135.727 124.643 135.454 125.194 135.298L125.159 135.315C125.471 134.873 126.005 135.007 126.421 134.834C128.712 134.751 131.002 134.786 133.288 134.868C133.501 134.925 133.687 135.029 133.848 135.185C133.414 137.228 133.553 139.679 130.499 139.857C130.273 139.87 130.135 140.095 130.161 140.33C130.208 140.729 130.477 140.989 130.846 141.071C131.983 141.319 133.145 141.258 134.286 141.18C136.303 141.041 137.283 142.104 137.93 143.839C139.079 146.928 139.878 150.159 141.678 152.983C142.359 154.475 143.435 155.903 142.407 157.659C139.925 159.538 136.802 159.542 134.004 160.501C133.084 160.817 132.095 161.013 131.128 161.225H131.132Z" fill="#FFDFC2"/>
<path d="M170.141 115.799C171.446 118.033 169.637 118.033 168.336 118.159C164.792 118.506 161.391 119.326 158.155 120.822C157.231 121.247 156.346 121.707 155.795 122.614C154.381 123.034 153.015 123.221 152.004 121.789C152.242 120.371 153.808 120.883 154.472 120.08C155.071 119.542 154.975 118.892 154.754 118.232C154.654 118.081 154.55 117.929 154.424 117.794C153.939 117.439 153.275 117.486 152.819 117.061C152.156 116.003 152.242 115.066 153.232 114.246C154.064 113.561 154.78 113.734 155.435 114.502C155.742 114.684 156.186 114.489 156.767 113.916C157.175 113.461 157.496 112.91 158.146 112.736L158.12 112.754C158.827 110.793 160.467 111.127 161.825 111.504C163.07 111.851 164.028 111.643 165.026 111.019C166.15 110.914 166.666 111.327 166.28 112.498C166.145 112.866 165.959 113.218 165.833 113.587C165.807 113.851 165.677 114.216 166.046 114.276C166.362 114.324 166.384 113.903 166.549 113.691C168.501 113.109 169.282 114.524 170.136 115.803V115.79L170.141 115.799Z" fill="#FFDFC2"/>
<path d="M151.159 120.493C148.127 122.458 144.483 122.952 141.299 124.587C140.271 125.117 139.456 124.253 139.881 123.043C140.813 120.362 141.455 117.534 143.399 115.309C144.08 115.062 144.652 114.654 145.099 114.077C146.335 113.235 147.459 112.229 148.821 111.578C149.849 111.088 150.856 110.789 151.727 111.86C152.161 112.606 152.669 113.387 152.461 114.263C152.027 116.09 152.157 117.959 151.914 119.798C151.766 120.141 151.489 120.341 151.163 120.488L151.159 120.493Z" fill="#FFDFC2"/>
<path d="M160.087 110.034C157.549 109.886 156.89 108.719 158.295 106.542C160.126 103.709 162.911 102.056 166.03 101.002C167.743 100.425 169.183 101.119 170.073 102.651C170.962 104.178 169.925 105.193 168.914 106.177C168.567 106.52 168.294 106.937 167.986 107.323C167.04 109.153 165.869 110.42 163.475 109.912C162.408 109.687 161.202 109.678 160.087 110.034Z" fill="#FFDFC2"/>
<path d="M150.151 151.704C148.946 152.124 147.766 152.536 146.508 152.975C146.334 152.437 146.291 151.803 145.97 151.383C144.903 149.99 144.673 148.862 146.555 147.982C147.427 147.574 147.913 146.142 149.041 146.563C150.772 147.205 152.576 147.891 153.665 149.565C154.849 151.391 155.222 153.139 153.574 155.044C152.264 156.558 151.279 158.345 150.143 160.006C149.861 160.414 149.614 160.939 149.006 160.856C148.291 160.761 148.568 160.063 148.373 159.651C148.343 159.585 148.364 159.49 148.321 159.442C145.796 156.51 148.091 154.701 149.87 152.766C150.013 152.61 150.147 152.432 150.23 152.237C150.273 152.133 150.199 151.981 150.156 151.699L150.151 151.704Z" fill="#FFDFC2"/>
<path d="M173.249 127.017C173.796 126.561 174.399 126.344 174.963 126.921C175.401 127.372 175.119 127.949 174.85 128.318C173.453 130.27 174.663 132.743 173.527 134.729C172.173 135.358 170.751 135.836 169.666 136.976C168.955 137.722 168.052 137.675 167.423 136.859C166.63 135.831 165.506 135.228 164.586 134.365C163.979 132.625 165.359 132.027 166.382 131.22C166.69 131.047 166.99 130.877 167.22 130.587C168.599 128.826 170.026 127.151 172.638 127.568C172.907 127.611 173.08 127.247 173.249 127.021V127.017Z" fill="#FFDFC2"/>
<path d="M158.47 137.497C159.98 138.139 161.485 138.785 162.999 139.414C163.728 139.718 164.331 140.191 164.036 141.028C163.363 142.945 161.32 143.219 159.889 144.199C158.9 144.88 158.028 143.982 157.351 143.188C156.982 142.755 156.666 142.26 156.067 142.1C155.143 141.761 154.336 141.189 153.421 140.824C152.475 140.451 151.881 139.818 152.458 138.707L152.449 138.72C152.666 138.113 153.256 138.044 153.746 137.835C154.18 137.532 154.609 137.224 155.043 136.92C156.284 136.538 157.42 136.764 158.474 137.493L158.47 137.497Z" fill="#FFDFC2"/>
<path d="M158.224 131.276C157.044 129.394 157.378 128.032 159.378 126.561C159.647 126.305 159.911 126.31 160.172 126.574C160.336 126.717 160.501 126.86 160.662 126.999C162.158 127.776 162.293 126.769 162.375 125.694C163.269 124.982 164.271 125.121 165.282 125.325C166.882 127.581 166.353 130.422 164.08 131.732C163.169 132.331 162.215 132.899 162.354 134.222C162.124 134.868 161.768 135.489 161.009 135.371C160.258 135.254 159.699 134.686 159.642 133.905C159.595 133.215 159.248 132.686 158.992 132.101C158.892 131.684 158.636 131.407 158.228 131.272L158.224 131.276Z" fill="#FFDFC2"/>
<path d="M177.14 106.633C177.63 107.47 177.691 108.277 176.858 108.928C175.262 110.173 174.325 111.834 173.722 113.721C173.57 114.198 173.371 114.736 172.781 114.771C172.173 114.81 171.952 114.276 171.757 113.817C171.124 112.346 169.874 111.34 168.963 110.082C168.677 109.444 169.18 109.114 169.562 108.88C171.327 107.791 173.223 106.941 175.088 106.047C175.791 105.713 176.65 105.757 177.145 106.624L177.14 106.633Z" fill="#FFDFC2"/>
<path d="M166.67 131.736C167.42 130.465 166.327 129.147 166.77 127.867C167.425 126.7 167.542 125.433 167.62 124.123C167.72 122.406 169.724 121.529 171.168 122.492C171.589 122.77 171.862 123.165 171.294 123.442C170.344 123.906 169.303 124.201 170.114 125.594C170.825 126.817 171.723 127.602 173.25 127.017C173.19 127.385 173.077 127.78 172.647 127.802C170.053 127.936 168.487 129.489 167.281 131.589C167.208 131.715 166.882 131.693 166.674 131.736H166.67Z" fill="#FFDFC2"/>
<circle cx="93.7651" cy="99.4625" r="4.22217" fill="#DA6B07"/>
</svg>
