<svg width="227" height="115" viewBox="0 0 227 115" fill="none" xmlns="http://www.w3.org/2000/svg">
<path d="M52.3559 24.4984L54.1354 24.1678L55.5988 29.4721L50.5814 38.0629L41.446 38.5637L35.6605 36.264L27.7941 47.0913L22.6211 45.9293L26.423 29.2727L32.1989 28.2177L52.3559 24.4984Z" fill="#FFDFC2"/>
<path d="M26.4368 29.2729L22.6348 45.9295L13.7183 56.6887L5.87131 66.106L0.722656 33.9597L4.7142 33.2402L26.4368 29.2729Z" fill="#FFDFC2"/>
<path d="M163.317 92.9768L165.617 98.9763L163.054 104.563L145.041 100.926L143.121 98.3394L140.617 93.9832L140.637 92.8164L143.243 84.8236L143.666 84.4492L145.348 84.211L146.247 84.1381L148.177 84.4006L163.317 92.9768Z" fill="#FFDFC2"/>
<path d="M125.965 75.6205L128.863 80.8323L129.626 79.189L129.753 78.7029L129.976 78.4209L130.608 77.9882L132.15 77.2638L137.143 76.4032L143.079 77.7888L143.268 78.1389L144.46 81.4692L146.891 82.1936L147.634 82.1693L148.164 84.4009L146.234 84.1384L145.335 84.2113L143.653 84.4495L143.23 84.8239L140.624 92.8167L140.604 93.9835L143.108 98.3397L143.361 99.9393V100.751L143.254 101.237L124.453 98.2328L123.948 98.1209L122.11 97.2264L121.055 95.4081L119.742 91.3339L119.869 89.3356L120.617 86.6422L122.591 83.0882L124.716 80.458L125.965 75.6205Z" fill="#FFDFC2"/>
<path d="M212.33 73.7675L226.24 70.7289L226.483 73.0285L226.502 74.6718L226.459 76.9131L226.264 78.9502L224.353 93.3266L224.227 94.2066L224.071 94.8143L223.799 95.8207L223.639 96.5451L222.866 98.9517L205.013 105.024L207.726 98.2565L206.19 92.6411L201.727 87.3222L213.444 84.0113L214.912 80.7685L215.155 79.2954L214.1 76.3443L212.33 73.7675Z" fill="#FFDFC2"/>
<path d="M193.706 70.8215L194.362 73.1844L194.888 74.9784L195.451 76.9571L196.925 76.7141L200.274 76.1452L200.449 76.1258L201.874 75.8584L204.723 75.3139L205.725 75.1145L208.165 74.6575L208.345 74.6283L209.011 74.4971L209.784 74.3512L211.627 73.9331L212.332 73.7678L214.101 76.3446L215.156 79.2957L214.913 80.7688L213.445 84.0116L201.728 87.3225L190.244 92.4226L187.391 91.4356L187.483 86.7294L188.971 77.0009L189.277 76.4272L190.288 75.8584L191.421 74.8277L193.706 70.8215Z" fill="#FFDFC2"/>
<path d="M65.6233 21.999L95.2755 16.3884L94.5705 19.8306L93.8509 21.7753L93.4571 22.4414L91.7409 23.5499L91.6194 24.2305L91.2402 28.7909L91.1283 34.664L90.2338 43.2305L88.3522 43.4493L81.2491 33.6965L70.417 27.7164L69.61 26.8219L67.4221 25.2369L65.667 24.5806L63.8973 24.3861L62.2735 24.3423L61.9866 24.4493L61.656 24.8237L60.4114 26.7927L58.7195 29.9091L58.1507 29.9772L55.6079 29.4716L54.1445 24.1673L65.6233 21.999Z" fill="#FFDFC2"/>
<path d="M163.302 92.9767L148.163 84.4005L147.633 82.1689L144.414 69.1296L144.652 68.6045L145.965 67.4668L147.171 67.3307L148.989 69.9366L152.324 69.7908L152.344 70.6221L152.631 71.9348L155.125 80.4187L155.348 81.0313L156.112 82.4363L157.035 83.6615L159.204 85.2367L163.258 88.5039L163.433 88.8296L163.652 90.1277L163.302 92.9767Z" fill="#FFDFC2"/>
<path d="M177.2 51.2532L177.661 52.7409L177.078 61.6818L176.587 63.6508L176.742 63.8696L179.305 66.0234L180.617 66.3248L171.351 70.9484L171.501 70.6664L170.826 69.4363L165.871 65.4934L165.06 65.5858L162.41 66.5241L162.254 66.6359L161.754 67.7931V68.43L162.522 69.1544L162.604 69.7913L161.86 70.467L161.316 69.6357L160.762 65.4934L160.805 64.1321L161.739 60.5003L161.841 60.3448L163.11 58.8327L166.508 58.5702L177.2 51.2532Z" fill="#FFDFC2"/>
<path d="M177.195 51.2533L183.724 35.2969L192.427 66.2812L180.612 66.325L179.3 66.0235L176.738 63.8698L176.582 63.651L177.073 61.6819L177.656 52.7411L177.195 51.2533Z" fill="#FFDFC2"/>
<path d="M168.67 23.7113L179.716 21.0568L181.097 25.9623L181.972 29.0544L175.705 30.124L171.714 31.2471L170.114 31.9472L168.252 34.3101L164.985 42.5071L162.953 43.4746L161.46 43.4308L158.611 40.5186L158.543 39.2448L158.718 38.2384L160.736 28.8551L161.285 27.9168L163.585 24.8247L168.67 23.7113Z" fill="#FFDFC2"/>
<path d="M145.825 38.5049L141.401 38.1938L137.672 36.9637L136.758 31.0226H145.781L145.825 38.5049Z" fill="#FFDFC2"/>
<path d="M130.003 47.354L132.609 48.6618L140.85 54.671L142.649 58.682L144.423 69.1301L147.642 82.1694L146.898 82.1937L144.467 81.4693L143.276 78.139L143.086 77.7889L137.15 76.4033L132.157 77.2639L130.616 77.9883L129.984 78.421L129.76 78.703L129.634 79.1891L128.87 80.8324L125.973 75.6206L127.154 70.1559L127.13 69.8788L132.351 61.6818L126.648 58.7452L130.003 47.354Z" fill="#FFDFC2"/>
<path d="M145.812 38.5054L145.904 38.5151L151.729 44.0624L154.578 49.2986L154.904 49.9792L153.158 54.8702L151.948 58.7451L150.173 66.6942L150.596 68.0846L150.917 68.634L152.322 69.7911L148.987 69.937L147.169 67.3311L145.963 67.4672L144.65 68.6049L144.412 69.1299L142.637 58.6819L140.838 54.6709L132.598 48.6617L137.921 40.4258L141.388 38.1942L145.812 38.5054Z" fill="#FFDFC2"/>
<path d="M127.516 33.7644L137.939 40.4251L132.616 48.661L130.01 47.3532L129.222 47.9415L127.161 48.0533L126.611 47.8782L116.557 41.0377L114.252 38.6748L113.29 37.4205L113.246 37.2746L113.334 36.9392L113.932 36.2877L113.971 36.2439L127.516 33.7644Z" fill="#FFDFC2"/>
<path d="M113.931 36.288L113.333 36.9394L113.246 37.2749L113.289 37.4208L114.252 38.6751L116.556 41.038L126.611 47.8785L127.16 48.0536L129.221 47.9417L130.009 47.3535L126.654 58.7447L124.16 57.4514L121.481 61.8125L110.071 56.095L107.791 56.3527L105.442 56.4645L103.716 56.3527L103.624 56.3138L100.517 54.2281L100.211 54.0093H100.182L99.9047 53.6398L99.5693 52.5702L99.5547 52.5216L99.613 51.9527L99.7297 51.1651L99.7492 50.8783L99.9485 50.3532L101.874 47.3097L113.931 36.288Z" fill="#FFDFC2"/>
<path d="M177.208 51.2525L166.517 58.5695L165 42.5061L168.267 34.3091L170.129 31.9462L171.729 31.2461L175.72 30.1231L181.987 29.0535L183.737 35.296L177.208 51.2525Z" fill="#FFDFC2"/>
<path d="M157.822 3.48106L174.085 0L179.715 21.0565L168.669 23.7111L162.985 13.9145L153.242 4.47287L157.822 3.48106Z" fill="#FFDFC2"/>
<path d="M152.951 4.53574L153.257 4.47253L163 13.9142L164.872 19.3934L164.94 19.6754L160.248 25.1936L158.406 27.3717L156.432 29.5352L155.139 28.6844L154.001 27.8676L153.763 27.3036L149.465 22.1938L146.596 20.0255L143.767 19.1698L142.785 19.3691L141.511 18.3627L139.542 15.4213L139.08 14.3274L137.5 7.7737L152.951 4.53574Z" fill="#FFDFC2"/>
<path d="M127.292 9.89805L137.497 7.77344L139.077 14.3272L139.539 15.4211L141.508 18.3625L142.781 19.3689L143.764 19.1695L146.593 20.0252L149.462 22.1936L153.759 27.3033L153.998 27.8673H153.759L152.947 28.2417L151.81 32.0339L151.333 34.7711L152.16 35.1892L152.432 35.0968L152.379 35.5587L152.228 36.0692L150.93 38.257L150.254 39.0689L147.298 38.7821L145.917 38.5147L145.825 38.5049L145.781 31.0226H136.758L137.672 36.9638L141.401 38.1938L137.934 40.4254L127.511 33.7647L125.648 27.2353L126.412 22.2811L127.292 9.89805Z" fill="#FFDFC2"/>
<path d="M127.288 9.89819L126.408 22.2812L125.644 27.2354L127.506 33.7648L113.961 36.2444L114.948 29.0537L115.123 27.1285L115.08 26.9972L109.206 22.7042L105.234 19.1016L107.116 14.0405L117.311 11.979L127.288 9.89819Z" fill="#FFDFC2"/>
<path d="M95.7292 16.2965L107.116 14.0406L105.234 19.1018L109.206 22.7044L115.079 26.9974L115.123 27.1286L114.948 29.0539L113.961 36.2445L113.922 36.2883L101.865 47.31L90.2305 43.231L91.125 34.6645L91.2369 28.7914L91.6161 24.231L91.7376 23.5504L93.4539 22.4419L93.8477 21.7758L94.5672 19.8311L95.2722 16.3889L95.7292 16.2965Z" fill="#FFDFC2"/>
<path d="M190.245 92.4228L201.729 87.3228L206.192 92.6416L207.728 98.257L205.015 105.025L203.411 108.16L197.645 108.005L193.395 98.5146L190.245 92.4228ZM181.406 102.151L183.011 101.587L183.623 100.314L183.886 99.0689L184.566 100.664L185.262 102.725L185.617 103.843L185.398 104.188L184.868 104.407L184.148 104.188L182.816 103.231L181.406 102.151ZM185.296 111.88L184.766 110.061L184.391 108.117L184.362 107.436L184.498 106.979L185.398 106.342L185.772 106.206L186.21 106.318L187.809 106.994L188.135 107.261L188.247 107.849L187.61 108.141L187.503 110.042L187.829 111.36L187.916 112.541L187.785 113.742L186.467 114.116L185.597 113.246L185.296 111.88Z" fill="#FFDFC2"/>
<path d="M180.618 66.3251L192.432 66.2814L193.706 70.8223L191.421 74.8284L190.288 75.8591L189.277 76.428L188.97 77.0017L187.483 86.7302L187.39 91.4364L181.692 93.1672L175.051 94.159L174.375 93.9402L170.607 91.6406L170.389 91.4801L169.708 90.255L166.728 84.4013L165.172 80.964L165.575 73.6908L165.848 73.2289L166.927 72.31L167.365 72.0669L171.351 70.9487L180.618 66.3251ZM181.405 102.152L181.298 102.064L181.255 102.093L180.837 101.369L180.487 100.139L180.137 97.5282L180.817 96.6969L181.892 96.4538L183.511 97.7713L183.603 98.1457L183.885 99.0694L183.622 100.314L183.01 101.588L181.405 102.152Z" fill="#FFDFC2"/>
<path d="M121.195 61.3412L124.127 56.6165L126.856 58.0176L133.097 61.199L127.383 70.0797L127 66.7086L125.59 63.996L123.19 62.953L121.195 61.3412Z" fill="#FFDFC2"/>
<circle cx="122.848" cy="59.8546" r="3.14056" fill="#DA6B07"/>
<circle cx="142.187" cy="36.796" r="3.14056" fill="#DA6B07"/>
</svg>
