<svg width="116" height="191" viewBox="0 0 116 191" fill="none" xmlns="http://www.w3.org/2000/svg">
<path d="M72.4442 182.55C74.013 182.55 75.5236 182.882 75.9469 185.256C76.1877 186.596 76.6151 187.891 77.026 189.14C77.1712 189.58 77.3123 190.008 77.441 190.423C77.4534 190.464 77.495 190.485 77.5365 190.481C77.8934 190.423 78.2295 190.36 78.5532 190.302C79.4082 190.149 80.1469 190.016 80.9105 189.97C82.305 189.887 83.7243 189.908 85.098 189.929H85.4757C86.1148 189.945 86.5797 189.804 86.8494 189.518C87.0984 189.256 87.2022 188.854 87.1648 188.318C87.086 187.132 86.9739 185.949 86.8577 184.695C86.8079 184.148 86.754 183.583 86.7042 183.006L86.6876 182.795L86.8992 182.778C87.0486 182.766 87.2146 182.749 87.3931 182.732C87.8289 182.687 88.3767 182.633 88.912 182.641L89.5553 182.654C95.7723 182.766 102.205 182.882 108.526 183.052C109.248 183.073 109.675 182.965 109.912 182.712C110.14 182.467 110.219 182.043 110.153 181.379C109.987 179.703 110.003 177.985 110.02 176.325V176.188C110.032 174.797 110.09 173.386 110.14 172.025C110.165 171.423 110.186 170.821 110.207 170.215V170.033L111.178 169.946L111.244 170.066C111.443 170.427 111.622 170.826 111.792 171.207C112.157 172.033 112.539 172.884 113.153 173.365C113.651 173.751 114.004 173.893 114.278 173.801C114.705 173.66 115.079 172.934 115.523 171.382C115.535 171.344 115.515 171.303 115.481 171.282C114.137 170.543 113.336 169.643 113.091 168.597C112.842 167.51 113.195 166.244 114.149 164.837C114.187 164.783 114.149 164.708 114.087 164.704L110.97 164.555V164.355L112.522 23.5114C112.522 23.4657 112.489 23.4284 112.443 23.4242L99.8643 22.839C99.8062 22.839 99.7689 22.7768 99.7896 22.7228L102.927 15.1571H103.064C103.334 15.1571 103.616 15.1571 103.911 15.1571C104.612 15.1571 105.372 15.1488 106.131 15.1654C106.77 15.1778 107.177 15.0575 107.347 14.8126C107.521 14.5595 107.492 14.1154 107.256 13.4597C107.243 13.4223 107.198 13.3974 107.16 13.4016C105.766 13.634 104.807 13.4929 104.168 12.9534C103.546 12.4304 103.251 11.5589 103.263 10.289C103.272 9.66228 102.981 9.01901 102.645 8.27613C102.52 7.99807 102.392 7.71586 102.271 7.42119C102.255 7.37554 102.201 7.35479 102.155 7.37554C101.802 7.5623 101.446 7.74906 101.089 7.93166C100.109 8.43798 99.0924 8.96506 98.1503 9.55438C95.9134 10.953 93.5685 11.5257 90.7755 11.3597C84.0854 10.9571 77.9473 10.7081 72.0084 10.6002C65.4138 10.4799 58.703 10.5255 52.2163 10.5712H51.378C49.5063 10.5919 47.6345 10.5961 45.7628 10.6044C38.8611 10.6334 31.7228 10.6625 24.7173 10.9696C21.1938 11.1273 19.899 9.36762 18.5792 7.05183C17.604 5.33781 16.3755 3.76075 15.0765 2.09239C14.5577 1.42836 14.0265 0.743582 13.4953 0.0339041C13.4662 -0.00759751 13.404 -0.0117477 13.3666 0.0256038L10.723 2.64021C7.05839 6.2633 3.593 9.69133 0.181568 13.1733C-0.075742 13.4348 -0.0549912 14.4806 0.214769 14.8707C2.66337 18.4316 2.67997 22.5029 2.70072 26.4372C2.70072 26.79 2.70072 27.1386 2.70902 27.4914C2.75882 32.7081 2.81277 38.1075 6.64337 42.5399C7.58961 43.6355 8.6064 44.7063 9.58584 45.7396C10.2831 46.4742 11.0052 47.2337 11.6941 47.9973C11.8435 48.1633 12.3374 48.7527 12.3706 49.3959C12.4162 50.2924 12.5242 51.2262 12.6238 52.1267C12.8686 54.3305 13.1259 56.6131 12.5947 58.6716C10.7686 65.7683 10.059 73.3673 10.3578 82.5889C10.3993 83.8879 10.3868 85.2119 10.3785 86.4901C10.3744 87.096 10.3661 87.6978 10.3661 88.3079V88.3577L10.3453 88.4033C10.308 88.4739 10.2499 88.561 10.1835 88.6606C10.0341 88.8806 9.85145 89.1504 9.8473 89.3994C9.839 89.8932 9.89295 90.4037 9.94275 90.8934C10.005 91.4869 10.0673 92.1011 10.0299 92.707C9.8473 95.4171 10.6732 97.6167 12.5615 99.4386C13.7028 100.543 14.8482 101.638 15.9937 102.738C17.6745 104.352 19.3553 105.963 21.0237 107.585C21.2727 107.83 21.4636 108.125 21.6462 108.411C21.7624 108.594 21.8703 108.764 21.9948 108.922C22.4347 109.486 22.8788 110.042 23.327 110.598C24.2899 111.802 25.2859 113.043 26.1782 114.329C26.7924 115.209 27.0788 116.355 27.2655 117.255C27.3278 117.558 26.9377 117.965 26.7675 118.127C26.4563 118.417 26.2072 118.542 26.0246 118.492C25.0908 118.239 24.211 117.733 23.547 117.318C23.4391 117.251 23.3478 117.164 23.2606 117.068C23.8624 118.724 25.0908 119.525 27.058 119.567C29.9714 119.629 31.9137 120.849 32.8267 123.198C33.6028 125.195 35.1965 126.145 36.8815 127.149L37.2508 127.369C38.4876 128.112 39.716 128.95 40.3468 130.063C40.5253 130.374 40.7038 130.685 40.8864 130.996C42.4468 133.694 44.0654 136.483 43.613 139.998C43.5425 140.534 43.6587 140.924 43.9326 141.102C44.2729 141.318 44.8415 141.218 45.4557 140.832C45.6508 140.708 45.85 140.579 46.0492 140.451C46.9 139.89 47.7798 139.313 48.7426 139.102C49.7055 138.89 51.0501 139.185 51.8013 139.77C52.8098 140.558 51.0999 143.932 51.0833 143.966C50.7015 144.692 50.5687 145.8 50.7223 146.999C50.8219 147.767 51.1912 148.527 51.5523 149.261C51.6436 149.448 51.7349 149.635 51.822 149.826C51.9258 149.851 52.208 149.846 52.3616 149.788C53.4199 149.386 54.4864 148.95 55.7232 148.448L56.8313 148C56.6985 147.908 56.574 147.825 56.4578 147.747C56.0677 147.485 55.7564 147.278 55.524 146.991C54.5529 145.788 54.0133 143.941 54.2499 142.596C54.3619 141.957 54.6442 141.488 55.0633 141.231C56.5781 140.314 58.4001 139.766 59.9481 139.762H59.9564C61.6662 139.762 62.9196 140.928 63.5795 143.136C63.8783 144.14 64.5132 145.074 65.1275 145.983C65.3806 146.356 65.6421 146.742 65.8828 147.136L66.3269 147.095C64.0194 144.028 65.8454 142.476 67.6176 140.973C67.9205 140.716 68.2318 140.451 68.5181 140.181C69.9873 138.803 71.4399 138.654 73.2369 139.703L73.9466 140.119C75.6398 141.11 77.3953 142.14 79.209 142.928C80.0598 143.298 81.2591 143.161 82.1016 142.907C82.8279 142.692 83.4919 142.322 84.2016 141.936C84.654 141.687 85.1229 141.43 85.6044 141.218C85.9779 141.056 86.5465 141.301 86.837 141.509C87.1233 141.708 86.837 142.476 86.6917 142.683C84.986 145.132 80.674 146.016 77.9888 144.464L77.2252 144.02C75.3742 142.945 73.4568 141.828 71.4565 141.077C70.6181 140.762 69.4602 141.135 68.5098 142.036C67.6093 142.887 67.1776 143.92 67.4142 144.667C67.7628 145.788 68.0658 146.804 68.1986 147.863C68.265 148.381 68.2318 149.556 67.7089 149.884C67.2067 150.199 66.2688 149.963 65.6172 149.664C64.949 149.357 64.3431 148.846 63.9945 148.29C63.4051 147.348 62.8532 146.369 62.3178 145.418C61.8322 144.555 61.3301 143.663 60.803 142.804C60.5166 142.339 59.89 141.978 59.1222 141.841C58.2465 141.683 57.3791 141.833 56.852 142.239C55.9556 142.932 55.9473 143.808 56.823 145.074C57.0761 145.443 57.4414 145.738 57.8232 146.053C58.068 146.252 58.3212 146.456 58.5453 146.684C58.952 147.095 59.3338 147.539 59.6991 147.966C59.8609 148.153 60.0228 148.34 60.1846 148.527L60.334 148.697L60.1514 148.834C59.9439 148.987 59.7406 149.162 59.5372 149.332C59.0765 149.722 58.5993 150.129 58.039 150.344C57.1176 150.701 56.1465 150.971 55.2086 151.233C54.5985 151.403 53.9677 151.577 53.3576 151.776C52.1831 152.154 51.2701 152.15 50.5562 151.76C49.8258 151.361 49.3112 150.56 48.9792 149.311L48.9252 149.108C48.3608 146.983 47.7798 144.783 49.1452 142.588C49.3112 142.322 49.3361 141.945 49.3652 141.546C49.3776 141.384 49.3901 141.222 49.4108 141.065L49.1244 140.758C48.8547 140.919 48.5932 141.09 48.3276 141.26C47.6096 141.725 46.8668 142.202 46.0575 142.488C45.0033 142.858 43.7541 142.99 42.6294 142.845C42.0816 142.775 41.6126 141.401 41.6168 140.758C41.6168 140.434 41.6334 140.106 41.6458 139.778C41.733 137.823 41.8036 136.138 39.2927 135.599L39.052 135.549L39.1433 135.321C39.8239 133.586 39.5583 131.648 38.4212 130.133C37.4044 128.772 35.902 128 34.3084 127.983C34.242 127.983 34.2005 128.054 34.2337 128.112L45.1901 148.929C45.2108 148.971 45.1984 149.016 45.1569 149.041L44.0571 149.701L43.9492 149.535C43.7583 149.249 43.5632 148.967 43.364 148.684C42.9282 148.07 42.48 147.431 42.1397 146.742C41.5711 145.584 41.0316 144.389 40.5129 143.231C39.6206 141.239 38.6951 139.181 37.5828 137.28C35.6032 133.889 33.4161 130.544 31.2953 127.307C30.5068 126.099 29.7183 124.892 28.9339 123.68C27.8881 122.057 25.0742 121.015 22.8622 121.235C22.7626 121.244 22.7585 121.385 22.8539 121.405C24.6675 121.791 26.311 122.356 27.776 123.671C29.3365 125.074 28.9339 126.635 28.577 128.012C28.3819 128.768 28.1952 129.486 28.2906 130.175C28.2948 130.22 28.3404 130.254 28.3819 130.249L31.4655 130.042C31.507 130.042 31.5402 130.063 31.5527 130.104L31.7519 130.785C31.7602 130.818 31.7519 130.851 31.727 130.872L30.8181 131.64C30.7641 131.685 30.7849 131.768 30.8513 131.785L32.4947 132.217L32.2748 132.47C32.142 132.623 32.0092 132.777 31.8805 132.935C31.5693 133.304 31.2497 133.686 30.8928 134.022C30.6521 134.254 30.3616 134.424 30.0793 134.586C30.0171 134.624 29.9548 134.661 29.8926 134.698L35.0803 143.754C35.0927 143.779 35.1176 143.796 35.1467 143.796L38.4751 144.065L37.9896 144.468C36.4014 145.782 35.7872 146.831 36.1469 147.614C36.7694 148.967 37.45 150.315 38.1058 151.623C38.3589 152.121 38.6079 152.619 38.8569 153.117C38.8735 153.15 38.9067 153.167 38.9399 153.162L42.4883 152.797C42.5298 152.793 42.5713 152.822 42.5796 152.864L42.8079 153.847C42.8162 153.885 42.7996 153.922 42.7664 153.939L41.1976 154.835C41.6251 154.744 42.0401 154.627 42.451 154.515C42.9822 154.37 43.5342 154.217 44.0861 154.121C44.7709 154.001 45.9994 154.154 46.431 154.744C47.1988 155.785 47.8711 157.08 48.4895 158.695C49.4772 161.276 50.4525 164.065 51.5689 167.472L51.6934 167.85C52.0337 168.863 52.4197 170.012 52.179 170.975C52.0088 171.643 51.3655 172.145 50.6849 172.672C50.6725 172.685 50.6558 172.693 50.6434 172.706C51.0086 172.589 51.3614 172.506 51.7224 172.519C52.1873 172.535 52.6272 172.747 53.0505 172.95C53.229 173.033 53.4074 173.121 53.5859 173.187L53.8183 173.278L53.6896 173.49C53.59 173.656 53.4904 173.863 53.3991 174.071C53.1584 174.594 52.9301 175.088 52.5276 175.179C51.93 175.316 51.5523 175.524 51.3697 175.818C51.1207 176.225 51.2535 176.769 51.3987 177.345C51.4942 177.74 51.5979 178.146 51.5647 178.52C51.4651 179.657 52.1209 180.006 53.4489 180.275C55.9141 180.782 57.9643 179.927 60.1265 179.026C60.8113 178.74 61.521 178.445 62.2348 178.2C62.8075 178.005 63.401 177.835 63.9737 177.673C64.2393 177.599 64.5049 177.524 64.7664 177.445L64.9656 177.387L65.3267 178.574C65.3391 178.62 65.3142 178.665 65.2727 178.678L54.3121 182.309C54.2208 182.338 54.2416 182.475 54.337 182.475C55.773 182.483 57.209 182.492 58.6449 182.5C63.1603 182.525 67.8251 182.554 72.4151 182.546H72.4359L72.4442 182.55Z" fill="#FFDFC2"/>
<circle cx="57.7651" cy="99.4629" r="4.22217" fill="#DA6B07"/>
</svg>
