<svg width="214" height="46" viewBox="0 0 214 46" fill="none" xmlns="http://www.w3.org/2000/svg">
<g clip-path="url(#clip0_4952_4871)">
<path d="M22.9076 40.5782C13.1775 40.5782 5.28949 32.7076 5.28949 22.999C5.28949 13.2903 13.1757 5.42149 22.9076 5.42149C28.0014 5.42149 32.5899 7.57798 35.8043 11.0259L38.8432 7.99372C39.04 7.79912 39.04 7.48245 38.8432 7.28609C34.7689 3.17123 29.1025 0.623763 22.842 0.643223C10.4666 0.678604 0.31981 10.9888 0.502427 23.3369C0.683272 35.5275 10.6439 45.3565 22.9059 45.3565C29.1415 45.3565 34.7831 42.8161 38.8432 38.7136C39.0383 38.5173 39.0383 38.2024 38.8432 38.0096L35.8043 34.9774C32.5881 38.4253 28.0014 40.5818 22.9076 40.5818" fill="#FF8B00"/>
<path d="M22.9094 35.8008C15.7624 35.8008 9.97897 29.9682 10.0818 22.814C10.1829 15.7784 16.0497 10.0997 23.1008 10.2023C26.6131 10.2536 29.7832 11.7131 32.0686 14.0412C32.2654 14.2393 32.5845 14.2446 32.7831 14.0465L35.8078 11.0285C32.5934 7.58055 28.0049 5.42406 22.9111 5.42406C13.181 5.42406 5.29297 13.2947 5.29297 23.0033C5.29297 32.712 13.181 40.5808 22.9111 40.5808C28.0049 40.5808 32.5916 38.4261 35.8078 34.9764L32.7831 31.9584C32.5845 31.762 32.2654 31.7638 32.0704 31.9654C29.7424 34.3325 26.4979 35.8026 22.9111 35.8026" fill="#E45F0C"/>
<path d="M30.9464 22.9993C30.9464 24.9878 30.2212 26.8046 29.0209 28.2057C27.5494 29.9288 25.3544 31.0221 22.9059 31.0221C18.4663 31.0221 14.8672 27.4291 14.8672 22.9993C14.8672 18.5696 18.4663 14.9766 22.9059 14.9766C25.3544 14.9766 27.5494 16.0699 29.0209 17.793C30.2212 19.1958 30.9464 21.0127 30.9464 22.9993Z" fill="#FF8B00"/>
<path d="M38.6875 23.0634C38.6875 15.72 44.5898 10.2571 51.5948 10.2571C55.1887 10.2571 58.2435 11.7113 60.4491 14.0164C60.6973 14.2641 60.5573 14.5117 60.3782 14.7258L57.2116 18.0959C57.0361 18.3435 56.7152 18.3435 56.5025 18.1684C55.1869 17.0327 53.5522 16.3233 51.5948 16.3233C47.8272 16.3233 44.9461 19.1609 44.9461 23.0634C44.9461 26.966 47.8255 29.77 51.5948 29.77C53.5522 29.77 55.1887 29.0606 56.5025 27.9248C56.7152 27.7479 57.0361 27.7479 57.2489 27.9956L60.3782 31.3675C60.5573 31.5444 60.6973 31.792 60.4491 32.0397C58.2453 34.382 55.1887 35.8379 51.5948 35.8379C44.5898 35.8379 38.6875 30.4068 38.6875 23.0634Z" fill="#101828"/>
<path d="M64.0742 34.8083V11.1081C64.0742 10.7879 64.287 10.5384 64.6079 10.5384H69.691C70.0119 10.5384 70.2602 10.7879 70.2602 11.1081V34.8083C70.2602 35.1285 70.0119 35.3762 69.691 35.3762H64.6079C64.287 35.3762 64.0742 35.1285 64.0742 34.8083Z" fill="#101828"/>
<path d="M88.4675 35.0206L80.8578 20.7584V34.8083C80.8578 35.1285 80.6096 35.3762 80.2887 35.3762H75.2038C74.8829 35.3762 74.6719 35.1285 74.6719 34.8083V11.1081C74.6719 10.7879 74.8846 10.5384 75.2038 10.5384H81.0706C81.3543 10.5384 81.567 10.6463 81.7106 10.894L89.3557 25.2288V11.1081C89.3557 10.7879 89.5685 10.5384 89.8876 10.5384H94.9743C95.2935 10.5384 95.5435 10.7879 95.5435 11.1081V34.8083C95.5435 35.1285 95.2935 35.3762 94.9743 35.3762H89.1075C88.8238 35.3762 88.6093 35.2683 88.4675 35.0206Z" fill="#101828"/>
<path d="M120.502 35.9071L118.617 34.0266C116.697 35.1977 114.456 35.8364 112.04 35.8364C105.001 35.8364 99.2031 30.2284 99.2031 23.0619C99.2031 15.8954 105.001 10.2538 112.04 10.2538C119.078 10.2538 124.876 15.8582 124.876 23.0619C124.876 25.5793 124.165 27.9233 122.92 29.9118L124.699 31.6844C124.947 31.9356 124.947 32.1832 124.661 32.4663L121.25 35.8718C121.036 36.0858 120.717 36.1194 120.502 35.9071ZM112.04 29.7685C112.752 29.7685 113.426 29.6605 114.066 29.4483L111.683 27.0724C111.435 26.8247 111.435 26.5753 111.683 26.3276L115.133 22.8832C115.311 22.7081 115.63 22.6356 115.88 22.8832L118.263 25.2609C118.475 24.5886 118.584 23.8421 118.584 23.0619C118.584 19.1947 115.773 16.3217 112.041 16.3217C108.309 16.3217 105.464 19.1947 105.464 23.0619C105.464 26.9291 108.309 29.7685 112.041 29.7685" fill="#101828"/>
<path d="M127.859 23.0634C127.859 15.72 133.762 10.2571 140.767 10.2571C144.361 10.2571 147.415 11.7113 149.621 14.0164C149.869 14.2641 149.729 14.5117 149.55 14.7258L146.384 18.0959C146.208 18.3436 145.887 18.3436 145.674 18.1684C144.359 17.0327 142.724 16.3233 140.767 16.3233C136.999 16.3233 134.118 19.1609 134.118 23.0634C134.118 26.966 136.997 29.77 140.767 29.77C142.724 29.77 144.361 29.0606 145.674 27.9248C145.887 27.7479 146.208 27.7479 146.421 27.9956L149.55 31.3675C149.729 31.5444 149.869 31.792 149.621 32.0397C147.417 34.382 144.361 35.8379 140.767 35.8379C133.762 35.8379 127.859 30.4069 127.859 23.0634Z" fill="#101828"/>
<path d="M151.29 34.7712L159.469 10.9648C159.575 10.6817 159.861 10.5384 160.146 10.5384H165.515C165.798 10.5384 166.117 10.6817 166.224 10.9648L174.403 34.7712C174.546 35.1268 174.333 35.3744 173.942 35.3744H168.644C168.36 35.3744 168.11 35.2683 168.004 34.9481L167.078 31.9672H158.58L157.655 34.9481C157.549 35.2683 157.336 35.3744 157.05 35.3744H151.753C151.363 35.3744 151.148 35.1268 151.29 34.7712ZM165.371 26.5043L162.846 18.3807L160.286 26.5043H165.373H165.371Z" fill="#101828"/>
<path d="M189.442 35.0206L184.534 27.0032H183.752V34.8083C183.752 35.1268 183.504 35.3762 183.183 35.3762H178.1C177.779 35.3762 177.566 35.1268 177.566 34.8083V11.1081C177.566 10.7879 177.779 10.5384 178.1 10.5384H185.922C192.038 10.5384 194.919 13.8749 194.919 18.7699C194.919 22.2143 193.497 24.9086 190.474 26.1859L195.842 34.7358C196.091 35.1268 195.913 35.3744 195.486 35.3744H190.08C189.796 35.3744 189.584 35.2665 189.442 35.0189M185.779 21.5368C187.415 21.5368 189.015 21.1104 189.015 18.7664C189.015 16.4224 187.414 16.0013 185.779 16.0013H183.752V21.5368H185.779Z" fill="#101828"/>
<path d="M199.289 34.8083V11.1081C199.289 10.7879 199.502 10.5384 199.823 10.5384H212.836C213.157 10.5384 213.37 10.7879 213.37 11.1081V15.4352C213.37 15.7554 213.157 16.0031 212.836 16.0031H205.475V20.1551H212.375C212.695 20.1551 212.945 20.4045 212.945 20.723V25.0855C212.945 25.4057 212.695 25.618 212.375 25.618H205.475V29.9115H212.801C213.12 29.9115 213.37 30.1592 213.37 30.4794V34.8083C213.37 35.1285 213.12 35.3762 212.801 35.3762H199.823C199.502 35.3762 199.289 35.1285 199.289 34.8083Z" fill="#101828"/>
</g>
<defs>
<clipPath id="clip0_4952_4871">
<rect width="212.868" height="44.7133" fill="white" transform="translate(0.5 0.643356)"/>
</clipPath>
</defs>
</svg>
