<svg width="213" height="45" viewBox="0 0 213 45" fill="none" xmlns="http://www.w3.org/2000/svg">
<g clip-path="url(#clip0_2050_523)">
<path d="M22.4076 39.9349C12.6775 39.9349 4.78949 32.0643 4.78949 22.3556C4.78949 12.647 12.6757 4.77815 22.4076 4.77815C27.5014 4.77815 32.0899 6.93465 35.3043 10.3826L38.3432 7.35038C38.54 7.15578 38.54 6.83912 38.3432 6.64275C34.2689 2.52789 28.6025 -0.0195703 22.342 -0.000110555C9.96661 0.0352709 -0.18019 10.3454 0.00242705 22.6935C0.183272 34.8842 10.1439 44.7132 22.4059 44.7132C28.6415 44.7132 34.2831 42.1728 38.3432 38.0703C38.5383 37.8739 38.5383 37.5591 38.3432 37.3662L35.3043 34.334C32.0881 37.782 27.5014 39.9384 22.4076 39.9384" fill="#FF8B00"/>
<path d="M22.4076 35.1575C15.2607 35.1575 9.47726 29.3248 9.58009 22.1707C9.68115 15.1351 15.548 9.45638 22.5991 9.55899C26.1114 9.61029 29.2815 11.0698 31.5669 13.3979C31.7637 13.596 32.0828 13.6013 32.2814 13.4032L35.3061 10.3851C32.0917 6.93722 27.5032 4.78072 22.4094 4.78072C12.6793 4.78072 4.79126 12.6513 4.79126 22.36C4.79126 32.0687 12.6793 39.9375 22.4094 39.9375C27.5032 39.9375 32.0899 37.7828 35.3061 34.3331L32.2814 31.315C32.0828 31.1187 31.7637 31.1204 31.5687 31.3221C29.2407 33.6891 25.9962 35.1592 22.4094 35.1592" fill="#E45F0C"/>
<path d="M30.4444 22.356C30.4444 24.3445 29.7193 26.1613 28.519 27.5624C27.0474 29.2855 24.8524 30.3788 22.404 30.3788C17.9644 30.3788 14.3652 26.7858 14.3652 22.356C14.3652 17.9263 17.9644 14.3333 22.404 14.3333C24.8524 14.3333 27.0474 15.4266 28.519 17.1496C29.7193 18.5525 30.4444 20.3693 30.4444 22.356Z" fill="#FF8B00"/>
<path d="M38.1875 22.4201C38.1875 15.0767 44.0898 9.61379 51.0948 9.61379C54.6887 9.61379 57.7435 11.068 59.9491 13.3731C60.1973 13.6207 60.0573 13.8684 59.8782 14.0825L56.7116 17.4525C56.5361 17.7002 56.2152 17.7002 56.0025 17.5251C54.6869 16.3893 53.0522 15.6799 51.0948 15.6799C47.3272 15.6799 44.4461 18.5175 44.4461 22.4201C44.4461 26.3227 47.3255 29.1267 51.0948 29.1267C53.0522 29.1267 54.6887 28.4173 56.0025 27.2815C56.2152 27.1046 56.5361 27.1046 56.7489 27.3523L59.8782 30.7241C60.0573 30.901 60.1973 31.1487 59.9491 31.3964C57.7453 33.7386 54.6887 35.1946 51.0948 35.1946C44.0898 35.1946 38.1875 29.7635 38.1875 22.4201Z" fill="white"/>
<path d="M63.5742 34.165L63.5742 10.4647C63.5742 10.1445 63.787 9.8951 64.1079 9.8951L69.191 9.8951C69.5119 9.8951 69.7602 10.1445 69.7602 10.4647V34.165C69.7602 34.4852 69.5119 34.7329 69.191 34.7329H64.1079C63.787 34.7329 63.5742 34.4852 63.5742 34.165Z" fill="white"/>
<path d="M87.9655 34.3773L80.3559 20.115V34.165C80.3559 34.4852 80.1077 34.7329 79.7867 34.7329H74.7018C74.3809 34.7329 74.1699 34.4852 74.1699 34.165V10.4647C74.1699 10.1445 74.3827 9.8951 74.7018 9.8951L80.5686 9.8951C80.8523 9.8951 81.0651 10.003 81.2087 10.2507L88.8538 24.5855V10.4647C88.8538 10.1445 89.0665 9.8951 89.3857 9.8951L94.4724 9.8951C94.7915 9.8951 95.0415 10.1445 95.0415 10.4647V34.165C95.0415 34.4852 94.7915 34.7329 94.4724 34.7329H88.6056C88.3219 34.7329 88.1074 34.625 87.9655 34.3773Z" fill="white"/>
<path d="M120 35.2638L118.115 33.3833C116.195 34.5544 113.954 35.193 111.538 35.193C104.499 35.193 98.7012 29.5851 98.7012 22.4186C98.7012 15.2521 104.499 9.6105 111.538 9.6105C118.576 9.6105 124.374 15.2149 124.374 22.4186C124.374 24.936 123.663 27.28 122.418 29.2684L124.197 31.041C124.445 31.2922 124.445 31.5399 124.159 31.823L120.748 35.2284C120.534 35.4425 120.215 35.4761 120 35.2638ZM111.538 29.1251C112.25 29.1251 112.924 29.0172 113.564 28.8049L111.181 26.4291C110.933 26.1814 110.933 25.9319 111.181 25.6843L114.631 22.2399C114.809 22.0648 115.128 21.9922 115.378 22.2399L117.761 24.6175C117.974 23.9453 118.082 23.1987 118.082 22.4186C118.082 18.5514 115.271 15.6784 111.539 15.6784C107.807 15.6784 104.962 18.5514 104.962 22.4186C104.962 26.2858 107.807 29.1251 111.539 29.1251" fill="white"/>
<path d="M127.357 22.4201C127.357 15.0767 133.26 9.61379 140.265 9.61379C143.859 9.61379 146.913 11.068 149.119 13.3731C149.367 13.6207 149.227 13.8684 149.048 14.0825L145.882 17.4525C145.706 17.7002 145.385 17.7002 145.172 17.5251C143.857 16.3893 142.222 15.6799 140.265 15.6799C136.497 15.6799 133.616 18.5175 133.616 22.4201C133.616 26.3227 136.495 29.1267 140.265 29.1267C142.222 29.1267 143.859 28.4173 145.172 27.2815C145.385 27.1046 145.706 27.1046 145.919 27.3523L149.048 30.7241C149.227 30.901 149.367 31.1487 149.119 31.3964C146.915 33.7386 143.859 35.1946 140.265 35.1946C133.26 35.1946 127.357 29.7635 127.357 22.4201Z" fill="white"/>
<path d="M150.79 34.1278L158.969 10.3214C159.075 10.0384 159.361 9.8951 159.646 9.8951H165.015C165.298 9.8951 165.617 10.0384 165.724 10.3214L173.903 34.1278C174.046 34.4834 173.833 34.7311 173.442 34.7311H168.144C167.86 34.7311 167.61 34.625 167.504 34.3047L166.578 31.3239L158.08 31.3239L157.155 34.3047C157.049 34.625 156.836 34.7311 156.55 34.7311H151.253C150.863 34.7311 150.648 34.4834 150.79 34.1278ZM164.871 25.861L162.346 17.7374L159.786 25.861H164.873H164.871Z" fill="white"/>
<path d="M188.942 34.3773L184.034 26.3599H183.252V34.165C183.252 34.4834 183.004 34.7329 182.683 34.7329H177.6C177.279 34.7329 177.066 34.4834 177.066 34.165V10.4647C177.066 10.1445 177.279 9.8951 177.6 9.8951L185.422 9.8951C191.538 9.8951 194.419 13.2316 194.419 18.1266C194.419 21.571 192.997 24.2653 189.974 25.5425L195.342 34.0925C195.591 34.4834 195.413 34.7311 194.986 34.7311H189.58C189.296 34.7311 189.084 34.6232 188.942 34.3755M185.279 20.8934C186.915 20.8934 188.515 20.4671 188.515 18.1231C188.515 15.779 186.914 15.358 185.279 15.358H183.252V20.8934H185.279Z" fill="white"/>
<path d="M198.787 34.165V10.4647C198.787 10.1445 199 9.8951 199.321 9.8951L212.334 9.8951C212.655 9.8951 212.868 10.1445 212.868 10.4647V14.7919C212.868 15.1121 212.655 15.3598 212.334 15.3598L204.973 15.3598V19.5118H211.874C212.193 19.5118 212.443 19.7612 212.443 20.0796V24.4422C212.443 24.7624 212.193 24.9747 211.874 24.9747H204.973V29.2682L212.299 29.2682C212.618 29.2682 212.868 29.5159 212.868 29.8361V34.165C212.868 34.4852 212.618 34.7329 212.299 34.7329H199.321C199 34.7329 198.787 34.4852 198.787 34.165Z" fill="white"/>
</g>
<defs>
<clipPath id="clip0_2050_523">
<rect width="212.868" height="44.7133" fill="white"/>
</clipPath>
</defs>
</svg>
