<svg width="744" height="760" viewBox="0 0 744 760" fill="none" xmlns="http://www.w3.org/2000/svg">
<path fill-rule="evenodd" clip-rule="evenodd" d="M360.159 677.885C363.842 678.026 367.543 678.097 371.26 678.097V678.122C371.476 678.122 371.692 678.123 371.908 678.123C376.959 678.123 381.981 677.991 386.969 677.732C465.027 673.5 534.918 637.912 584.858 583.065L585.204 583.418C633.903 530.126 663.704 458.563 663.704 379.877C663.704 301.193 633.897 229.623 585.196 176.324L584.858 176.669C534.099 120.891 462.652 85.0315 382.988 81.8133C379.311 81.673 375.618 81.6022 371.908 81.6022V81.5775C371.692 81.577 371.476 81.5768 371.26 81.5768C366.201 81.5768 361.171 81.7083 356.176 81.9682C278.127 86.2063 208.244 121.792 158.309 176.635L157.963 176.281C109.264 229.573 79.4634 301.136 79.4634 379.822C79.4634 458.507 109.27 530.076 157.972 583.375L158.309 583.03C209.064 638.804 280.503 674.661 360.159 677.885ZM354.716 758.803C159.274 750.054 3.09245 586.763 0.178869 385.555C-1.3276 281.2 39.6074 185.423 106.406 115.493C106.796 114.682 107.32 113.919 107.978 113.24C158.578 60.8615 224.009 23.4905 297.301 8.19872C320.886 3.22416 345.257 0.574857 370.173 0.501878C376.296 0.482382 382.383 0.614734 388.434 0.895443C583.884 9.63612 740.075 172.93 742.988 374.144C744.495 478.5 703.56 574.276 636.762 644.206C636.372 645.018 635.847 645.78 635.189 646.46C584.592 698.835 519.165 736.205 445.877 751.498C422.289 756.474 397.914 759.124 372.994 759.197C366.866 759.217 360.772 759.084 354.716 758.803Z" fill="url(#paint0_linear_5033_1636)"/>
<path fill-rule="evenodd" clip-rule="evenodd" d="M379.151 162.801C376.742 162.719 374.324 162.677 371.896 162.677L371.874 162.656C370.761 162.653 369.649 162.658 368.538 162.673C310.456 163.586 258.003 188.342 220.169 227.753C219.818 228.124 219.444 228.456 219.05 228.747C182.505 267.159 159.609 319.25 158.804 376.667C157.968 436.285 180.648 490.494 217.97 530.227C218.774 530.639 219.529 531.191 220.198 531.882C257.019 570.309 307.707 594.789 363.989 596.894C366.402 596.977 368.825 597.018 371.257 597.018L371.278 597.04C372.392 597.043 373.504 597.037 374.615 597.022C432.697 596.11 485.15 571.353 522.984 531.942C523.335 531.571 523.709 531.24 524.103 530.948C560.648 492.537 583.544 440.446 584.349 383.029C585.185 323.411 562.505 269.202 525.183 229.469C524.378 229.056 523.624 228.504 522.955 227.814C486.131 189.384 435.438 164.903 379.151 162.801ZM387.189 677.688C541.22 669.543 663.663 539.295 663.663 379.817C663.663 215.086 533.019 81.5723 371.866 81.5723C366.523 81.5723 361.214 81.7189 355.943 82.0085C201.922 90.1652 79.4902 220.408 79.4902 379.878C79.4902 544.609 210.133 678.123 371.287 678.123C376.622 678.123 381.924 677.977 387.189 677.688Z" fill="url(#paint1_linear_5033_1636)"/>
<defs>
<linearGradient id="paint0_linear_5033_1636" x1="371.584" y1="0.5" x2="371.584" y2="759.199" gradientUnits="userSpaceOnUse">
<stop offset="0.485" stop-color="#FFCA8B"/>
<stop offset="1" stop-color="#FFF6EB"/>
</linearGradient>
<linearGradient id="paint1_linear_5033_1636" x1="371.576" y1="81.5723" x2="371.576" y2="678.123" gradientUnits="userSpaceOnUse">
<stop stop-color="#FFF6EB"/>
<stop offset="1" stop-color="#FFCA8B"/>
</linearGradient>
</defs>
</svg>
