<svg width="108" height="38" viewBox="0 0 108 38" fill="none" xmlns="http://www.w3.org/2000/svg">
<path fill-rule="evenodd" clip-rule="evenodd" d="M38 19C38 29.4934 29.4934 38 19 38C8.50659 38 0 29.4934 0 19C0 8.50659 8.50659 0 19 0C29.4934 0 38 8.50659 38 19ZM36.2384 19C36.2384 28.5205 28.5205 36.2384 19 36.2384C10.0332 36.2384 2.66537 29.3921 1.83873 20.6416C5.10587 19.3966 8.55786 18.413 12.3443 17.6644C20.092 16.1292 28.0331 15.7347 35.9208 15.6892C36.1292 16.7607 36.2384 17.8676 36.2384 19ZM35.3525 13.53C25.0215 13.6171 17.3059 14.3229 10.5326 15.817C7.56949 16.4596 4.63459 17.3018 1.77363 18.3496C2.1156 9.13046 9.69725 1.76159 19 1.76159C26.6085 1.76159 33.0657 6.69078 35.3525 13.53Z" fill="#021B39"/>
<path d="M15.7531 17.0619C16.548 17.4921 17.326 17.9518 18.1036 18.4123C19.7553 19.3906 21.4147 20.3734 23.2071 21.0404L23.2145 21.0378C25.3222 21.8135 27.9351 22.2269 32.523 22.2269H35.9368C35.7966 22.9677 35.6089 23.6918 35.377 24.3958H32.523C26.1682 24.3958 23.3252 23.616 20.6016 22.2447L20.5963 22.2475C18.9713 21.4295 17.388 20.5208 15.8056 19.6125C14.6579 18.9537 13.5171 18.2651 12.3368 17.6659C13.4714 17.4415 14.6107 17.2404 15.7531 17.0619Z" fill="#BEDDFF"/>
<path d="M2.52673 13.9055C2.73806 13.2214 2.99082 12.5555 3.2821 11.9107C6.6763 12.5159 9.7504 13.8742 12.6523 15.3812C11.9345 15.5183 11.2286 15.6635 10.5325 15.8171C10.1084 15.909 9.68481 16.0051 9.26196 16.1053C7.1033 15.0977 4.88927 14.2865 2.52673 13.9055Z" fill="#BEDDFF"/>
<path d="M36.2077 20.0367C36.2281 19.6937 36.2384 19.348 36.2384 19C36.2384 18.6202 36.2261 18.2433 36.2019 17.8697C28.0521 17.8839 24.6409 18.0575 21.1883 19.5323C20.9842 19.6139 20.7852 19.7058 20.5861 19.8028C21.4486 20.2825 22.2804 20.6958 23.2143 21.0378C26.0502 20.0253 29.252 20.0289 35.7777 20.0362L35.7799 20.0362C35.9209 20.0364 36.0635 20.0365 36.2077 20.0367Z" fill="#4881EE"/>
<path d="M2.32385 23.3835C2.53121 24.1745 2.79336 24.9433 3.106 25.6857C4.37574 25.8525 5.73511 25.9521 7.18497 25.9625C13.4452 25.9625 17.2378 23.9893 20.2321 22.4315C20.3529 22.3687 20.4729 22.3062 20.5912 22.2449C19.7958 21.8444 19.0104 21.4222 18.2301 20.9889C15.5809 22.3337 12.3041 23.7936 7.18497 23.7936C5.42531 23.7936 3.8057 23.6405 2.32385 23.3835Z" fill="#4881EE"/>
<path d="M45.8 15.9708C45.8 13.0695 47.8147 11.2122 50.5429 11.2122C51.8808 11.2122 52.9091 11.5585 53.7066 12.2353L52.2638 14.3706C51.9175 14.0401 51.4453 13.8145 50.821 13.8145C49.7087 13.8145 48.927 14.612 48.927 15.8659C48.927 17.188 49.693 17.9173 50.7843 17.9173C51.5503 17.9173 51.8965 17.6917 52.2795 17.3612L53.7066 19.444C52.8724 20.1051 51.8808 20.5196 50.459 20.5196C47.8147 20.5248 45.8 18.9404 45.8 15.9708Z" fill="#021B39"/>
<path d="M54.3835 15.8661C54.3835 13.0697 56.5398 11.2072 59.3152 11.2072C62.0906 11.2072 64.2522 12.9963 64.2522 15.8661C64.2522 18.736 62.0959 20.5251 59.3152 20.5251C56.5345 20.5251 54.3835 18.7203 54.3835 15.8661ZM61.1935 15.8661C61.1935 14.5965 60.396 13.799 59.2995 13.799C58.2029 13.799 57.4422 14.5965 57.4422 15.8661C57.4422 17.1358 58.2082 17.9333 59.2995 17.9333C60.3908 17.9333 61.1935 17.1358 61.1935 15.8661Z" fill="#021B39"/>
<path d="M72.61 11.6635L71.6708 14.8272C71.4452 14.7065 71.2039 14.6383 70.8209 14.6383C70.3172 14.6383 69.8136 14.8639 69.3624 15.3833L68.9479 15.8712V20.2154H65.8209V11.5271H68.7905V13.0066L69.121 12.4872C69.7086 11.6215 70.4064 11.2857 71.2564 11.2857C71.7758 11.2857 72.2112 11.4274 72.61 11.6687" fill="#021B39"/>
<path d="M72.9037 15.8661C72.9037 13.0697 75.0601 11.2072 77.8355 11.2072C80.6109 11.2072 82.7725 12.9963 82.7725 15.8661C82.7725 18.736 80.6162 20.5251 77.8355 20.5251C75.0548 20.5251 72.9037 18.7203 72.9037 15.8661ZM79.7138 15.8661C79.7138 14.5965 78.9163 13.799 77.8198 13.799C76.7232 13.799 75.9625 14.5965 75.9625 15.8661C75.9625 17.1358 76.7285 17.9333 77.8198 17.9333C78.911 17.9333 79.7138 17.1358 79.7138 15.8661Z" fill="#021B39"/>
<path d="M92.5521 14.2869V20.2103H89.4251V15.2051C89.4251 14.5283 89.0946 14.182 88.5542 14.182C88.1397 14.182 87.7567 14.3709 87.253 14.7014L87.0274 14.8378V20.205H83.9005V11.5167H86.87V12.4874L87.1114 12.3142C87.8039 11.8263 88.5909 11.2702 89.7871 11.2702C91.3139 11.2702 92.5468 12.1411 92.5468 14.2764" fill="#021B39"/>
<path d="M94.5143 11.5219H97.6412V20.2102H94.5143V11.5219ZM94.2467 8.63103C94.2467 7.61845 95.0652 6.79999 96.0778 6.79999C97.0904 6.79999 97.9088 7.61845 97.9088 8.63103C97.9088 9.64362 97.0904 10.4621 96.0778 10.4621C95.0652 10.4621 94.2467 9.64362 94.2467 8.63103Z" fill="#021B39"/>
<path d="M99.0473 19.3445L100.296 17.3666C100.973 17.9227 101.964 18.269 103.061 18.269C103.722 18.269 104.136 18.1326 104.136 17.7128C104.136 17.2931 103.895 17.1567 102.678 16.8786C101.099 16.5481 99.5142 16.0812 99.5142 14.0822C99.5142 12.2774 101.183 11.2176 103.286 11.2176C104.766 11.2176 106.067 11.5796 106.985 12.2774L105.716 14.2081C104.95 13.7045 104.01 13.4789 103.318 13.4789C102.746 13.4789 102.468 13.652 102.468 14.0193C102.468 14.4337 102.903 14.5229 104.294 14.8377C105.873 15.184 107.074 15.8451 107.074 17.5502C107.074 19.4599 105.285 20.5407 103.15 20.5407C101.24 20.5407 99.8132 19.9846 99.0473 19.3602" fill="#021B39"/>
<path d="M50.8316 26.7212V29.3812H50.1758V26.8681C50.1758 25.7978 49.5986 25.4095 48.8956 25.4095C48.287 25.4095 47.7728 25.7401 47.5525 26.3329V29.3759H46.8914V23.185H47.5525V25.504C47.8305 25.0947 48.3447 24.7695 49.0635 24.7695C50.0761 24.7695 50.8316 25.4148 50.8316 26.7159" fill="#021B39"/>
<path d="M56.1568 26.9571C56.1568 27.062 56.1568 27.1565 56.1463 27.2614H52.6836C52.7466 28.3527 53.5126 28.9193 54.4884 28.9193C54.9659 28.9193 55.3856 28.8249 55.8735 28.5625L55.8997 28.573V29.1239C55.3961 29.4177 54.8872 29.4964 54.373 29.4964C53.1505 29.4964 52.0068 28.7724 52.0068 27.125C52.0068 25.7032 52.9564 24.7798 54.1631 24.7798C55.3698 24.7798 56.1411 25.593 56.1516 26.9623M52.7046 26.7262H55.5062C55.4275 25.8658 54.9501 25.3411 54.1631 25.3411C53.4234 25.3411 52.8358 25.8396 52.7046 26.7262Z" fill="#021B39"/>
<path d="M61.3299 28.7254V29.292C61.1883 29.3812 60.9889 29.4337 60.779 29.4337C60.2386 29.4337 60.055 29.1294 60.0393 28.6939C59.6615 29.1819 59.1211 29.4862 58.3814 29.4862C57.5681 29.4862 56.9333 29.014 56.9333 28.1955C56.9333 27.1672 57.8567 26.7842 58.7276 26.7842C59.2418 26.7842 59.7245 26.8734 59.992 26.9783V26.6793C59.992 25.7454 59.4359 25.3362 58.6122 25.3362C58.098 25.3362 57.6363 25.4568 57.3635 25.6405L57.3478 25.63V25.1001C57.5681 24.9531 58.0613 24.7748 58.7171 24.7748C59.9553 24.7748 60.6374 25.4201 60.6374 26.6478V28.3477C60.6374 28.6782 60.7528 28.8199 60.9941 28.8199C61.1148 28.8199 61.2145 28.7936 61.2984 28.7149L61.3247 28.7254H61.3299ZM59.9973 28.1063V27.4872C59.7297 27.3718 59.289 27.2931 58.8535 27.2931C58.182 27.2931 57.5996 27.5449 57.5996 28.1588C57.5996 28.6887 58.0246 28.9353 58.5073 28.9353C59.1369 28.9353 59.6772 28.6362 59.9973 28.1063Z" fill="#021B39"/>
<path d="M62.9878 23.185H62.332V29.3759H62.9878V23.185Z" fill="#021B39"/>
<path d="M67.1063 28.6467V29.2028C66.8282 29.3707 66.4872 29.4232 66.1357 29.4232C65.3067 29.4232 64.8346 28.972 64.8346 28.0801V25.4306H63.9689V24.8797H64.8346V23.7727L65.4694 23.652L65.4956 23.6677V24.8797H67.0853V25.4306H65.4956V27.9594C65.4956 28.5155 65.7317 28.8408 66.3088 28.8408C66.6499 28.8408 66.9122 28.7359 67.0748 28.6414L67.1011 28.6519L67.1063 28.6467Z" fill="#021B39"/>
<path d="M71.9856 26.7212V29.3812H71.3298V26.8681C71.3298 25.7978 70.7527 25.4095 70.0497 25.4095C69.4411 25.4095 68.9269 25.7401 68.7065 26.3329V29.3759H68.0455V23.185H68.7065V25.504C68.9846 25.0947 69.4988 24.7695 70.2175 24.7695C71.2301 24.7695 71.9856 25.4148 71.9856 26.7159" fill="#021B39"/>
</svg>
