<svg width="20" height="20" viewBox="0 0 20 20" fill="none" xmlns="http://www.w3.org/2000/svg">
<g clip-path="url(#clip0_4952_3782)">
<path d="M10.4423 2.12539C12.9959 2.12539 13.2983 2.13659 14.3026 2.18139C15.2359 2.22246 15.7399 2.37926 16.076 2.50993C16.5202 2.68167 16.8413 2.89074 17.1736 3.22301C17.5096 3.55902 17.7149 3.87635 17.8866 4.32063C18.0173 4.65663 18.1741 5.16437 18.2152 6.09399C18.26 7.10201 18.2712 7.40441 18.2712 9.95432C18.2712 12.508 18.26 12.8104 18.2152 13.8147C18.1741 14.748 18.0173 15.252 17.8866 15.588C17.7149 16.0323 17.5058 16.3534 17.1736 16.6856C16.8376 17.0216 16.5202 17.227 16.076 17.3987C15.7399 17.5294 15.2322 17.6862 14.3026 17.7272C13.2946 17.772 12.9922 17.7832 10.4423 17.7832C7.88862 17.7832 7.58621 17.772 6.58193 17.7272C5.64858 17.6862 5.14457 17.5294 4.80856 17.3987C4.36429 17.227 4.04322 17.0179 3.71095 16.6856C3.37494 16.3496 3.1696 16.0323 2.99787 15.588C2.8672 15.252 2.7104 14.7443 2.66933 13.8147C2.62453 12.8066 2.61333 12.5042 2.61333 9.95432C2.61333 7.40068 2.62453 7.09827 2.66933 6.09399C2.7104 5.16064 2.8672 4.65663 2.99787 4.32063C3.1696 3.87635 3.37867 3.55528 3.71095 3.22301C4.04695 2.887 4.36429 2.68167 4.80856 2.50993C5.14457 2.37926 5.65231 2.22246 6.58193 2.18139C7.58621 2.13659 7.88862 2.12539 10.4423 2.12539ZM10.4423 0.404297C7.84755 0.404297 7.52274 0.415497 6.50353 0.460298C5.48804 0.505099 4.7899 0.669368 4.18509 0.904572C3.55414 1.15098 3.02027 1.47578 2.49013 2.00966C1.95625 2.5398 1.63144 3.07367 1.38504 3.70088C1.14984 4.30943 0.985567 5.00384 0.940767 6.01932C0.895966 7.04227 0.884766 7.36708 0.884766 9.96179C0.884766 12.5565 0.895966 12.8813 0.940767 13.9005C0.985567 14.916 1.14984 15.6141 1.38504 16.219C1.63144 16.8499 1.95625 17.3838 2.49013 17.9139C3.02027 18.4441 3.55414 18.7726 4.18135 19.0153C4.7899 19.2505 5.48431 19.4147 6.49979 19.4595C7.51901 19.5043 7.84381 19.5155 10.4385 19.5155C13.0332 19.5155 13.358 19.5043 14.3773 19.4595C15.3927 19.4147 16.0909 19.2505 16.6957 19.0153C17.3229 18.7726 17.8568 18.4441 18.3869 17.9139C18.9171 17.3838 19.2456 16.8499 19.4883 16.2227C19.7235 15.6141 19.8877 14.9197 19.9325 13.9043C19.9773 12.885 19.9885 12.5602 19.9885 9.96552C19.9885 7.37081 19.9773 7.04601 19.9325 6.02679C19.8877 5.01131 19.7235 4.31316 19.4883 3.70835C19.2531 3.07367 18.9283 2.5398 18.3944 2.00966C17.8642 1.47951 17.3304 1.15098 16.7032 0.908305C16.0946 0.673101 15.4002 0.508832 14.3847 0.464031C13.3618 0.415497 13.037 0.404297 10.4423 0.404297Z" fill="white"/>
<path d="M10.4424 5.05273C7.73193 5.05273 5.53296 7.2517 5.53296 9.96215C5.53296 12.6726 7.73193 14.8716 10.4424 14.8716C13.1528 14.8716 15.3518 12.6726 15.3518 9.96215C15.3518 7.2517 13.1528 5.05273 10.4424 5.05273ZM10.4424 13.1467C8.68394 13.1467 7.25779 11.7206 7.25779 9.96215C7.25779 8.20372 8.68394 6.77756 10.4424 6.77756C12.2008 6.77756 13.627 8.20372 13.627 9.96215C13.627 11.7206 12.2008 13.1467 10.4424 13.1467Z" fill="white"/>
<path d="M16.692 4.85807C16.692 5.49275 16.1768 6.00422 15.5458 6.00422C14.9111 6.00422 14.3997 5.48901 14.3997 4.85807C14.3997 4.22339 14.9149 3.71191 15.5458 3.71191C16.1768 3.71191 16.692 4.22712 16.692 4.85807Z" fill="white"/>
</g>
<defs>
<clipPath id="clip0_4952_3782">
<rect width="19.115" height="19.115" fill="white" transform="translate(0.884766 0.404297)"/>
</clipPath>
</defs>
</svg>
