<svg width="164" height="58" viewBox="0 0 164 58" fill="none" xmlns="http://www.w3.org/2000/svg">
<path d="M49.168 22.0583C49.168 14.7486 54.9937 9.31104 61.9152 9.31104C65.5529 9.31104 68.5173 10.6885 70.5989 12.9109C70.9149 13.1926 70.9149 13.5464 70.5646 13.9345L67.6345 17.0398C67.3528 17.3592 67.0334 17.3592 66.7861 17.1119C65.5151 16.0539 63.9625 15.3463 61.9496 15.3463C58.2054 15.3463 55.3819 18.1699 55.3819 22.0549C55.3819 25.9398 58.2054 28.7291 62.2656 28.7291C65.5495 28.7291 67.2807 26.9978 67.4559 25.1292H62.1248C61.8088 25.1292 61.5958 24.9162 61.5958 24.6002V20.2584C61.5958 19.9389 61.8088 19.7294 62.1248 19.7294H72.8591C73.1752 19.7294 73.3881 19.9423 73.3881 20.2584V23.0476C73.3881 29.4745 69.1528 34.7678 62.0561 34.7678C54.9594 34.7678 49.168 29.3645 49.168 22.0583Z" fill="black"/>
<path d="M88.4998 33.9572L83.629 25.9777H82.8527V33.7442C82.8527 34.0602 82.6054 34.3075 82.2894 34.3075H77.2399C76.9239 34.3075 76.7109 34.0602 76.7109 33.7442V10.1629C76.7109 9.84693 76.9239 9.59961 77.2399 9.59961H85.0064C91.0795 9.59961 93.9374 12.9178 93.9374 17.7921C93.9374 21.2168 92.5257 23.8995 89.5235 25.1704L94.8546 33.6789C95.1019 34.0671 94.9267 34.3144 94.5008 34.3144H89.1353C88.8536 34.3144 88.6407 34.2079 88.4998 33.9606V33.9572ZM84.8622 20.5401C86.4869 20.5401 88.0739 20.1176 88.0739 17.7852C88.0739 15.4528 86.4869 15.0303 84.8622 15.0303H82.8493V20.5366H84.8622V20.5401Z" fill="black"/>
<path d="M95.2779 33.7099L103.398 10.0187C103.505 9.73703 103.786 9.59619 104.068 9.59619H109.399C109.681 9.59619 110 9.73703 110.107 10.0187L118.227 33.7099C118.368 34.0637 118.155 34.311 117.767 34.311H112.508C112.226 34.311 111.979 34.2045 111.872 33.8885L110.955 30.9241H102.515L101.598 33.8885C101.492 34.2079 101.282 34.311 100.997 34.311H95.7382C95.3501 34.311 95.1371 34.0637 95.2779 33.7099ZM109.258 25.483L106.751 17.3971L104.209 25.483H109.258Z" fill="black"/>
<path d="M118.543 22.0583C118.543 14.7486 124.403 9.31104 131.358 9.31104C134.924 9.31104 137.961 10.7572 140.149 13.0552C140.396 13.3025 140.255 13.5498 140.076 13.7628L136.933 17.1153C136.758 17.3627 136.439 17.3627 136.226 17.1875C134.921 16.0574 133.296 15.3498 131.355 15.3498C127.614 15.3498 124.753 18.1733 124.753 22.0583C124.753 25.9433 127.614 28.7325 131.355 28.7325C133.296 28.7325 134.921 28.0249 136.226 26.8982C136.439 26.723 136.755 26.723 136.968 26.9703L140.073 30.3229C140.248 30.4981 140.389 30.7454 140.145 30.9927C137.957 33.3217 134.921 34.7712 131.355 34.7712C124.399 34.7712 118.539 29.368 118.539 22.0617L118.543 22.0583Z" fill="black"/>
<path d="M143.746 33.7476V10.1629C143.746 9.84693 143.959 9.59961 144.275 9.59961H157.197C157.513 9.59961 157.726 9.84693 157.726 10.1629V14.4704C157.726 14.7865 157.513 15.0338 157.197 15.0338H149.887V19.1661H156.737C157.056 19.1661 157.3 19.4134 157.3 19.7294V24.0712C157.3 24.3873 157.053 24.6002 156.737 24.6002H149.887V28.8734H157.159C157.475 28.8734 157.723 29.1207 157.723 29.4367V33.7442C157.723 34.0602 157.475 34.3075 157.159 34.3075H144.271C143.955 34.3075 143.742 34.0602 143.742 33.7442L143.746 33.7476Z" fill="black"/>
<path d="M4.74716 22.2165C4.74716 12.5676 12.5686 4.74951 22.2141 4.74951C31.8596 4.74951 39.6811 12.571 39.6811 22.2165C39.6811 27.2659 37.5376 31.8173 34.1129 35.005L37.1254 38.0174C37.3178 38.2132 37.6338 38.2132 37.8296 38.0174C41.9207 33.9779 44.4488 28.3582 44.4317 22.1512C44.3939 9.88483 34.1507 -0.176278 21.8809 0.00234222C9.76569 0.184397 0 10.06 0 22.2165C0 28.3995 2.52472 33.9916 6.60206 38.0174C6.79442 38.2098 7.11044 38.2098 7.3028 38.0174L10.3153 35.005C6.8906 31.8173 4.74716 27.2659 4.74716 22.2165Z" fill="#F7941D"/>
<path d="M9.49326 22.2165C9.49326 15.1301 15.2881 9.39706 22.3985 9.49668C29.3888 9.59629 35.0324 15.4117 34.9294 22.4054C34.8779 25.8885 33.4283 29.0315 31.1166 31.2986C30.9208 31.4944 30.9139 31.8104 31.1131 32.0062L34.1119 35.005C37.5366 31.8173 39.68 27.2659 39.68 22.2165C39.68 12.5676 31.8585 4.74951 22.213 4.74951C12.5676 4.74951 4.74609 12.571 4.74609 22.2165C4.74609 27.2659 6.8861 31.8138 10.3142 35.005L13.313 32.0062C13.5088 31.8104 13.5053 31.4944 13.3061 31.2986C10.9531 28.9903 9.49326 25.7751 9.49326 22.2165Z" fill="#F37021"/>
<path d="M30.1874 22.2197C30.1874 28.0867 22.2148 38.1649 22.2148 38.1649C22.2148 38.1649 14.2422 28.0867 14.2422 22.2197C14.2422 17.816 17.8111 14.2471 22.2148 14.2471C26.6185 14.2471 30.1874 17.816 30.1874 22.2197Z" fill="#F7941D"/>
<path d="M100.27 53.9009H100.713C100.02 55.6115 98.752 57.5557 97.1925 57.5557C96.1723 57.5557 95.8254 57.0164 95.8254 56.326C95.8254 55.8829 96.0555 55.4226 96.3441 54.6532L97.0929 52.5372H96.9211C95.9971 54.5364 94.2281 57.5969 92.5175 57.5969C91.3049 57.5969 90.7656 56.5596 90.7656 55.0757C90.7656 51.651 93.864 46.921 96.5364 46.921C97.8245 46.921 98.3432 47.8622 98.2677 49.0953H98.3261L98.8825 47.5564C99.652 47.5564 100.267 47.2095 100.593 46.8076L100.902 46.9794L98.1337 54.7115C97.9791 55.1547 97.7112 55.8073 97.7112 56.0787C97.7112 56.3672 97.7868 56.5218 98.0581 56.5218C98.7692 56.5218 99.6176 55.3092 100.27 53.9043V53.9009ZM97.2097 51.0739C97.4226 50.459 97.5738 49.8442 97.5738 49.2087C97.5738 48.3808 97.3436 47.8999 96.7082 47.8999C94.9975 47.8999 92.6686 52.1113 92.6686 54.8455C92.6686 55.7111 92.8404 56.192 93.3041 56.192C94.4376 56.192 96.478 53.1898 97.2097 51.0739Z" fill="black"/>
<path d="M103.639 54.4196C103.468 54.9761 103.275 55.536 103.275 55.9001C103.275 56.2093 103.351 56.4016 103.68 56.4016C104.546 56.4016 105.583 55.1135 106.353 53.554H106.813C105.91 55.6906 104.388 57.5558 102.677 57.5558C101.736 57.5558 101.352 57.0543 101.352 56.2849C101.352 55.7662 101.544 55.1101 101.795 54.399L104.103 47.8004H102.66L102.873 47.2817C104.663 47.1855 105.566 46.2993 106.411 44.7227H107.047L106.143 47.1855H108.029L107.837 47.8004H105.951L103.643 54.4162L103.639 54.4196Z" fill="black"/>
<path d="M128.431 42.4554C127.009 42.4554 126.545 42.7646 126.198 43.8981L122.64 55.4775C122.293 56.611 122.33 56.9202 124.024 56.9202L123.89 57.3805H118.215L118.332 56.9202C119.699 56.9202 120.18 56.611 120.524 55.4775L122.293 49.6689H116.464L114.674 55.4775C114.348 56.611 114.348 56.9202 115.962 56.9202L115.828 57.3805H110.133L110.267 56.9202C111.73 56.9202 112.211 56.611 112.554 55.4775L116.093 43.8981C116.439 42.7646 116.419 42.4554 114.708 42.4554L114.842 41.9951H120.537L120.403 42.4554C119.036 42.4554 118.576 42.7646 118.229 43.8981L116.711 48.8411H122.54L124.058 43.8981C124.405 42.7646 124.385 42.4554 122.787 42.4554L122.921 41.9951H128.538L128.421 42.4554H128.431Z" fill="black"/>
<path d="M125.816 54.344C125.816 50.6892 128.585 46.9004 131.432 46.9004C133.143 46.9004 134.297 48.2263 134.297 50.2461C134.297 53.8803 131.528 57.6519 128.66 57.6519C126.967 57.6519 125.812 56.381 125.812 54.344H125.816ZM132.49 49.6312C132.49 48.4564 132.126 47.7076 131.298 47.7076C129.643 47.7076 127.643 51.8811 127.643 54.9417C127.643 56.0959 127.99 56.8275 128.818 56.8275C130.474 56.8275 132.494 52.7296 132.494 49.6346L132.49 49.6312Z" fill="black"/>
<path d="M135.031 57.3839L137.569 49.9987C137.799 49.3632 138.071 48.5766 138.071 48.3052C138.071 48.0544 137.975 47.9789 137.82 47.9789C137.243 47.9789 136.398 48.9991 135.666 50.2116H135.206C136.092 48.501 137.535 46.9621 138.936 46.9621C139.63 46.9621 139.957 47.4636 139.957 48.0201C139.957 48.5216 139.668 49.1949 139.342 50.0193L138.208 53.097H138.38C140.379 48.8445 141.726 46.9209 143.264 46.9209C144.013 46.9209 144.439 47.5358 144.439 48.2296C144.439 49.3632 143.611 50.9811 142.708 53.097H142.88C144.862 48.8273 146.38 46.9209 147.939 46.9209C148.843 46.9209 149.307 47.498 149.307 48.3258C149.307 49.7307 147.902 52.4993 146.961 54.7115C146.806 55.1546 146.517 55.8072 146.517 56.0786C146.517 56.3671 146.614 56.5217 146.864 56.5217C147.575 56.5217 148.441 55.3092 149.076 53.9042H149.537C148.826 55.6149 147.575 57.5591 146.016 57.5591C144.996 57.5591 144.649 57.0198 144.649 56.3294C144.649 55.8862 144.9 55.4431 145.205 54.6359C146.243 52.0597 147.301 49.6723 147.301 48.9029C147.301 48.4804 147.167 48.288 146.895 48.288C146.318 48.288 145.009 49.4044 143.24 53.1176C142.684 54.2512 142.086 55.6767 141.434 57.3873H139.548L141.107 53.4062C141.818 51.5994 142.646 49.6174 142.646 48.9063C142.646 48.4838 142.512 48.2915 142.224 48.2915C141.475 48.2915 139.685 50.1773 136.913 57.3908H135.027L135.031 57.3839Z" fill="black"/>
<path d="M156.688 53.286H157.111C156.032 55.9413 154.493 57.6519 152.666 57.6519C151.148 57.6519 150.145 56.594 150.145 54.691C150.145 51.4208 152.934 46.9004 155.761 46.9004C156.894 46.9004 157.609 47.6114 157.609 48.6522C157.609 50.806 154.895 52.6162 152.243 53.0181C152.127 53.5746 152.072 54.1139 152.072 54.5776C152.072 55.8279 152.649 56.4256 153.514 56.4256C154.648 56.4256 155.726 55.2337 156.688 53.2895V53.286ZM152.398 52.3998C154.455 51.8811 156.283 50.3045 156.283 48.5148C156.283 47.9584 156.128 47.6286 155.647 47.6286C154.28 47.6286 152.975 50.1293 152.398 52.3998Z" fill="black"/>
<path d="M158.704 44.7158C158.965 44.7158 159.051 44.6609 159.109 44.4582L159.765 42.3251C159.786 42.2564 159.765 42.2083 159.679 42.2083H159.49C159.226 42.2083 159.147 42.3079 158.985 42.6961H158.882L159.106 42.0537H160.981L160.83 42.6961H160.724C160.809 42.3113 160.772 42.2083 160.521 42.2083H160.294C160.208 42.2083 160.164 42.2529 160.14 42.3251L159.483 44.4582C159.425 44.6609 159.432 44.7158 159.758 44.7158L159.734 44.7983H158.68L158.704 44.7158Z" fill="black"/>
<path d="M161.962 44.1903H161.972L163.191 42.0537H163.999L163.978 42.1362C163.745 42.1362 163.672 42.1945 163.621 42.3972L163.102 44.4548C163.051 44.6574 163.071 44.7158 163.411 44.7158L163.384 44.7983H162.316L162.34 44.7158C162.597 44.7158 162.676 44.6574 162.728 44.4548L163.271 42.2529H163.253L161.745 44.8635H161.594L161.574 42.2873H161.56L160.893 44.4582C160.832 44.6609 160.839 44.7158 161.141 44.7158L161.117 44.7983H160.316L160.34 44.7158C160.598 44.7158 160.684 44.6609 160.746 44.4582L161.378 42.3938C161.436 42.1911 161.433 42.1362 161.127 42.1362L161.151 42.0537H161.951L161.962 44.1903Z" fill="black"/>
</svg>
