<svg width="20" height="20" viewBox="0 0 20 20" fill="none" xmlns="http://www.w3.org/2000/svg">
<g clip-path="url(#clip0_4952_3784)">
<path d="M18.1424 0.404297H1.85361C1.07333 0.404297 0.442383 1.02031 0.442383 1.78192V18.1379C0.442383 18.8995 1.07333 19.5193 1.85361 19.5193H18.1424C18.9227 19.5193 19.5574 18.8995 19.5574 18.1417V1.78192C19.5574 1.02031 18.9227 0.404297 18.1424 0.404297ZM6.11341 16.6931H3.27603V7.56868H6.11341V16.6931ZM4.69472 6.32546C3.78377 6.32546 3.04829 5.58998 3.04829 4.68277C3.04829 3.77555 3.78377 3.04007 4.69472 3.04007C5.60193 3.04007 6.33741 3.77555 6.33741 4.68277C6.33741 5.58625 5.60193 6.32546 4.69472 6.32546ZM16.7312 16.6931H13.8975V12.2578C13.8975 11.2013 13.8789 9.83858 12.4228 9.83858C10.9482 9.83858 10.7242 10.9922 10.7242 12.1832V16.6931H7.89424V7.56868H10.6121V8.81564H10.6495C11.0266 8.09882 11.9524 7.34094 13.3301 7.34094C16.201 7.34094 16.7312 9.23004 16.7312 11.6866V16.6931Z" fill="white"/>
</g>
<defs>
<clipPath id="clip0_4952_3784">
<rect width="19.115" height="19.115" fill="white" transform="translate(0.442383 0.404297)"/>
</clipPath>
</defs>
</svg>
