<svg width="141" height="58" viewBox="0 0 141 58" fill="none" xmlns="http://www.w3.org/2000/svg">
<g clip-path="url(#clip0_5074_6847)">
<path d="M24.4805 43.7355C13.8466 43.7355 5.23045 35.1156 5.23045 24.4855C5.23045 13.8554 13.8504 5.23167 24.4805 5.23167C30.0454 5.23167 35.0614 7.59391 38.5745 11.3682L41.8945 8.04819C42.1103 7.8362 42.1103 7.48792 41.8945 7.27213C37.4426 2.76721 31.253 -0.0228204 24.4086 -0.000106501C10.89 0.03775 -0.198179 11.3304 -0.00132493 24.8527C0.195529 38.2047 11.0793 48.9673 24.4805 48.9673C31.2947 48.9673 37.4577 46.1849 41.8945 41.6913C42.1065 41.4793 42.1065 41.131 41.8945 40.919L38.5745 37.599C35.0614 41.3733 30.0454 43.7355 24.4805 43.7355Z" fill="#F7941D"/>
<path d="M24.4844 38.5C16.6746 38.5 10.3564 32.1136 10.4661 24.2773C10.5759 16.5735 16.985 10.3537 24.6926 10.4672C28.5313 10.524 31.9952 12.1216 34.4937 14.6693C34.7095 14.8851 35.0577 14.8927 35.2735 14.6731L38.5784 11.3682C35.0653 7.59394 30.0493 5.23169 24.4844 5.23169C13.8505 5.23169 5.23438 13.8516 5.23438 24.4817C5.23438 35.1118 13.8543 43.7318 24.4844 43.7318C30.0493 43.7318 35.0615 41.3733 38.5784 37.5952L35.2735 34.2904C35.0577 34.0746 34.7095 34.0784 34.4937 34.2979C31.9497 36.8911 28.4064 38.5 24.4844 38.5Z" fill="#F37021"/>
<path d="M33.2684 24.4857C33.2684 26.6625 32.4772 28.6537 31.1636 30.1869C29.5547 32.0722 27.1584 33.2722 24.4819 33.2722C19.6287 33.2722 15.6992 29.3389 15.6992 24.4857C15.6992 19.6325 19.6325 15.6992 24.4819 15.6992C27.1584 15.6992 29.5547 16.8955 31.1636 18.7845C32.4772 20.3215 33.2684 22.309 33.2684 24.4857Z" fill="#F7941D"/>
<path d="M41.7225 24.5272C41.7225 16.4713 48.1809 10.4824 55.8468 10.4824C59.7763 10.4824 63.1228 12.0762 65.5343 14.6088C65.8069 14.8814 65.6516 15.1539 65.4548 15.3848L61.9909 19.0796C61.7979 19.3522 61.4458 19.3522 61.2111 19.1591C59.7725 17.9137 57.9819 17.1376 55.843 17.1376C51.7204 17.1376 48.567 20.2494 48.567 24.531C48.567 28.8126 51.7204 31.8865 55.843 31.8865C57.9819 31.8865 59.7725 31.1104 61.2111 29.865C61.4458 29.6719 61.7941 29.6719 62.0288 29.9445L65.451 33.6393C65.6441 33.8323 65.7993 34.1049 65.5305 34.3775C63.1191 36.9441 59.7725 38.5417 55.843 38.5417C48.1771 38.5417 41.7188 32.5869 41.7188 24.5348L41.7225 24.5272Z" fill="black"/>
<path d="M66.9699 37.3683L75.9192 11.2586C76.0365 10.9482 76.347 10.793 76.6574 10.793H82.5327C82.8431 10.793 83.1952 10.9482 83.3126 11.2586L92.2618 37.3683C92.4171 37.7582 92.1823 38.0307 91.7546 38.0307H85.9587C85.6483 38.0307 85.3757 37.9134 85.2584 37.5651L84.2476 34.2981H74.9463L73.9355 37.5651C73.8181 37.9134 73.5834 38.0307 73.273 38.0307H67.4772C67.0494 38.0307 66.8147 37.7582 66.9699 37.3683ZM82.3775 28.3016L79.614 19.3902L76.8126 28.3016H82.3775Z" fill="black"/>
<path d="M107.746 37.6408L102.378 28.8467H101.523V37.4061C101.523 37.7544 101.25 38.027 100.902 38.027H95.3369C94.9886 38.027 94.7539 37.7544 94.7539 37.4061V11.4138C94.7539 11.0655 94.9886 10.793 95.3369 10.793H103.896C110.589 10.793 113.739 14.4499 113.739 19.8218C113.739 23.596 112.183 26.5526 108.874 27.9533L114.75 37.3304C115.022 37.7582 114.829 38.0307 114.36 38.0307H108.447C108.136 38.0307 107.901 37.9134 107.746 37.6408ZM103.737 22.8541C105.528 22.8541 107.277 22.3884 107.277 19.818C107.277 17.2475 105.528 16.7819 103.737 16.7819H101.519V22.8503H103.737V22.8541Z" fill="black"/>
<path d="M118.91 37.4061V11.4138C118.91 11.0655 119.145 10.793 119.493 10.793H133.735C134.083 10.793 134.318 11.0655 134.318 11.4138V16.161C134.318 16.5093 134.083 16.7819 133.735 16.7819H125.679V21.336H133.227C133.579 21.336 133.848 21.6086 133.848 21.9569V26.7419C133.848 27.0902 133.576 27.3249 133.227 27.3249H125.679V32.0343H133.693C134.041 32.0343 134.314 32.3068 134.314 32.6551V37.4023C134.314 37.7506 134.041 38.0232 133.693 38.0232H119.489C119.141 38.0232 118.906 37.7506 118.906 37.4023L118.91 37.4061Z" fill="black"/>
<path d="M48.106 55.3841H48.1476L52.8759 47.1086H56.0104L55.9309 47.4266C55.0262 47.4266 54.7498 47.6538 54.5492 48.4374L52.5428 56.41C52.3421 57.1936 52.4216 57.4208 53.739 57.4208L53.633 57.7388H49.4878L49.5824 57.4208C50.578 57.4208 50.8847 57.1936 51.0853 56.41L53.1863 47.8809H53.1182L47.2731 58.0038H46.6902L46.6107 48.0134H46.5577L43.9796 56.4213C43.7411 57.205 43.7676 57.417 44.9374 57.417L44.8428 57.735H41.7461L41.8407 57.417C42.8364 57.417 43.1695 57.205 43.408 56.4213L45.8535 48.4223C46.0807 47.6386 46.0655 47.4266 44.8844 47.4266L44.979 47.1086H48.0757L48.1136 55.3841H48.106Z" fill="black"/>
<path d="M59.0474 54.907H59.3389C58.5931 56.7392 57.5332 57.9242 56.2687 57.9242C55.2201 57.9242 54.5273 57.1935 54.5273 55.8799C54.5273 53.6199 56.4542 50.5005 58.4076 50.5005C59.1913 50.5005 59.6834 50.9926 59.6834 51.7081C59.6834 53.1959 57.8095 54.4451 55.9772 54.7253C55.8978 55.1114 55.8561 55.4824 55.8561 55.8004C55.8561 56.6635 56.2536 57.0762 56.8517 57.0762C57.6354 57.0762 58.3811 56.2509 59.0436 54.9108L59.0474 54.907ZM56.0832 54.2937C57.5029 53.9341 58.7673 52.8438 58.7673 51.6097C58.7673 51.2236 58.6613 51.0002 58.3281 51.0002C57.3855 51.0002 56.4807 52.7265 56.0832 54.2937Z" fill="black"/>
<path d="M66.5259 55.331H66.8325C66.3556 56.5121 65.4773 57.856 64.4022 57.856C63.698 57.856 63.4595 57.485 63.4595 57.0042C63.4595 56.6976 63.592 56.3796 63.7775 55.8345L64.2697 54.3846H64.0842C63.4482 55.7777 62.2368 57.9166 61.0556 57.9166C60.272 57.9166 59.8594 57.1708 59.8594 56.1373C59.8594 53.7713 61.9983 50.5043 63.8457 50.5043C64.7353 50.5043 65.0798 51.1554 65.0419 52.0072H65.0684L66.2761 48.4184C66.5297 47.6764 66.2496 47.4076 65.3183 47.4076L65.3978 47.101C66.9007 47.101 67.5253 47.0063 67.8698 46.7148L68.0288 46.8095L65.0268 55.8686C64.9208 56.1752 64.7618 56.6408 64.7618 56.8263C64.7618 57.027 64.8148 57.133 65.0003 57.133C65.4924 57.133 66.0754 56.2963 66.5297 55.3272L66.5259 55.331ZM64.3075 53.3776C64.4552 52.9536 64.5612 52.5258 64.5612 52.0905C64.5612 51.5188 64.4022 51.1857 63.963 51.1857C62.7819 51.1857 61.173 54.0969 61.173 55.9821C61.173 56.6068 61.2941 56.9664 61.6121 56.9664C62.3958 56.9664 63.7927 54.8691 64.3075 53.3776Z" fill="black"/>
<path d="M69.0612 52.6357C69.2202 52.1965 69.4057 51.6514 69.4057 51.4659C69.4057 51.2917 69.3375 51.2387 69.2315 51.2387C68.834 51.2387 68.2473 51.9429 67.7438 52.7795H67.4258C68.0353 51.5984 69.0347 50.5346 70.0038 50.5346C70.4808 50.5346 70.7079 50.8791 70.7079 51.2652C70.7079 51.6097 70.5338 52.0754 70.3218 52.6622L69.1672 55.8913C69.0612 56.1828 68.887 56.6484 68.887 56.8339C68.887 57.0346 68.94 57.1406 69.1255 57.1406C69.6177 57.1406 70.2158 56.304 70.6549 55.3348H70.9616C70.4846 56.5159 69.6215 57.8599 68.5312 57.8599C67.8271 57.8599 67.5886 57.4889 67.5886 57.0081C67.5886 56.7014 67.7362 56.3834 67.9217 55.8535L69.065 52.6394L69.0612 52.6357ZM69.913 48.3541C69.913 47.8506 70.2574 47.5288 70.7647 47.5288C71.272 47.5288 71.6165 47.8468 71.6165 48.3541C71.6165 48.8614 71.272 49.1794 70.7647 49.1794C70.2574 49.1794 69.913 48.8462 69.913 48.3541Z" fill="black"/>
<path d="M71.4374 55.7551C71.4374 53.3891 73.2848 50.4817 75.223 50.4817C75.9272 50.4817 76.4572 50.9322 76.4572 51.7158C76.4572 52.4994 76.018 53.2301 75.488 53.2301C75.1965 53.2301 75.011 53.0029 75.011 52.7379C75.011 52.1928 75.7303 52.1663 75.7303 51.4773C75.7303 51.2237 75.5978 51.0003 75.2117 51.0003C73.9359 51.0003 72.7813 53.6692 72.7813 55.5166C72.7813 56.3949 73.0198 57.0574 73.6444 57.0574C74.375 57.0574 75.1208 56.2321 75.7152 55.051H76.0067C75.276 56.8567 74.2388 57.9205 73.0955 57.9205C72.0734 57.9205 71.4336 57.0952 71.4336 55.7551H71.4374Z" fill="black"/>
<path d="M83.0957 55.3311H83.4023C82.9253 56.5123 82.0471 57.8562 80.9719 57.8562C80.2678 57.8562 80.0293 57.4852 80.0293 57.0044C80.0293 56.6978 80.1883 56.3798 80.3889 55.8498L80.9076 54.3885H80.7864C80.1505 55.7703 78.9277 57.8827 77.7428 57.8827C76.9062 57.8827 76.5352 57.1634 76.5352 56.1413C76.5352 53.7752 78.674 50.5082 80.5214 50.5082C81.4111 50.5082 81.7707 51.1593 81.7177 52.0111H81.7594L82.1455 50.9473C82.6755 50.9473 83.1033 50.7088 83.3266 50.4287L83.5386 50.5498L81.6269 55.8914C81.5209 56.198 81.3354 56.6485 81.3354 56.834C81.3354 57.0347 81.3884 57.1407 81.5739 57.1407C82.066 57.1407 82.649 56.304 83.1033 55.3349L83.0957 55.3311ZM80.9833 53.3777C81.1309 52.9537 81.2369 52.526 81.2369 52.0906C81.2369 51.519 81.0779 51.1858 80.6388 51.1858C79.4577 51.1858 77.8488 54.097 77.8488 55.9823C77.8488 56.5804 77.9699 56.9135 78.2879 56.9135C79.0715 56.9135 80.4798 54.8428 80.9833 53.3777Z" fill="black"/>
<path d="M88.2046 46.8134L85.267 55.8725C85.161 56.1791 85.0133 56.6447 85.0133 56.8302C85.0133 57.0309 85.0663 57.1369 85.2518 57.1369C85.744 57.1369 86.3269 56.3002 86.7812 55.3311H87.0879C86.6109 56.5122 85.7326 57.8561 84.6575 57.8561C83.9533 57.8561 83.7148 57.4851 83.7148 57.0044C83.7148 56.6977 83.8208 56.3646 84.0063 55.8346L86.3989 48.4223C86.6525 47.6803 86.5314 47.4115 85.6001 47.4115L85.6796 47.1049C87.2204 47.1049 87.7504 46.9837 88.0456 46.7188L88.2046 46.8134Z" fill="black"/>
<path d="M89.2823 57.417C90.293 57.417 90.6224 57.205 90.8647 56.4213L93.3102 48.4223C93.5487 47.6386 93.5373 47.4266 92.3524 47.4266L92.4471 47.1086H96.0359C97.9741 47.1086 99.0379 47.8014 99.0379 49.38C99.0379 51.2918 97.4176 53.2603 94.8926 53.2603C94.3096 53.2603 93.7228 53.1657 93.3518 53.0218L92.3146 56.4213C92.0761 57.205 92.1139 57.417 93.4313 57.417L93.3367 57.735H89.1914L89.286 57.417H89.2823ZM97.6258 49.221C97.6258 48.1194 97.0012 47.6386 95.9374 47.6386C95.2333 47.6386 94.9683 47.7446 94.8623 48.0626L93.5336 52.4199C93.8137 52.5259 94.2377 52.6471 94.6768 52.6471C96.6151 52.6471 97.6258 50.7467 97.6258 49.221Z" fill="black"/>
<path d="M98.3945 57.735L100.083 52.6471C100.231 52.2079 100.401 51.6514 100.401 51.466C100.401 51.2918 100.333 51.2388 100.227 51.2388C99.8293 51.2388 99.2425 51.9429 98.739 52.7796H98.421C99.0305 51.5985 100.03 50.5347 100.999 50.5347C101.476 50.5347 101.703 50.8792 101.703 51.2653C101.703 51.6098 101.503 52.0754 101.279 52.6471L100.496 54.7746H100.617C101.76 51.7991 102.903 50.4968 104.005 50.4968C104.323 50.4968 104.497 50.6558 104.497 50.9473C104.497 51.36 104.153 51.7839 103.793 51.7839C103.528 51.7839 103.395 51.6363 103.115 51.6363C102.506 51.6363 101.374 52.8439 99.7157 57.735H98.4021H98.3945Z" fill="black"/>
<path d="M109.943 55.3311H110.25C109.773 56.5123 108.895 57.8562 107.82 57.8562C107.115 57.8562 106.877 57.4852 106.877 57.0044C106.877 56.6978 107.036 56.3798 107.237 55.8498L107.755 54.3885H107.634C106.998 55.7703 105.775 57.8827 104.59 57.8827C103.754 57.8827 103.383 57.1634 103.383 56.1413C103.383 53.7752 105.522 50.5082 107.369 50.5082C108.259 50.5082 108.618 51.1593 108.565 52.0111H108.607L108.993 50.9473C109.523 50.9473 109.951 50.7088 110.174 50.4287L110.386 50.5498L108.475 55.8914C108.369 56.198 108.183 56.6485 108.183 56.834C108.183 57.0347 108.236 57.1407 108.422 57.1407C108.914 57.1407 109.497 56.304 109.951 55.3349L109.943 55.3311ZM107.831 53.3777C107.979 52.9537 108.085 52.526 108.085 52.0906C108.085 51.519 107.926 51.1858 107.486 51.1858C106.305 51.1858 104.696 54.097 104.696 55.9823C104.696 56.5804 104.818 56.9135 105.136 56.9135C105.919 56.9135 107.327 54.8428 107.831 53.3777Z" fill="black"/>
<path d="M110.594 55.7551C110.594 53.3891 112.441 50.4817 114.379 50.4817C115.083 50.4817 115.613 50.9322 115.613 51.7158C115.613 52.4994 115.174 53.2301 114.644 53.2301C114.353 53.2301 114.167 53.0029 114.167 52.7379C114.167 52.1928 114.887 52.1663 114.887 51.4773C114.887 51.2237 114.754 51.0003 114.368 51.0003C113.092 51.0003 111.938 53.6692 111.938 55.5166C111.938 56.3949 112.176 57.0574 112.801 57.0574C113.531 57.0574 114.277 56.2321 114.871 55.051H115.163C114.432 56.8567 113.395 57.9205 112.252 57.9205C111.23 57.9205 110.59 57.0952 110.59 55.7551H110.594Z" fill="black"/>
<path d="M117.34 55.6908C117.219 56.077 117.087 56.4631 117.087 56.713C117.087 56.925 117.14 57.0575 117.367 57.0575C117.965 57.0575 118.68 56.1678 119.214 55.0927H119.532C118.907 56.5691 117.859 57.8562 116.674 57.8562C116.023 57.8562 115.758 57.5117 115.758 56.978C115.758 56.6183 115.89 56.1678 116.064 55.6757L117.658 51.1178H116.663L116.81 50.7581C118.044 50.69 118.669 50.0805 119.256 48.9902H119.695L119.07 50.69H120.373L120.24 51.114H118.938L117.344 55.6833L117.34 55.6908Z" fill="black"/>
<path d="M121.835 52.6357C121.994 52.1965 122.179 51.6514 122.179 51.4659C122.179 51.2917 122.111 51.2387 122.005 51.2387C121.607 51.2387 121.021 51.9429 120.517 52.7795H120.199C120.809 51.5984 121.808 50.5346 122.777 50.5346C123.254 50.5346 123.481 50.8791 123.481 51.2652C123.481 51.6097 123.307 52.0754 123.095 52.6622L121.941 55.8913C121.835 56.1828 121.66 56.6484 121.66 56.8339C121.66 57.0346 121.713 57.1406 121.899 57.1406C122.391 57.1406 122.989 56.304 123.428 55.3348H123.735C123.258 56.5159 122.395 57.8599 121.305 57.8599C120.601 57.8599 120.362 57.4889 120.362 57.0081C120.362 56.7014 120.51 56.3834 120.695 55.8535L121.838 52.6394L121.835 52.6357ZM122.683 48.3541C122.683 47.8506 123.027 47.5288 123.534 47.5288C124.042 47.5288 124.386 47.8468 124.386 48.3541C124.386 48.8614 124.042 49.1794 123.534 49.1794C123.027 49.1794 122.683 48.8462 122.683 48.3541Z" fill="black"/>
<path d="M124.211 55.7551C124.211 53.3891 126.058 50.4817 127.996 50.4817C128.701 50.4817 129.231 50.9322 129.231 51.7158C129.231 52.4994 128.791 53.2301 128.261 53.2301C127.97 53.2301 127.784 53.0029 127.784 52.7379C127.784 52.1928 128.504 52.1663 128.504 51.4773C128.504 51.2237 128.371 51.0003 127.985 51.0003C126.709 51.0003 125.555 53.6692 125.555 55.5166C125.555 56.3949 125.793 57.0574 126.418 57.0574C127.148 57.0574 127.894 56.2321 128.489 55.051H128.78C128.049 56.8567 127.012 57.9205 125.869 57.9205C124.847 57.9205 124.207 57.0952 124.207 55.7551H124.211Z" fill="black"/>
<path d="M133.887 54.907H134.179C133.433 56.7392 132.373 57.9242 131.109 57.9242C130.06 57.9242 129.367 57.1935 129.367 55.8799C129.367 53.6199 131.294 50.5005 133.247 50.5005C134.031 50.5005 134.523 50.9926 134.523 51.7081C134.523 53.1959 132.649 54.4451 130.817 54.7253C130.738 55.1114 130.696 55.4824 130.696 55.8004C130.696 56.6635 131.093 57.0762 131.692 57.0762C132.475 57.0762 133.221 56.2509 133.883 54.9108L133.887 54.907ZM130.923 54.2937C132.343 53.9341 133.607 52.8438 133.607 51.6097C133.607 51.2236 133.501 51.0002 133.168 51.0002C132.225 51.0002 131.321 52.7265 130.923 54.2937Z" fill="black"/>
<path d="M134.855 50.5726C135.142 50.5726 135.237 50.512 135.301 50.2886L136.024 47.9377C136.047 47.862 136.024 47.809 135.93 47.809H135.722C135.43 47.809 135.343 47.9188 135.165 48.3466H135.051L135.298 47.6387H137.365L137.198 48.3466H137.081C137.175 47.9226 137.134 47.809 136.857 47.809H136.607C136.513 47.809 136.464 47.8582 136.437 47.9377L135.714 50.2886C135.65 50.512 135.657 50.5726 136.017 50.5726L135.99 50.6634H134.828L134.855 50.5726Z" fill="black"/>
<path d="M138.45 49.9973H138.461L139.805 47.6426H140.695L140.672 47.7334C140.415 47.7334 140.335 47.7978 140.279 48.0211L139.707 50.2887C139.65 50.5121 139.673 50.5765 140.048 50.5765L140.017 50.6673H138.84L138.866 50.5765C139.15 50.5765 139.237 50.5121 139.294 50.2887L139.892 47.8621H139.873L138.212 50.7392H138.045L138.022 47.9H138.007L137.273 50.2925C137.205 50.5159 137.212 50.5765 137.545 50.5765L137.519 50.6673H136.637L136.663 50.5765C136.947 50.5765 137.042 50.5159 137.11 50.2925L137.806 48.0174C137.871 47.794 137.867 47.7334 137.53 47.7334L137.557 47.6426H138.439L138.45 49.9973Z" fill="black"/>
</g>
<defs>
<clipPath id="clip0_5074_6847">
<rect width="140.69" height="58" fill="white"/>
</clipPath>
</defs>
</svg>
