<svg width="20" height="20" viewBox="0 0 20 20" fill="none" xmlns="http://www.w3.org/2000/svg">
<g clip-path="url(#clip0_4952_3783)">
<path d="M9.55749 0.404297C4.27908 0.404297 0 4.68338 0 9.96179C0 14.4439 3.08592 18.2049 7.24878 19.2379V12.8826H5.27803V9.96179H7.24878V8.70326C7.24878 5.45027 8.72102 3.94248 11.9148 3.94248C12.5203 3.94248 13.5651 4.06138 13.9925 4.17989V6.82731C13.767 6.80361 13.3751 6.79176 12.8885 6.79176C11.3214 6.79176 10.7159 7.38547 10.7159 8.92881V9.96179H13.8377L13.3013 12.8826H10.7159V19.4493C15.4483 18.8778 19.1154 14.8483 19.1154 9.96179C19.115 4.68338 14.8359 0.404297 9.55749 0.404297Z" fill="white"/>
</g>
<defs>
<clipPath id="clip0_4952_3783">
<rect width="19.115" height="19.115" fill="white" transform="translate(0 0.404297)"/>
</clipPath>
</defs>
</svg>
