<svg width="189" height="57" viewBox="0 0 189 57" fill="none" xmlns="http://www.w3.org/2000/svg">
<g clip-path="url(#clip0_5033_4073)">
<path d="M20.0948 35.0821C11.5471 35.0821 4.61762 28.168 4.61762 19.6391C4.61762 11.1103 11.5455 4.1977 20.0948 4.1977C24.5696 4.1977 28.6004 6.09213 31.4242 9.12105L34.0938 6.45734C34.2667 6.28639 34.2667 6.00821 34.0938 5.83571C30.5146 2.22089 25.5368 -0.0169978 20.0372 9.72455e-05C9.1656 0.0311791 0.251863 9.08842 0.412288 19.936C0.571156 30.6452 9.32135 39.2797 20.0932 39.2797C25.5711 39.2797 30.5271 37.0481 34.0938 33.4441C34.2652 33.2716 34.2652 32.995 34.0938 32.8256L31.4242 30.1619C28.5989 33.1908 24.5696 35.0852 20.0948 35.0852" fill="#FF8B00"/>
<path d="M20.0928 30.885C13.8144 30.885 8.73374 25.7612 8.82407 19.4764C8.91285 13.2958 14.0667 8.30717 20.261 8.39731C23.3465 8.44237 26.1313 9.7245 28.139 11.7697C28.3119 11.9437 28.5922 11.9484 28.7667 11.7743L31.4238 9.12307C28.6 6.09414 24.5691 4.19971 20.0943 4.19971C11.5466 4.19971 4.61719 11.1139 4.61719 19.6427C4.61719 28.1716 11.5466 35.0841 20.0943 35.0841C24.5691 35.0841 28.5985 33.1913 31.4238 30.1608L28.7667 27.5095C28.5922 27.337 28.3119 27.3386 28.1405 27.5157C26.0955 29.5951 23.2452 30.8865 20.0943 30.8865" fill="#E45F0C"/>
<path d="M27.1565 19.6391C27.1565 21.3859 26.5194 22.982 25.465 24.2128C24.1723 25.7265 22.244 26.6869 20.0931 26.6869C16.193 26.6869 13.0312 23.5306 13.0312 19.6391C13.0312 15.7477 16.193 12.5913 20.0931 12.5913C22.244 12.5913 24.1723 13.5517 25.465 15.0654C26.5194 16.2978 27.1565 17.8939 27.1565 19.6391Z" fill="#FF8B00"/>
<path d="M33.957 19.6954C33.957 13.2443 39.142 8.44531 45.2958 8.44531C48.4529 8.44531 51.1366 9.72277 53.0741 11.7478C53.2922 11.9653 53.1691 12.1829 53.0118 12.3709L50.2301 15.3315C50.0759 15.5491 49.794 15.5491 49.6071 15.3952C48.4514 14.3975 47.0153 13.7743 45.2958 13.7743C41.9861 13.7743 39.4551 16.2671 39.4551 19.6954C39.4551 23.1237 41.9845 25.5869 45.2958 25.5869C47.0153 25.5869 48.4529 24.9637 49.6071 23.966C49.794 23.8106 50.0759 23.8106 50.2628 24.0282L53.0118 26.9903C53.1691 27.1457 53.2922 27.3633 53.0741 27.5808C51.1381 29.6384 48.4529 30.9175 45.2958 30.9175C39.142 30.9175 33.957 26.1464 33.957 19.6954Z" fill="#101828"/>
<path d="M56.2578 30.0129V9.1928C56.2578 8.91151 56.4447 8.69238 56.7266 8.69238H61.1921C61.474 8.69238 61.692 8.91151 61.692 9.1928V30.0129C61.692 30.2942 61.474 30.5118 61.1921 30.5118H56.7266C56.4447 30.5118 56.2578 30.2942 56.2578 30.0129Z" fill="#101828"/>
<path d="M77.6855 30.1994L71.0006 17.6704V30.0129C71.0006 30.2942 70.7826 30.5118 70.5007 30.5118H66.0337C65.7518 30.5118 65.5664 30.2942 65.5664 30.0129V9.1928C65.5664 8.91151 65.7533 8.69238 66.0337 8.69238H71.1875C71.4367 8.69238 71.6236 8.78718 71.7498 9.00475L78.4659 21.5975V9.1928C78.4659 8.91151 78.6528 8.69238 78.9331 8.69238H83.4017C83.682 8.69238 83.9016 8.91151 83.9016 9.1928V30.0129C83.9016 30.2942 83.682 30.5118 83.4017 30.5118H78.2478C77.9986 30.5118 77.8101 30.417 77.6855 30.1994Z" fill="#101828"/>
<path d="M105.828 30.9782L104.172 29.3263C102.485 30.3551 100.517 30.9161 98.3937 30.9161C92.2103 30.9161 87.1172 25.9896 87.1172 19.694C87.1172 13.3984 92.2103 8.44238 98.3937 8.44238C104.577 8.44238 109.67 13.3657 109.67 19.694C109.67 21.9055 109.046 23.9646 107.952 25.7114L109.514 27.2686C109.733 27.4893 109.733 27.7069 109.482 27.9555L106.485 30.9472C106.297 31.1352 106.016 31.1647 105.828 30.9782ZM98.3937 25.5856C99.0198 25.5856 99.6117 25.4908 100.174 25.3043L98.0806 23.2171C97.8626 22.9995 97.8626 22.7804 98.0806 22.5628L101.112 19.537C101.267 19.3832 101.548 19.3195 101.767 19.537L103.861 21.6257C104.048 21.0352 104.143 20.3794 104.143 19.694C104.143 16.2968 101.674 13.7729 98.3952 13.7729C95.1167 13.7729 92.6168 16.2968 92.6168 19.694C92.6168 23.0912 95.1167 25.5856 98.3952 25.5856" fill="#101828"/>
<path d="M112.289 19.6954C112.289 13.2443 117.474 8.44531 123.628 8.44531C126.785 8.44531 129.469 9.72277 131.406 11.7478C131.624 11.9653 131.501 12.1829 131.344 12.3709L128.562 15.3315C128.408 15.5491 128.126 15.5491 127.939 15.3952C126.783 14.3975 125.347 13.7743 123.628 13.7743C120.318 13.7743 117.787 16.2671 117.787 19.6954C117.787 23.1237 120.317 25.5869 123.628 25.5869C125.347 25.5869 126.785 24.9637 127.939 23.966C128.126 23.8106 128.408 23.8106 128.595 24.0282L131.344 26.9903C131.501 27.1457 131.624 27.3633 131.406 27.5808C129.47 29.6384 126.785 30.9175 123.628 30.9175C117.474 30.9175 112.289 26.1464 112.289 19.6954Z" fill="#101828"/>
<path d="M132.874 29.9803L140.059 9.06692C140.153 8.81826 140.404 8.69238 140.654 8.69238H145.371C145.62 8.69238 145.9 8.81826 145.994 9.06692L153.178 29.9803C153.305 30.2927 153.118 30.5103 152.773 30.5103H148.12C147.87 30.5103 147.651 30.417 147.557 30.1357L146.744 27.5171H139.279L138.466 30.1357C138.373 30.417 138.186 30.5103 137.935 30.5103H133.281C132.938 30.5103 132.75 30.2927 132.874 29.9803ZM145.244 22.7181L143.026 15.5817L140.777 22.7181H145.246H145.244Z" fill="#101828"/>
<path d="M166.393 30.1994L162.082 23.1563H161.395V30.0129C161.395 30.2927 161.177 30.5118 160.895 30.5118H156.43C156.148 30.5118 155.961 30.2927 155.961 30.0129V9.1928C155.961 8.91151 156.148 8.69238 156.43 8.69238H163.302C168.673 8.69238 171.204 11.6234 171.204 15.9236C171.204 18.9494 169.955 21.3163 167.3 22.4383L172.016 29.9492C172.234 30.2927 172.078 30.5103 171.703 30.5103H166.954C166.705 30.5103 166.518 30.4155 166.393 30.1979M163.175 18.3542C164.613 18.3542 166.018 17.9796 166.018 15.9205C166.018 13.8613 164.611 13.4914 163.175 13.4914H161.395V18.3542H163.175Z" fill="#101828"/>
<path d="M175.039 30.0129V9.1928C175.039 8.91151 175.226 8.69238 175.508 8.69238H186.94C187.222 8.69238 187.409 8.91151 187.409 9.1928V12.9941C187.409 13.2754 187.222 13.493 186.94 13.493H180.473V17.1404H186.535C186.816 17.1404 187.035 17.3595 187.035 17.6393V21.4717C187.035 21.753 186.816 21.9394 186.535 21.9394H180.473V25.7112H186.909C187.189 25.7112 187.409 25.9288 187.409 26.2101V30.0129C187.409 30.2942 187.189 30.5118 186.909 30.5118H175.508C175.226 30.5118 175.039 30.2942 175.039 30.0129Z" fill="#101828"/>
</g>
<path d="M128.049 37.1684L127.098 40.4016H126.596C127.029 38.6207 126.89 37.9464 125.663 37.9464H122.637C122.239 37.9464 121.98 38.1366 121.859 38.517L120.268 43.7211H122.689C123.692 43.7211 124.107 43.3753 124.487 42.2861H124.902L123.726 46.401H123.277C123.588 45.0006 123.45 44.4127 122.499 44.4127H120.061L118.574 49.2883C118.263 50.3084 118.332 50.5851 120.165 50.5851L120.026 51H114.477L114.598 50.5851C115.912 50.5851 116.344 50.3084 116.655 49.2883L119.836 38.8801C120.147 37.86 120.13 37.5834 118.591 37.5834L118.712 37.1684H128.049ZM127.871 51.2421C126.349 51.2421 125.312 50.1009 125.312 48.2683C125.312 44.9833 127.802 41.5772 130.361 41.5772C131.899 41.5772 132.937 42.7702 132.937 44.5856C132.937 47.8533 130.447 51.2421 127.871 51.2421ZM128.009 50.4986C129.496 50.4986 131.311 46.8159 131.311 44.0323C131.311 42.9777 130.983 42.3034 130.24 42.3034C128.753 42.3034 126.955 46.0552 126.955 48.8042C126.955 49.8416 127.266 50.4986 128.009 50.4986ZM135.434 51H133.723L135.919 44.3781C136.109 43.8076 136.334 43.0814 136.334 42.8394C136.334 42.6146 136.247 42.5454 136.109 42.5454C135.59 42.5454 134.829 43.4618 134.172 44.551H133.757C134.553 43.0123 135.849 41.6291 137.112 41.6291C137.734 41.6291 138.028 42.0786 138.028 42.58C138.028 43.0296 137.769 43.6347 137.475 44.3781L136.455 47.1444H136.61C138.097 43.2716 139.584 41.5772 141.019 41.5772C141.434 41.5772 141.659 41.7847 141.659 42.1651C141.659 42.7011 141.209 43.2543 140.742 43.2543C140.397 43.2543 140.224 43.0641 139.861 43.0641C139.065 43.0641 137.596 44.6375 135.434 51ZM151.376 37.1684L151.428 47.9398H151.48L157.635 37.1684H161.715L161.612 37.5834C160.436 37.5834 160.073 37.8773 159.813 38.8974L157.203 49.2711C156.943 50.2911 157.047 50.5851 158.759 50.5851L158.62 51H153.226L153.347 50.5851C154.644 50.5851 155.042 50.2911 155.301 49.2711L158.033 38.1712H157.946L150.339 51.3458H149.578L149.474 38.3441H149.405L146.051 49.2883C145.74 50.3084 145.774 50.5851 147.296 50.5851L147.175 51H143.146L143.267 50.5851C144.564 50.5851 144.996 50.3084 145.308 49.2883L148.489 38.8801C148.783 37.86 148.765 37.5834 147.227 37.5834L147.348 37.1684H151.376ZM162.45 51.2421C160.928 51.2421 159.891 50.1009 159.891 48.2683C159.891 44.9833 162.381 41.5772 164.94 41.5772C166.478 41.5772 167.516 42.7702 167.516 44.5856C167.516 47.8533 165.026 51.2421 162.45 51.2421ZM162.588 50.4986C164.075 50.4986 165.89 46.8159 165.89 44.0323C165.89 42.9777 165.562 42.3034 164.818 42.3034C163.332 42.3034 161.533 46.0552 161.533 48.8042C161.533 49.8416 161.845 50.4986 162.588 50.4986ZM169.875 51H168.181L170.463 44.3608C170.67 43.7903 170.912 43.0814 170.912 42.8394C170.912 42.6146 170.826 42.5454 170.688 42.5454C170.169 42.5454 169.408 43.4618 168.751 44.551H168.336C169.132 43.0123 170.428 41.6291 171.691 41.6291C172.313 41.6291 172.607 42.0786 172.607 42.58C172.607 43.0296 172.348 43.6347 172.054 44.3781L171.034 47.1444H171.189C172.987 43.3235 174.197 41.5945 175.581 41.5945C176.255 41.5945 176.635 42.1478 176.635 42.7702C176.635 43.7903 175.892 45.2426 175.079 47.1444H175.235C177.016 43.3062 178.382 41.5945 179.782 41.5945C180.595 41.5945 181.01 42.1132 181.01 42.8567C181.01 44.1188 179.747 46.6085 178.9 48.5968C178.762 48.9944 178.503 49.5823 178.503 49.8243C178.503 50.0837 178.589 50.222 178.814 50.222C179.453 50.222 180.232 49.1327 180.802 47.8706H181.217C180.577 49.4094 179.453 51.1556 178.053 51.1556C177.137 51.1556 176.825 50.6715 176.825 50.0491C176.825 49.6514 177.05 49.2538 177.327 48.5276C178.261 46.2108 179.211 44.0669 179.211 43.3753C179.211 42.995 179.09 42.8221 178.848 42.8221C178.33 42.8221 177.154 43.8249 175.563 47.1617C175.062 48.1818 174.526 49.4612 173.938 51H172.244L173.644 47.4211C174.284 45.7959 175.027 44.0151 175.027 43.3753C175.027 42.995 174.906 42.8221 174.647 42.8221C173.973 42.8221 172.365 44.5164 169.875 51ZM183.862 51.2421C182.496 51.2421 181.338 50.4122 181.338 49.4612C181.338 48.9944 181.666 48.6832 182.081 48.6832C182.427 48.6832 182.548 48.908 182.721 49.3921C183.032 50.2047 183.43 50.6196 184.139 50.6196C184.934 50.6196 185.332 50.0318 185.332 49.2192C185.332 48.5622 185.021 48.0608 184.588 47.4557L184.122 46.7295C183.482 45.7786 183.101 45.1562 183.101 44.2917C183.101 42.6665 184.502 41.5427 186.162 41.5427C187.545 41.5427 188.219 42.338 188.219 42.9258C188.219 43.3926 187.856 43.7038 187.476 43.7038C187.113 43.7038 186.974 43.4272 186.853 43.0123C186.68 42.5282 186.421 42.1478 185.747 42.1478C185.055 42.1478 184.536 42.6146 184.536 43.4618C184.536 44.0669 184.848 44.6721 185.314 45.3463L185.747 46.0552C186.404 47.0753 186.767 47.6286 186.767 48.4584C186.767 50.0318 185.522 51.2421 183.862 51.2421Z" fill="black"/>
<defs>
<clipPath id="clip0_5033_4073">
<rect width="187" height="39.2796" fill="white" transform="translate(0.410156)"/>
</clipPath>
</defs>
</svg>
