<svg width="178" height="171" viewBox="0 0 178 171" fill="none" xmlns="http://www.w3.org/2000/svg">
<circle cx="93.4045" cy="99.3979" r="4.22217" fill="#DA6B07"/>
<mask id="path-2-inside-1_5912_124" fill="white">
<path d="M130.773 161.161C130.118 161.443 129.446 161.685 128.813 162.006C127.26 162.792 125.798 162.935 124.479 161.555C122.991 160.623 121.677 159.447 119.79 159.152C118.805 159 117.59 158.137 118.245 156.827C118.905 155.504 120.067 156.124 121.048 156.667C121.174 156.736 121.286 156.831 121.408 156.909C122.236 157.439 123.156 158.402 124.041 157.322C124.835 156.359 123.49 155.734 123.238 154.927C122.336 152.029 120.336 152.207 118.085 152.849C117.699 153.04 117.335 151.604 116.931 152.845C115.604 154.007 114.298 155.244 112.316 154.125C112.298 154.754 112.693 155.009 112.953 155.33C113.522 156.025 114.033 156.727 113.535 157.673C113.031 158.619 112.103 158.584 111.205 158.874C107.752 159.989 105.145 157.816 102.399 156.654C100.564 155.877 98.9246 155.161 96.9422 155.513C95.9575 155.959 94.9685 156.406 93.9838 156.853C92.5176 157.131 91.06 157.469 89.5678 157.478C89.4333 157.499 89.3075 157.564 89.2381 157.669C90.8692 157.443 92.4091 157.799 93.9491 158.185C94.9164 159.686 95.7406 161.204 94.4523 162.939C94.1052 163.408 93.5456 164.093 93.0815 163.772C90.5005 161.976 87.9671 163.559 85.4555 163.807C76.2852 164.705 67.1454 165.845 58.0271 167.182C54.5091 167.698 51.3034 169.342 47.7464 169.65C44.5841 169.927 41.4261 170.287 38.2464 170.136C36.6111 170.058 34.9063 170.058 33.6266 168.739C33.4748 167.876 33.6266 167.03 33.8912 166.223C34.338 164.865 34.1428 163.703 33.1191 162.666C32.3469 161.881 32.1214 160.905 32.5508 159.885C33.015 158.783 34.0431 159.33 34.8325 159.252C36.5677 159.083 38.2421 159.543 39.9295 159.833C41.348 159.881 42.5626 161.512 44.1329 160.362C44.4539 159.994 44.8877 160.145 45.2825 160.111C45.5905 160.085 46.0373 160.241 46.072 159.746C46.098 159.36 45.6772 159.23 45.4126 159.031C43.2871 156.94 43.1352 156.844 39.756 156.506C38.4764 156.38 37.496 155.686 36.4679 155.057C35.0928 153.339 35.0928 152.819 36.9277 151.882C38.0686 151.301 37.4136 150.372 37.7042 149.648C37.9992 148.91 38.2595 148.156 36.9885 147.969C36.5981 147.913 36.0341 147.544 36.3421 146.872C36.6154 146.711 36.893 146.551 37.1663 146.39C37.3962 145.991 37.3919 145.592 37.1663 145.193C36.4376 145.384 35.5353 143.614 34.9453 145.388C34.6287 146.082 34.1732 145.852 33.709 145.57C31.9912 144.126 31.128 141.853 29.0502 140.76C25.055 138.391 20.5349 137.775 16.0843 137.207C13.59 136.886 11.664 135.671 9.53408 134.691C8.67952 134.296 7.94208 133.346 6.79688 133.854C6.51926 133.949 6.00305 134.418 6.01173 133.815C6.05944 130.804 4.27224 128.496 2.93184 126.115C0.307426 121.478 0.038478 116.559 0.372494 111.483C0.424549 110.711 0.615415 109.896 0.953769 109.202C2.86243 105.263 4.81881 101.346 6.8099 97.4502C7.12656 96.8299 7.69482 96.3354 8.14596 95.7802C8.84002 95.316 9.54709 95.3898 10.2585 95.7455H10.2498C10.74 95.8279 11.3647 96.3875 11.5382 95.3724C10.4841 95.1251 9.74664 94.5222 9.63385 93.4073C9.54709 92.5745 9.88111 91.8544 10.6316 91.4076C11.3473 90.9781 11.985 91.117 12.5793 91.6852C13.1389 92.2188 13.6854 92.9822 14.5834 92.6092C15.5637 92.2014 14.8436 91.3512 14.8914 90.7092C14.9738 89.6507 15.3121 89.0434 16.5137 89.4642C16.9041 89.5987 17.416 89.8329 17.6242 89.295C17.8671 88.6791 17.3032 88.3277 16.8738 88.1715C14.6614 87.3647 15.5854 86.3323 16.5918 85.2305C17.9973 83.6948 19.8756 82.6668 21.1119 80.9533C22.1486 80.4024 22.3915 81.3481 22.8513 81.8816C22.9945 81.8252 23.1376 81.7688 23.2808 81.7081C23.9749 79.8211 25.094 81.3047 26.0614 81.4565C25.7968 80.1768 22.4609 79.9383 24.9899 77.9168L25.0029 77.9038C26.4388 75.9865 28.1956 75.6351 30.5901 76.7022C31.1584 76.9538 31.8134 77.9992 32.4641 76.7542C32.759 75.852 33.4011 75.839 34.1472 76.0949C34.4725 76.173 34.8586 76.4593 35.1145 76.1773C35.3878 75.8737 34.9844 75.5613 34.8759 75.249C34.3857 73.926 34.7545 73.1755 36.251 73.1755C36.7933 73.1885 37.4223 73.4011 37.6001 72.5812C37.483 71.9826 37.1013 71.4273 37.3008 70.7853C36.88 71.2148 36.546 71.7657 35.9951 72.0954C35.5656 72.3643 35.1015 72.5639 34.6113 72.6983C34.017 72.8241 33.4358 73.0237 32.8154 72.976C32.5074 72.9022 32.2862 72.7244 32.1517 72.4424C31.8394 72.1127 32.5638 70.7376 31.1801 71.4967C30.3906 71.8525 29.6097 72.36 28.7942 71.5662C28.1262 70.9155 28.4819 70.2474 28.7508 69.5707C28.9287 69.1239 29.3191 68.5644 28.6337 68.2781C28.0047 68.0178 27.3757 67.6794 26.5863 68.0481C25.3977 68.6034 22.3785 67.5363 21.6931 66.4518C21.4589 66.0788 21.6367 65.8358 21.7756 65.4888C21.884 65.2155 22.8904 65.4888 22.1963 64.8642C21.9317 64.6256 21.4849 64.7167 21.3938 65.2068C21.255 65.9746 20.8516 66.1698 20.1662 65.8228C18.1361 64.1657 18.1534 61.6281 20.4352 59.9103C22.2007 58.5829 24.1917 57.5505 26.1091 56.4313C28.0741 55.2818 30.0522 54.1583 31.5358 52.3711C33.6743 49.6382 35.9647 47.0051 37.2054 43.6867C37.5133 40.468 39.3136 38.0301 41.2483 35.6009C42.2503 34.3429 43.1873 34.5381 44.467 34.9111C48.1064 35.9739 51.7372 35.8395 55.2466 34.3212C56.3007 33.8657 57.255 33.1933 57.9838 32.252C59.502 30.2913 59.5107 30.3 60.9812 32.4212C62.2652 33.3278 61.5235 35.3666 63.1979 36.3513C63.2196 34.3602 61.5322 33.2237 61.4584 31.5233C60.9639 29.35 61.5495 27.4674 62.7077 25.5891C64.6684 22.4094 65.9307 18.8437 68.078 15.7508C69.6049 13.5515 68.1474 11.3348 67.9088 9.13118C67.4317 8.28096 68.5421 7.1748 67.462 6.42435L67.475 6.45471C66.7723 4.98417 68.6332 4.79331 68.8198 3.76957C70.4899 2.9714 72.1426 2.12552 73.8387 1.38374C75.9946 0.438084 78.0421 0.923925 80.0288 1.99104C80.7186 2.35976 81.4517 2.64606 82.1631 2.9714C84.4014 3.84331 86.6007 4.76728 87.3772 7.37L87.3512 7.33964C88.0973 8.13781 88.6612 9.0531 89.1427 10.0291C90.1968 11.6471 91.9623 12.0115 93.6151 12.1373C96.9509 12.3933 98.7207 14.3149 99.8919 17.1693C100.59 18.874 100.92 20.6656 101.371 22.4311C102.503 23.2509 102.785 23.984 101.163 24.5306C100.1 24.7605 99.5059 25.1119 100.777 25.9665C102.325 26.8687 103.644 27.9532 103.917 29.8792C104.742 30.8986 102.551 30.994 103.245 31.623C104.351 32.6208 105.635 33.6098 107.023 34.0566C108.702 34.5988 109.44 36.0433 110.685 36.9673C110.741 37.0107 110.793 37.0627 110.845 37.1148C111.591 37.8479 109.5 37.9997 110.489 38.6547C110.971 38.9757 111.773 38.7805 112.303 39.0582C112.971 39.4095 112.988 40.0472 112.172 40.2597C111.583 40.4116 111.097 40.5113 110.832 41.4266C113.452 41.2922 114.931 43.3049 116.927 44.3417C117.773 44.7798 118.215 45.3307 117.066 46.0118C116.003 46.6451 116.385 47.1309 117.322 47.3608C120.228 48.0722 120.627 50.2932 121.017 52.8005C121.204 53.9934 122.349 55.0606 123.139 56.1233C123.559 56.6916 124.219 57.0863 124.375 57.8455C125.386 58.6827 125.455 57.5765 125.741 57.1254C126.192 56.4096 126.539 55.6765 127.416 56.6699C129.246 57.3336 130.409 55.9498 131.554 55.0736C134.803 52.5836 138.208 50.2932 141.228 47.504C142.75 46.0985 144.936 45.9857 146.849 45.3698C147.856 45.0444 148.303 45.5519 148.303 46.5974C148.303 50.4711 150.142 53.9978 150.459 57.8194C150.476 58.0277 150.528 58.3357 150.667 58.4137C154.445 60.5133 154.18 64.5345 155.226 67.931C155.456 68.6771 155.456 70.0175 156.701 68.5687C157.308 67.8616 157.807 68.1566 157.724 68.9721C157.486 71.3276 158.883 73.2059 159.499 75.3054C159.963 76.8931 159.568 77.4179 158.067 77.0362C157.46 76.8844 156.965 76.6154 156.605 77.2791C156.232 77.9732 156.961 78.0947 157.295 78.394C157.685 78.7453 158.054 79.1271 157.872 79.6823C157.677 80.2723 157.148 80.3157 156.614 80.2376C155.703 80.1031 155.122 80.5976 154.627 81.2656C154.367 81.9293 152.784 81.4912 153.326 82.8229C153.447 82.9444 153.569 83.0659 153.686 83.1873C154.523 83.7686 153.452 84.7837 154.189 85.3866H154.176C154.861 85.4994 155.521 85.6642 155.924 86.3062C157.052 87.6293 157.98 89.0304 157.69 90.9C157.1 92.2968 157.924 93.8541 157.191 95.2379L157.217 95.1989C156.185 96.0187 154.874 96.2573 153.751 96.8863C153.3 96.9123 152.84 96.9687 152.597 96.4525L152.623 96.4872C151.513 95.8062 151.699 94.648 151.591 93.3336C151.591 93.3162 151.222 93.6893 151.5 93.6069C151.591 93.5809 151.617 93.6416 151.586 93.7891C151.027 96.279 148.385 97.242 146.589 95.6066C146.268 95.316 146.004 94.9646 145.609 94.7651C145.552 94.7347 145.474 94.7391 145.227 94.7C145.7 96.882 147.357 98.192 148.533 99.8057C150.081 101.788 150.012 102.187 147.795 103.302C146.954 103.727 146.086 104.087 145.696 105.042C145.197 106.252 144.481 105.605 143.8 105.267C143.431 105.068 142.967 105.02 142.737 104.629C142.728 105.237 143.57 105.822 142.872 106.516C142.308 106.994 141.744 107.007 141.097 106.625C140.52 106.282 139.887 106.061 139.458 106.881C138.759 110.247 135.792 111.882 133.797 114.255C133.515 114.594 133.064 114.741 132.626 114.754C131.467 114.784 131.298 115.426 131.255 116.463C131.129 119.213 129.81 119.786 127.485 118.203C126.947 117.838 126.336 117.257 125.776 117.86C125.238 118.437 125.854 119.07 126.179 119.604C127.802 122.25 129.736 124.688 131.45 127.269C131.931 127.993 132.396 128.696 132.547 129.564C132.586 130.036 132.495 130.457 132.109 130.774C130.847 131.463 129.415 130.665 128.14 131.229C127.077 131.481 126.479 132.405 125.624 132.96C125.242 133.316 124.705 133.29 124.266 133.541C123.681 133.884 123.021 134.244 123.321 134.99C123.59 135.663 124.284 135.389 124.835 135.233L124.8 135.25C125.112 134.808 125.646 134.942 126.062 134.769C128.353 134.687 130.643 134.721 132.929 134.804C133.142 134.86 133.328 134.964 133.489 135.12C133.055 137.163 133.194 139.614 130.14 139.792C129.914 139.805 129.776 140.031 129.802 140.265C129.849 140.664 130.118 140.924 130.487 141.007C131.623 141.254 132.786 141.193 133.927 141.115C135.944 140.976 136.924 142.039 137.571 143.774C138.72 146.863 139.518 150.095 141.319 152.919C142 154.411 143.075 155.838 142.047 157.595C139.566 159.473 136.443 159.477 133.645 160.436C132.725 160.753 131.736 160.948 130.769 161.161H130.773Z"/>
</mask>
<path d="M130.773 161.161C130.118 161.443 129.446 161.685 128.813 162.006C127.26 162.792 125.798 162.935 124.479 161.555C122.991 160.623 121.677 159.447 119.79 159.152C118.805 159 117.59 158.137 118.245 156.827C118.905 155.504 120.067 156.124 121.048 156.667C121.174 156.736 121.286 156.831 121.408 156.909C122.236 157.439 123.156 158.402 124.041 157.322C124.835 156.359 123.49 155.734 123.238 154.927C122.336 152.029 120.336 152.207 118.085 152.849C117.699 153.04 117.335 151.604 116.931 152.845C115.604 154.007 114.298 155.244 112.316 154.125C112.298 154.754 112.693 155.009 112.953 155.33C113.522 156.025 114.033 156.727 113.535 157.673C113.031 158.619 112.103 158.584 111.205 158.874C107.752 159.989 105.145 157.816 102.399 156.654C100.564 155.877 98.9246 155.161 96.9422 155.513C95.9575 155.959 94.9685 156.406 93.9838 156.853C92.5176 157.131 91.06 157.469 89.5678 157.478C89.4333 157.499 89.3075 157.564 89.2381 157.669C90.8692 157.443 92.4091 157.799 93.9491 158.185C94.9164 159.686 95.7406 161.204 94.4523 162.939C94.1052 163.408 93.5456 164.093 93.0815 163.772C90.5005 161.976 87.9671 163.559 85.4555 163.807C76.2852 164.705 67.1454 165.845 58.0271 167.182C54.5091 167.698 51.3034 169.342 47.7464 169.65C44.5841 169.927 41.4261 170.287 38.2464 170.136C36.6111 170.058 34.9063 170.058 33.6266 168.739C33.4748 167.876 33.6266 167.03 33.8912 166.223C34.338 164.865 34.1428 163.703 33.1191 162.666C32.3469 161.881 32.1214 160.905 32.5508 159.885C33.015 158.783 34.0431 159.33 34.8325 159.252C36.5677 159.083 38.2421 159.543 39.9295 159.833C41.348 159.881 42.5626 161.512 44.1329 160.362C44.4539 159.994 44.8877 160.145 45.2825 160.111C45.5905 160.085 46.0373 160.241 46.072 159.746C46.098 159.36 45.6772 159.23 45.4126 159.031C43.2871 156.94 43.1352 156.844 39.756 156.506C38.4764 156.38 37.496 155.686 36.4679 155.057C35.0928 153.339 35.0928 152.819 36.9277 151.882C38.0686 151.301 37.4136 150.372 37.7042 149.648C37.9992 148.91 38.2595 148.156 36.9885 147.969C36.5981 147.913 36.0341 147.544 36.3421 146.872C36.6154 146.711 36.893 146.551 37.1663 146.39C37.3962 145.991 37.3919 145.592 37.1663 145.193C36.4376 145.384 35.5353 143.614 34.9453 145.388C34.6287 146.082 34.1732 145.852 33.709 145.57C31.9912 144.126 31.128 141.853 29.0502 140.76C25.055 138.391 20.5349 137.775 16.0843 137.207C13.59 136.886 11.664 135.671 9.53408 134.691C8.67952 134.296 7.94208 133.346 6.79688 133.854C6.51926 133.949 6.00305 134.418 6.01173 133.815C6.05944 130.804 4.27224 128.496 2.93184 126.115C0.307426 121.478 0.038478 116.559 0.372494 111.483C0.424549 110.711 0.615415 109.896 0.953769 109.202C2.86243 105.263 4.81881 101.346 6.8099 97.4502C7.12656 96.8299 7.69482 96.3354 8.14596 95.7802C8.84002 95.316 9.54709 95.3898 10.2585 95.7455H10.2498C10.74 95.8279 11.3647 96.3875 11.5382 95.3724C10.4841 95.1251 9.74664 94.5222 9.63385 93.4073C9.54709 92.5745 9.88111 91.8544 10.6316 91.4076C11.3473 90.9781 11.985 91.117 12.5793 91.6852C13.1389 92.2188 13.6854 92.9822 14.5834 92.6092C15.5637 92.2014 14.8436 91.3512 14.8914 90.7092C14.9738 89.6507 15.3121 89.0434 16.5137 89.4642C16.9041 89.5987 17.416 89.8329 17.6242 89.295C17.8671 88.6791 17.3032 88.3277 16.8738 88.1715C14.6614 87.3647 15.5854 86.3323 16.5918 85.2305C17.9973 83.6948 19.8756 82.6668 21.1119 80.9533C22.1486 80.4024 22.3915 81.3481 22.8513 81.8816C22.9945 81.8252 23.1376 81.7688 23.2808 81.7081C23.9749 79.8211 25.094 81.3047 26.0614 81.4565C25.7968 80.1768 22.4609 79.9383 24.9899 77.9168L25.0029 77.9038C26.4388 75.9865 28.1956 75.6351 30.5901 76.7022C31.1584 76.9538 31.8134 77.9992 32.4641 76.7542C32.759 75.852 33.4011 75.839 34.1472 76.0949C34.4725 76.173 34.8586 76.4593 35.1145 76.1773C35.3878 75.8737 34.9844 75.5613 34.8759 75.249C34.3857 73.926 34.7545 73.1755 36.251 73.1755C36.7933 73.1885 37.4223 73.4011 37.6001 72.5812C37.483 71.9826 37.1013 71.4273 37.3008 70.7853C36.88 71.2148 36.546 71.7657 35.9951 72.0954C35.5656 72.3643 35.1015 72.5639 34.6113 72.6983C34.017 72.8241 33.4358 73.0237 32.8154 72.976C32.5074 72.9022 32.2862 72.7244 32.1517 72.4424C31.8394 72.1127 32.5638 70.7376 31.1801 71.4967C30.3906 71.8525 29.6097 72.36 28.7942 71.5662C28.1262 70.9155 28.4819 70.2474 28.7508 69.5707C28.9287 69.1239 29.3191 68.5644 28.6337 68.2781C28.0047 68.0178 27.3757 67.6794 26.5863 68.0481C25.3977 68.6034 22.3785 67.5363 21.6931 66.4518C21.4589 66.0788 21.6367 65.8358 21.7756 65.4888C21.884 65.2155 22.8904 65.4888 22.1963 64.8642C21.9317 64.6256 21.4849 64.7167 21.3938 65.2068C21.255 65.9746 20.8516 66.1698 20.1662 65.8228C18.1361 64.1657 18.1534 61.6281 20.4352 59.9103C22.2007 58.5829 24.1917 57.5505 26.1091 56.4313C28.0741 55.2818 30.0522 54.1583 31.5358 52.3711C33.6743 49.6382 35.9647 47.0051 37.2054 43.6867C37.5133 40.468 39.3136 38.0301 41.2483 35.6009C42.2503 34.3429 43.1873 34.5381 44.467 34.9111C48.1064 35.9739 51.7372 35.8395 55.2466 34.3212C56.3007 33.8657 57.255 33.1933 57.9838 32.252C59.502 30.2913 59.5107 30.3 60.9812 32.4212C62.2652 33.3278 61.5235 35.3666 63.1979 36.3513C63.2196 34.3602 61.5322 33.2237 61.4584 31.5233C60.9639 29.35 61.5495 27.4674 62.7077 25.5891C64.6684 22.4094 65.9307 18.8437 68.078 15.7508C69.6049 13.5515 68.1474 11.3348 67.9088 9.13118C67.4317 8.28096 68.5421 7.1748 67.462 6.42435L67.475 6.45471C66.7723 4.98417 68.6332 4.79331 68.8198 3.76957C70.4899 2.9714 72.1426 2.12552 73.8387 1.38374C75.9946 0.438084 78.0421 0.923925 80.0288 1.99104C80.7186 2.35976 81.4517 2.64606 82.1631 2.9714C84.4014 3.84331 86.6007 4.76728 87.3772 7.37L87.3512 7.33964C88.0973 8.13781 88.6612 9.0531 89.1427 10.0291C90.1968 11.6471 91.9623 12.0115 93.6151 12.1373C96.9509 12.3933 98.7207 14.3149 99.8919 17.1693C100.59 18.874 100.92 20.6656 101.371 22.4311C102.503 23.2509 102.785 23.984 101.163 24.5306C100.1 24.7605 99.5059 25.1119 100.777 25.9665C102.325 26.8687 103.644 27.9532 103.917 29.8792C104.742 30.8986 102.551 30.994 103.245 31.623C104.351 32.6208 105.635 33.6098 107.023 34.0566C108.702 34.5988 109.44 36.0433 110.685 36.9673C110.741 37.0107 110.793 37.0627 110.845 37.1148C111.591 37.8479 109.5 37.9997 110.489 38.6547C110.971 38.9757 111.773 38.7805 112.303 39.0582C112.971 39.4095 112.988 40.0472 112.172 40.2597C111.583 40.4116 111.097 40.5113 110.832 41.4266C113.452 41.2922 114.931 43.3049 116.927 44.3417C117.773 44.7798 118.215 45.3307 117.066 46.0118C116.003 46.6451 116.385 47.1309 117.322 47.3608C120.228 48.0722 120.627 50.2932 121.017 52.8005C121.204 53.9934 122.349 55.0606 123.139 56.1233C123.559 56.6916 124.219 57.0863 124.375 57.8455C125.386 58.6827 125.455 57.5765 125.741 57.1254C126.192 56.4096 126.539 55.6765 127.416 56.6699C129.246 57.3336 130.409 55.9498 131.554 55.0736C134.803 52.5836 138.208 50.2932 141.228 47.504C142.75 46.0985 144.936 45.9857 146.849 45.3698C147.856 45.0444 148.303 45.5519 148.303 46.5974C148.303 50.4711 150.142 53.9978 150.459 57.8194C150.476 58.0277 150.528 58.3357 150.667 58.4137C154.445 60.5133 154.18 64.5345 155.226 67.931C155.456 68.6771 155.456 70.0175 156.701 68.5687C157.308 67.8616 157.807 68.1566 157.724 68.9721C157.486 71.3276 158.883 73.2059 159.499 75.3054C159.963 76.8931 159.568 77.4179 158.067 77.0362C157.46 76.8844 156.965 76.6154 156.605 77.2791C156.232 77.9732 156.961 78.0947 157.295 78.394C157.685 78.7453 158.054 79.1271 157.872 79.6823C157.677 80.2723 157.148 80.3157 156.614 80.2376C155.703 80.1031 155.122 80.5976 154.627 81.2656C154.367 81.9293 152.784 81.4912 153.326 82.8229C153.447 82.9444 153.569 83.0659 153.686 83.1873C154.523 83.7686 153.452 84.7837 154.189 85.3866H154.176C154.861 85.4994 155.521 85.6642 155.924 86.3062C157.052 87.6293 157.98 89.0304 157.69 90.9C157.1 92.2968 157.924 93.8541 157.191 95.2379L157.217 95.1989C156.185 96.0187 154.874 96.2573 153.751 96.8863C153.3 96.9123 152.84 96.9687 152.597 96.4525L152.623 96.4872C151.513 95.8062 151.699 94.648 151.591 93.3336C151.591 93.3162 151.222 93.6893 151.5 93.6069C151.591 93.5809 151.617 93.6416 151.586 93.7891C151.027 96.279 148.385 97.242 146.589 95.6066C146.268 95.316 146.004 94.9646 145.609 94.7651C145.552 94.7347 145.474 94.7391 145.227 94.7C145.7 96.882 147.357 98.192 148.533 99.8057C150.081 101.788 150.012 102.187 147.795 103.302C146.954 103.727 146.086 104.087 145.696 105.042C145.197 106.252 144.481 105.605 143.8 105.267C143.431 105.068 142.967 105.02 142.737 104.629C142.728 105.237 143.57 105.822 142.872 106.516C142.308 106.994 141.744 107.007 141.097 106.625C140.52 106.282 139.887 106.061 139.458 106.881C138.759 110.247 135.792 111.882 133.797 114.255C133.515 114.594 133.064 114.741 132.626 114.754C131.467 114.784 131.298 115.426 131.255 116.463C131.129 119.213 129.81 119.786 127.485 118.203C126.947 117.838 126.336 117.257 125.776 117.86C125.238 118.437 125.854 119.07 126.179 119.604C127.802 122.25 129.736 124.688 131.45 127.269C131.931 127.993 132.396 128.696 132.547 129.564C132.586 130.036 132.495 130.457 132.109 130.774C130.847 131.463 129.415 130.665 128.14 131.229C127.077 131.481 126.479 132.405 125.624 132.96C125.242 133.316 124.705 133.29 124.266 133.541C123.681 133.884 123.021 134.244 123.321 134.99C123.59 135.663 124.284 135.389 124.835 135.233L124.8 135.25C125.112 134.808 125.646 134.942 126.062 134.769C128.353 134.687 130.643 134.721 132.929 134.804C133.142 134.86 133.328 134.964 133.489 135.12C133.055 137.163 133.194 139.614 130.14 139.792C129.914 139.805 129.776 140.031 129.802 140.265C129.849 140.664 130.118 140.924 130.487 141.007C131.623 141.254 132.786 141.193 133.927 141.115C135.944 140.976 136.924 142.039 137.571 143.774C138.72 146.863 139.518 150.095 141.319 152.919C142 154.411 143.075 155.838 142.047 157.595C139.566 159.473 136.443 159.477 133.645 160.436C132.725 160.753 131.736 160.948 130.769 161.161H130.773Z" stroke="white" stroke-width="6" mask="url(#path-2-inside-1_5912_124)"/>
<path d="M168.508 116.538C168.463 116.47 168.42 116.406 168.379 116.344C167.975 115.736 167.74 115.383 167.454 115.152C167.334 115.055 167.246 115.019 167.166 115.003C167.16 115.002 167.153 115.001 167.146 114.999C167.054 115.122 166.929 115.258 166.764 115.38C166.377 115.663 165.913 115.763 165.464 115.695L165.454 115.693L165.444 115.692C165.094 115.634 164.671 115.467 164.345 115.079C164.035 114.708 163.957 114.306 163.938 114.06C163.919 113.823 163.947 113.617 163.96 113.525C163.965 113.489 163.972 113.444 163.976 113.419C163.977 113.411 163.978 113.406 163.978 113.402C163.981 113.382 163.982 113.374 163.982 113.372L163.983 113.372L163.999 113.202L164.055 113.038C164.075 112.98 164.096 112.922 164.117 112.867C163.19 113.167 162.195 113.2 161.065 112.885L168.508 116.538ZM168.508 116.538C168.455 116.544 168.399 116.549 168.34 116.555C168.261 116.563 168.181 116.57 168.095 116.577C168.012 116.585 167.922 116.593 167.834 116.601L167.832 116.601C164.151 116.962 160.582 117.817 157.169 119.395M168.508 116.538L157.169 119.395M157.169 119.395C156.779 119.575 156.324 119.789 155.867 120.078C155.974 119.812 156.037 119.533 156.058 119.249C156.105 118.63 155.945 118.07 155.818 117.691L155.756 117.506L155.65 117.344C155.546 117.186 155.382 116.941 155.162 116.705L155.066 116.602L154.953 116.519C154.915 116.492 154.876 116.465 154.838 116.44L155.507 115.995C155.782 115.969 156.035 115.893 156.244 115.801C156.709 115.596 157.117 115.259 157.462 114.92L157.495 114.887L157.526 114.852C157.634 114.732 157.739 114.604 157.819 114.507C157.834 114.488 157.849 114.47 157.862 114.454C157.881 114.431 157.899 114.409 157.916 114.389L158.594 113.937L158.62 113.92L158.123 112.819L159.173 113.198C159.282 112.896 159.39 112.783 159.433 112.746C159.47 112.713 159.519 112.684 159.624 112.666C159.918 112.616 160.36 112.689 161.065 112.885L157.169 119.395ZM167.469 114.399C167.469 114.4 167.467 114.403 167.464 114.409C167.467 114.402 167.469 114.399 167.469 114.399ZM166.929 113.96C166.929 113.96 166.929 113.957 166.929 113.952C166.929 113.957 166.929 113.96 166.929 113.96ZM154.983 115.976L154.819 116.428C154.405 116.162 153.965 116.034 153.751 115.972C153.726 115.965 153.705 115.959 153.686 115.953C153.647 115.941 153.614 115.931 153.586 115.922C153.525 115.772 153.534 115.703 153.535 115.697C153.536 115.689 153.539 115.663 153.572 115.611C153.607 115.555 153.681 115.461 153.829 115.338C153.837 115.331 153.845 115.325 153.852 115.319C153.876 115.344 153.905 115.374 153.936 115.411L154.097 115.6L154.311 115.727C154.535 115.86 154.762 115.938 154.983 115.976Z" stroke="white" stroke-width="3"/>
<path d="M140.905 123.613C140.905 123.614 140.904 123.609 140.905 123.599C140.906 123.608 140.906 123.613 140.905 123.613ZM141.186 122.744C141.289 122.435 141.388 122.132 141.485 121.836C142.158 119.774 142.737 117.999 143.951 116.492C144.646 116.176 145.26 115.722 145.767 115.126C146.126 114.876 146.493 114.602 146.836 114.347C147.047 114.191 147.248 114.041 147.433 113.907C148.013 113.487 148.549 113.135 149.108 112.868C149.338 112.758 149.523 112.68 149.681 112.63C149.839 112.58 149.932 112.57 149.98 112.569C150.014 112.569 150.022 112.574 150.026 112.576C150.027 112.576 150.027 112.576 150.027 112.576C150.034 112.579 150.074 112.6 150.142 112.671C150.148 112.682 150.155 112.693 150.161 112.703C150.359 113.043 150.489 113.265 150.578 113.493C150.664 113.715 150.653 113.806 150.642 113.852L150.642 113.852C150.393 114.902 150.312 115.937 150.259 116.878C150.247 117.085 150.237 117.285 150.227 117.481C150.198 118.046 150.171 118.57 150.12 119.087L149.936 119.17L149.855 119.252C148.542 120.078 147.072 120.626 145.444 121.179C145.235 121.25 145.023 121.321 144.808 121.394C143.644 121.785 142.399 122.203 141.186 122.744Z" stroke="white" stroke-width="3"/>
<path d="M159.198 107.291C160.78 104.844 163.219 103.351 166.152 102.36C166.699 102.175 167.104 102.219 167.414 102.351C167.74 102.491 168.099 102.79 168.418 103.34L168.419 103.341C168.539 103.547 168.551 103.659 168.553 103.699C168.554 103.737 168.549 103.796 168.498 103.901C168.361 104.185 168.065 104.498 167.51 105.039L167.51 105.039L167.503 105.046C167.177 105.368 166.849 105.805 166.628 106.098C166.559 106.19 166.501 106.267 166.456 106.323L166.364 106.439L166.296 106.57C165.856 107.421 165.468 107.922 165.074 108.189C164.754 108.406 164.293 108.564 163.428 108.381L163.428 108.381C162.249 108.131 160.889 108.095 159.57 108.453C159.172 108.414 158.911 108.347 158.755 108.282C158.745 108.278 158.736 108.274 158.727 108.27C158.728 108.266 158.729 108.262 158.73 108.258C158.773 108.07 158.9 107.754 159.198 107.291L159.198 107.291ZM158.632 108.217C158.632 108.217 158.633 108.218 158.635 108.22C158.633 108.218 158.632 108.217 158.632 108.217ZM158.713 108.373C158.713 108.376 158.713 108.377 158.713 108.377L158.713 108.373Z" stroke="white" stroke-width="3"/>
<path d="M148.976 150.336C148.784 150.403 148.592 150.47 148.4 150.537C147.982 150.682 147.564 150.828 147.142 150.976C147.056 150.789 146.947 150.595 146.805 150.408L146.805 150.408L146.803 150.405C146.573 150.105 146.433 149.876 146.356 149.706C146.335 149.659 146.321 149.621 146.312 149.593C146.383 149.528 146.536 149.415 146.833 149.276L148.976 150.336ZM148.976 150.336L150.431 148.88C149.847 148.555 149.161 148.279 148.377 147.985C148.316 148.044 148.25 148.113 148.162 148.207C148.152 148.217 148.143 148.227 148.133 148.238C148.054 148.322 147.955 148.426 147.854 148.527C147.633 148.747 147.291 149.062 146.833 149.276L148.976 150.336ZM150.941 149.196C151.385 149.505 151.755 149.865 152.05 150.317C152.576 151.13 152.805 151.754 152.826 152.269C152.843 152.725 152.705 153.278 152.082 153.997L152.082 153.997C151.115 155.115 150.269 156.436 149.498 157.641C149.345 157.879 149.196 158.112 149.049 158.339C148.577 157.775 148.415 157.368 148.366 157.099C148.318 156.84 148.352 156.589 148.49 156.284C148.641 155.952 148.904 155.582 149.294 155.135C149.542 154.852 149.776 154.607 150.031 154.339C150.211 154.15 150.402 153.95 150.616 153.717L150.618 153.715C150.816 153.498 151.077 153.175 151.254 152.756L151.254 152.756L151.257 152.749C151.379 152.457 151.391 152.191 151.383 152.017C151.376 151.855 151.348 151.718 151.335 151.657C151.318 151.579 151.308 151.538 151.301 151.509C151.292 151.472 151.288 151.455 151.281 151.406L150.941 149.196ZM148.684 146.498L148.684 146.499L148.684 146.498Z" stroke="white" stroke-width="3"/>
<path d="M172.04 128.984C172.204 129.011 172.358 129.014 172.501 129M172.04 128.984C172.039 128.984 172.039 128.984 172.038 128.984L172.277 127.503L172.041 128.984C172.041 128.984 172.04 128.984 172.04 128.984ZM172.04 128.984C171.145 128.842 170.52 129.045 169.954 129.433C169.315 129.872 168.743 130.55 168.04 131.447L168.035 131.453L168.035 131.453C167.641 131.952 167.148 132.243 166.852 132.41M172.501 129L166.022 131.156M172.501 129C172.251 129.891 172.239 130.752 172.23 131.427C172.218 132.391 172.207 133.016 172.039 133.526M172.501 129L168.236 135.86M166.852 132.41C166.886 132.384 166.919 132.358 166.95 132.334L166.022 131.156M166.852 132.41C166.835 132.42 166.818 132.429 166.802 132.438C166.787 132.446 166.772 132.455 166.758 132.463L166.022 131.156M166.852 132.41C166.694 132.53 166.509 132.664 166.354 132.776C166.261 132.843 166.179 132.902 166.121 132.945C165.881 133.124 165.742 133.247 165.656 133.349C165.586 133.432 165.58 133.466 165.58 133.47C165.58 133.47 165.58 133.471 165.58 133.471L165.58 133.471C165.579 133.472 165.578 133.48 165.577 133.493M166.022 131.156C165.865 131.279 165.7 131.398 165.535 131.516C164.623 132.172 163.711 132.827 164.226 134.301M165.577 133.493C165.466 133.401 165.359 133.307 165.252 133.207L164.226 134.301M165.577 133.493C165.77 133.654 165.974 133.81 166.204 133.986C166.332 134.085 166.469 134.19 166.616 134.304C167.129 134.706 167.724 135.202 168.236 135.86M165.577 133.493C165.575 133.534 165.581 133.63 165.642 133.806L164.226 134.301M164.226 134.301C164.576 134.629 164.956 134.92 165.335 135.211C165.953 135.684 166.571 136.158 167.063 136.795L168.236 135.86M168.236 135.86C168.23 135.866 168.225 135.872 168.219 135.878C168.16 135.939 168.126 135.956 168.126 135.956C168.126 135.956 168.126 135.956 168.127 135.956C168.13 135.954 168.141 135.95 168.161 135.946C168.162 135.946 168.162 135.946 168.163 135.945C168.164 135.945 168.164 135.945 168.165 135.945C168.184 135.942 168.207 135.94 168.232 135.941C168.255 135.942 168.277 135.946 168.295 135.951L169.306 136.912L168.236 135.86ZM168.236 135.86C169.35 134.698 170.793 134.069 171.906 133.584C171.951 133.565 171.995 133.545 172.039 133.526M172.039 133.526C171.993 133.664 171.936 133.794 171.864 133.92L173.166 134.665L172.534 133.305C172.38 133.376 172.214 133.449 172.039 133.526Z" stroke="white" stroke-width="3"/>
<path d="M155.332 138.233C155.575 138.178 155.808 138.16 156.037 138.18L157.525 138.812C157.865 138.957 158.207 139.103 158.548 139.248C159.715 139.746 160.888 140.246 162.064 140.734C162.086 140.743 162.106 140.752 162.126 140.761C161.94 141.074 161.641 141.321 161.159 141.589C160.901 141.733 160.638 141.857 160.328 142.005C160.236 142.048 160.14 142.094 160.039 142.142C159.66 142.324 159.221 142.543 158.796 142.82C158.739 142.779 158.666 142.718 158.576 142.631C158.438 142.499 158.295 142.339 158.135 142.151C158.115 142.128 158.086 142.092 158.05 142.047C157.918 141.886 157.694 141.61 157.492 141.41C157.189 141.111 156.766 140.784 156.177 140.608C155.843 140.482 155.508 140.308 155.09 140.084C155.062 140.069 155.034 140.054 155.006 140.039C154.611 139.827 154.132 139.571 153.617 139.366L153.617 139.366L153.613 139.364C153.577 139.35 153.545 139.336 153.516 139.323C153.529 139.318 153.545 139.313 153.562 139.307C153.608 139.291 153.664 139.271 153.712 139.254C153.788 139.226 153.878 139.192 153.974 139.151L154.119 139.09L154.248 138.999C154.468 138.845 154.687 138.69 154.902 138.538L154.904 138.537C155.048 138.434 155.19 138.334 155.332 138.233ZM153.335 139.277L152.575 138.828L153.503 139.16C153.49 139.197 153.467 139.241 153.435 139.285C153.377 139.255 153.336 139.23 153.308 139.209C153.287 139.194 153.278 139.186 153.278 139.186C153.278 139.186 153.295 139.202 153.315 139.238C153.322 139.25 153.329 139.263 153.335 139.277Z" stroke="white" stroke-width="3"/>
<path d="M160.047 131.527C159.857 130.896 159.468 130.389 158.929 130.056C158.655 129.522 158.663 129.228 158.705 129.056C158.753 128.862 158.909 128.555 159.385 128.126L159.454 128.185L159.61 128.266C160.079 128.509 160.624 128.714 161.202 128.709C161.875 128.704 162.461 128.412 162.86 127.913C163.196 127.492 163.328 127.012 163.392 126.695C163.398 126.666 163.404 126.637 163.409 126.608C163.562 126.588 163.75 126.593 163.998 126.624C164.74 128.094 164.255 129.627 162.97 130.368L162.932 130.39L162.896 130.414C162.86 130.437 162.821 130.462 162.78 130.489C162.385 130.746 161.788 131.134 161.335 131.652C161.024 132.006 160.775 132.42 160.627 132.899C160.564 132.681 160.489 132.484 160.414 132.31C160.335 132.126 160.251 131.953 160.184 131.813L160.18 131.807C160.129 131.7 160.085 131.611 160.047 131.527Z" stroke="white" stroke-width="3"/>
<path d="M175.376 107.337C175.413 107.32 175.446 107.308 175.473 107.301L175.488 107.327C175.566 107.46 175.607 107.559 175.626 107.624C175.628 107.628 175.629 107.632 175.63 107.636C175.617 107.649 175.599 107.664 175.577 107.682C173.976 108.931 172.961 110.514 172.285 112.22C171.958 111.693 171.592 111.235 171.248 110.832C171.062 110.614 170.89 110.419 170.73 110.237C170.612 110.104 170.499 109.976 170.392 109.851C171.677 109.093 173.029 108.452 174.45 107.778C174.755 107.633 175.064 107.487 175.376 107.337ZM169.813 110.21C169.811 110.212 169.81 110.213 169.81 110.213C169.81 110.213 169.811 110.212 169.813 110.21Z" stroke="white" stroke-width="3"/>
<path d="M168.087 127.77C168.278 127.3 168.411 126.828 168.506 126.364C168.656 126.616 168.829 126.879 169.031 127.133C168.696 127.322 168.382 127.536 168.087 127.77Z" stroke="white" stroke-width="3"/>
</svg>
