<svg width="120" height="195" viewBox="0 0 120 195" fill="none" xmlns="http://www.w3.org/2000/svg">
<mask id="path-1-outside-1_5076_7054" maskUnits="userSpaceOnUse" x="0.268372" y="0.285645" width="120" height="195" fill="black">
<rect fill="white" x="0.268372" y="0.285645" width="120" height="195"/>
<path d="M74.7126 184.835C76.2813 184.835 77.792 185.167 78.2153 187.541C78.456 188.882 78.8835 190.177 79.2943 191.426C79.4396 191.866 79.5807 192.293 79.7094 192.708C79.7218 192.75 79.7633 192.771 79.8048 192.766C80.1617 192.708 80.4979 192.646 80.8216 192.588C81.6766 192.434 82.4153 192.302 83.1789 192.256C84.5734 192.173 85.9927 192.194 87.3664 192.214H87.7441C88.3832 192.231 88.848 192.09 89.1178 191.804C89.3668 191.542 89.4706 191.14 89.4332 190.604C89.3544 189.417 89.2423 188.234 89.1261 186.981C89.0763 186.433 89.0223 185.869 88.9725 185.292L88.9559 185.08L89.1676 185.064C89.317 185.051 89.483 185.035 89.6615 185.018C90.0972 184.972 90.6451 184.918 91.1804 184.927L91.8237 184.939C98.0406 185.051 104.473 185.167 110.794 185.338C111.516 185.358 111.944 185.25 112.18 184.997C112.409 184.752 112.487 184.329 112.421 183.665C112.255 181.988 112.272 180.27 112.288 178.61V178.473C112.301 177.083 112.359 175.672 112.409 174.311C112.433 173.709 112.454 173.107 112.475 172.501V172.319L113.446 172.231L113.512 172.352C113.712 172.713 113.89 173.111 114.06 173.493C114.425 174.319 114.807 175.17 115.422 175.651C115.92 176.037 116.272 176.178 116.546 176.087C116.974 175.946 117.347 175.219 117.791 173.667C117.804 173.63 117.783 173.588 117.75 173.568C116.405 172.829 115.604 171.928 115.359 170.883C115.11 169.795 115.463 168.529 116.418 167.123C116.455 167.069 116.418 166.994 116.355 166.99L113.239 166.84V166.641L114.791 25.797C114.791 25.7514 114.757 25.714 114.712 25.7099L102.133 25.1247C102.075 25.1247 102.037 25.0624 102.058 25.0085L105.196 17.4427H105.332C105.602 17.4427 105.884 17.4427 106.179 17.4427C106.88 17.4427 107.64 17.4344 108.399 17.451C109.039 17.4635 109.445 17.3431 109.615 17.0983C109.79 16.8451 109.761 16.401 109.524 15.7453C109.512 15.708 109.466 15.6831 109.429 15.6872C108.034 15.9196 107.076 15.7785 106.436 15.239C105.814 14.7161 105.519 13.8446 105.532 12.5746C105.54 11.9479 105.249 11.3047 104.913 10.5618C104.789 10.2837 104.66 10.0015 104.54 9.70684C104.523 9.66119 104.469 9.64044 104.424 9.66119C104.071 9.84794 103.714 10.0347 103.357 10.2173C102.378 10.7236 101.361 11.2507 100.419 11.84C98.1817 13.2386 95.8369 13.8113 93.0438 13.6453C86.3538 13.2428 80.2157 12.9938 74.2768 12.8859C67.6822 12.7655 60.9714 12.8112 54.4847 12.8568H53.6464C51.7746 12.8776 49.9029 12.8817 48.0312 12.89C41.1295 12.9191 33.9912 12.9481 26.9857 13.2552C23.4622 13.4129 22.1674 11.6533 20.8476 9.33747C19.8723 7.62346 18.6439 6.0464 17.3449 4.37803C16.8261 3.714 16.2949 3.02923 15.7637 2.31955C15.7346 2.27805 15.6724 2.2739 15.635 2.31125L12.9914 4.92585C9.32676 8.54894 5.86137 11.977 2.44994 15.459C2.19263 15.7204 2.21338 16.7663 2.48314 17.1564C4.93174 20.7172 4.94834 24.7885 4.96909 28.7229C4.96909 29.0756 4.96909 29.4243 4.97739 29.777C5.02719 34.9938 5.08114 40.3931 8.91174 44.8255C9.85798 45.9212 10.8748 46.9919 11.8542 48.0253C12.5514 48.7599 13.2736 49.5194 13.9625 50.283C14.1119 50.449 14.6058 51.0383 14.639 51.6816C14.6846 52.578 14.7925 53.5118 14.8921 54.4124C15.137 56.6161 15.3943 58.8987 14.8631 60.9572C13.037 68.054 12.3273 75.6529 12.6261 84.8746C12.6676 86.1736 12.6552 87.4975 12.6469 88.7757C12.6427 89.3817 12.6344 89.9834 12.6344 90.5935V90.6433L12.6137 90.689C12.5763 90.7595 12.5182 90.8467 12.4518 90.9463C12.3024 91.1662 12.1198 91.436 12.1157 91.685C12.1074 92.1789 12.1613 92.6894 12.2111 93.1791C12.2734 93.7725 12.3356 94.3868 12.2983 94.9927C12.1157 97.7028 12.9416 99.9023 14.8299 101.724C15.9712 102.828 17.1166 103.924 18.2621 105.024C19.9429 106.638 21.6237 108.248 23.2921 109.871C23.5411 110.116 23.732 110.411 23.9146 110.697C24.0308 110.88 24.1387 111.05 24.2632 111.207C24.7031 111.772 25.1472 112.328 25.5954 112.884C26.5582 114.088 27.5543 115.328 28.4466 116.615C29.0608 117.495 29.3471 118.64 29.5339 119.541C29.5962 119.844 29.206 120.251 29.0359 120.412C28.7246 120.703 28.4756 120.827 28.293 120.778C27.3592 120.524 26.4794 120.018 25.8154 119.603C25.7075 119.537 25.6161 119.45 25.529 119.354C26.1308 121.01 27.3592 121.811 29.3264 121.853C32.2398 121.915 34.1821 123.135 35.0951 125.484C35.8712 127.48 37.4649 128.431 39.1498 129.435L39.5192 129.655C40.7559 130.398 41.9844 131.236 42.6152 132.348C42.7937 132.66 42.9721 132.971 43.1547 133.282C44.7152 135.98 46.3338 138.769 45.8814 142.284C45.8108 142.819 45.927 143.209 46.201 143.388C46.5413 143.604 47.1098 143.504 47.7241 143.118C47.9191 142.993 48.1183 142.865 48.3175 142.736C49.1683 142.176 50.0482 141.599 51.011 141.387C51.9738 141.176 53.3185 141.47 54.0697 142.056C55.0782 142.844 53.3683 146.218 53.3517 146.251C52.9699 146.978 52.8371 148.086 52.9906 149.285C53.0902 150.053 53.4596 150.812 53.8207 151.547C53.912 151.734 54.0033 151.92 54.0904 152.111C54.1942 152.136 54.4764 152.132 54.6299 152.074C55.6882 151.671 56.7548 151.236 57.9916 150.734L59.0997 150.285C58.9669 150.194 58.8424 150.111 58.7261 150.032C58.336 149.771 58.0248 149.563 57.7924 149.277C56.8212 148.073 56.2817 146.226 56.5183 144.882C56.6303 144.243 56.9125 143.774 57.3317 143.516C58.8465 142.599 60.6684 142.051 62.2164 142.047H62.2247C63.9346 142.047 65.188 143.213 65.8478 145.421C66.1466 146.426 66.7816 147.359 67.3958 148.268C67.649 148.642 67.9105 149.028 68.1512 149.422L68.5952 149.381C66.2877 146.314 68.1138 144.761 69.8859 143.259C70.1889 143.002 70.5002 142.736 70.7865 142.466C72.2557 141.089 73.7082 140.939 75.5053 141.989L76.2149 142.404C77.9082 143.396 79.6637 144.425 81.4773 145.214C82.3281 145.583 83.5275 145.446 84.37 145.193C85.0963 144.977 85.7603 144.608 86.47 144.222C86.9224 143.973 87.3913 143.716 87.8727 143.504C88.2463 143.342 88.8148 143.587 89.1053 143.794C89.3917 143.994 89.1053 144.761 88.9601 144.969C87.2544 147.418 82.9424 148.302 80.2572 146.749L79.4936 146.305C77.6426 145.23 75.7252 144.114 73.7248 143.363C72.8865 143.047 71.7286 143.421 70.7782 144.322C69.8776 145.172 69.446 146.206 69.6826 146.953C70.0312 148.073 70.3342 149.09 70.467 150.148C70.5334 150.667 70.5002 151.842 69.9772 152.169C69.4751 152.485 68.5371 152.248 67.8856 151.95C67.2174 151.642 66.6115 151.132 66.2628 150.576C65.6735 149.634 65.1215 148.654 64.5862 147.704C64.1006 146.841 63.5984 145.948 63.0714 145.089C62.785 144.624 62.1583 144.263 61.3906 144.126C60.5149 143.969 59.6475 144.118 59.1204 144.525C58.224 145.218 58.2157 146.094 59.0914 147.359C59.3445 147.729 59.7097 148.023 60.0916 148.339C60.3364 148.538 60.5896 148.741 60.8137 148.97C61.2204 149.381 61.6022 149.825 61.9674 150.252C62.1293 150.439 62.2911 150.626 62.453 150.812L62.6024 150.983L62.4198 151.119C62.2123 151.273 62.0089 151.447 61.8056 151.618C61.3449 152.008 60.8676 152.414 60.3074 152.63C59.386 152.987 58.4149 153.257 57.477 153.518C56.8669 153.688 56.236 153.863 55.626 154.062C54.4515 154.44 53.5384 154.435 52.8246 154.045C52.0942 153.647 51.5796 152.846 51.2476 151.597L51.1936 151.393C50.6292 149.269 50.0482 147.069 51.4136 144.873C51.5796 144.608 51.6045 144.23 51.6335 143.832C51.646 143.67 51.6584 143.508 51.6792 143.35L51.3928 143.043C51.1231 143.205 50.8616 143.375 50.596 143.545C49.878 144.01 49.1351 144.488 48.3258 144.774C47.2717 145.143 46.0225 145.276 44.8978 145.131C44.35 145.06 43.881 143.687 43.8852 143.043C43.8852 142.72 43.9018 142.392 43.9142 142.064C44.0014 140.109 44.0719 138.424 41.5611 137.885L41.3204 137.835L41.4117 137.607C42.0923 135.872 41.8267 133.934 40.6895 132.419C39.6728 131.058 38.1704 130.286 36.5767 130.269C36.5103 130.269 36.4688 130.34 36.502 130.398L47.4585 151.215C47.4792 151.256 47.4668 151.302 47.4253 151.327L46.3255 151.987L46.2176 151.821C46.0267 151.535 45.8316 151.252 45.6324 150.97C45.1966 150.356 44.7484 149.717 44.4081 149.028C43.8395 147.87 43.3 146.675 42.7812 145.517C41.8889 143.525 40.9635 141.466 39.8512 139.565C37.8716 136.175 35.6844 132.83 33.5637 129.593C32.7752 128.385 31.9867 127.177 31.2023 125.965C30.1564 124.343 27.3426 123.301 25.1306 123.521C25.031 123.529 25.0268 123.67 25.1223 123.691C26.9359 124.077 28.5794 124.641 30.0444 125.957C31.6048 127.36 31.2023 128.92 30.8454 130.298C30.6503 131.053 30.4635 131.771 30.559 132.46C30.5631 132.506 30.6088 132.539 30.6503 132.535L33.7339 132.328C33.7754 132.328 33.8086 132.348 33.821 132.39L34.0202 133.07C34.0285 133.104 34.0202 133.137 33.9953 133.158L33.0864 133.925C33.0325 133.971 33.0532 134.054 33.1196 134.071L34.7631 134.502L34.5432 134.755C34.4103 134.909 34.2775 135.063 34.1489 135.22C33.8376 135.59 33.5181 135.971 33.1611 136.308C32.9204 136.54 32.6299 136.71 32.3477 136.872C32.2855 136.909 32.2232 136.947 32.161 136.984L37.3487 146.04C37.3611 146.065 37.386 146.081 37.4151 146.081L40.7435 146.351L40.2579 146.754C38.6698 148.068 38.0556 149.116 38.4152 149.899C39.0378 151.252 39.7184 152.601 40.3741 153.908C40.6273 154.406 40.8763 154.904 41.1253 155.402C41.1419 155.436 41.1751 155.452 41.2083 155.448L44.7567 155.083C44.7982 155.079 44.8397 155.108 44.848 155.149L45.0763 156.133C45.0846 156.17 45.068 156.208 45.0348 156.224L43.466 157.121C43.8935 157.029 44.3085 156.913 44.7193 156.801C45.2506 156.656 45.8025 156.502 46.3545 156.407C47.0393 156.286 48.2677 156.44 48.6994 157.029C49.4671 158.071 50.1395 159.366 50.7578 160.98C51.7456 163.562 52.7209 166.351 53.8373 169.758L53.9618 170.136C54.3021 171.148 54.688 172.298 54.4473 173.261C54.2772 173.929 53.6339 174.431 52.9533 174.958C52.9408 174.97 52.9242 174.979 52.9118 174.991C53.277 174.875 53.6297 174.792 53.9908 174.804C54.4556 174.821 54.8956 175.033 55.3189 175.236C55.4973 175.319 55.6758 175.406 55.8542 175.473L56.0866 175.564L55.958 175.776C55.8584 175.942 55.7588 176.149 55.6675 176.357C55.4268 176.88 55.1985 177.373 54.7959 177.465C54.1983 177.602 53.8207 177.809 53.6381 178.104C53.389 178.511 53.5218 179.054 53.6671 179.631C53.7626 180.025 53.8663 180.432 53.8331 180.806C53.7335 181.943 54.3892 182.291 55.7173 182.561C58.1825 183.067 60.2327 182.213 62.3949 181.312C63.0797 181.026 63.7893 180.731 64.5032 180.486C65.0759 180.291 65.6694 180.121 66.2421 179.959C66.5077 179.884 66.7733 179.81 67.0348 179.731L67.234 179.673L67.595 180.86C67.6075 180.905 67.5826 180.951 67.5411 180.963L56.5805 184.595C56.4892 184.624 56.51 184.761 56.6054 184.761C58.0414 184.769 59.4773 184.777 60.9133 184.786C65.4287 184.811 70.0934 184.84 74.6835 184.831H74.7043L74.7126 184.835Z"/>
</mask>
<path d="M74.7126 184.835C76.2813 184.835 77.792 185.167 78.2153 187.541C78.456 188.882 78.8835 190.177 79.2943 191.426C79.4396 191.866 79.5807 192.293 79.7094 192.708C79.7218 192.75 79.7633 192.771 79.8048 192.766C80.1617 192.708 80.4979 192.646 80.8216 192.588C81.6766 192.434 82.4153 192.302 83.1789 192.256C84.5734 192.173 85.9927 192.194 87.3664 192.214H87.7441C88.3832 192.231 88.848 192.09 89.1178 191.804C89.3668 191.542 89.4706 191.14 89.4332 190.604C89.3544 189.417 89.2423 188.234 89.1261 186.981C89.0763 186.433 89.0223 185.869 88.9725 185.292L88.9559 185.08L89.1676 185.064C89.317 185.051 89.483 185.035 89.6615 185.018C90.0972 184.972 90.6451 184.918 91.1804 184.927L91.8237 184.939C98.0406 185.051 104.473 185.167 110.794 185.338C111.516 185.358 111.944 185.25 112.18 184.997C112.409 184.752 112.487 184.329 112.421 183.665C112.255 181.988 112.272 180.27 112.288 178.61V178.473C112.301 177.083 112.359 175.672 112.409 174.311C112.433 173.709 112.454 173.107 112.475 172.501V172.319L113.446 172.231L113.512 172.352C113.712 172.713 113.89 173.111 114.06 173.493C114.425 174.319 114.807 175.17 115.422 175.651C115.92 176.037 116.272 176.178 116.546 176.087C116.974 175.946 117.347 175.219 117.791 173.667C117.804 173.63 117.783 173.588 117.75 173.568C116.405 172.829 115.604 171.928 115.359 170.883C115.11 169.795 115.463 168.529 116.418 167.123C116.455 167.069 116.418 166.994 116.355 166.99L113.239 166.84V166.641L114.791 25.797C114.791 25.7514 114.757 25.714 114.712 25.7099L102.133 25.1247C102.075 25.1247 102.037 25.0624 102.058 25.0085L105.196 17.4427H105.332C105.602 17.4427 105.884 17.4427 106.179 17.4427C106.88 17.4427 107.64 17.4344 108.399 17.451C109.039 17.4635 109.445 17.3431 109.615 17.0983C109.79 16.8451 109.761 16.401 109.524 15.7453C109.512 15.708 109.466 15.6831 109.429 15.6872C108.034 15.9196 107.076 15.7785 106.436 15.239C105.814 14.7161 105.519 13.8446 105.532 12.5746C105.54 11.9479 105.249 11.3047 104.913 10.5618C104.789 10.2837 104.66 10.0015 104.54 9.70684C104.523 9.66119 104.469 9.64044 104.424 9.66119C104.071 9.84794 103.714 10.0347 103.357 10.2173C102.378 10.7236 101.361 11.2507 100.419 11.84C98.1817 13.2386 95.8369 13.8113 93.0438 13.6453C86.3538 13.2428 80.2157 12.9938 74.2768 12.8859C67.6822 12.7655 60.9714 12.8112 54.4847 12.8568H53.6464C51.7746 12.8776 49.9029 12.8817 48.0312 12.89C41.1295 12.9191 33.9912 12.9481 26.9857 13.2552C23.4622 13.4129 22.1674 11.6533 20.8476 9.33747C19.8723 7.62346 18.6439 6.0464 17.3449 4.37803C16.8261 3.714 16.2949 3.02923 15.7637 2.31955C15.7346 2.27805 15.6724 2.2739 15.635 2.31125L12.9914 4.92585C9.32676 8.54894 5.86137 11.977 2.44994 15.459C2.19263 15.7204 2.21338 16.7663 2.48314 17.1564C4.93174 20.7172 4.94834 24.7885 4.96909 28.7229C4.96909 29.0756 4.96909 29.4243 4.97739 29.777C5.02719 34.9938 5.08114 40.3931 8.91174 44.8255C9.85798 45.9212 10.8748 46.9919 11.8542 48.0253C12.5514 48.7599 13.2736 49.5194 13.9625 50.283C14.1119 50.449 14.6058 51.0383 14.639 51.6816C14.6846 52.578 14.7925 53.5118 14.8921 54.4124C15.137 56.6161 15.3943 58.8987 14.8631 60.9572C13.037 68.054 12.3273 75.6529 12.6261 84.8746C12.6676 86.1736 12.6552 87.4975 12.6469 88.7757C12.6427 89.3817 12.6344 89.9834 12.6344 90.5935V90.6433L12.6137 90.689C12.5763 90.7595 12.5182 90.8467 12.4518 90.9463C12.3024 91.1662 12.1198 91.436 12.1157 91.685C12.1074 92.1789 12.1613 92.6894 12.2111 93.1791C12.2734 93.7725 12.3356 94.3868 12.2983 94.9927C12.1157 97.7028 12.9416 99.9023 14.8299 101.724C15.9712 102.828 17.1166 103.924 18.2621 105.024C19.9429 106.638 21.6237 108.248 23.2921 109.871C23.5411 110.116 23.732 110.411 23.9146 110.697C24.0308 110.88 24.1387 111.05 24.2632 111.207C24.7031 111.772 25.1472 112.328 25.5954 112.884C26.5582 114.088 27.5543 115.328 28.4466 116.615C29.0608 117.495 29.3471 118.64 29.5339 119.541C29.5962 119.844 29.206 120.251 29.0359 120.412C28.7246 120.703 28.4756 120.827 28.293 120.778C27.3592 120.524 26.4794 120.018 25.8154 119.603C25.7075 119.537 25.6161 119.45 25.529 119.354C26.1308 121.01 27.3592 121.811 29.3264 121.853C32.2398 121.915 34.1821 123.135 35.0951 125.484C35.8712 127.48 37.4649 128.431 39.1498 129.435L39.5192 129.655C40.7559 130.398 41.9844 131.236 42.6152 132.348C42.7937 132.66 42.9721 132.971 43.1547 133.282C44.7152 135.98 46.3338 138.769 45.8814 142.284C45.8108 142.819 45.927 143.209 46.201 143.388C46.5413 143.604 47.1098 143.504 47.7241 143.118C47.9191 142.993 48.1183 142.865 48.3175 142.736C49.1683 142.176 50.0482 141.599 51.011 141.387C51.9738 141.176 53.3185 141.47 54.0697 142.056C55.0782 142.844 53.3683 146.218 53.3517 146.251C52.9699 146.978 52.8371 148.086 52.9906 149.285C53.0902 150.053 53.4596 150.812 53.8207 151.547C53.912 151.734 54.0033 151.92 54.0904 152.111C54.1942 152.136 54.4764 152.132 54.6299 152.074C55.6882 151.671 56.7548 151.236 57.9916 150.734L59.0997 150.285C58.9669 150.194 58.8424 150.111 58.7261 150.032C58.336 149.771 58.0248 149.563 57.7924 149.277C56.8212 148.073 56.2817 146.226 56.5183 144.882C56.6303 144.243 56.9125 143.774 57.3317 143.516C58.8465 142.599 60.6684 142.051 62.2164 142.047H62.2247C63.9346 142.047 65.188 143.213 65.8478 145.421C66.1466 146.426 66.7816 147.359 67.3958 148.268C67.649 148.642 67.9105 149.028 68.1512 149.422L68.5952 149.381C66.2877 146.314 68.1138 144.761 69.8859 143.259C70.1889 143.002 70.5002 142.736 70.7865 142.466C72.2557 141.089 73.7082 140.939 75.5053 141.989L76.2149 142.404C77.9082 143.396 79.6637 144.425 81.4773 145.214C82.3281 145.583 83.5275 145.446 84.37 145.193C85.0963 144.977 85.7603 144.608 86.47 144.222C86.9224 143.973 87.3913 143.716 87.8727 143.504C88.2463 143.342 88.8148 143.587 89.1053 143.794C89.3917 143.994 89.1053 144.761 88.9601 144.969C87.2544 147.418 82.9424 148.302 80.2572 146.749L79.4936 146.305C77.6426 145.23 75.7252 144.114 73.7248 143.363C72.8865 143.047 71.7286 143.421 70.7782 144.322C69.8776 145.172 69.446 146.206 69.6826 146.953C70.0312 148.073 70.3342 149.09 70.467 150.148C70.5334 150.667 70.5002 151.842 69.9772 152.169C69.4751 152.485 68.5371 152.248 67.8856 151.95C67.2174 151.642 66.6115 151.132 66.2628 150.576C65.6735 149.634 65.1215 148.654 64.5862 147.704C64.1006 146.841 63.5984 145.948 63.0714 145.089C62.785 144.624 62.1583 144.263 61.3906 144.126C60.5149 143.969 59.6475 144.118 59.1204 144.525C58.224 145.218 58.2157 146.094 59.0914 147.359C59.3445 147.729 59.7097 148.023 60.0916 148.339C60.3364 148.538 60.5896 148.741 60.8137 148.97C61.2204 149.381 61.6022 149.825 61.9674 150.252C62.1293 150.439 62.2911 150.626 62.453 150.812L62.6024 150.983L62.4198 151.119C62.2123 151.273 62.0089 151.447 61.8056 151.618C61.3449 152.008 60.8676 152.414 60.3074 152.63C59.386 152.987 58.4149 153.257 57.477 153.518C56.8669 153.688 56.236 153.863 55.626 154.062C54.4515 154.44 53.5384 154.435 52.8246 154.045C52.0942 153.647 51.5796 152.846 51.2476 151.597L51.1936 151.393C50.6292 149.269 50.0482 147.069 51.4136 144.873C51.5796 144.608 51.6045 144.23 51.6335 143.832C51.646 143.67 51.6584 143.508 51.6792 143.35L51.3928 143.043C51.1231 143.205 50.8616 143.375 50.596 143.545C49.878 144.01 49.1351 144.488 48.3258 144.774C47.2717 145.143 46.0225 145.276 44.8978 145.131C44.35 145.06 43.881 143.687 43.8852 143.043C43.8852 142.72 43.9018 142.392 43.9142 142.064C44.0014 140.109 44.0719 138.424 41.5611 137.885L41.3204 137.835L41.4117 137.607C42.0923 135.872 41.8267 133.934 40.6895 132.419C39.6728 131.058 38.1704 130.286 36.5767 130.269C36.5103 130.269 36.4688 130.34 36.502 130.398L47.4585 151.215C47.4792 151.256 47.4668 151.302 47.4253 151.327L46.3255 151.987L46.2176 151.821C46.0267 151.535 45.8316 151.252 45.6324 150.97C45.1966 150.356 44.7484 149.717 44.4081 149.028C43.8395 147.87 43.3 146.675 42.7812 145.517C41.8889 143.525 40.9635 141.466 39.8512 139.565C37.8716 136.175 35.6844 132.83 33.5637 129.593C32.7752 128.385 31.9867 127.177 31.2023 125.965C30.1564 124.343 27.3426 123.301 25.1306 123.521C25.031 123.529 25.0268 123.67 25.1223 123.691C26.9359 124.077 28.5794 124.641 30.0444 125.957C31.6048 127.36 31.2023 128.92 30.8454 130.298C30.6503 131.053 30.4635 131.771 30.559 132.46C30.5631 132.506 30.6088 132.539 30.6503 132.535L33.7339 132.328C33.7754 132.328 33.8086 132.348 33.821 132.39L34.0202 133.07C34.0285 133.104 34.0202 133.137 33.9953 133.158L33.0864 133.925C33.0325 133.971 33.0532 134.054 33.1196 134.071L34.7631 134.502L34.5432 134.755C34.4103 134.909 34.2775 135.063 34.1489 135.22C33.8376 135.59 33.5181 135.971 33.1611 136.308C32.9204 136.54 32.6299 136.71 32.3477 136.872C32.2855 136.909 32.2232 136.947 32.161 136.984L37.3487 146.04C37.3611 146.065 37.386 146.081 37.4151 146.081L40.7435 146.351L40.2579 146.754C38.6698 148.068 38.0556 149.116 38.4152 149.899C39.0378 151.252 39.7184 152.601 40.3741 153.908C40.6273 154.406 40.8763 154.904 41.1253 155.402C41.1419 155.436 41.1751 155.452 41.2083 155.448L44.7567 155.083C44.7982 155.079 44.8397 155.108 44.848 155.149L45.0763 156.133C45.0846 156.17 45.068 156.208 45.0348 156.224L43.466 157.121C43.8935 157.029 44.3085 156.913 44.7193 156.801C45.2506 156.656 45.8025 156.502 46.3545 156.407C47.0393 156.286 48.2677 156.44 48.6994 157.029C49.4671 158.071 50.1395 159.366 50.7578 160.98C51.7456 163.562 52.7209 166.351 53.8373 169.758L53.9618 170.136C54.3021 171.148 54.688 172.298 54.4473 173.261C54.2772 173.929 53.6339 174.431 52.9533 174.958C52.9408 174.97 52.9242 174.979 52.9118 174.991C53.277 174.875 53.6297 174.792 53.9908 174.804C54.4556 174.821 54.8956 175.033 55.3189 175.236C55.4973 175.319 55.6758 175.406 55.8542 175.473L56.0866 175.564L55.958 175.776C55.8584 175.942 55.7588 176.149 55.6675 176.357C55.4268 176.88 55.1985 177.373 54.7959 177.465C54.1983 177.602 53.8207 177.809 53.6381 178.104C53.389 178.511 53.5218 179.054 53.6671 179.631C53.7626 180.025 53.8663 180.432 53.8331 180.806C53.7335 181.943 54.3892 182.291 55.7173 182.561C58.1825 183.067 60.2327 182.213 62.3949 181.312C63.0797 181.026 63.7893 180.731 64.5032 180.486C65.0759 180.291 65.6694 180.121 66.2421 179.959C66.5077 179.884 66.7733 179.81 67.0348 179.731L67.234 179.673L67.595 180.86C67.6075 180.905 67.5826 180.951 67.5411 180.963L56.5805 184.595C56.4892 184.624 56.51 184.761 56.6054 184.761C58.0414 184.769 59.4773 184.777 60.9133 184.786C65.4287 184.811 70.0934 184.84 74.6835 184.831H74.7043L74.7126 184.835Z" stroke="white" stroke-width="4" stroke-miterlimit="10" mask="url(#path-1-outside-1_5076_7054)"/>
<circle cx="60.0315" cy="101.749" r="4.22217" fill="#DA6B07"/>
</svg>
