<svg width="178" height="171" viewBox="0 0 178 171" fill="none" xmlns="http://www.w3.org/2000/svg">
<g style="mix-blend-mode:soft-light">
<g style="mix-blend-mode:screen">
<path d="M130.773 161.161C130.118 161.443 129.446 161.685 128.813 162.006C127.26 162.792 125.798 162.935 124.479 161.555C122.991 160.623 121.677 159.447 119.79 159.152C118.805 159 117.59 158.137 118.245 156.827C118.905 155.504 120.067 156.124 121.048 156.667C121.174 156.736 121.286 156.831 121.408 156.909C122.236 157.439 123.156 158.402 124.041 157.322C124.835 156.359 123.49 155.734 123.238 154.927C122.336 152.029 120.336 152.207 118.085 152.849C117.699 153.04 117.335 151.604 116.931 152.845C115.604 154.007 114.298 155.244 112.316 154.125C112.298 154.754 112.693 155.009 112.953 155.33C113.522 156.025 114.033 156.727 113.535 157.673C113.031 158.619 112.103 158.584 111.205 158.874C107.752 159.989 105.145 157.816 102.399 156.654C100.564 155.877 98.9246 155.161 96.9422 155.513C95.9575 155.959 94.9685 156.406 93.9838 156.853C92.5176 157.131 91.06 157.469 89.5678 157.478C89.4333 157.499 89.3075 157.564 89.2381 157.669C90.8692 157.443 92.4091 157.799 93.9491 158.185C94.9164 159.686 95.7406 161.204 94.4523 162.939C94.1052 163.408 93.5456 164.093 93.0815 163.772C90.5005 161.976 87.9671 163.559 85.4555 163.807C76.2852 164.705 67.1454 165.845 58.0271 167.182C54.5091 167.698 51.3034 169.342 47.7464 169.65C44.5841 169.927 41.4261 170.287 38.2465 170.136C36.6111 170.058 34.9063 170.058 33.6266 168.739C33.4748 167.876 33.6266 167.03 33.8912 166.223C34.338 164.865 34.1428 163.703 33.1191 162.666C32.3469 161.881 32.1214 160.905 32.5508 159.885C33.015 158.783 34.0431 159.33 34.8325 159.252C36.5677 159.083 38.2421 159.543 39.9295 159.833C41.348 159.881 42.5626 161.512 44.1329 160.362C44.4539 159.994 44.8877 160.145 45.2825 160.111C45.5905 160.085 46.0373 160.241 46.072 159.746C46.098 159.36 45.6772 159.23 45.4126 159.031C43.2871 156.94 43.1352 156.844 39.756 156.506C38.4764 156.38 37.496 155.686 36.4679 155.057C35.0928 153.339 35.0928 152.819 36.9277 151.882C38.0686 151.301 37.4136 150.372 37.7042 149.648C37.9992 148.91 38.2595 148.156 36.9885 147.969C36.5981 147.913 36.0341 147.544 36.3421 146.872C36.6154 146.711 36.893 146.551 37.1663 146.39C37.3962 145.991 37.3919 145.592 37.1663 145.193C36.4376 145.384 35.5353 143.614 34.9453 145.388C34.6287 146.082 34.1732 145.852 33.709 145.57C31.9912 144.126 31.128 141.853 29.0502 140.76C25.055 138.391 20.5349 137.775 16.0843 137.207C13.59 136.886 11.664 135.671 9.53408 134.691C8.67952 134.296 7.94208 133.346 6.79688 133.854C6.51926 133.949 6.00305 134.418 6.01173 133.815C6.05944 130.804 4.27224 128.496 2.93184 126.115C0.307426 121.478 0.038478 116.559 0.372494 111.483C0.424549 110.711 0.615415 109.896 0.953769 109.202C2.86243 105.263 4.81881 101.346 6.8099 97.4502C7.12656 96.8299 7.69482 96.3354 8.14596 95.7802C8.84002 95.316 9.54709 95.3898 10.2585 95.7455H10.2498C10.74 95.8279 11.3647 96.3875 11.5382 95.3724C10.4841 95.1251 9.74664 94.5222 9.63385 93.4073C9.54709 92.5745 9.88111 91.8544 10.6316 91.4076C11.3473 90.9781 11.985 91.1169 12.5793 91.6852C13.1389 92.2188 13.6854 92.9822 14.5834 92.6092C15.5637 92.2014 14.8436 91.3512 14.8914 90.7092C14.9738 89.6507 15.3121 89.0434 16.5137 89.4642C16.9041 89.5987 17.416 89.8329 17.6242 89.295C17.8671 88.6791 17.3032 88.3277 16.8738 88.1715C14.6614 87.3647 15.5854 86.3323 16.5918 85.2305C17.9973 83.6948 19.8756 82.6668 21.1119 80.9533C22.1486 80.4024 22.3915 81.3481 22.8513 81.8816C22.9945 81.8252 23.1376 81.7688 23.2808 81.7081C23.9749 79.8211 25.094 81.3047 26.0614 81.4565C25.7968 80.1768 22.4609 79.9383 24.9899 77.9168L25.0029 77.9038C26.4388 75.9865 28.1956 75.6351 30.5901 76.7022C31.1584 76.9538 31.8134 77.9992 32.4641 76.7543C32.759 75.852 33.401 75.839 34.1472 76.0949C34.4725 76.173 34.8586 76.4593 35.1145 76.1773C35.3878 75.8737 34.9844 75.5613 34.8759 75.249C34.3857 73.926 34.7545 73.1755 36.251 73.1755C36.7933 73.1885 37.4223 73.4011 37.6001 72.5812C37.483 71.9826 37.1013 71.4273 37.3008 70.7853C36.88 71.2148 36.546 71.7657 35.9951 72.0954C35.5656 72.3643 35.1015 72.5639 34.6113 72.6983C34.017 72.8241 33.4358 73.0237 32.8154 72.976C32.5074 72.9022 32.2862 72.7244 32.1517 72.4424C31.8394 72.1127 32.5638 70.7376 31.1801 71.4968C30.3906 71.8525 29.6097 72.36 28.7942 71.5662C28.1262 70.9155 28.4819 70.2474 28.7508 69.5707C28.9287 69.1239 29.3191 68.5644 28.6337 68.2781C28.0047 68.0178 27.3757 67.6794 26.5863 68.0481C25.3977 68.6034 22.3785 67.5363 21.6931 66.4518C21.4589 66.0787 21.6367 65.8358 21.7756 65.4888C21.884 65.2155 22.8904 65.4888 22.1963 64.8642C21.9317 64.6256 21.4849 64.7167 21.3938 65.2068C21.255 65.9746 20.8516 66.1698 20.1662 65.8228C18.1361 64.1657 18.1534 61.6281 20.4352 59.9103C22.2007 58.5829 24.1917 57.5505 26.1091 56.4313C28.0741 55.2818 30.0522 54.1583 31.5358 52.3711C33.6743 49.6382 35.9647 47.0051 37.2054 43.6867C37.5133 40.468 39.3136 38.0301 41.2483 35.6009C42.2503 34.3429 43.1873 34.5381 44.467 34.9111C48.1064 35.9739 51.7372 35.8395 55.2466 34.3212C56.3007 33.8657 57.255 33.1933 57.9838 32.252C59.502 30.2913 59.5107 30.3 60.9812 32.4212C62.2652 33.3278 61.5235 35.3666 63.1979 36.3513C63.2196 34.3602 61.5321 33.2237 61.4584 31.5233C60.9639 29.35 61.5495 27.4674 62.7077 25.5891C64.6684 22.4094 65.9307 18.8437 68.078 15.7508C69.6049 13.5515 68.1474 11.3348 67.9088 9.13118C67.4317 8.28096 68.5421 7.1748 67.462 6.42435L67.475 6.45471C66.7723 4.98417 68.6332 4.79331 68.8198 3.76957C70.4899 2.9714 72.1426 2.12552 73.8387 1.38374C75.9946 0.438084 78.0421 0.923925 80.0288 1.99104C80.7186 2.35976 81.4517 2.64606 82.1631 2.9714C84.4014 3.84331 86.6007 4.76728 87.3772 7.37L87.3512 7.33964C88.0973 8.13781 88.6612 9.0531 89.1427 10.0291C90.1968 11.6471 91.9623 12.0115 93.6151 12.1373C96.9509 12.3933 98.7207 14.3149 99.8919 17.1693C100.59 18.874 100.92 20.6656 101.371 22.4311C102.503 23.2509 102.785 23.984 101.163 24.5306C100.1 24.7605 99.5059 25.1119 100.777 25.9665C102.325 26.8687 103.644 27.9532 103.917 29.8792C104.742 30.8986 102.551 30.994 103.245 31.623C104.351 32.6208 105.635 33.6098 107.023 34.0566C108.702 34.5988 109.44 36.0433 110.685 36.9673C110.741 37.0107 110.793 37.0627 110.845 37.1148C111.591 37.8479 109.5 37.9997 110.489 38.6547C110.971 38.9757 111.773 38.7805 112.303 39.0582C112.971 39.4095 112.988 40.0472 112.172 40.2597C111.583 40.4116 111.097 40.5113 110.832 41.4266C113.452 41.2922 114.931 43.3049 116.927 44.3417C117.773 44.7798 118.215 45.3307 117.066 46.0118C116.003 46.6451 116.385 47.1309 117.322 47.3608C120.228 48.0722 120.627 50.2932 121.017 52.8005C121.204 53.9934 122.349 55.0606 123.139 56.1233C123.559 56.6916 124.219 57.0863 124.375 57.8455C125.386 58.6827 125.455 57.5765 125.741 57.1254C126.192 56.4096 126.539 55.6765 127.416 56.6699C129.246 57.3336 130.409 55.9498 131.554 55.0736C134.803 52.5836 138.208 50.2932 141.228 47.504C142.75 46.0985 144.936 45.9857 146.849 45.3698C147.856 45.0444 148.303 45.5519 148.303 46.5974C148.303 50.4711 150.142 53.9978 150.459 57.8194C150.476 58.0277 150.528 58.3356 150.667 58.4137C154.445 60.5133 154.18 64.5345 155.226 67.931C155.456 68.6771 155.456 70.0175 156.701 68.5687C157.308 67.8616 157.807 68.1566 157.724 68.9721C157.486 71.3276 158.883 73.2059 159.499 75.3054C159.963 76.8931 159.568 77.4179 158.067 77.0362C157.46 76.8844 156.965 76.6154 156.605 77.2791C156.232 77.9732 156.961 78.0947 157.295 78.394C157.685 78.7453 158.054 79.1271 157.872 79.6823C157.677 80.2723 157.148 80.3156 156.614 80.2376C155.703 80.1031 155.122 80.5976 154.627 81.2656C154.367 81.9293 152.784 81.4912 153.326 82.8229C153.447 82.9444 153.569 83.0659 153.686 83.1873C154.523 83.7686 153.452 84.7837 154.189 85.3866H154.176C154.861 85.4994 155.521 85.6642 155.924 86.3062C157.052 87.6293 157.98 89.0304 157.69 90.9C157.1 92.2968 157.924 93.8541 157.191 95.2379L157.217 95.1989C156.185 96.0187 154.874 96.2573 153.751 96.8863C153.3 96.9123 152.84 96.9687 152.597 96.4525L152.623 96.4872C151.513 95.8062 151.699 94.648 151.591 93.3336C151.591 93.3162 151.222 93.6893 151.5 93.6069C151.591 93.5809 151.617 93.6416 151.586 93.7891C151.027 96.279 148.385 97.242 146.589 95.6066C146.268 95.316 146.004 94.9646 145.609 94.7651C145.552 94.7347 145.474 94.7391 145.227 94.7C145.7 96.882 147.357 98.192 148.533 99.8057C150.081 101.788 150.012 102.187 147.795 103.302C146.954 103.727 146.086 104.087 145.696 105.042C145.197 106.252 144.481 105.605 143.8 105.267C143.431 105.068 142.967 105.02 142.737 104.629C142.728 105.237 143.57 105.822 142.872 106.516C142.308 106.994 141.744 107.007 141.097 106.625C140.52 106.282 139.887 106.061 139.458 106.881C138.759 110.247 135.792 111.882 133.797 114.255C133.515 114.594 133.064 114.741 132.626 114.754C131.467 114.784 131.298 115.426 131.255 116.463C131.129 119.213 129.81 119.786 127.485 118.203C126.947 117.838 126.336 117.257 125.776 117.86C125.238 118.437 125.854 119.07 126.179 119.604C127.802 122.25 129.737 124.688 131.45 127.269C131.931 127.993 132.396 128.696 132.547 129.564C132.586 130.036 132.495 130.457 132.109 130.774C130.847 131.463 129.415 130.665 128.14 131.229C127.077 131.481 126.479 132.405 125.624 132.96C125.242 133.316 124.705 133.29 124.266 133.541C123.681 133.884 123.021 134.244 123.321 134.99C123.59 135.663 124.284 135.389 124.835 135.233L124.8 135.25C125.112 134.808 125.646 134.942 126.062 134.769C128.353 134.687 130.643 134.721 132.929 134.804C133.142 134.86 133.328 134.964 133.489 135.12C133.055 137.163 133.194 139.614 130.14 139.792C129.914 139.805 129.776 140.031 129.802 140.265C129.849 140.664 130.118 140.924 130.487 141.007C131.623 141.254 132.786 141.193 133.927 141.115C135.944 140.976 136.924 142.039 137.571 143.774C138.72 146.863 139.518 150.095 141.319 152.919C142 154.411 143.075 155.838 142.047 157.595C139.566 159.473 136.443 159.477 133.645 160.436C132.725 160.753 131.736 160.948 130.769 161.161H130.773Z" fill="#FFDFC2"/>
</g>
<path d="M169.783 115.734C171.088 117.968 169.279 117.968 167.978 118.094C164.434 118.441 161.033 119.261 157.797 120.758C156.873 121.183 155.988 121.642 155.437 122.549C154.023 122.97 152.657 123.156 151.646 121.725C151.884 120.306 153.45 120.818 154.114 120.016C154.713 119.478 154.617 118.827 154.396 118.168C154.296 118.016 154.192 117.864 154.066 117.73C153.581 117.374 152.917 117.422 152.461 116.997C151.798 115.938 151.884 115.001 152.873 114.181C153.706 113.496 154.422 113.669 155.077 114.437C155.384 114.619 155.828 114.424 156.409 113.852C156.817 113.396 157.138 112.845 157.788 112.672L157.762 112.689C158.469 110.728 160.109 111.062 161.467 111.44C162.712 111.787 163.67 111.579 164.668 110.954C165.792 110.85 166.308 111.262 165.922 112.433C165.787 112.802 165.601 113.153 165.475 113.522C165.449 113.787 165.319 114.151 165.688 114.212C166.004 114.259 166.026 113.839 166.191 113.626C168.143 113.045 168.924 114.459 169.778 115.739V115.726L169.783 115.734Z" fill="#FFDFC2"/>
<path d="M150.8 120.428C147.768 122.393 144.124 122.888 140.94 124.523C139.912 125.052 139.096 124.189 139.521 122.979C140.454 120.298 141.096 117.47 143.039 115.245C143.72 114.997 144.293 114.59 144.74 114.013C145.976 113.171 147.1 112.165 148.462 111.514C149.49 111.024 150.496 110.724 151.368 111.796C151.802 112.542 152.309 113.323 152.101 114.199C151.667 116.025 151.798 117.895 151.555 119.734C151.407 120.077 151.13 120.276 150.804 120.424L150.8 120.428Z" fill="#FFDFC2"/>
<path d="M159.729 109.97C157.192 109.822 156.532 108.655 157.938 106.478C159.768 103.645 162.553 101.992 165.672 100.938C167.386 100.361 168.826 101.055 169.715 102.587C170.605 104.113 169.568 105.129 168.557 106.113C168.21 106.456 167.937 106.872 167.629 107.258C166.683 109.089 165.512 110.356 163.117 109.848C162.05 109.623 160.844 109.614 159.729 109.97Z" fill="#FFDFC2"/>
<path d="M149.794 151.639C148.588 152.06 147.408 152.472 146.15 152.91C145.977 152.372 145.933 151.739 145.612 151.318C144.545 149.925 144.315 148.798 146.198 147.917C147.07 147.509 147.556 146.078 148.684 146.498C150.414 147.14 152.219 147.826 153.308 149.5C154.492 151.327 154.865 153.075 153.217 154.979C151.907 156.493 150.922 158.28 149.785 159.942C149.503 160.349 149.256 160.874 148.649 160.792C147.933 160.696 148.211 159.998 148.016 159.586C147.985 159.521 148.007 159.425 147.963 159.378C145.439 156.445 147.734 154.636 149.512 152.702C149.655 152.545 149.79 152.368 149.872 152.172C149.916 152.068 149.842 151.916 149.798 151.634L149.794 151.639Z" fill="#FFDFC2"/>
<path d="M172.889 126.952C173.435 126.497 174.038 126.28 174.602 126.857C175.04 127.308 174.758 127.885 174.489 128.254C173.092 130.206 174.303 132.678 173.166 134.665C171.813 135.294 170.39 135.771 169.306 136.912C168.594 137.658 167.692 137.61 167.063 136.795C166.269 135.767 165.146 135.164 164.226 134.301C163.619 132.561 164.998 131.963 166.022 131.156C166.33 130.982 166.629 130.813 166.859 130.522C168.238 128.761 169.666 127.087 172.277 127.503C172.546 127.547 172.719 127.182 172.889 126.957V126.952Z" fill="#FFDFC2"/>
<path d="M158.112 137.432C159.621 138.074 161.127 138.72 162.641 139.349C163.369 139.653 163.972 140.126 163.677 140.963C163.005 142.881 160.962 143.154 159.53 144.134C158.541 144.815 157.669 143.917 156.993 143.123C156.624 142.69 156.307 142.195 155.709 142.035C154.785 141.696 153.978 141.124 153.063 140.759C152.117 140.386 151.523 139.753 152.1 138.642L152.091 138.655C152.308 138.048 152.898 137.979 153.388 137.77C153.822 137.467 154.251 137.159 154.685 136.855C155.926 136.473 157.062 136.699 158.116 137.428L158.112 137.432Z" fill="#FFDFC2"/>
<path d="M157.863 131.212C156.683 129.329 157.017 127.967 159.017 126.496C159.286 126.241 159.551 126.245 159.811 126.51C159.976 126.653 160.141 126.796 160.301 126.935C161.798 127.711 161.932 126.705 162.015 125.629C162.908 124.918 163.91 125.056 164.921 125.26C166.522 127.516 165.992 130.357 163.719 131.667C162.808 132.266 161.854 132.834 161.993 134.157C161.763 134.804 161.407 135.424 160.648 135.307C159.898 135.19 159.338 134.621 159.282 133.841C159.234 133.151 158.887 132.622 158.631 132.036C158.531 131.62 158.275 131.342 157.868 131.207L157.863 131.212Z" fill="#FFDFC2"/>
<path d="M176.782 106.569C177.272 107.406 177.333 108.213 176.5 108.864C174.904 110.109 173.967 111.77 173.364 113.657C173.212 114.134 173.013 114.672 172.423 114.707C171.815 114.746 171.594 114.212 171.399 113.752C170.766 112.282 169.516 111.275 168.605 110.017C168.319 109.38 168.822 109.05 169.204 108.816C170.97 107.727 172.865 106.877 174.73 105.983C175.433 105.649 176.292 105.693 176.787 106.56L176.782 106.569Z" fill="#FFDFC2"/>
<path d="M166.311 131.672C167.061 130.401 165.968 129.082 166.411 127.802C167.066 126.635 167.183 125.369 167.261 124.059C167.361 122.341 169.365 121.465 170.809 122.428C171.23 122.705 171.503 123.1 170.935 123.378C169.985 123.842 168.944 124.137 169.755 125.529C170.466 126.752 171.364 127.538 172.891 126.952C172.831 127.321 172.718 127.715 172.288 127.737C169.694 127.872 168.128 129.425 166.922 131.524C166.849 131.65 166.523 131.628 166.315 131.672H166.311Z" fill="#FFDFC2"/>
</g>
<circle cx="93.4045" cy="99.3979" r="4.22217" fill="#DA6B07"/>
</svg>
