<svg width="192" height="56" viewBox="0 0 192 56" fill="none" xmlns="http://www.w3.org/2000/svg">
<g id="logo">
<g id="Group">
<g id="Group_2">
<g id="Group_3">
<path id="Vector" d="M67.2301 48.4055H65.8602V45.9396H63.3943V48.4055H62.0244V42.4463H63.3943V44.8437H65.8602V42.4463H67.2301V48.4055Z" fill="white"/>
<path id="Vector_2" d="M76.0662 48.4055H72.5044V42.4463H75.9292V43.5422H73.8058V44.8437H75.7922V45.9396H73.8058V47.3095H76.0662V48.4055Z" fill="white"/>
<path id="Vector_3" d="M86.8202 48.4055H85.3818L84.9708 47.104H82.8474L82.4365 48.4055H80.998L83.1899 42.4463H84.7653L86.8202 48.4055ZM84.6284 46.0766L84.0119 44.0902C83.9434 43.9532 83.9434 43.7477 83.9434 43.5422C83.9434 43.7477 83.8749 43.8847 83.8064 44.0902L83.1214 46.1451L84.6284 46.0766Z" fill="white"/>
<path id="Vector_4" d="M95.3138 48.4055H91.752V42.4463H93.1219V47.3095H95.3138V48.4055Z" fill="white"/>
<path id="Vector_5" d="M105.588 43.5422H103.876V48.4055H102.506V43.5422H100.793V42.4463H105.52V43.5422H105.588Z" fill="white"/>
<path id="Vector_6" d="M115.383 48.4055H114.013V45.9396H111.547V48.4055H110.177V42.4463H111.547V44.8437H114.013V42.4463H115.383V48.4055Z" fill="white"/>
</g>
<g id="Group_4">
<path id="Vector_7" d="M29.6255 52.6524C29.8995 52.5154 30.242 52.31 30.5159 52.173C32.7078 50.94 34.7627 49.5016 36.6121 47.7207C39.6259 44.7754 41.6808 41.2136 42.7768 37.1038C43.1878 35.6654 43.4617 34.1584 43.5987 32.6515C43.7357 31.1446 43.7357 29.5692 43.5987 28.0623C43.3247 24.021 41.9548 20.3907 39.7629 17.0344C38.8725 15.5959 37.845 14.2945 36.6806 13.0616C36.6121 12.9931 36.5436 12.9246 36.4751 12.7876C36.6806 12.7876 36.8176 12.7876 36.9546 12.8561C38.3245 13.1301 39.6259 13.6096 40.9274 14.1575C42.9138 15.048 44.8317 16.1439 46.4756 17.5823C48.6675 19.4317 50.3114 21.6921 51.5443 24.2265C52.2978 25.8704 52.9142 27.5828 53.2567 29.3637C53.3937 30.1172 53.4622 30.8706 53.5307 31.6926C53.5992 32.1035 53.5992 32.583 53.5992 32.994C53.5992 34.9804 53.2567 36.9668 52.7087 38.8847C52.0238 41.1451 50.9278 43.2684 49.4894 45.1863C47.914 47.2412 45.9961 48.8851 43.7357 50.1866C41.8863 51.2825 39.8999 52.1045 37.845 52.5839C36.9546 52.7894 36.0641 52.9264 35.1737 52.9949C34.0777 53.1319 32.9818 53.0634 31.8174 53.0634C31.0639 52.9949 30.3789 52.9264 29.6255 52.8579C29.6255 52.7209 29.6255 52.6524 29.6255 52.6524Z" fill="white"/>
<path id="Vector_8" d="M5.44621 20.6646C5.44621 20.8015 5.51471 21.007 5.51471 21.144C5.51471 22.514 5.6517 23.8154 5.85719 25.1168C6.47366 29.3636 8.04907 33.3364 10.7889 36.6927C12.7753 39.1585 15.1727 41.1449 17.9125 42.7204C19.8304 43.8163 21.8168 44.6383 24.0087 45.1177C25.0361 45.3917 26.1321 45.5972 27.228 45.5972C28.2555 45.6657 29.2829 45.6657 30.3104 45.6657C31.3378 45.6657 32.2968 45.5287 33.3242 45.3232C34.7626 45.0492 36.201 44.7067 37.708 44.2273C37.6395 44.2958 37.6395 44.3643 37.6395 44.4328C37.2285 44.9807 36.8175 45.4602 36.4065 46.0082C34.6941 47.9261 32.7077 49.57 30.4474 50.8029C28.6665 51.7619 26.8171 52.3783 24.8992 52.7893C23.1183 53.1318 21.3373 53.2688 19.5564 53.1318C17.5016 52.9948 15.5837 52.5838 13.7343 51.7619C8.46005 49.6385 4.35027 45.1177 2.63787 39.9805C2.15839 38.6106 1.88441 37.1722 1.67892 35.7337C1.54193 34.4323 1.54193 33.0624 1.61042 31.761C1.81591 28.3361 2.77486 25.1853 4.48727 22.1715C4.76125 21.692 5.03524 21.281 5.30922 20.8015C5.30922 20.733 5.30922 20.6646 5.44621 20.6646C5.37772 20.6646 5.37772 20.6646 5.44621 20.6646Z" fill="white"/>
<path id="Vector_9" d="M44.9002 14.4312C44.4892 14.2257 44.1467 14.0202 43.8043 13.8147C41.6809 12.6503 39.4205 11.7598 37.0231 11.2118C35.9957 11.0064 34.9682 10.8009 33.9408 10.7324C33.1873 10.6639 32.4339 10.5954 31.6804 10.6639C29.1461 10.7324 26.6802 11.2118 24.3513 12.1023C21.817 13.0612 19.4196 14.3627 17.2962 16.0751C14.9673 17.9245 13.1179 20.1164 11.6795 22.6507C10.3096 25.0481 9.41913 27.651 8.73417 30.3223C8.73417 30.3908 8.66567 30.5278 8.66567 30.5963C8.66567 30.5963 8.66567 30.5963 8.59717 30.6648C8.52868 30.5963 8.52868 30.5278 8.46018 30.4593C7.84371 28.9524 7.43274 27.377 7.15875 25.7331C6.88477 24.0206 6.81627 22.3767 6.95326 20.6643C7.09025 18.0615 7.70672 15.5956 8.73417 13.1982C10.1726 9.91041 12.3645 7.10206 15.3783 5.04718C17.6387 3.47176 20.173 2.44432 22.9129 1.89635C24.3513 1.62236 25.8582 1.55387 27.3652 1.62236C29.6255 1.82785 31.6804 2.37582 33.7353 3.19778C37.3656 4.70469 40.2425 7.17056 42.5028 10.3214C43.3248 11.4858 44.0782 12.7873 44.7632 14.0887C44.7632 14.2257 44.8317 14.2942 44.9002 14.4312Z" fill="white"/>
</g>
<path id="Vector_10" d="M190.592 37.7881H60.1064V39.158H190.592V37.7881Z" fill="white"/>
<path id="Vector_11" d="M127.301 48.2003V46.8988C127.575 47.1043 127.781 47.2413 128.123 47.3783C128.397 47.4468 128.671 47.5153 129.014 47.5153C129.151 47.5153 129.356 47.5153 129.425 47.4468C129.562 47.4468 129.63 47.3783 129.767 47.3098C129.836 47.2413 129.904 47.1728 129.973 47.1043C130.041 47.0358 130.041 46.9673 130.041 46.8303C130.041 46.6933 130.041 46.6248 129.973 46.4878C129.904 46.4193 129.836 46.2824 129.699 46.2139C129.562 46.1454 129.425 46.0769 129.288 46.0084C129.151 45.9399 128.945 45.8714 128.808 45.8029C128.329 45.5974 127.986 45.3919 127.781 45.1179C127.575 44.8439 127.438 44.5015 127.438 44.0905C127.438 43.748 127.507 43.5425 127.644 43.2685C127.781 43.063 127.918 42.8575 128.123 42.7205C128.329 42.5836 128.603 42.4466 128.877 42.3781C129.151 42.3096 129.493 42.3096 129.767 42.3096C130.11 42.3096 130.384 42.3096 130.589 42.3781C130.863 42.4466 131.069 42.4466 131.274 42.5836V43.8165C131.206 43.748 131.069 43.6795 130.932 43.611C130.795 43.5425 130.658 43.5425 130.589 43.474C130.452 43.4055 130.315 43.4055 130.247 43.4055C130.11 43.4055 129.973 43.4055 129.904 43.4055C129.767 43.4055 129.63 43.4055 129.493 43.474C129.356 43.5425 129.288 43.5425 129.151 43.611C129.082 43.6795 129.014 43.748 128.945 43.8165C128.877 43.885 128.877 43.9535 128.877 44.0905C128.877 44.159 128.877 44.296 128.945 44.3645C129.014 44.433 129.082 44.5014 129.151 44.5699C129.219 44.6384 129.356 44.7069 129.493 44.7754C129.63 44.8439 129.767 44.9124 129.973 44.9809C130.178 45.0494 130.452 45.1864 130.589 45.3234C130.795 45.4604 130.932 45.5974 131.069 45.7344C131.206 45.8714 131.343 46.0084 131.411 46.2139C131.48 46.4193 131.548 46.6248 131.548 46.8303C131.548 47.1728 131.48 47.4468 131.343 47.6523C131.206 47.8578 131.069 48.0633 130.795 48.2003C130.589 48.3372 130.315 48.4742 130.041 48.4742C129.767 48.5427 129.425 48.5427 129.151 48.5427C128.808 48.5427 128.534 48.5427 128.192 48.4742C127.781 48.4057 127.507 48.3372 127.301 48.2003Z" fill="white"/>
<path id="Vector_12" d="M141.617 42.4459L139.699 46.2817V48.4051H138.329V46.2817L136.411 42.3774H137.918L138.877 44.6378C138.877 44.7063 138.945 44.8433 139.014 45.1173C139.082 44.9118 139.082 44.7748 139.151 44.6378L140.11 42.3774H141.617V42.4459Z" fill="white"/>
<path id="Vector_13" d="M146.686 48.2003V46.8988C146.96 47.1043 147.165 47.2413 147.508 47.3783C147.781 47.4468 148.055 47.5153 148.398 47.5153C148.535 47.5153 148.74 47.5153 148.809 47.4468C148.946 47.4468 149.014 47.3783 149.151 47.3098C149.22 47.2413 149.288 47.1728 149.357 47.1043C149.425 47.0358 149.425 46.9673 149.425 46.8303C149.425 46.6933 149.425 46.6248 149.357 46.4878C149.288 46.4193 149.22 46.2824 149.083 46.2139C148.946 46.1454 148.809 46.0769 148.672 46.0084C148.535 45.9399 148.329 45.8714 148.192 45.8029C147.713 45.5974 147.371 45.3919 147.165 45.1179C146.96 44.8439 146.823 44.5015 146.823 44.0905C146.823 43.748 146.891 43.5425 147.028 43.2685C147.165 43.063 147.302 42.8575 147.508 42.7205C147.713 42.5836 147.987 42.4466 148.261 42.3781C148.535 42.3096 148.877 42.3096 149.151 42.3096C149.494 42.3096 149.768 42.3096 149.973 42.3781C150.247 42.4466 150.453 42.4466 150.658 42.5836V43.8165C150.59 43.748 150.453 43.6795 150.316 43.611C150.179 43.5425 150.042 43.5425 149.973 43.474C149.836 43.4055 149.699 43.4055 149.631 43.4055C149.494 43.4055 149.357 43.4055 149.288 43.4055C149.151 43.4055 149.014 43.4055 148.877 43.474C148.74 43.474 148.672 43.5425 148.535 43.611C148.466 43.6795 148.398 43.748 148.329 43.8165C148.261 43.885 148.261 43.9535 148.261 44.0905C148.261 44.159 148.261 44.296 148.329 44.3645C148.398 44.433 148.466 44.5014 148.535 44.5699C148.603 44.6384 148.74 44.7069 148.877 44.7754C149.014 44.8439 149.151 44.9124 149.357 44.9809C149.562 45.0494 149.836 45.1864 149.973 45.3234C150.179 45.4604 150.316 45.5974 150.453 45.7344C150.59 45.8714 150.727 46.0084 150.795 46.2139C150.864 46.4193 150.932 46.6248 150.932 46.8303C150.932 47.1728 150.864 47.4468 150.727 47.6523C150.59 47.8578 150.453 48.0633 150.179 48.2003C149.973 48.3372 149.699 48.4742 149.425 48.4742C149.151 48.5427 148.809 48.5427 148.535 48.5427C148.192 48.5427 147.918 48.5427 147.576 48.4742C147.165 48.4057 146.891 48.3372 146.686 48.2003Z" fill="white"/>
<path id="Vector_14" d="M160.796 43.5422H159.083V48.4055H157.713V43.5422H156.001V42.4463H160.727V43.5422H160.796Z" fill="white"/>
<path id="Vector_15" d="M169.906 48.4055H166.344V42.4463H169.769V43.5422H167.646V44.8437H169.632V45.9396H167.646V47.3095H169.906V48.4055Z" fill="white"/>
<path id="Vector_16" d="M180.865 48.4055H179.632V44.8437C179.632 44.4327 179.632 44.0217 179.701 43.5422C179.701 43.6107 179.632 43.7477 179.632 43.8162C179.632 43.8847 179.564 44.0217 179.564 44.0902C179.564 44.1587 179.495 44.2272 179.495 44.2957C179.495 44.3642 179.427 44.4327 179.427 44.4327L178.262 46.6246H177.304L176.208 44.4327C176.208 44.4327 176.208 44.3642 176.139 44.2957C176.139 44.2272 176.071 44.1587 176.071 44.0902C176.071 44.0217 176.002 43.9532 176.002 43.8162C176.002 43.7477 175.934 43.6107 175.934 43.5422H175.865C175.865 43.8162 175.865 44.0217 175.934 44.2957C175.934 44.5012 175.934 44.7067 175.934 44.8437V48.4055H174.701V42.4463H176.345L177.372 44.5012C177.372 44.5697 177.441 44.6382 177.441 44.7067C177.441 44.7752 177.509 44.8437 177.509 44.9122C177.509 44.9807 177.578 45.0491 177.578 45.1176C177.578 45.1861 177.646 45.2546 177.646 45.3231C177.646 45.2546 177.715 45.1861 177.715 45.1176C177.715 45.0491 177.783 44.9807 177.783 44.9122C177.783 44.8437 177.852 44.7752 177.852 44.7067C177.852 44.6382 177.92 44.5697 177.92 44.5012L179.016 42.4463H180.728V48.4055H180.865Z" fill="white"/>
<path id="Vector_17" d="M185.523 48.2003V46.8988C185.797 47.1043 186.002 47.2413 186.345 47.3783C186.619 47.4468 186.893 47.5153 187.235 47.5153C187.372 47.5153 187.578 47.5153 187.646 47.4468C187.783 47.4468 187.852 47.3783 187.989 47.3098C188.057 47.2413 188.126 47.1728 188.194 47.1043C188.263 47.0358 188.263 46.9673 188.263 46.8303C188.263 46.6933 188.263 46.6248 188.194 46.4878C188.126 46.4193 188.057 46.2824 187.92 46.2139C187.783 46.1454 187.646 46.0769 187.509 46.0084C187.372 45.9399 187.167 45.8714 187.03 45.8029C186.55 45.5974 186.208 45.3919 186.002 45.1179C185.797 44.8439 185.66 44.5015 185.66 44.0905C185.66 43.748 185.728 43.5425 185.865 43.2685C186.002 43.063 186.139 42.8575 186.345 42.7205C186.55 42.5836 186.824 42.4466 187.098 42.3781C187.372 42.3096 187.715 42.3096 187.989 42.3096C188.331 42.3096 188.605 42.3096 188.811 42.3781C189.085 42.4466 189.29 42.4466 189.496 42.5836V43.8165C189.427 43.748 189.29 43.6795 189.153 43.611C189.016 43.5425 188.879 43.5425 188.811 43.474C188.674 43.4055 188.537 43.4055 188.468 43.4055C188.331 43.4055 188.194 43.4055 188.126 43.4055C187.989 43.4055 187.852 43.4055 187.715 43.474C187.578 43.474 187.509 43.5425 187.372 43.611C187.304 43.6795 187.235 43.748 187.167 43.8165C187.098 43.885 187.098 43.9535 187.098 44.0905C187.098 44.159 187.098 44.296 187.167 44.3645C187.235 44.433 187.304 44.5014 187.372 44.5699C187.441 44.6384 187.578 44.7069 187.715 44.7754C187.852 44.8439 187.989 44.9124 188.194 44.9809C188.4 45.0494 188.674 45.1864 188.811 45.3234C189.016 45.4604 189.153 45.5974 189.29 45.7344C189.427 45.8714 189.564 46.0084 189.633 46.2139C189.701 46.4193 189.77 46.6248 189.77 46.8303C189.77 47.1728 189.701 47.4468 189.564 47.6523C189.427 47.8578 189.29 48.0633 189.016 48.2003C188.811 48.3372 188.537 48.4742 188.263 48.4742C187.989 48.5427 187.646 48.5427 187.372 48.5427C187.03 48.5427 186.756 48.5427 186.413 48.4742C186.071 48.4057 185.728 48.3372 185.523 48.2003Z" fill="white"/>
<g id="Group_5">
<path id="Vector_18" d="M76.2712 33.2682C74.7643 34.0217 72.7779 34.3641 70.3805 34.3641C67.2297 34.3641 64.6954 33.4052 62.9145 31.5558C61.0651 29.7064 60.1746 27.172 60.1746 24.0897C60.1061 20.8019 61.1335 18.062 63.1884 16.0071C65.2433 13.9522 67.9147 12.9248 71.134 12.9248C73.1204 12.9248 74.8328 13.1988 76.2712 13.6783V18.199C74.9013 17.3771 73.3259 16.9661 71.545 16.9661C69.6271 16.9661 68.0517 17.5826 66.8187 18.8155C65.6543 20.0484 65.0378 21.6923 65.0378 23.7472C65.0378 25.7336 65.5858 27.3775 66.7502 28.542C67.8462 29.7064 69.4216 30.3229 71.271 30.3229C73.1204 30.3229 74.7643 29.9119 76.2712 29.0214V33.2682Z" fill="white"/>
<path id="Vector_19" d="M93.738 34.0213H89.2172V25.5963C89.2172 23.4044 88.3952 22.377 86.8198 22.377C85.9979 22.377 85.3814 22.651 84.8334 23.2674C84.354 23.8839 84.08 24.6374 84.08 25.5963V34.0213H79.4907V12.1025H84.08V21.418H84.1485C85.2444 19.7056 86.7513 18.8837 88.6692 18.8837C92.0255 18.8837 93.6695 20.8701 93.6695 24.9113V34.0213H93.738Z" fill="white"/>
<path id="Vector_20" d="M110.93 27.9258H101.272C101.409 30.0492 102.779 31.1451 105.314 31.1451C106.957 31.1451 108.396 30.7341 109.629 29.9807V33.2685C108.259 34.022 106.478 34.3644 104.286 34.3644C101.889 34.3644 100.039 33.6795 98.7379 32.378C97.4364 31.0766 96.7515 29.2272 96.7515 26.8298C96.7515 24.364 97.4364 22.4461 98.8749 21.0077C100.313 19.5692 102.026 18.8843 104.149 18.8843C106.272 18.8843 107.985 19.5007 109.149 20.8022C110.314 22.1036 110.93 23.816 110.93 26.0079V27.9258ZM106.683 25.1174C106.683 22.9941 105.793 21.9666 104.081 21.9666C103.327 21.9666 102.711 22.2406 102.163 22.8571C101.615 23.4735 101.272 24.227 101.204 25.1174H106.683Z" fill="white"/>
<path id="Vector_21" d="M123.739 23.3364C123.191 23.0624 122.575 22.8569 121.821 22.8569C120.862 22.8569 120.04 23.1994 119.492 23.9529C118.944 24.7063 118.67 25.6653 118.67 26.8982V33.9533H114.081V19.2266H118.67V21.9665H118.739C119.492 19.9801 120.725 18.9526 122.643 18.9526C123.123 18.9526 123.534 19.0211 123.739 19.1581V23.3364Z" fill="white"/>
<path id="Vector_22" d="M133.328 34.3644C130.863 34.3644 128.945 33.6795 127.506 32.3095C126.068 30.9396 125.383 29.0217 125.383 26.6929C125.383 24.227 126.136 22.3091 127.575 20.9392C129.013 19.5692 131 18.8843 133.534 18.8843C136 18.8843 137.918 19.5692 139.288 20.9392C140.657 22.3091 141.411 24.1585 141.411 26.4189C141.411 28.8847 140.657 30.8026 139.219 32.2411C137.781 33.611 135.863 34.3644 133.328 34.3644ZM133.465 22.3091C132.369 22.3091 131.547 22.6516 130.931 23.405C130.315 24.1585 130.041 25.1859 130.041 26.5559C130.041 29.3642 131.205 30.8026 133.465 30.8026C135.657 30.8026 136.753 29.3642 136.753 26.4189C136.753 23.7475 135.657 22.3091 133.465 22.3091Z" fill="white"/>
<path id="Vector_23" d="M159.357 34.0213H153.878L149.151 26.6922H149.083V34.0213H144.494V12.1025H149.083V26.0073H149.151L153.535 19.1577H158.946L153.672 26.0758L159.357 34.0213Z" fill="white"/>
<path id="Vector_24" d="M174.152 27.9258H164.494C164.631 30.0492 166.001 31.1451 168.536 31.1451C170.18 31.1451 171.618 30.7341 172.851 29.9807V33.2685C171.481 34.022 169.7 34.3644 167.508 34.3644C165.111 34.3644 163.261 33.6795 161.96 32.378C160.659 31.0766 159.974 29.2272 159.974 26.8298C159.974 24.364 160.659 22.4461 162.097 21.0077C163.535 19.5692 165.248 18.8843 167.371 18.8843C169.495 18.8843 171.207 19.5007 172.371 20.8022C173.536 22.1036 174.152 23.816 174.152 26.0079V27.9258ZM169.906 25.1174C169.906 22.9941 169.015 21.9666 167.303 21.9666C166.549 21.9666 165.933 22.2406 165.385 22.8571C164.837 23.4735 164.494 24.227 164.426 25.1174H169.906Z" fill="white"/>
<path id="Vector_25" d="M190.591 27.9258H180.933C181.07 30.0492 182.44 31.1451 184.975 31.1451C186.619 31.1451 188.057 30.7341 189.29 29.9807V33.2685C187.92 34.022 186.139 34.3644 183.947 34.3644C181.55 34.3644 179.7 33.6795 178.399 32.378C177.098 31.0766 176.413 29.2272 176.413 26.8298C176.413 24.364 177.098 22.4461 178.536 21.0077C179.974 19.5692 181.687 18.8843 183.81 18.8843C185.934 18.8843 187.646 19.5007 188.81 20.8022C189.975 22.1036 190.591 23.816 190.591 26.0079V27.9258ZM186.345 25.1174C186.345 22.9941 185.454 21.9666 183.742 21.9666C182.988 21.9666 182.372 22.2406 181.824 22.8571C181.276 23.4735 180.933 24.227 180.865 25.1174H186.345Z" fill="white"/>
</g>
</g>
</g>
</g>
</svg>
