<svg width="137" height="55" viewBox="0 0 137 55" fill="none" xmlns="http://www.w3.org/2000/svg">
<g id="doralhw_logo">
<g id="Logo">
<g id="Border">
<path id="Vector" d="M133.616 2.85855V52.4439H2.68668V2.85855H133.62M134.416 2.05859H1.88672V53.2438H134.42V2.05859H134.416Z" fill="white"/>
</g>
<g id="Title">
<path id="Vector_2" d="M54.9678 25.6491V13.9697H57.6476V18.5935H62.5354V13.9697H65.2352V25.6491H62.5354V20.9453H57.6476V25.6491H54.9678Z" fill="white"/>
<path id="Vector_3" d="M72.0949 25.8132C71.163 25.8132 70.355 25.6412 69.675 25.2933C68.9951 24.9493 68.4671 24.4613 68.0951 23.8293C67.7231 23.1974 67.5352 22.4494 67.5352 21.5815C67.5352 20.7135 67.7231 19.9295 68.1031 19.2616C68.4831 18.5936 68.9911 18.0696 69.635 17.6977C70.275 17.3257 71.003 17.1377 71.8149 17.1377C72.7349 17.1377 73.4868 17.3457 74.0708 17.7617C74.6508 18.1776 75.0547 18.7696 75.2787 19.5296C75.5027 20.2935 75.5507 21.1775 75.4187 22.1854H70.103C70.167 22.6014 70.387 22.9494 70.763 23.2294C71.135 23.5094 71.6469 23.6493 72.2949 23.6493C72.5909 23.6493 72.9029 23.5853 73.2308 23.4614C73.5588 23.3374 73.8388 23.1454 74.0708 22.8934L75.4707 24.3733C75.1107 24.8133 74.6628 25.1613 74.1308 25.4172C73.5988 25.6732 72.9229 25.8052 72.0989 25.8052L72.0949 25.8132ZM71.8629 18.9696C71.4229 18.9696 71.055 19.1016 70.751 19.3656C70.451 19.6296 70.251 19.9975 70.151 20.4695H73.2948C73.3068 19.9535 73.1829 19.5776 72.9229 19.3336C72.6669 19.0936 72.3109 18.9696 71.8629 18.9696Z" fill="white"/>
<path id="Vector_4" d="M85.8502 17.3057V25.6452H83.3183L83.4023 24.3933C82.7983 25.3373 81.9064 25.8092 80.7224 25.8092C79.9745 25.8092 79.3385 25.6412 78.8145 25.2973C78.2866 24.9573 77.8866 24.4853 77.6146 23.8813C77.3386 23.2774 77.2026 22.5854 77.2026 21.8094C77.2026 20.8775 77.3946 20.0615 77.7786 19.3576C78.1626 18.6576 78.6786 18.1096 79.3265 17.7217C79.9745 17.3337 80.6984 17.1377 81.4984 17.1377C82.0264 17.1377 82.4904 17.2457 82.8983 17.4577C83.3023 17.6737 83.6183 17.9537 83.8343 18.3056L84.0463 17.3017H85.8542L85.8502 17.3057ZM81.7344 19.3296C81.1304 19.3296 80.6585 19.5536 80.3105 20.0055C79.9665 20.4535 79.7905 21.0295 79.7905 21.7334C79.7905 22.3374 79.9265 22.8014 80.1945 23.1334C80.4625 23.4614 80.8264 23.6253 81.2904 23.6253C81.8504 23.6253 82.3304 23.3934 82.7303 22.9334C83.1303 22.4734 83.3303 21.8694 83.3303 21.1255C83.3303 20.5655 83.1863 20.1255 82.9023 19.8096C82.6183 19.4896 82.2264 19.3336 81.7344 19.3336V19.3296Z" fill="white"/>
<path id="Vector_5" d="M91.0821 25.8135C90.2381 25.8135 89.5861 25.5815 89.1342 25.1135C88.6782 24.6455 88.4502 23.9696 88.4502 23.0816V13.4741H90.9661V22.9016C90.9661 23.4056 91.2021 23.6576 91.674 23.6576C91.926 23.6576 92.142 23.5976 92.314 23.4776L92.922 25.2695C92.734 25.4215 92.478 25.5535 92.15 25.6575C91.822 25.7615 91.466 25.8135 91.0821 25.8135Z" fill="white"/>
<path id="Vector_6" d="M97.7935 25.813C96.7616 25.813 95.9456 25.525 95.3417 24.949C94.7377 24.373 94.4417 23.6131 94.4537 22.6691L94.5177 19.3613H93.1338V17.2734H94.5497L94.5657 15.5615H97.0656L97.0496 17.2734H99.6654V19.3613H97.0176L96.9696 22.3892C96.9696 22.7851 97.0736 23.0931 97.2816 23.3091C97.4896 23.5291 97.8015 23.6371 98.2175 23.6371C98.4575 23.6371 98.6935 23.6051 98.9175 23.5451C99.1415 23.4851 99.3775 23.3651 99.6174 23.1931L100.341 25.117C99.7814 25.577 98.9335 25.809 97.7895 25.809L97.7935 25.813Z" fill="white"/>
<path id="Vector_7" d="M101.725 25.6495V13.4741H104.241L104.257 17.2739L104.125 19.0338C104.465 18.4299 104.901 17.9659 105.433 17.6339C105.965 17.3059 106.553 17.1419 107.201 17.1419C108.197 17.1419 108.945 17.4779 109.437 18.1539C109.929 18.8298 110.173 19.7978 110.161 21.0577L110.129 25.6495H107.613L107.645 21.2417C107.657 20.6697 107.569 20.2338 107.389 19.9338C107.209 19.6338 106.921 19.4818 106.525 19.4818C106.197 19.4818 105.893 19.5778 105.621 19.7698C105.345 19.9618 105.109 20.2898 104.905 20.7497C104.701 21.2097 104.541 21.8417 104.421 22.6416C104.301 23.4416 104.233 24.4455 104.225 25.6535H101.725V25.6495Z" fill="white"/>
<path id="Vector_8" d="M118.696 25.8015C117.648 25.8015 116.717 25.6255 115.905 25.2735C115.093 24.9215 114.457 24.4375 113.997 23.8136C113.537 23.1936 113.305 22.4816 113.305 21.6737C113.305 20.7777 113.513 20.0458 113.929 19.4778C114.345 18.9098 114.841 18.4259 115.417 18.0299C114.637 17.1739 114.245 16.27 114.245 15.322C114.245 14.6421 114.421 14.0461 114.773 13.5261C115.125 13.0101 115.609 12.6022 116.233 12.3062C116.852 12.0102 117.564 11.8662 118.372 11.8662C119.484 11.8662 120.376 12.1382 121.048 12.6822C121.72 13.2261 122.056 13.9661 122.056 14.898C122.056 15.526 121.936 16.042 121.692 16.454C121.448 16.8619 121.132 17.2099 120.74 17.4899C120.348 17.7699 119.936 18.0219 119.5 18.2379L122.86 21.4817C123.204 20.9457 123.456 20.3178 123.608 19.6018H122.052V17.1819H127.636V19.6018H126.06C125.844 20.8937 125.364 22.0257 124.62 22.9976C125.08 23.2656 125.6 23.4016 126.176 23.4016C126.42 23.4016 126.64 23.3736 126.84 23.3136C127.04 23.2576 127.248 23.1696 127.464 23.0536L128.136 25.1655C127.444 25.6375 126.608 25.8615 125.62 25.8375C124.444 25.8135 123.4 25.4815 122.492 24.8375C121.956 25.1455 121.364 25.3815 120.724 25.5495C120.084 25.7175 119.404 25.7975 118.688 25.7975L118.696 25.8015ZM116.317 21.3297C116.317 21.9697 116.581 22.4776 117.104 22.8536C117.628 23.2296 118.324 23.4216 119.196 23.4216C119.72 23.4216 120.212 23.3456 120.676 23.1896L117.048 19.6378C116.833 19.8418 116.657 20.0818 116.521 20.3577C116.385 20.6337 116.321 20.9577 116.321 21.3257L116.317 21.3297ZM117.064 15.246C117.064 15.45 117.12 15.654 117.236 15.862C117.352 16.066 117.58 16.35 117.928 16.7059C118.388 16.462 118.776 16.206 119.088 15.938C119.4 15.67 119.56 15.342 119.56 14.958C119.56 14.6261 119.448 14.3861 119.224 14.2381C119 14.0901 118.728 14.0181 118.408 14.0181C118 14.0181 117.672 14.1221 117.428 14.3341C117.184 14.5461 117.064 14.85 117.064 15.246Z" fill="white"/>
<path id="Vector_9" d="M68.1311 30.4204H70.663L67.2911 42.0998H64.2473L62.3234 33.8082L60.0195 42.0998H56.9597L54.0479 30.4204H56.7637L58.6556 38.532L60.8915 30.4204H64.0833L65.9112 38.5L68.1311 30.4204Z" fill="white"/>
<path id="Vector_10" d="M75.6667 42.2639C74.7347 42.2639 73.9268 42.0919 73.2468 41.7439C72.5669 41.4 72.0389 40.912 71.6669 40.28C71.2949 39.648 71.1069 38.9001 71.1069 38.0321C71.1069 37.1642 71.2949 36.3802 71.6749 35.7123C72.0549 35.0443 72.5629 34.5203 73.2068 34.1483C73.8468 33.7764 74.5748 33.5884 75.3867 33.5884C76.3067 33.5884 77.0586 33.7964 77.6426 34.2123C78.2226 34.6283 78.6265 35.2203 78.8505 35.9802C79.0745 36.7442 79.1225 37.6282 78.9905 38.6361H73.6748C73.7388 39.0521 73.9588 39.4001 74.3348 39.68C74.7067 39.96 75.2187 40.1 75.8667 40.1C76.1627 40.1 76.4746 40.036 76.8026 39.912C77.1306 39.788 77.4106 39.5961 77.6426 39.3441L79.0425 40.824C78.6825 41.264 78.2345 41.6119 77.7026 41.8679C77.1706 42.1239 76.4946 42.2559 75.6707 42.2559L75.6667 42.2639ZM75.4347 35.4203C74.9947 35.4203 74.6267 35.5523 74.3228 35.8163C74.0228 36.0802 73.8228 36.4482 73.7228 36.9202H76.8666C76.8786 36.4042 76.7546 36.0282 76.4946 35.7843C76.2387 35.5443 75.8827 35.4203 75.4347 35.4203Z" fill="white"/>
<path id="Vector_11" d="M83.8262 42.2646C82.9822 42.2646 82.3303 42.0326 81.8783 41.5647C81.4223 41.0967 81.1943 40.4207 81.1943 39.5328V29.9253H83.7102V39.3528C83.7102 39.8568 83.9462 40.1087 84.4182 40.1087C84.6702 40.1087 84.8861 40.0487 85.0581 39.9288L85.6661 41.7207C85.4781 41.8726 85.2221 42.0046 84.8941 42.1086C84.5662 42.2126 84.2102 42.2646 83.8262 42.2646Z" fill="white"/>
<path id="Vector_12" d="M89.4859 42.2646C88.6419 42.2646 87.9899 42.0326 87.538 41.5647C87.082 41.0967 86.854 40.4207 86.854 39.5328V29.9253H89.3699V39.3528C89.3699 39.8568 89.6059 40.1087 90.0778 40.1087C90.3298 40.1087 90.5458 40.0487 90.7178 39.9288L91.3258 41.7207C91.1378 41.8726 90.8818 42.0046 90.5538 42.1086C90.2258 42.2126 89.8698 42.2646 89.4859 42.2646Z" fill="white"/>
<path id="Vector_13" d="M92.5938 42.1003V33.7248H95.0936L94.9776 35.5167C95.3176 34.9007 95.7536 34.4287 96.2856 34.0927C96.8175 33.7568 97.4135 33.5928 98.0695 33.5928C99.0654 33.5928 99.8134 33.9288 100.305 34.6047C100.797 35.2807 101.041 36.2486 101.029 37.5086L100.997 42.1003H98.4814L98.5134 37.6926C98.5254 37.1206 98.4374 36.6846 98.2574 36.3846C98.0775 36.0846 97.7895 35.9326 97.3935 35.9326C97.0655 35.9326 96.7615 36.0286 96.4895 36.2206C96.2136 36.4126 95.9776 36.7406 95.7736 37.2006C95.5696 37.6606 95.4096 38.2925 95.2896 39.0925C95.1696 39.8924 95.1016 40.8964 95.0936 42.1043H92.5938V42.1003Z" fill="white"/>
<path id="Vector_14" d="M107.629 42.2639C106.697 42.2639 105.889 42.0919 105.209 41.7439C104.529 41.4 104.001 40.912 103.629 40.28C103.257 39.648 103.069 38.9001 103.069 38.0321C103.069 37.1642 103.257 36.3802 103.637 35.7123C104.017 35.0443 104.525 34.5203 105.169 34.1483C105.809 33.7764 106.537 33.5884 107.349 33.5884C108.269 33.5884 109.021 33.7964 109.605 34.2123C110.185 34.6283 110.589 35.2203 110.813 35.9802C111.037 36.7442 111.085 37.6282 110.953 38.6361H105.637C105.701 39.0521 105.921 39.4001 106.297 39.68C106.669 39.96 107.181 40.1 107.829 40.1C108.125 40.1 108.437 40.036 108.765 39.912C109.093 39.788 109.373 39.5961 109.605 39.3441L111.005 40.824C110.645 41.264 110.197 41.6119 109.665 41.8679C109.133 42.1239 108.457 42.2559 107.633 42.2559L107.629 42.2639ZM107.401 35.4203C106.961 35.4203 106.593 35.5523 106.289 35.8163C105.989 36.0802 105.789 36.4482 105.689 36.9202H108.833C108.845 36.4042 108.721 36.0282 108.461 35.7843C108.205 35.5443 107.849 35.4203 107.401 35.4203Z" fill="white"/>
<path id="Vector_15" d="M116.236 42.2639C115.021 42.2639 114.097 42.0359 113.473 41.5799C112.849 41.124 112.481 40.524 112.369 39.78L114.457 39.2521C114.521 39.5721 114.705 39.824 115.001 40.016C115.297 40.208 115.7 40.304 116.216 40.304C117.04 40.304 117.448 40.112 117.448 39.728C117.448 39.5321 117.328 39.3801 117.096 39.2761C116.86 39.1721 116.48 39.0721 115.952 38.9721C114.965 38.7961 114.201 38.5161 113.657 38.1321C113.113 37.7482 112.841 37.1602 112.841 36.3722C112.841 35.8363 112.993 35.3563 113.301 34.9403C113.609 34.5243 114.029 34.1963 114.569 33.9524C115.105 33.7124 115.724 33.5884 116.428 33.5884C117.34 33.5884 118.092 33.8044 118.692 34.2283C119.288 34.6563 119.644 35.1843 119.752 35.8083L117.696 36.3682C117.62 36.1282 117.468 35.9283 117.244 35.7763C117.02 35.6243 116.716 35.5443 116.332 35.5443C115.972 35.5443 115.704 35.6043 115.536 35.7243C115.364 35.8443 115.28 35.9882 115.28 36.1522C115.28 36.3482 115.396 36.5042 115.624 36.6202C115.852 36.7362 116.26 36.8522 116.84 36.9722C117.432 37.0802 117.956 37.2322 118.412 37.4242C118.868 37.6162 119.224 37.8801 119.48 38.2121C119.736 38.5481 119.868 39.0001 119.868 39.5681C119.868 40.104 119.712 40.576 119.4 40.984C119.088 41.392 118.656 41.7039 118.108 41.9199C117.56 42.1399 116.936 42.2479 116.232 42.2479L116.236 42.2639Z" fill="white"/>
<path id="Vector_16" d="M124.872 42.2639C123.656 42.2639 122.732 42.0359 122.108 41.5799C121.484 41.124 121.116 40.524 121.004 39.78L123.092 39.2521C123.156 39.5721 123.34 39.824 123.636 40.016C123.932 40.208 124.336 40.304 124.852 40.304C125.676 40.304 126.084 40.112 126.084 39.728C126.084 39.5321 125.964 39.3801 125.732 39.2761C125.496 39.1721 125.116 39.0721 124.588 38.9721C123.6 38.7961 122.836 38.5161 122.292 38.1321C121.748 37.7482 121.476 37.1602 121.476 36.3722C121.476 35.8363 121.628 35.3563 121.936 34.9403C122.244 34.5243 122.664 34.1963 123.204 33.9524C123.74 33.7124 124.36 33.5884 125.064 33.5884C125.976 33.5884 126.728 33.8044 127.328 34.2283C127.924 34.6563 128.28 35.1843 128.388 35.8083L126.332 36.3682C126.256 36.1282 126.104 35.9283 125.88 35.7763C125.656 35.6243 125.352 35.5443 124.968 35.5443C124.608 35.5443 124.34 35.6043 124.172 35.7243C124 35.8443 123.916 35.9882 123.916 36.1522C123.916 36.3482 124.032 36.5042 124.26 36.6202C124.488 36.7362 124.896 36.8522 125.476 36.9722C126.068 37.0802 126.592 37.2322 127.048 37.4242C127.504 37.6162 127.86 37.8801 128.116 38.2121C128.372 38.5481 128.504 39.0001 128.504 39.5681C128.504 40.104 128.348 40.576 128.036 40.984C127.724 41.392 127.292 41.7039 126.744 41.9199C126.196 42.1399 125.572 42.2479 124.868 42.2479L124.872 42.2639Z" fill="white"/>
<g id="_Lines">
<path id="Vector_17" d="M115.949 11.5298V26.385" stroke="white" stroke-width="0.343981" stroke-miterlimit="10"/>
<path id="Vector_18" d="M125.308 11.5298L125.348 26.385" stroke="white" stroke-width="0.343981" stroke-miterlimit="10"/>
<path id="Vector_19" d="M126.484 11.5298L126.52 26.385" stroke="white" stroke-width="0.343981" stroke-miterlimit="10"/>
<path id="Vector_20" d="M123.544 11.5298L123.448 26.385" stroke="white" stroke-width="0.343981" stroke-miterlimit="10"/>
<path id="Vector_21" d="M120.176 11.5298L120.084 26.385" stroke="white" stroke-width="0.343981" stroke-miterlimit="10"/>
<path id="Vector_22" d="M121.76 11.5298L121.668 26.385" stroke="white" stroke-width="0.343981" stroke-miterlimit="10"/>
<path id="Vector_23" d="M118.096 11.5298L118.004 26.385" stroke="white" stroke-width="0.343981" stroke-miterlimit="10"/>
<path id="Vector_24" d="M113.889 11.5298L114.661 26.385" stroke="white" stroke-width="0.343981" stroke-miterlimit="10"/>
</g>
</g>
<path id="Vector_25" d="M12.3701 42.4083C12.838 42.6683 13.194 43.0363 13.438 43.5162C13.682 43.9962 13.802 44.5562 13.802 45.2041C13.802 45.8521 13.678 46.4121 13.438 46.8921C13.194 47.372 12.838 47.74 12.3701 48C11.9021 48.26 11.3421 48.388 10.6902 48.388H8.34229V42.0283H10.6902C11.3421 42.0283 11.9021 42.1563 12.3701 42.4163V42.4083ZM12.0461 46.7761C12.3701 46.4161 12.5341 45.8921 12.5341 45.2041C12.5341 44.5162 12.3701 43.9922 12.0461 43.6322C11.7181 43.2723 11.2661 43.0923 10.6902 43.0923H9.54622V47.316H10.6902C11.2701 47.316 11.7221 47.136 12.0461 46.7761Z" fill="white"/>
<path id="Vector_26" d="M16.6858 48.0919C16.2179 47.8239 15.8619 47.4439 15.6179 46.9479C15.3739 46.456 15.2539 45.872 15.2539 45.204C15.2539 44.5361 15.3739 43.9521 15.6179 43.4561C15.8619 42.9641 16.2179 42.5802 16.6858 42.3122C17.1538 42.0442 17.7138 41.9082 18.3657 41.9082C19.0177 41.9082 19.5777 42.0402 20.0456 42.3122C20.5136 42.5802 20.8696 42.9601 21.1136 43.4561C21.3576 43.9481 21.4776 44.5321 21.4776 45.204C21.4776 45.876 21.3536 46.456 21.1136 46.9479C20.8696 47.4399 20.5136 47.8239 20.0456 48.0919C19.5777 48.3599 19.0177 48.4958 18.3657 48.4958C17.7138 48.4958 17.1538 48.3639 16.6858 48.0919ZM19.7217 46.8159C20.0496 46.44 20.2136 45.904 20.2136 45.204C20.2136 44.5041 20.0496 43.9641 19.7217 43.5921C19.3937 43.2161 18.9417 43.0281 18.3697 43.0281C17.7978 43.0281 17.3458 43.2161 17.0178 43.5921C16.6898 43.9681 16.5258 44.5041 16.5258 45.204C16.5258 45.904 16.6898 46.444 17.0178 46.8159C17.3458 47.1919 17.7978 47.3799 18.3697 47.3799C18.9417 47.3799 19.3937 47.1919 19.7217 46.8159Z" fill="white"/>
<path id="Vector_27" d="M26.7853 48.3836L25.4854 45.9597H24.3534V48.3836H23.1455V42.0239H25.4414C26.2653 42.0239 26.8813 42.1879 27.2893 42.5159C27.6973 42.8439 27.9013 43.3239 27.9013 43.9518C27.9013 44.3958 27.8013 44.7758 27.6013 45.0838C27.4013 45.3957 27.1013 45.6277 26.7053 45.7797L28.1132 48.3836H26.7893H26.7853ZM24.3534 44.8998H25.4494C25.8534 44.8998 26.1493 44.8318 26.3413 44.6878C26.5333 44.5478 26.6293 44.3118 26.6293 43.9758C26.6293 43.6398 26.5333 43.4239 26.3453 43.2919C26.1573 43.1599 25.8534 43.0919 25.4414 43.0919H24.3534V44.9038V44.8998Z" fill="white"/>
<path id="Vector_28" d="M33.321 46.9397H30.6051L30.0732 48.3836H28.8652L31.2771 42.0239H32.685L35.0969 48.3836H33.845L33.313 46.9397H33.321ZM32.945 45.9157L31.9651 43.2119L30.9771 45.9157H32.941H32.945Z" fill="white"/>
<path id="Vector_29" d="M36.3086 42.0205H37.5165V47.3202H40.1964V48.3802H36.3126V42.0205H36.3086Z" fill="white"/>
<g id="Green_Lines">
<path id="Vector_30" d="M39.8608 6.49023V38.4805" stroke="white" stroke-width="0.683963" stroke-miterlimit="10"/>
<path id="Vector_31" d="M8.21045 6.49023V38.4805" stroke="white" stroke-width="0.683963" stroke-miterlimit="10"/>
<path id="Vector_32" d="M37.5049 6.49023L38.0369 38.4805" stroke="white" stroke-width="0.683963" stroke-miterlimit="10"/>
<path id="Vector_33" d="M35.833 6.49023L35.909 38.4805" stroke="white" stroke-width="0.683963" stroke-miterlimit="10"/>
<path id="Vector_34" d="M34.313 6.49023L34.389 38.4805" stroke="white" stroke-width="0.683963" stroke-miterlimit="10"/>
<path id="Vector_35" d="M28.8013 6.49023L28.8773 38.4805" stroke="white" stroke-width="0.683963" stroke-miterlimit="10"/>
<path id="Vector_36" d="M25.9894 6.49023L23.9775 38.4805" stroke="white" stroke-width="0.683963" stroke-miterlimit="10"/>
<path id="Vector_37" d="M21.0898 6.49023L20.9019 38.4805" stroke="white" stroke-width="0.683963" stroke-miterlimit="10"/>
<path id="Vector_38" d="M19.0777 6.49023L18.8857 38.4805" stroke="white" stroke-width="0.683963" stroke-miterlimit="10"/>
<path id="Vector_39" d="M13.4141 6.49023L13.2261 38.4805" stroke="white" stroke-width="0.683963" stroke-miterlimit="10"/>
<path id="Vector_40" d="M10.8305 6.49023L9.12256 38.4805" stroke="white" stroke-width="0.683963" stroke-miterlimit="10"/>
<path id="Vector_41" d="M15.0859 6.49023L16.6459 38.4805" stroke="white" stroke-width="0.683963" stroke-miterlimit="10"/>
<path id="Vector_42" d="M32.4891 6.49023L29.6372 38.4805" stroke="white" stroke-width="0.683963" stroke-miterlimit="10"/>
</g>
<g id="Blue_Lines">
<path id="Vector_43" d="M9.22217 6.49023L10.0981 38.4805" stroke="white" stroke-width="0.683963" stroke-miterlimit="10"/>
<path id="Vector_44" d="M26.3091 6.49023L26.5091 38.4805" stroke="white" stroke-width="0.683963" stroke-miterlimit="10"/>
<path id="Vector_45" d="M30.9692 6.49023L32.4892 38.4805" stroke="white" stroke-width="0.683963" stroke-miterlimit="10"/>
<path id="Vector_46" d="M38.4164 6.49023L37.1484 38.4805" stroke="white" stroke-width="0.683963" stroke-miterlimit="10"/>
<path id="Vector_47" d="M12.1621 6.49023L12.1221 38.4805" stroke="white" stroke-width="0.683963" stroke-miterlimit="10"/>
<path id="Vector_48" d="M17.7457 6.49023L14.7578 38.4805" stroke="white" stroke-width="0.683963" stroke-miterlimit="10"/>
<path id="Vector_49" d="M24.1815 6.49023L22.2056 38.4805" stroke="white" stroke-width="0.683963" stroke-miterlimit="10"/>
</g>
<path id="Separator" d="M46.2402 48.2157V7.08594" stroke="white" stroke-width="0.683963" stroke-miterlimit="10" stroke-linecap="round"/>
</g>
</g>
</svg>
