<svg width="171" height="37" viewBox="0 0 171 37" fill="none" xmlns="http://www.w3.org/2000/svg">
<g id="Humana_logo" clip-path="url(#clip0_5033_1486)">
<g id="layer1">
<path id="path9738" d="M47.9959 9.50229C47.4196 9.50229 46.9874 9.93466 46.9874 10.5108V30.2491C45.5466 30.5372 43.9618 30.8254 42.377 30.8254C38.9192 30.8254 37.7665 29.5287 37.7665 25.7828V10.5108C37.7665 9.93455 37.3342 9.50229 36.9021 9.50229H31.7154V25.7828C31.7154 33.4188 35.7495 35.868 42.2329 35.868C47.4196 35.868 52.6063 34.4274 53.0386 34.2833V9.50229H47.9959ZM127.381 35.5799C127.814 35.5799 128.39 35.1475 128.39 34.5714V14.689C129.831 14.4009 131.415 14.1127 133 14.1127C136.458 14.1127 137.611 15.4094 137.611 19.1553V34.5714C137.611 35.1477 138.043 35.5799 138.475 35.5799H143.662V19.1553C143.662 11.5193 139.628 9.07006 133.144 9.07006C127.958 9.07006 122.771 10.5108 122.339 10.6549V35.5799H127.381ZM106.635 9.07006C99.863 9.07006 95.6848 12.6719 95.6848 20.5961V24.4861C95.6848 33.1306 100.295 36.0121 105.194 36.0121C107.643 36.0121 110.236 34.2833 110.957 33.2747V34.8595C110.957 35.2919 111.389 35.724 111.821 35.724C111.821 35.724 116.864 35.724 117.008 35.724V10.5108C117.152 10.5108 112.109 9.07006 106.635 9.07006ZM111.101 29.2407C109.948 30.2491 109.084 30.8254 106.635 30.8254C103.177 30.9697 101.736 28.8084 101.736 24.342V20.7402C101.736 15.6975 103.609 14.2568 106.635 14.2568C109.084 14.2568 110.525 14.4011 111.101 14.5448V29.2407ZM158.934 9.07006C152.162 9.07006 147.984 12.6719 147.984 20.5961V24.4861C147.984 33.1306 152.594 36.0121 157.637 36.0121C160.086 36.0121 162.68 34.2833 163.4 33.2747V34.8595C163.4 35.2919 163.833 35.724 164.265 35.724C164.265 35.724 169.307 35.724 169.451 35.724V10.5108C169.451 10.5108 164.409 9.07006 158.934 9.07006ZM163.4 29.2407C162.248 30.2491 161.383 30.8254 158.934 30.8254C155.476 30.8254 154.035 28.8084 154.035 24.342V20.7402C154.035 15.5535 155.908 14.2568 158.934 14.2568C161.383 14.2568 162.824 14.4011 163.4 14.5448V29.2407ZM0.883301 35.5799C1.74775 35.5799 6.35818 35.5799 6.35818 35.5799C6.79054 35.5799 7.22263 35.1475 7.22263 34.7154V20.3079H17.3079C19.0368 20.3079 20.1894 21.6046 20.1894 23.0454V34.7154C20.1894 35.1478 20.6218 35.5799 21.0539 35.5799C21.0539 35.5799 26.2406 35.5799 26.5287 35.5799C26.5287 35.5799 26.5287 1.57821 26.5287 1.29004H21.0539C20.6215 1.29004 20.1894 1.72233 20.1894 2.15442V15.1212H9.81598C8.37519 15.1212 7.36666 13.9686 7.36666 12.672V2.15442C7.22236 1.86636 6.9343 1.29004 6.35818 1.29004H0.883301C0.883301 1.5781 0.883301 35.5799 0.883301 35.5799ZM81.9977 9.07006C79.1161 9.07006 76.3787 10.2227 75.082 11.0871C73.209 9.64635 70.6157 9.07006 67.446 9.07006C62.6915 9.07006 58.6575 10.5108 58.0812 10.799V35.724H63.2679C63.8442 35.724 64.1324 35.2916 64.1324 34.7154V14.689C65.429 14.4009 66.4375 14.2566 67.302 14.2566C70.9039 14.2566 71.7683 15.6973 71.7683 19.2992V34.7153C71.7683 35.1476 72.0564 35.7238 72.6328 35.7238H76.955C77.5313 35.7238 77.8195 35.2914 77.8195 34.7153V15.4092C78.828 14.6888 80.1246 14.2566 81.4214 14.2566C84.1588 14.2566 85.3114 15.5533 85.3114 18.8671V34.7153C85.3114 35.1476 85.5994 35.7238 86.1758 35.7238C86.1758 35.7238 90.9303 35.7238 91.3625 35.7238V18.0026C91.5068 11.3751 87.3285 9.07006 81.9977 9.07006Z" fill="white"/>
</g>
</g>
<defs>
<clipPath id="clip0_5033_1486">
<rect width="170.009" height="36.1629" fill="white" transform="translate(0.163086 0.569336)"/>
</clipPath>
</defs>
</svg>
