<svg width="78" height="56" viewBox="0 0 78 56" fill="none" xmlns="http://www.w3.org/2000/svg">
<g id="March_of_Dimes_logo" clip-path="url(#clip0_5033_1558)">
<g id="Group">
<path id="Vector" d="M31.0769 51.7013V54.5084H33.0418V47.4907H31.0769V50.1529H29.4786V47.4907H27.5137V54.5084H29.4786V51.7013H31.0769Z" fill="white"/>
<path id="Vector_2" d="M23.9238 53.0594C23.2673 53.0594 22.9504 52.6067 22.9504 51.7012V50.3157C22.9504 49.3831 23.2854 48.9575 23.8559 48.9575C24.3675 48.9575 24.612 49.2336 24.6618 49.9083H26.6811C26.5815 48.0972 25.4813 47.4136 23.8831 47.4136C22.1762 47.4136 20.8994 48.4957 20.8994 50.3565V51.6921C20.8994 53.5484 21.9408 54.6486 23.951 54.6486C25.5718 54.6486 26.6675 53.8246 26.7399 52.1041H24.7976C24.7569 52.7923 24.4128 53.0594 23.9238 53.0594Z" fill="white"/>
<path id="path8923" d="M20.1076 49.8583V49.5504C20.1076 48.1922 19.2745 47.4678 17.5178 47.4678H15.0322V54.5307H16.9836V51.9184H17.3186L18.369 54.5307H20.411L19.1342 51.538C19.4556 51.4 19.7239 51.1621 19.8992 50.8595C20.0746 50.5569 20.1477 50.2058 20.1076 49.8583ZM18.2015 49.9081C18.2015 50.4288 17.948 50.6461 17.4182 50.6461H16.9655V48.9754H17.4182C17.948 48.9754 18.2015 49.1701 18.2015 49.6546V49.9081Z" fill="white"/>
<path id="path8925" d="M10.0062 47.4907L8.26758 54.5311H10.0786L10.3457 53.2633H12.0571L12.3243 54.5311H14.3752L12.6457 47.5134L10.0062 47.4907ZM10.6128 51.9006L11.1924 49.1342L11.7719 51.9006H10.6128Z" fill="white"/>
<path id="polygon8927" d="M3.35973 53.2452H4.75874L5.67783 50.2616V54.5084H7.62015V47.4907H5.13453L4.18374 50.8954L3.2239 47.4907H0.738281V54.5084H2.45422V50.2616L3.35973 53.2452Z" fill="white"/>
<path id="path8929" d="M75.2073 50.0939C74.501 49.8992 74.3018 49.7408 74.3018 49.3378C74.2948 49.2653 74.3044 49.1922 74.3299 49.124C74.3554 49.0558 74.3961 48.9942 74.4489 48.9441C74.5017 48.8939 74.5652 48.8564 74.6346 48.8344C74.704 48.8124 74.7776 48.8065 74.8496 48.8172C75.2209 48.8172 75.4563 49.0028 75.4789 49.5144H77.3126C77.2537 48.052 76.3799 47.3955 74.8587 47.3955C73.3374 47.3955 72.4138 48.2195 72.4138 49.4872C72.4138 50.8229 73.0612 51.3797 74.5553 51.8144C75.2526 52.0091 75.5559 52.1268 75.5559 52.6112C75.5559 53.0051 75.3476 53.2089 74.9266 53.2089C74.3878 53.2089 74.1886 52.9553 74.1705 52.3622H72.2734C72.3006 53.9423 73.2469 54.626 74.9039 54.626C76.561 54.626 77.4348 53.7205 77.4348 52.3984C77.4575 50.8772 76.5157 50.4561 75.2073 50.0939Z" fill="white"/>
<path id="polygon8931" d="M61.946 53.2452H63.3496L64.2641 50.2616V54.5084H66.211V47.4907H63.7253L62.7746 50.8954L61.8102 47.4907H59.3291V54.5084H61.045V50.2616L61.946 53.2452Z" fill="white"/>
<path id="polygon8933" d="M67.3252 47.4907V54.5084H71.7169V52.9872H69.2811V51.6063H71.1057V50.2118H69.2811V49.0029H71.5766V47.4907H67.3252Z" fill="white"/>
<path id="rect8935" d="M58.1296 47.4907H56.1465V54.5084H58.1296V47.4907Z" fill="white"/>
<path id="path8937" d="M38.8333 47.3911C37.0856 47.3911 35.75 48.4732 35.75 50.325V51.6832C35.75 53.5169 36.9181 54.6261 38.8016 54.6261C40.685 54.6261 41.9029 53.5078 41.9029 51.6334V50.2978C41.9075 48.3826 40.6081 47.3911 38.8333 47.3911ZM39.8746 51.6696C39.8746 52.6023 39.4898 53.0641 38.8333 53.0641C38.1768 53.0641 37.7829 52.6114 37.7829 51.6696V50.3114C37.7829 49.3787 38.1768 48.926 38.8333 48.926C39.4898 48.926 39.8746 49.3787 39.8746 50.3114V51.6696Z" fill="white"/>
<path id="path8939" d="M52.0353 47.4907H49.6357V54.5311H52.0489C54.0999 54.5311 55.2182 53.5395 55.2182 51.5882V50.3657C55.1865 48.4053 54.1044 47.4907 52.0353 47.4907ZM53.1446 51.5655C53.1446 52.5887 52.8186 52.9872 51.9765 52.9872H51.5826V48.9939H51.9538C52.8096 48.9939 53.1401 49.347 53.1401 50.3974L53.1446 51.5655Z" fill="white"/>
<path id="polygon8941" d="M42.8086 47.4907V54.5084H44.769V51.9866H46.58V50.5332H44.769V49.0029H46.992V47.4907H42.8086Z" fill="white"/>
<path id="polygon8943" d="M13.044 42.5284L17.7889 22.6117L24.0505 37.0183H31.4802L37.7463 22.6117L42.4866 42.5284H53.5293L43.1612 1.85742H35.2245L27.7676 19.9721L20.3062 1.85742H12.3739L2.00586 42.5284H13.044Z" fill="white"/>
<path id="path8945" d="M58.4919 42.5287L52.3525 18.5327H64.4728C72.0474 18.5327 77.4306 23.0603 77.4306 30.5307C77.4306 38.0012 72.0474 42.5287 64.4728 42.5287H58.4919Z" fill="white"/>
<path id="path8947" d="M57.2421 0.65332C53.1039 0.65332 49.8984 3.56 49.8984 7.89739C49.8984 12.2348 53.1039 15.1415 57.2421 15.1415C61.3803 15.1415 64.5767 12.2755 64.5767 7.89739C64.5767 3.51926 61.3803 0.65332 57.2421 0.65332Z" fill="white"/>
</g>
</g>
<defs>
<clipPath id="clip0_5033_1558">
<rect width="77.6025" height="54.901" fill="white" transform="translate(0.285156 0.200195)"/>
</clipPath>
</defs>
</svg>
