<svg width="142" height="57" viewBox="0 0 142 57" fill="none" xmlns="http://www.w3.org/2000/svg">
<g id="mfc_logo_footer 1" clip-path="url(#clip0_5033_1520)">
<g id="Group 15620">
<g id="ENTITY LINE 2">
<g id="Group 15616">
<g id="Group 15615">
<path id="Path 12267" d="M12.7573 53.0896H13.1744L13.1172 53.3738C12.9093 54.1508 12.8139 54.5664 12.7948 54.6223C12.7757 54.7552 12.6817 55.1723 12.5105 55.8913L12.454 56.1762C12.1475 56.178 11.8423 56.2162 11.5448 56.2901L10.1619 56.6117C9.73172 56.6959 9.29375 56.7341 8.85545 56.7256C4.83976 56.7256 2.51025 54.4717 2.51025 50.5706C2.51025 46.5549 5.18126 43.7524 9.00674 43.7524C9.92103 43.7765 10.8325 43.8651 11.7343 44.0176C12.0134 44.0849 12.2999 44.1168 12.5869 44.1123H12.7573V44.3774L12.7955 45.5135L12.8902 46.7069V46.9911H12.4922C12.2315 46.2828 11.832 45.6336 11.3172 45.0817C10.7206 44.6631 9.99809 44.4626 9.27112 44.514C6.24099 44.514 4.47991 46.6915 4.47991 50.4626C4.47991 53.8908 6.14699 55.8972 9.006 55.8972C9.70523 55.9384 10.3964 55.7302 10.9566 55.3097C11.5999 54.7433 12.1496 54.0788 12.5855 53.3407L12.7573 53.0896Z" fill="white"/>
<path id="Path 12268" d="M17.6459 48.4304V54.3386C17.6459 55.3617 17.759 55.5511 18.5925 55.911L19.2366 56.1952V56.6307C18.5161 56.5742 17.9293 56.5573 16.4899 56.5573C15.2591 56.5573 14.7479 56.5771 13.993 56.6307V56.1952L14.8831 55.8353C15.7541 55.4946 15.9626 55.2295 15.9626 54.4341V44.8869C15.9626 43.9587 15.7166 43.6936 14.6561 43.485L13.8799 43.3337V42.9738L14.1259 42.9166C15.3216 42.6918 16.4997 42.3816 17.651 41.9883V47.9369C18.7969 47.3825 20.0502 47.0852 21.323 47.0659C23.1032 47.0659 23.9933 48.1073 23.9933 50.229V54.3203C23.9933 54.9262 24.0506 55.2486 24.2202 55.4219C24.5407 55.6737 24.9075 55.8601 25.2998 55.9705L25.8682 56.1981V56.6336C25.1676 56.5771 24.5426 56.5602 23.2736 56.5602C21.796 56.5602 21.0953 56.58 20.5269 56.6336V56.1952L21.2084 55.9301C22.2124 55.513 22.31 55.38 22.31 54.3203V50.8157C22.31 48.8277 21.5529 47.9758 19.8292 47.9758C19.0785 47.9814 18.3364 48.1359 17.6459 48.4304Z" fill="white"/>
<path id="Path 12269" d="M27.0409 52.025C27.0086 51.3681 27.1135 50.7116 27.3491 50.0975C27.5846 49.4833 27.9455 48.925 28.4088 48.4581C28.8721 47.9913 29.4276 47.626 30.0399 47.3858C30.6522 47.1455 31.3078 47.0355 31.965 47.0627C32.5938 47.0327 33.2219 47.1357 33.8081 47.3651C34.3944 47.5945 34.9257 47.945 35.3671 48.3938C35.8086 48.8425 36.1504 49.3794 36.3702 49.9694C36.5899 50.5593 36.6827 51.189 36.6424 51.8172C36.6779 52.4774 36.5746 53.1377 36.3393 53.7555C36.104 54.3733 35.7419 54.935 35.2762 55.4043C34.8105 55.8736 34.2517 56.2402 33.6357 56.4803C33.0198 56.7205 32.3603 56.8289 31.6999 56.7986C28.8974 56.7986 27.0409 54.8892 27.0409 52.025ZM28.9158 51.8172C28.9158 54.4493 30.0526 56.1355 31.8328 56.1355C33.613 56.1355 34.7491 54.5448 34.7491 52.1014C34.7491 49.412 33.6314 47.7266 31.8328 47.7266C30.0526 47.7288 28.9158 49.3011 28.9158 51.8201V51.8172Z" fill="white"/>
<path id="Path 12270" d="M41.6629 46.9527V54.3774C41.6629 55.4188 41.776 55.5326 42.9885 55.9872L43.5569 56.195V56.6305C42.9129 56.574 42.155 56.5571 40.3755 56.5571C39.2578 56.5571 38.7657 56.5769 38.0078 56.6305V56.195L38.917 55.8543C39.7123 55.551 39.9775 55.2102 39.9775 54.4149V49.6413C39.9775 48.5999 39.904 48.5235 38.729 48.2591L38.0085 48.1064V47.7656C39.2397 47.5571 40.4594 47.2858 41.6629 46.9527ZM39.788 43.83C39.788 43.1867 40.1288 42.8643 40.8294 42.8643C41.6438 42.8643 41.9662 43.1301 41.9662 43.7727C41.9662 44.4337 41.6255 44.7583 40.9248 44.7583C40.1478 44.7553 39.788 44.4711 39.788 43.83Z" fill="white"/>
<path id="Path 12271" d="M52.4406 55.0365L52.6301 55.6049C51.4456 56.3192 50.0922 56.705 48.7091 56.7227C46.3231 56.7227 44.7133 54.9601 44.7133 52.3288C44.6685 51.6306 44.7721 50.9308 45.0173 50.2755C45.2624 49.6202 45.6435 49.0243 46.1355 48.5269C46.6275 48.0295 47.2193 47.6419 47.8718 47.3896C48.5244 47.1373 49.223 47.026 49.9216 47.0631C51.7576 47.0631 52.6492 47.4619 52.6492 48.2947C52.6538 48.412 52.6329 48.529 52.5878 48.6373C52.5426 48.7457 52.4744 48.843 52.3879 48.9223C52.3014 49.0017 52.1985 49.0612 52.0867 49.0968C51.9748 49.1323 51.8565 49.1431 51.74 49.1282C51.5594 49.1316 51.3804 49.094 51.2164 49.0185C51.0524 48.943 50.9075 48.8314 50.7926 48.692L50.1317 48.0105C49.894 47.8107 49.589 47.7091 49.279 47.7263C47.7258 47.7263 46.6087 49.469 46.6087 51.9505C46.6087 53.4083 46.8739 54.2419 47.5936 54.9432C48.1311 55.4637 48.8533 55.7495 49.6014 55.7378C50.5846 55.692 51.5492 55.4538 52.4406 55.0365Z" fill="white"/>
<path id="Path 12272" d="M61.9305 51.1953H55.6044L55.586 51.3282C55.586 52.9953 55.8321 53.8663 56.4945 54.68C56.7658 55.0211 57.1127 55.2945 57.5078 55.4786C57.9029 55.6626 58.3354 55.7523 58.7711 55.7405C59.7634 55.7008 60.7397 55.4766 61.65 55.0795L61.8578 55.6289C60.6541 56.3283 59.2913 56.7075 57.8994 56.7305C55.3804 56.7305 53.8271 55.0414 53.8271 52.3182C53.8271 49.2499 55.6455 47.1473 58.3532 47.1473C58.8338 47.1263 59.3134 47.2065 59.7611 47.3826C60.2087 47.5587 60.6143 47.8268 60.9518 48.1696C61.2892 48.5125 61.5509 48.9223 61.7198 49.3727C61.8888 49.8231 61.9613 50.3039 61.9327 50.7841L61.9305 51.1953ZM59.9616 50.5344C59.9234 48.6411 59.3366 47.8075 58.0521 47.8075C57.6823 47.8061 57.3174 47.893 56.9878 48.061C56.6583 48.229 56.3736 48.4732 56.1574 48.7733C55.7875 49.2854 55.5946 49.9042 55.6081 50.5358L59.9616 50.5344Z" fill="white"/>
</g>
</g>
</g>
<g id="ENTITY LINE 1">
<g id="Group 15618">
<g id="Group 15617">
<path id="Path 12273" d="M9.99295 33.3366L14.2921 23.6426C14.9927 23.6991 15.4848 23.716 16.2801 23.716C16.7096 23.7267 17.1394 23.714 17.5675 23.6778C17.5866 23.6778 17.6814 23.6587 17.8517 23.6396V24.0942L17.1511 24.3594C16.1663 24.7185 16.0716 24.8734 16.0716 26.0632V33.9212C16.0716 35.1146 16.2794 35.3797 17.5102 35.7969L18.0596 35.9672L18.0412 36.4218C17.0835 36.3484 16.1226 36.3239 15.1624 36.3484C13.7604 36.3484 13.2309 36.3682 12.5112 36.4218V35.9672L13.2684 35.6448C14.1585 35.2666 14.2914 35.039 14.2914 33.941V26.0639L9.65145 36.5188H9.40543L4.8786 26.0639V33.922C4.8786 35.1153 4.97334 35.2674 6.072 35.722L6.65952 35.968V36.4262C5.78409 36.355 4.90548 36.3304 4.02744 36.3528C3.32577 36.3404 2.62394 36.3649 1.92486 36.4262L1.90576 35.9717L2.45509 35.8013C3.66758 35.4032 3.89451 35.0999 3.89451 33.9256V26.0639C3.89451 24.9087 3.74322 24.7009 2.62547 24.2837L2.11139 24.0942V23.6404C2.69012 23.7023 3.27224 23.7269 3.85412 23.7138C4.48608 23.7237 5.1181 23.6991 5.7474 23.6404L9.99295 33.3366Z" fill="white"/>
<path id="Path 12274" d="M27.3426 30.9883H21.0172L20.9981 31.1213C20.9981 32.7883 21.2442 33.6593 21.9073 34.473C22.1782 34.8136 22.5244 35.0866 22.9187 35.2706C23.313 35.4547 23.7446 35.5446 24.1796 35.5335C25.1721 35.4938 26.1486 35.2696 27.0591 34.8725L27.267 35.4219C26.0633 36.1212 24.7005 36.5005 23.3086 36.5235C20.7896 36.5235 19.2363 34.8344 19.2363 32.1112C19.2363 29.0429 21.0547 26.9403 23.7624 26.9403C24.243 26.9192 24.7227 26.9993 25.1704 27.1753C25.618 27.3514 26.0237 27.6195 26.3612 27.9624C26.6986 28.3052 26.9603 28.7151 27.1292 29.1656C27.2982 29.616 27.3706 30.0969 27.3419 30.5771L27.3426 30.9883ZM25.3737 30.3274C25.3355 28.4341 24.7487 27.6005 23.4643 27.6005C23.0945 27.5992 22.7297 27.6861 22.4003 27.8541C22.0709 28.0221 21.7863 28.2662 21.5702 28.5663C21.2 29.0783 21.0071 29.6972 21.0209 30.3288L25.3737 30.3274Z" fill="white"/>
<path id="Path 12275" d="M35.9418 36.6323V35.5902C35.0092 36.1895 33.9254 36.5115 32.8169 36.5185C30.4668 36.5185 28.915 34.7757 28.915 32.1436C28.915 28.9431 30.9229 26.856 33.9905 26.856C34.6632 26.8313 35.332 26.9681 35.941 27.2548V24.6623C35.941 23.7355 35.695 23.4873 34.6154 23.2611L33.8583 23.1091V22.7309C35.1329 22.4853 36.3915 22.1628 37.6272 21.7651V34.1133C37.6272 34.9659 37.7785 35.1172 38.991 35.3618L39.5051 35.4558V35.7973L39.3156 35.8347C38.2746 36.0159 37.2448 36.2562 36.2311 36.5544L35.9418 36.6323ZM35.9418 28.0149C35.3716 27.6871 34.7244 27.5173 34.0668 27.5228C32.0597 27.5228 30.79 29.2119 30.79 31.8976C30.79 34.1889 31.8916 35.6093 33.6695 35.6093C34.3663 35.5921 35.0536 35.4441 35.6957 35.173L35.9418 35.079V28.0149Z" fill="white"/>
<path id="Path 12276" d="M40.6787 32.8062H41.1333C41.6474 34.1707 41.9676 34.7758 42.3649 35.1173C42.917 35.5089 43.5824 35.7083 44.2589 35.685C45.7365 35.685 46.7404 34.8148 46.7404 33.5457C46.7404 32.7122 46.3997 32.2767 45.1115 31.4057L43.3688 30.2306C42.005 29.3031 41.6797 29.0189 41.3999 28.3557C41.1925 27.9181 41.0888 27.4387 41.0966 26.9545C41.0966 24.9085 42.5742 23.563 44.8273 23.563C45.227 23.5578 45.6263 23.5898 46.02 23.6585C46.0582 23.6585 46.3424 23.7158 46.8726 23.8098C47.154 23.8615 47.4387 23.8932 47.7245 23.9045H47.9896C47.9896 24.5104 48.0469 25.7986 48.0844 26.5183L48.1035 26.7834H47.6849L47.5718 26.5374C46.7191 24.7014 46.2462 24.3026 44.8442 24.3026C44.5587 24.2701 44.2695 24.2983 43.9956 24.3853C43.7217 24.4723 43.4693 24.6161 43.2548 24.8074C43.0403 24.9986 42.8686 25.233 42.751 25.4952C42.6333 25.7574 42.5723 26.0414 42.572 26.3288C42.572 27.2945 42.7989 27.5978 44.2383 28.5445L46.2462 29.8517C47.8369 30.9114 48.4244 31.7457 48.4244 32.9362C48.4244 34.9631 46.7008 36.4209 44.3118 36.4209C43.8801 36.4215 43.4493 36.3836 43.0244 36.3078L41.7553 36.0419C41.4562 35.9838 41.1515 35.9591 40.8469 35.9685H40.8087V35.7805C40.8116 35.06 40.736 33.6206 40.6787 32.8062Z" fill="white"/>
<path id="Path 12277" d="M51.1505 27.7689H49.7646V27.39C50.3715 27.1539 50.922 26.7928 51.3803 26.3302C51.7684 25.8563 52.0698 25.3175 52.2704 24.7388L52.3439 24.5493H52.8359V27.0308H56.1128V27.7696H52.8359V33.7543C52.8359 35.0607 53.3096 35.6857 54.3319 35.6857C54.9441 35.6733 55.5484 35.5449 56.1128 35.3075L56.3023 35.7621C55.3364 36.2059 54.2953 36.463 53.2339 36.52C51.8709 36.52 51.1505 35.7621 51.1505 34.3601V27.7689Z" fill="white"/>
<path id="Path 12278" d="M62.7691 31.2528V28.526C62.7691 27.7688 62.41 27.4244 61.5765 27.4244C60.8377 27.4244 60.5909 27.5382 60.3449 27.9928C59.8308 28.9585 59.5304 29.2413 58.9811 29.2413C58.8664 29.2485 58.7515 29.2315 58.6438 29.1914C58.5361 29.1514 58.438 29.0892 58.3559 29.0088C58.2738 28.9284 58.2094 28.8316 58.1671 28.7248C58.1248 28.618 58.1053 28.5035 58.1101 28.3886C58.1101 27.4802 59.5304 26.8545 61.5757 26.8545C63.5079 26.8545 64.4546 27.5933 64.4546 29.09V33.9187C64.4332 34.0776 64.4462 34.2392 64.4927 34.3926C64.5392 34.5461 64.6181 34.6877 64.7241 34.808C64.8301 34.9283 64.9606 35.0245 65.107 35.09C65.2533 35.1555 65.412 35.1888 65.5723 35.1877C65.8382 35.1833 66.0986 35.1119 66.3295 34.9799L66.5373 35.2824C65.2683 36.1916 64.6279 36.514 64.0558 36.514C63.4499 36.514 63.1091 36.1358 62.938 35.2824C61.5177 36.1916 60.6276 36.514 59.6619 36.514C59.3544 36.5286 59.0472 36.4798 58.7593 36.3705C58.4715 36.2613 58.2092 36.0941 57.9888 35.8792C57.7684 35.6642 57.5945 35.4063 57.4781 35.1213C57.3616 34.8364 57.305 34.5305 57.3118 34.2227C57.2966 33.7842 57.4202 33.3522 57.6652 32.9882C57.9101 32.6242 58.2637 32.3468 58.6756 32.1958C59.9028 31.7387 61.1813 31.4336 62.4827 31.2873L62.7691 31.2528ZM62.7691 31.783C61.925 31.9083 61.0943 32.1114 60.2876 32.3896C59.9604 32.4941 59.676 32.7021 59.4773 32.9823C59.2787 33.2624 59.1764 33.5996 59.186 33.9429C59.1808 34.1473 59.2185 34.3506 59.2967 34.5396C59.3749 34.7285 59.4919 34.899 59.6401 35.0399C59.7882 35.1809 59.9643 35.2892 60.1569 35.358C60.3495 35.4267 60.5544 35.4542 60.7583 35.4389C61.4599 35.4072 62.1456 35.2196 62.7654 34.8895L62.7691 31.783Z" fill="white"/>
<path id="Path 12279" d="M70.7635 26.7651V28.0533C71.644 27.3823 72.7064 26.9925 73.812 26.9348C74.7403 26.9348 75.2139 27.3137 75.2139 28.0144C75.225 28.1448 75.2078 28.2762 75.1634 28.3994C75.1191 28.5226 75.0486 28.6348 74.957 28.7283C74.8653 28.8218 74.7545 28.8944 74.6322 28.9411C74.5098 28.9879 74.3789 29.0077 74.2482 28.9992C73.7929 28.9992 73.6232 28.9052 73.2626 28.3749C73.0357 28.0342 72.9028 27.9578 72.562 27.9578C71.958 27.9865 71.3713 28.169 70.8575 28.488V34.2274C70.8575 35.1733 71.047 35.4024 71.9752 35.6477L73.2443 35.9884V36.4239C72.6193 36.3674 71.9378 36.3505 70.1003 36.3505C68.3576 36.3505 67.7701 36.3703 67.2031 36.4239V35.9884L68.0932 35.6844C68.9833 35.3818 69.1735 35.1167 69.1735 34.3214V29.4927C69.1735 28.4513 68.984 28.2236 67.925 28.054L67.2053 27.9402V27.5781C67.8068 27.4856 69.5319 27.0868 70.7635 26.7651Z" fill="white"/>
<path id="Path 12280" d="M84.5717 29.5866H86.8439C87.6018 29.5866 87.8104 29.3971 88.2077 28.4115L88.4919 27.6727H88.9083C88.8899 28.2793 88.8708 28.4681 88.8708 29.3023C88.8708 29.9082 88.8899 31.0069 88.9083 31.7831V32.0483H88.4919L88.2268 31.3667C87.8295 30.3812 87.6392 30.249 86.8064 30.249H84.5724V33.9423C84.5724 35.2297 84.7428 35.4382 86.0118 35.7408L86.9585 35.9685V36.426C86.4048 36.3673 85.8477 36.3484 85.2914 36.3695L83.6625 36.3496H83.3974C82.1665 36.3496 81.4277 36.3695 80.8218 36.4231L80.8027 35.9685L81.3521 35.7981C82.5447 35.4191 82.7907 35.1158 82.7907 33.9423V26.2179C82.8372 25.8061 82.7581 25.3898 82.5638 25.0237C82.3934 24.8159 82.2231 24.7204 81.3521 24.3422L80.8027 24.0962L80.8218 23.6416C81.4757 23.7113 82.1335 23.7358 82.7907 23.715H89.0978C89.1918 23.6952 89.3438 23.6952 89.5714 23.6769L89.8748 23.6387L89.8939 23.9038L89.9129 25.2477L89.9864 26.4962L90.0047 26.7804H89.5883C88.7357 24.9246 88.2627 24.47 87.2383 24.47H84.568L84.5717 29.5866Z" fill="white"/>
<path id="Path 12281" d="M96.0184 31.2528V28.526C96.0184 27.7688 95.6585 27.4244 94.8257 27.4244C94.0869 27.4244 93.8402 27.5382 93.5941 27.9928C93.0801 28.9585 92.7797 29.2413 92.2304 29.2413C92.1157 29.2485 92.0008 29.2315 91.8931 29.1914C91.7854 29.1514 91.6873 29.0892 91.6051 29.0088C91.523 28.9284 91.4587 28.8316 91.4164 28.7248C91.374 28.618 91.3546 28.5035 91.3594 28.3886C91.3594 27.4802 92.7797 26.8545 94.8257 26.8545C96.7572 26.8545 97.7046 27.5933 97.7046 29.09V33.9187C97.6832 34.0775 97.6962 34.2391 97.7427 34.3924C97.7892 34.5458 97.868 34.6874 97.9739 34.8077C98.0798 34.928 98.2102 35.0242 98.3565 35.0898C98.5027 35.1553 98.6613 35.1887 98.8216 35.1877C99.0877 35.1834 99.3484 35.1119 99.5795 34.9799L99.7873 35.2824C98.5183 36.1916 97.8779 36.514 97.3058 36.514C96.6999 36.514 96.3592 36.1358 96.188 35.2824C94.7677 36.1916 93.8776 36.514 92.9119 36.514C92.6044 36.5287 92.2971 36.48 92.0092 36.3708C91.7214 36.2616 91.459 36.0943 91.2386 35.8794C91.0182 35.6645 90.8443 35.4065 90.7279 35.1215C90.6114 34.8364 90.5549 34.5305 90.5618 34.2227C90.5465 33.7842 90.6701 33.3521 90.915 32.9881C91.1599 32.6241 91.5136 32.3468 91.9256 32.1958C93.1528 31.7387 94.4314 31.4336 95.7327 31.2873L96.0184 31.2528ZM96.0184 31.783C95.1743 31.9083 94.3436 32.1114 93.5369 32.3896C93.2097 32.4941 92.9253 32.7021 92.7266 32.9823C92.5279 33.2624 92.4257 33.5996 92.4353 33.9429C92.4301 34.1473 92.4678 34.3505 92.5459 34.5394C92.6241 34.7283 92.741 34.8987 92.8891 35.0396C93.0372 35.1806 93.2131 35.289 93.4057 35.3577C93.5982 35.4265 93.803 35.4541 94.0069 35.4389C94.7087 35.4073 95.3946 35.2196 96.0147 34.8895L96.0184 31.783Z" fill="white"/>
<path id="Path 12282" d="M104.013 26.7461V27.8829L104.297 27.7882C106.207 27.0869 106.794 26.9356 107.763 26.9356C108.153 26.9115 108.543 26.9856 108.897 27.1511C109.251 27.3166 109.558 27.5682 109.789 27.8829L110.168 27.75C111.281 27.2562 112.477 26.9797 113.693 26.9356C115.603 26.9356 116.496 27.9211 116.496 30.0612V34.1327C116.496 35.213 116.553 35.2879 117.803 35.7814L118.371 35.9892V36.4247C117.803 36.3682 117.122 36.3513 115.606 36.3513C114.318 36.3513 113.731 36.3711 113.124 36.4247V35.9892L113.73 35.7241C114.752 35.2695 114.81 35.1939 114.81 34.0952V30.761C114.81 28.7157 114.089 27.8448 112.386 27.8448C111.57 27.8593 110.763 28.013 109.999 28.2993C110.185 28.6481 110.271 29.0417 110.246 29.4362V34.1363C110.246 35.1403 110.359 35.3297 111.212 35.7087L111.837 35.9929V36.4284C111.022 36.3718 110.719 36.355 109.47 36.355C107.973 36.355 107.634 36.3748 106.78 36.4284V35.9929L107.481 35.7278C108.428 35.3679 108.561 35.1594 108.561 34.1363V30.6663C108.64 29.942 108.466 29.2127 108.069 28.6019C107.847 28.3454 107.57 28.1436 107.257 28.0122C106.945 27.8809 106.607 27.8236 106.269 27.8448C105.91 27.8497 105.554 27.9008 105.208 27.9968L104.356 28.2237L104.109 28.2971V34.1305C104.109 35.0969 104.281 35.3789 105.095 35.7219L105.701 35.987V36.4225C105.077 36.366 104.508 36.3491 102.822 36.3491C101.72 36.3491 101.269 36.3689 100.455 36.4225V35.987L101.345 35.6463C102.254 35.3055 102.425 35.0778 102.425 34.1305V29.4736C102.425 28.8861 102.367 28.621 102.235 28.4697C102.122 28.3645 101.986 28.2869 101.838 28.2428C101.724 28.2053 101.516 28.1694 101.194 28.0915L100.455 27.902V27.5818C101.659 27.3868 102.848 27.1076 104.013 26.7461Z" fill="white"/>
<path id="Path 12283" d="M122.803 26.7466V34.1714C122.803 35.2127 122.917 35.3266 124.129 35.7812L124.698 35.989V36.4245C124.053 36.3679 123.296 36.3511 121.515 36.3511C120.398 36.3511 119.906 36.3709 119.148 36.4245V35.989L120.058 35.6482C120.853 35.3449 121.118 35.0042 121.118 34.2088V29.4352C121.118 28.3939 121.045 28.3175 119.87 28.0531L119.149 27.9003V27.5596C120.38 27.3511 121.6 27.0798 122.803 26.7466ZM120.928 23.6239C120.928 22.9806 121.269 22.6582 121.97 22.6582C122.784 22.6582 123.107 22.9241 123.107 23.5667C123.107 24.2276 122.766 24.5522 122.065 24.5522C121.288 24.5493 120.928 24.2651 120.928 23.6239Z" fill="white"/>
<path id="Path 12284" d="M129.13 21.8037V34.1489C129.13 35.2278 129.338 35.4745 130.417 35.8153L131.023 35.9864V36.4256C130.152 36.369 129.678 36.3521 128.314 36.3521C126.667 36.3521 126.175 36.372 125.473 36.4256V35.9901L126.344 35.6677C127.197 35.3453 127.446 35.0067 127.446 34.1526V24.7016C127.446 23.7734 127.181 23.5082 126.14 23.2997L125.363 23.1484V22.8076L125.553 22.7694L127.22 22.3714C127.871 22.2331 128.509 22.0433 129.13 21.8037Z" fill="white"/>
<path id="Path 12285" d="M135.433 36.2727L132.516 28.5079C132.451 28.3036 132.332 28.1204 132.172 27.9769C132.013 27.8334 131.818 27.7349 131.608 27.6912L130.774 27.3879V26.9326C131.573 27.0242 132.377 27.0558 133.18 27.0274C133.932 27.0545 134.685 27.0228 135.433 26.9326V27.3879L134.694 27.6531C134.448 27.7265 134.335 27.8609 134.335 28.0511C134.335 28.1929 134.36 28.3336 134.408 28.4668L135.998 32.937C136.151 33.3217 136.284 33.7139 136.396 34.1121L138.306 28.6041C138.367 28.4529 138.405 28.2931 138.419 28.1304C138.419 27.9593 138.306 27.8462 138.06 27.7324L137.302 27.3916V26.9363C138.088 27.0322 138.879 27.0639 139.669 27.031C140.208 27.0445 140.746 27.0128 141.279 26.9363V27.3916L140.332 27.714C140.131 27.7655 139.948 27.87 139.802 28.0165C139.655 28.163 139.551 28.3461 139.499 28.5468L135.541 38.528C134.859 40.2171 134.025 40.8781 132.492 40.8781C131.469 40.8781 130.976 40.5748 130.976 39.9689C130.976 39.4952 131.317 39.1927 131.866 39.1927C132.214 39.2012 132.548 39.3281 132.813 39.5525C132.992 39.6931 133.211 39.7727 133.438 39.7794C133.952 39.7794 134.252 39.4387 134.613 38.4538L135.433 36.2727Z" fill="white"/>
</g>
</g>
</g>
<g id="BAR">
<g id="Group 15619">
<path id="Rectangle 2134" d="M76.6497 0.5H0.961914V16.9072H76.6497V0.5Z" fill="#E45F0C"/>
<path id="Subtract" fill-rule="evenodd" clip-rule="evenodd" d="M38.8055 1.29248H1.75439V4.42908C9.77957 6.93586 18.1393 8.20744 26.5469 8.20021C30.66 8.2043 34.7573 7.90136 38.8055 7.29833V1.29248ZM1.75439 10.001V7.46581C8.8141 9.17594 16.0524 10.0388 23.3163 10.0362C28.5225 10.043 33.7041 9.60263 38.8055 8.72752V10.467C33.0938 11.5165 27.2789 12.0457 21.4318 12.0375C14.8201 12.0371 8.22606 11.3547 1.75439 10.001ZM1.75439 12.4245V16.1141H38.8055V12.016C32.3552 13.2973 25.7699 13.945 19.1427 13.9351C13.3139 13.9339 7.4961 13.4285 1.75439 12.4245Z" fill="white"/>
<path id="Subtract_2" fill-rule="evenodd" clip-rule="evenodd" d="M38.8057 12.0159V16.1141H75.8568V1.29248H68.0015C58.8521 6.38515 48.9975 9.99137 38.8057 12.0159ZM65.5493 1.29248H38.8057V7.2983C45.9851 6.22881 53.0103 4.21544 59.6954 1.29688H62.3275C54.8391 4.84126 46.9239 7.33485 38.8057 8.72749V10.4669C48.0949 8.76006 57.1112 5.67711 65.5493 1.29248Z" fill="white"/>
</g>
</g>
</g>
</g>
<defs>
<clipPath id="clip0_5033_1520">
<rect width="140.324" height="56.3019" fill="white" transform="translate(0.961914 0.5)"/>
</clipPath>
</defs>
</svg>
